M48
; DRILL file {KiCad (5.1.12)-1} date 02/12/24 03:14:53
; FORMAT={-:-/ absolute / inch / decimal}
; #@! TF.CreationDate,2024-02-12T03:14:53+09:00
; #@! TF.GenerationSoftware,Kicad,Pcbnew,(5.1.12)-1
; #@! TF.FileFunction,Plated,1,2,PTH
FMAT,2
INCH
T1C0.0157
T2C0.0394
T3C0.0437
T4C0.0669
T5C0.0866
%
G90
G05
T1
X3.4026Y-2.0049
X3.4026Y-2.0443
X3.4026Y-2.0837
X3.4026Y-2.123
X3.4026Y-2.1624
X3.4026Y-2.4774
X3.4026Y-2.5167
X3.4026Y-2.5561
X3.4134Y-3.2195
X3.4134Y-3.2589
X3.4134Y-3.2982
X3.4134Y-3.3376
X3.4134Y-3.377
X3.4134Y-3.6919
X3.4134Y-3.7313
X3.4134Y-3.7707
X3.4419Y-2.0049
X3.4419Y-2.0443
X3.4419Y-2.0837
X3.4419Y-2.123
X3.4419Y-2.1624
X3.4419Y-2.4774
X3.4419Y-2.5167
X3.4419Y-2.5561
X3.4528Y-3.2195
X3.4528Y-3.2589
X3.4528Y-3.2982
X3.4528Y-3.3376
X3.4528Y-3.377
X3.4528Y-3.6919
X3.4528Y-3.7313
X3.4528Y-3.7707
X3.4705Y-2.7165
X3.4705Y-2.7559
X3.4705Y-2.7953
X3.4705Y-2.8307
X3.4715Y-2.8671
X3.4754Y-4.622
X3.4754Y-4.6614
X3.4754Y-4.7008
X3.4754Y-4.7402
X3.4754Y-4.7795
X3.4754Y-4.8189
X3.4754Y-4.8583
X3.4754Y-4.8976
X3.4754Y-4.937
X3.4754Y-4.9764
X3.4754Y-5.0157
X3.4754Y-5.0551
X3.4754Y-5.0945
X3.4754Y-5.1339
X3.4754Y-5.1732
X3.4754Y-5.2126
X3.4754Y-5.252
X3.4754Y-5.2913
X3.4754Y-5.3307
X3.4754Y-5.3701
X3.4813Y-2.0049
X3.4813Y-2.0443
X3.4813Y-2.0837
X3.4813Y-2.123
X3.4813Y-2.1624
X3.4813Y-2.4774
X3.4813Y-2.5167
X3.4813Y-2.5561
X3.4813Y-3.9311
X3.4813Y-3.9705
X3.4813Y-4.0098
X3.4813Y-4.0453
X3.4823Y-4.0817
X3.4921Y-3.2195
X3.4921Y-3.2589
X3.4921Y-3.2982
X3.4921Y-3.3376
X3.4921Y-3.377
X3.4921Y-3.6919
X3.4921Y-3.7313
X3.4921Y-3.7707
X3.5098Y-2.7165
X3.5098Y-2.7559
X3.5098Y-2.7953
X3.5098Y-2.8307
X3.5108Y-2.8671
X3.5148Y-4.622
X3.5148Y-4.6614
X3.5148Y-4.7008
X3.5148Y-4.7402
X3.5148Y-4.7795
X3.5148Y-4.8189
X3.5148Y-4.8583
X3.5148Y-4.8976
X3.5148Y-4.937
X3.5148Y-4.9764
X3.5148Y-5.0157
X3.5148Y-5.0551
X3.5148Y-5.0945
X3.5148Y-5.1339
X3.5148Y-5.1732
X3.5148Y-5.2126
X3.5148Y-5.252
X3.5148Y-5.2913
X3.5148Y-5.3307
X3.5148Y-5.3701
X3.5207Y-3.9311
X3.5207Y-3.9705
X3.5207Y-4.0098
X3.5207Y-4.0453
X3.5217Y-4.0817
X3.5492Y-2.7165
X3.5492Y-2.7559
X3.5492Y-2.7953
X3.5492Y-2.8307
X3.5502Y-2.8671
X3.5541Y-4.622
X3.5541Y-4.6614
X3.5541Y-4.7008
X3.5541Y-4.7402
X3.5541Y-4.7795
X3.5541Y-4.8189
X3.5541Y-4.8583
X3.5541Y-4.8976
X3.5541Y-4.937
X3.5541Y-4.9764
X3.5541Y-5.0157
X3.5541Y-5.0551
X3.5541Y-5.0945
X3.5541Y-5.1339
X3.5541Y-5.1732
X3.5541Y-5.2126
X3.5541Y-5.252
X3.5541Y-5.2913
X3.5541Y-5.3307
X3.5541Y-5.3701
X3.56Y-3.9311
X3.56Y-3.9705
X3.56Y-4.0098
X3.56Y-4.0453
X3.561Y-4.0817
X3.5886Y-2.7165
X3.5886Y-2.7559
X3.5886Y-2.7953
X3.5886Y-2.8307
X3.5896Y-2.8671
X3.5935Y-4.622
X3.5935Y-4.6614
X3.5935Y-4.7008
X3.5935Y-4.7402
X3.5935Y-4.7795
X3.5935Y-4.8189
X3.5935Y-4.8583
X3.5935Y-4.8976
X3.5935Y-4.937
X3.5935Y-4.9764
X3.5935Y-5.0157
X3.5935Y-5.0551
X3.5935Y-5.0945
X3.5935Y-5.1339
X3.5935Y-5.1732
X3.5935Y-5.2126
X3.5935Y-5.252
X3.5935Y-5.2913
X3.5935Y-5.3307
X3.5935Y-5.3701
X3.5994Y-3.9311
X3.5994Y-3.9705
X3.5994Y-4.0098
X3.5994Y-4.0453
X3.6004Y-4.0817
X3.628Y-2.7165
X3.628Y-2.7559
X3.628Y-2.7953
X3.628Y-2.8307
X3.6289Y-2.8671
X3.6329Y-4.622
X3.6329Y-4.6614
X3.6329Y-4.7008
X3.6329Y-4.7402
X3.6329Y-4.7795
X3.6329Y-4.8189
X3.6329Y-4.8583
X3.6329Y-4.8976
X3.6329Y-4.937
X3.6329Y-4.9764
X3.6329Y-5.0157
X3.6329Y-5.0551
X3.6329Y-5.0945
X3.6329Y-5.1339
X3.6329Y-5.1732
X3.6329Y-5.2126
X3.6329Y-5.252
X3.6329Y-5.2913
X3.6329Y-5.3307
X3.6329Y-5.3701
X3.6388Y-3.9311
X3.6388Y-3.9705
X3.6388Y-4.0098
X3.6388Y-4.0453
X3.6398Y-4.0817
X3.6673Y-2.7165
X3.6673Y-2.7559
X3.6673Y-2.7953
X3.6673Y-2.8307
X3.6683Y-2.8671
X3.6781Y-3.9311
X3.6781Y-3.9705
X3.6781Y-4.0098
X3.6781Y-4.0453
X3.6791Y-4.0817
X3.7057Y-5.372
X3.7057Y-5.4114
X3.7057Y-5.4508
X3.7057Y-5.4902
X3.7057Y-5.5295
X3.7067Y-2.7165
X3.7067Y-2.7559
X3.7067Y-2.7953
X3.7067Y-2.8307
X3.7077Y-2.8671
X3.7175Y-3.9311
X3.7175Y-3.9705
X3.7175Y-4.0098
X3.7175Y-4.0453
X3.7185Y-4.0817
X3.7451Y-5.372
X3.7451Y-5.4114
X3.7451Y-5.4508
X3.7451Y-5.4902
X3.7451Y-5.5295
X3.7461Y-2.7165
X3.7461Y-2.7559
X3.7461Y-2.7953
X3.7461Y-2.8307
X3.747Y-2.8671
X3.7569Y-3.9311
X3.7569Y-3.9705
X3.7569Y-4.0098
X3.7569Y-4.0453
X3.7579Y-4.0817
X3.7844Y-5.372
X3.7844Y-5.4114
X3.7844Y-5.4508
X3.7844Y-5.4902
X3.7844Y-5.5295
X3.7854Y-2.7165
X3.7854Y-2.7559
X3.7854Y-2.7953
X3.7854Y-2.8307
X3.7864Y-2.8671
X3.7963Y-3.9311
X3.7963Y-3.9705
X3.7963Y-4.0098
X3.7963Y-4.0453
X3.7972Y-4.0817
X3.8238Y-4.6348
X3.8238Y-5.372
X3.8238Y-5.4114
X3.8238Y-5.4508
X3.8238Y-5.4902
X3.8238Y-5.5295
X3.8248Y-2.7165
X3.8248Y-2.7559
X3.8248Y-2.7953
X3.8248Y-2.8307
X3.8248Y-4.4862
X3.8258Y-2.8671
X3.8356Y-3.9311
X3.8356Y-3.9705
X3.8356Y-4.0098
X3.8356Y-4.0453
X3.8366Y-4.0817
X3.8632Y-5.372
X3.8632Y-5.4114
X3.8632Y-5.4508
X3.8632Y-5.4902
X3.8632Y-5.5295
X3.8642Y-2.7165
X3.8642Y-2.7559
X3.8642Y-2.7953
X3.8642Y-2.8307
X3.8652Y-2.8671
X3.875Y-3.9311
X3.875Y-3.9705
X3.875Y-4.0098
X3.875Y-4.0453
X3.876Y-4.0817
X3.9026Y-5.372
X3.9026Y-5.4114
X3.9026Y-5.4508
X3.9026Y-5.4902
X3.9026Y-5.5295
X3.9035Y-2.7165
X3.9035Y-2.7559
X3.9035Y-2.7953
X3.9035Y-2.8307
X3.9045Y-2.8671
X3.9144Y-3.9311
X3.9144Y-3.9705
X3.9144Y-4.0098
X3.9144Y-4.0453
X3.9154Y-4.0817
X3.9419Y-5.372
X3.9419Y-5.4114
X3.9419Y-5.4508
X3.9419Y-5.4902
X3.9419Y-5.5295
X3.9429Y-2.7165
X3.9429Y-2.7559
X3.9429Y-2.7953
X3.9429Y-2.8307
X3.9439Y-2.8671
X3.9537Y-3.9311
X3.9537Y-3.9705
X3.9537Y-4.0098
X3.9537Y-4.0453
X3.9547Y-4.0817
X3.9813Y-5.372
X3.9813Y-5.4114
X3.9813Y-5.4508
X3.9813Y-5.4902
X3.9823Y-2.7165
X3.9823Y-2.7559
X3.9823Y-2.7953
X3.9823Y-2.8307
X3.9833Y-2.8671
X3.9931Y-3.9311
X3.9931Y-3.9705
X3.9931Y-4.0098
X3.9931Y-4.0453
X3.9941Y-4.0817
X4.0207Y-5.372
X4.0207Y-5.4114
X4.0207Y-5.4508
X4.0217Y-2.7165
X4.0217Y-2.7559
X4.0217Y-2.7953
X4.0217Y-2.8307
X4.0226Y-2.8671
X4.0276Y-4.6171
X4.0325Y-3.9311
X4.0325Y-3.9705
X4.0325Y-4.0098
X4.0325Y-4.0453
X4.0335Y-4.0817
X4.06Y-5.372
X4.06Y-5.4114
X4.06Y-5.4508
X4.061Y-2.7165
X4.061Y-2.7559
X4.061Y-2.7953
X4.061Y-2.8307
X4.062Y-2.8671
X4.0719Y-3.9311
X4.0719Y-3.9705
X4.0719Y-4.0098
X4.0719Y-4.0453
X4.0728Y-4.0817
X4.0994Y-5.372
X4.0994Y-5.4114
X4.0994Y-5.4508
X4.1004Y-2.7165
X4.1004Y-2.7559
X4.1004Y-2.7953
X4.1004Y-2.8307
X4.1014Y-2.8671
X4.1112Y-3.9311
X4.1112Y-3.9705
X4.1112Y-4.0098
X4.1112Y-4.0453
X4.1122Y-4.0817
X4.1388Y-5.372
X4.1388Y-5.4114
X4.1388Y-5.4508
X4.1388Y-5.4902
X4.1388Y-5.5295
X4.1398Y-2.7165
X4.1398Y-2.7559
X4.1398Y-2.7953
X4.1398Y-2.8307
X4.1407Y-2.8671
X4.1506Y-3.9311
X4.1506Y-3.9705
X4.1506Y-4.0098
X4.1506Y-4.0453
X4.1516Y-4.0817
X4.1781Y-5.372
X4.1781Y-5.4114
X4.1781Y-5.4508
X4.1781Y-5.4902
X4.1781Y-5.5295
X4.1791Y-2.7165
X4.1791Y-2.7559
X4.1791Y-2.7953
X4.1791Y-2.8307
X4.1801Y-2.8671
X4.19Y-3.9311
X4.19Y-3.9705
X4.19Y-4.0098
X4.19Y-4.0453
X4.1909Y-4.0817
X4.2156Y-2.0256
X4.2156Y-2.065
X4.2156Y-2.1043
X4.2156Y-2.1437
X4.2156Y-2.1831
X4.2156Y-2.2224
X4.2156Y-2.2618
X4.2156Y-2.3012
X4.2156Y-2.3406
X4.2156Y-2.3799
X4.2156Y-2.4193
X4.2156Y-2.4587
X4.2156Y-2.498
X4.2156Y-2.5374
X4.2156Y-2.5768
X4.2175Y-5.372
X4.2175Y-5.4114
X4.2175Y-5.4508
X4.2175Y-5.4902
X4.2175Y-5.5295
X4.2185Y-2.7165
X4.2185Y-2.7559
X4.2185Y-2.7953
X4.2185Y-2.8307
X4.2195Y-2.8671
X4.2264Y-3.2402
X4.2264Y-3.2795
X4.2264Y-3.3189
X4.2264Y-3.3583
X4.2264Y-3.3976
X4.2264Y-3.437
X4.2264Y-3.4764
X4.2264Y-3.5157
X4.2264Y-3.5551
X4.2264Y-3.5945
X4.2264Y-3.6339
X4.2264Y-3.6732
X4.2264Y-3.7126
X4.2264Y-3.752
X4.2264Y-3.7913
X4.2293Y-3.9311
X4.2293Y-3.9705
X4.2293Y-4.0098
X4.2293Y-4.0453
X4.2303Y-4.0817
X4.2549Y-2.0256
X4.2549Y-2.065
X4.2549Y-2.1043
X4.2549Y-2.1437
X4.2549Y-2.1831
X4.2549Y-2.2224
X4.2549Y-2.2618
X4.2549Y-2.3012
X4.2549Y-2.3406
X4.2549Y-2.3799
X4.2549Y-2.4193
X4.2549Y-2.4587
X4.2549Y-2.498
X4.2549Y-2.5374
X4.2549Y-2.5768
X4.2569Y-5.372
X4.2569Y-5.4114
X4.2569Y-5.4508
X4.2569Y-5.4902
X4.2569Y-5.5295
X4.2657Y-3.2402
X4.2657Y-3.2795
X4.2657Y-3.3189
X4.2657Y-3.3583
X4.2657Y-3.3976
X4.2657Y-3.437
X4.2657Y-3.4764
X4.2657Y-3.5157
X4.2657Y-3.5551
X4.2657Y-3.5945
X4.2657Y-3.6339
X4.2657Y-3.6732
X4.2657Y-3.7126
X4.2657Y-3.752
X4.2657Y-3.7913
X4.2943Y-2.0256
X4.2943Y-2.065
X4.2943Y-2.1043
X4.2943Y-2.1437
X4.2943Y-2.1831
X4.2943Y-2.2224
X4.2943Y-2.2618
X4.2943Y-2.3012
X4.2943Y-2.3406
X4.2943Y-2.3799
X4.2943Y-2.4193
X4.2943Y-2.4587
X4.2943Y-2.498
X4.2943Y-2.5374
X4.2943Y-2.5768
X4.2963Y-5.372
X4.2963Y-5.4114
X4.2963Y-5.4508
X4.2963Y-5.4902
X4.2963Y-5.5295
X4.3051Y-3.2402
X4.3051Y-3.2795
X4.3051Y-3.3189
X4.3051Y-3.3583
X4.3051Y-3.3976
X4.3051Y-3.437
X4.3051Y-3.4764
X4.3051Y-3.5157
X4.3051Y-3.5551
X4.3051Y-3.5945
X4.3051Y-3.6339
X4.3051Y-3.6732
X4.3051Y-3.7126
X4.3051Y-3.752
X4.3051Y-3.7913
X4.3356Y-5.372
X4.3356Y-5.4114
X4.3356Y-5.4508
X4.3356Y-5.4902
X4.3356Y-5.5295
X4.375Y-5.372
X4.375Y-5.4114
X4.375Y-5.4508
X4.375Y-5.4902
X4.375Y-5.5295
X4.4144Y-5.372
X4.4144Y-5.4114
X4.4144Y-5.4508
X4.4144Y-5.4902
X4.4144Y-5.5295
X4.4537Y-5.372
X4.4537Y-5.4114
X4.4537Y-5.4508
X4.4537Y-5.4902
X4.4537Y-5.5295
X4.4606Y-4.5758
X4.4606Y-4.6152
X4.4606Y-4.6545
X4.4606Y-4.6939
X4.4606Y-4.7333
X4.4606Y-4.7726
X4.4606Y-4.812
X4.4606Y-4.8514
X4.4606Y-4.8907
X4.4606Y-4.9301
X4.4606Y-4.9695
X4.4606Y-5.0089
X4.4606Y-5.0482
X4.4606Y-5.0876
X4.4606Y-5.127
X4.4606Y-5.1663
X4.4606Y-5.2057
X4.4606Y-5.2451
X4.4606Y-5.2844
X4.4606Y-5.3238
X4.4764Y-1.9823
X4.4764Y-2.0217
X4.4764Y-2.061
X4.4764Y-2.1004
X4.4764Y-2.1398
X4.4764Y-2.1791
X4.4764Y-2.2185
X4.4764Y-2.2579
X4.4872Y-3.1969
X4.4872Y-3.2362
X4.4872Y-3.2756
X4.4872Y-3.315
X4.4872Y-3.3543
X4.4872Y-3.3937
X4.4872Y-3.4331
X4.4872Y-3.4724
X4.5Y-4.5758
X4.5Y-4.6152
X4.5Y-4.6545
X4.5Y-4.6939
X4.5Y-4.7333
X4.5Y-4.7726
X4.5Y-4.812
X4.5Y-4.8514
X4.5Y-4.8907
X4.5Y-4.9301
X4.5Y-4.9695
X4.5Y-5.0089
X4.5Y-5.0482
X4.5Y-5.0876
X4.5Y-5.127
X4.5Y-5.1663
X4.5Y-5.2057
X4.5Y-5.2451
X4.5Y-5.2844
X4.5Y-5.3238
X4.5157Y-1.9823
X4.5157Y-2.0217
X4.5157Y-2.061
X4.5157Y-2.1004
X4.5157Y-2.1398
X4.5157Y-2.1791
X4.5157Y-2.2185
X4.5157Y-2.2579
X4.5266Y-3.1969
X4.5266Y-3.2362
X4.5266Y-3.2756
X4.5266Y-3.315
X4.5266Y-3.3543
X4.5266Y-3.3937
X4.5266Y-3.4331
X4.5266Y-3.4724
X4.5394Y-4.5758
X4.5394Y-4.6152
X4.5394Y-4.6545
X4.5394Y-4.6939
X4.5394Y-4.7333
X4.5394Y-4.7726
X4.5394Y-4.812
X4.5394Y-4.8514
X4.5394Y-4.8907
X4.5394Y-4.9301
X4.5394Y-4.9695
X4.5394Y-5.0089
X4.5394Y-5.0482
X4.5394Y-5.0876
X4.5394Y-5.127
X4.5394Y-5.1663
X4.5394Y-5.2057
X4.5394Y-5.2451
X4.5394Y-5.2844
X4.5394Y-5.3238
X4.5522Y-1.8159
X4.5522Y-1.8553
X4.5522Y-1.8947
X4.5522Y-1.9341
X4.5551Y-1.9823
X4.5551Y-2.0217
X4.5551Y-2.061
X4.5551Y-2.1004
X4.5551Y-2.1398
X4.5551Y-2.1791
X4.5551Y-2.2185
X4.5551Y-2.2579
X4.563Y-3.0305
X4.563Y-3.0699
X4.563Y-3.1093
X4.563Y-3.1486
X4.5659Y-3.1969
X4.5659Y-3.2362
X4.5659Y-3.2756
X4.5659Y-3.315
X4.5659Y-3.3543
X4.5659Y-3.3937
X4.5659Y-3.4331
X4.5659Y-3.4724
X4.5787Y-4.5758
X4.5787Y-4.6152
X4.5787Y-4.6545
X4.5787Y-4.6939
X4.5787Y-4.7333
X4.5787Y-4.7726
X4.5787Y-4.812
X4.5787Y-4.8514
X4.5787Y-4.8907
X4.5787Y-4.9301
X4.5787Y-4.9695
X4.5787Y-5.0089
X4.5787Y-5.0482
X4.5787Y-5.0876
X4.5787Y-5.127
X4.5787Y-5.1663
X4.5787Y-5.2057
X4.5787Y-5.2451
X4.5787Y-5.2844
X4.5787Y-5.3238
X4.5915Y-1.7766
X4.5915Y-1.8159
X4.5915Y-1.8553
X4.5915Y-1.8947
X4.5915Y-1.9341
X4.6024Y-2.9911
X4.6024Y-3.0305
X4.6024Y-3.0699
X4.6024Y-3.1093
X4.6024Y-3.1486
X4.6181Y-4.5758
X4.6181Y-4.6152
X4.6181Y-4.6545
X4.6181Y-4.6939
X4.6181Y-4.7333
X4.6181Y-4.7726
X4.6181Y-4.812
X4.6181Y-4.8514
X4.6181Y-4.8907
X4.6181Y-4.9301
X4.6181Y-4.9695
X4.6181Y-5.0089
X4.6181Y-5.0482
X4.6181Y-5.0876
X4.6181Y-5.127
X4.6181Y-5.1663
X4.6181Y-5.2057
X4.6181Y-5.2451
X4.6181Y-5.2844
X4.6181Y-5.3238
X4.6309Y-1.7766
X4.6309Y-1.8159
X4.6309Y-1.8553
X4.6309Y-1.8947
X4.6309Y-1.9341
X4.6417Y-2.9911
X4.6417Y-3.0305
X4.6417Y-3.0699
X4.6417Y-3.1093
X4.6417Y-3.1486
X4.6703Y-1.7766
X4.6703Y-1.8159
X4.6703Y-1.8553
X4.6703Y-1.8947
X4.6703Y-1.9341
X4.6811Y-2.9911
X4.6811Y-3.0305
X4.6811Y-3.0699
X4.6811Y-3.1093
X4.6811Y-3.1486
X4.7096Y-1.7766
X4.7096Y-1.8159
X4.7096Y-1.8553
X4.7096Y-1.8947
X4.7096Y-1.9341
X4.7205Y-2.9911
X4.7205Y-3.0305
X4.7205Y-3.0699
X4.7205Y-3.1093
X4.7205Y-3.1486
X4.749Y-1.7766
X4.749Y-1.8159
X4.749Y-1.8553
X4.749Y-1.8947
X4.749Y-1.9341
X4.7598Y-2.9911
X4.7598Y-3.0305
X4.7598Y-3.0699
X4.7598Y-3.1093
X4.7598Y-3.1486
X4.7884Y-1.7766
X4.7884Y-1.8159
X4.7884Y-1.8553
X4.7884Y-1.8947
X4.7884Y-1.9341
X4.7992Y-2.9911
X4.7992Y-3.0305
X4.7992Y-3.0699
X4.7992Y-3.1093
X4.7992Y-3.1486
X4.8278Y-1.7766
X4.8278Y-1.8159
X4.8278Y-1.8553
X4.8278Y-1.8947
X4.8278Y-1.9341
X4.8386Y-2.9911
X4.8386Y-3.0305
X4.8386Y-3.0699
X4.8386Y-3.1093
X4.8386Y-3.1486
X4.8671Y-1.7766
X4.8671Y-1.8159
X4.8671Y-1.8553
X4.8671Y-1.8947
X4.8671Y-1.9341
X4.878Y-2.9911
X4.878Y-3.0305
X4.878Y-3.0699
X4.878Y-3.1093
X4.878Y-3.1486
X4.9065Y-1.7766
X4.9065Y-1.8159
X4.9065Y-1.8553
X4.9065Y-1.8947
X4.9065Y-1.9341
X4.9173Y-2.9911
X4.9173Y-3.0305
X4.9173Y-3.0699
X4.9173Y-3.1093
X4.9173Y-3.1486
X4.9459Y-1.7766
X4.9459Y-1.8159
X4.9459Y-1.8553
X4.9459Y-1.8947
X4.9459Y-1.9341
X4.9567Y-2.9911
X4.9567Y-3.0305
X4.9567Y-3.0699
X4.9567Y-3.1093
X4.9567Y-3.1486
X4.9852Y-1.7766
X4.9852Y-1.8159
X4.9852Y-1.8553
X4.9852Y-1.8947
X4.9852Y-1.9341
X4.9961Y-2.9911
X4.9961Y-3.0305
X4.9961Y-3.0699
X4.9961Y-3.1093
X4.9961Y-3.1486
X5.0246Y-1.7766
X5.0246Y-1.8159
X5.0246Y-1.8553
X5.0246Y-1.8947
X5.0246Y-1.9341
X5.0354Y-2.9911
X5.0354Y-3.0305
X5.0354Y-3.0699
X5.0354Y-3.1093
X5.0354Y-3.1486
X5.064Y-1.7766
X5.064Y-1.8159
X5.064Y-1.8553
X5.064Y-1.8947
X5.064Y-1.9341
X5.0748Y-2.9911
X5.0748Y-3.0305
X5.0748Y-3.0699
X5.0748Y-3.1093
X5.0748Y-3.1486
X5.1033Y-1.7766
X5.1033Y-1.8159
X5.1033Y-1.8553
X5.1033Y-1.8947
X5.1033Y-1.9341
X5.1142Y-2.9911
X5.1142Y-3.0305
X5.1142Y-3.0699
X5.1142Y-3.1093
X5.1142Y-3.1486
X5.1427Y-1.7766
X5.1427Y-1.8159
X5.1427Y-1.8553
X5.1427Y-1.8947
X5.1427Y-1.9341
X5.1535Y-2.9911
X5.1535Y-3.0305
X5.1535Y-3.0699
X5.1535Y-3.1093
X5.1535Y-3.1486
X5.1821Y-1.7766
X5.1821Y-1.8159
X5.1821Y-1.8553
X5.1821Y-1.8947
X5.1821Y-1.9341
X5.1929Y-2.9911
X5.1929Y-3.0305
X5.1929Y-3.0699
X5.1929Y-3.1093
X5.1929Y-3.1486
X5.2215Y-1.7766
X5.2215Y-1.8159
X5.2215Y-1.8553
X5.2215Y-1.8947
X5.2215Y-1.9341
X5.2323Y-2.9911
X5.2323Y-3.0305
X5.2323Y-3.0699
X5.2323Y-3.1093
X5.2323Y-3.1486
X5.2608Y-1.7766
X5.2608Y-1.8159
X5.2608Y-1.8553
X5.2608Y-1.8947
X5.2608Y-1.9341
X5.2717Y-2.9911
X5.2717Y-3.0305
X5.2717Y-3.0699
X5.2717Y-3.1093
X5.2717Y-3.1486
X5.3002Y-1.8159
X5.3002Y-1.8553
X5.3002Y-1.8947
X5.3002Y-1.9341
X5.311Y-3.0305
X5.311Y-3.0699
X5.311Y-3.1093
X5.311Y-3.1486
X5.3248Y-1.8868
X5.3248Y-1.9262
X5.3248Y-1.9656
X5.3248Y-2.0049
X5.3248Y-2.0443
X5.3248Y-2.0837
X5.3248Y-2.123
X5.3248Y-2.1624
X5.3248Y-2.2018
X5.3248Y-2.2411
X5.3356Y-3.1014
X5.3356Y-3.1407
X5.3356Y-3.1801
X5.3356Y-3.2195
X5.3356Y-3.2589
X5.3356Y-3.2982
X5.3356Y-3.3376
X5.3356Y-3.377
X5.3356Y-3.4163
X5.3356Y-3.4557
X5.3642Y-1.8868
X5.3642Y-1.9262
X5.3642Y-1.9656
X5.3642Y-2.0049
X5.3642Y-2.0443
X5.3642Y-2.0837
X5.3642Y-2.123
X5.3642Y-2.1624
X5.3642Y-2.2018
X5.3642Y-2.2411
X5.375Y-3.1014
X5.375Y-3.1407
X5.375Y-3.1801
X5.375Y-3.2195
X5.375Y-3.2589
X5.375Y-3.2982
X5.375Y-3.3376
X5.375Y-3.377
X5.375Y-3.4163
X5.375Y-3.4557
X5.4035Y-1.8868
X5.4035Y-1.9262
X5.4035Y-1.9656
X5.4035Y-2.0049
X5.4035Y-2.0443
X5.4035Y-2.0837
X5.4035Y-2.123
X5.4035Y-2.1624
X5.4035Y-2.2018
X5.4035Y-2.2411
X5.4144Y-3.1014
X5.4144Y-3.1407
X5.4144Y-3.1801
X5.4144Y-3.2195
X5.4144Y-3.2589
X5.4144Y-3.2982
X5.4144Y-3.3376
X5.4144Y-3.377
X5.4144Y-3.4163
X5.4144Y-3.4557
T2
X1.9045Y-2.8553
X1.9045Y-3.2884
X1.9045Y-3.4232
X1.9045Y-3.8563
X1.9045Y-4.5728
X1.9045Y-5.0059
X1.905Y-3.998
X1.905Y-4.4311
X2.7884Y-2.6821
X2.8159Y-4.5683
X2.8159Y-4.6683
X2.8169Y-4.8917
X2.8169Y-4.9917
X2.8199Y-3.5837
X2.8199Y-3.6837
X2.8209Y-4.2474
X2.8209Y-4.3474
X2.8258Y-3.2628
X2.8258Y-3.3628
X2.8258Y-3.9114
X2.8258Y-4.0114
X2.8278Y-2.9443
X2.8278Y-3.0443
X2.8884Y-2.6821
X3.3848Y-2.2533
X3.3848Y-2.3533
X3.3957Y-3.4679
X3.3957Y-3.5679
X3.7726Y-4.3917
X3.8726Y-4.3917
X4.5197Y-2.398
X4.5197Y-2.498
X4.5305Y-3.6126
X4.5305Y-3.7126
X5.3504Y-2.4016
X5.3504Y-2.5016
X5.3612Y-3.6161
X5.3612Y-3.7161
T3
X3.59Y-2.1323
X3.59Y-2.2323
X3.59Y-2.3323
X3.59Y-2.4323
X3.59Y-2.5323
X3.6008Y-3.3469
X3.6008Y-3.4469
X3.6008Y-3.5469
X3.6008Y-3.6469
X3.6008Y-3.7469
X3.69Y-2.1323
X3.69Y-2.2323
X3.69Y-2.3323
X3.69Y-2.4323
X3.69Y-2.5323
X3.7008Y-3.3469
X3.7008Y-3.4469
X3.7008Y-3.5469
X3.7008Y-3.6469
X3.7008Y-3.7469
X3.8094Y-4.7594
X3.8094Y-4.8594
X3.8094Y-4.9594
X3.8094Y-5.0594
X3.8094Y-5.1594
X3.9094Y-4.7594
X3.9094Y-4.8594
X3.9094Y-4.9594
X3.9094Y-5.0594
X3.9094Y-5.1594
X3.962Y-2.1303
X3.962Y-2.2303
X3.962Y-2.3303
X3.962Y-2.4303
X3.962Y-2.5303
X3.9728Y-3.3449
X3.9728Y-3.4449
X3.9728Y-3.5449
X3.9728Y-3.6449
X3.9728Y-3.7449
X4.062Y-2.1303
X4.062Y-2.2303
X4.062Y-2.3303
X4.062Y-2.4303
X4.062Y-2.5303
X4.0728Y-3.3449
X4.0728Y-3.4449
X4.0728Y-3.5449
X4.0728Y-3.6449
X4.0728Y-3.7449
X4.1776Y-4.7594
X4.1776Y-4.8594
X4.1776Y-4.9594
X4.1776Y-5.0594
X4.1776Y-5.1594
X4.2776Y-4.7594
X4.2776Y-4.8594
X4.2776Y-4.9594
X4.2776Y-5.0594
X4.2776Y-5.1594
X4.6933Y-1.9996
X4.6933Y-2.0996
X4.6933Y-2.1996
X4.6933Y-2.2996
X4.6933Y-2.3996
X4.7041Y-3.2142
X4.7041Y-3.3142
X4.7041Y-3.4142
X4.7041Y-3.5142
X4.7041Y-3.6142
X4.7933Y-1.9996
X4.7933Y-2.0996
X4.7933Y-2.1996
X4.7933Y-2.2996
X4.7933Y-2.3996
X4.8041Y-3.2142
X4.8041Y-3.3142
X4.8041Y-3.4142
X4.8041Y-3.5142
X4.8041Y-3.6142
X5.065Y-1.9974
X5.065Y-2.0974
X5.065Y-2.1974
X5.065Y-2.2974
X5.065Y-2.3974
X5.0758Y-3.212
X5.0758Y-3.312
X5.0758Y-3.412
X5.0758Y-3.512
X5.0758Y-3.612
X5.165Y-1.9974
X5.165Y-2.0974
X5.165Y-2.1974
X5.165Y-2.2974
X5.165Y-2.3974
X5.1758Y-3.212
X5.1758Y-3.312
X5.1758Y-3.412
X5.1758Y-3.512
X5.1758Y-3.612
T4
X2.2982Y-2.9734
X2.2982Y-3.1703
X2.2982Y-3.5413
X2.2982Y-3.7382
X2.2982Y-4.6909
X2.2982Y-4.8878
X2.2987Y-4.1161
X2.2987Y-4.313
T5
X1.999Y-2.6732
X2.2717Y-2.6703
X3.6614Y-1.9291
X3.6614Y-3.1437
X4.0551Y-1.9311
X4.0551Y-3.1457
X4.1457Y-4.4242
X4.5039Y-4.4134
X4.5768Y-2.7185
X4.5876Y-3.9331
X4.8179Y-2.7175
X4.8287Y-3.9321
X5.0541Y-2.7175
X5.065Y-3.9321
X5.2923Y-2.7126
X5.3031Y-3.9272
T0
M30
