%TF.GenerationSoftware,KiCad,Pcbnew,(5.1.12)-1*%
%TF.CreationDate,2024-09-26T07:51:33+09:00*%
%TF.ProjectId,imu_led_connect,696d755f-6c65-4645-9f63-6f6e6e656374,rev?*%
%TF.SameCoordinates,Original*%
%TF.FileFunction,Copper,L2,Bot*%
%TF.FilePolarity,Positive*%
%FSLAX46Y46*%
G04 Gerber Fmt 4.6, Leading zero omitted, Abs format (unit mm)*
G04 Created by KiCad (PCBNEW (5.1.12)-1) date 2024-09-26 07:51:33*
%MOMM*%
%LPD*%
G01*
G04 APERTURE LIST*
%TA.AperFunction,ComponentPad*%
%ADD10O,1.700000X1.700000*%
%TD*%
%TA.AperFunction,ComponentPad*%
%ADD11R,1.700000X1.700000*%
%TD*%
%TA.AperFunction,ComponentPad*%
%ADD12O,1.800000X1.070000*%
%TD*%
%TA.AperFunction,ComponentPad*%
%ADD13R,1.800000X1.070000*%
%TD*%
%TA.AperFunction,ViaPad*%
%ADD14C,0.800000*%
%TD*%
%TA.AperFunction,Conductor*%
%ADD15C,0.250000*%
%TD*%
%TA.AperFunction,Conductor*%
%ADD16C,0.254000*%
%TD*%
%TA.AperFunction,Conductor*%
%ADD17C,0.100000*%
%TD*%
G04 APERTURE END LIST*
D10*
%TO.P,J23,5*%
%TO.N,SRCLK*%
X60060000Y-68725000D03*
%TO.P,J23,4*%
%TO.N,RCLK*%
X57520000Y-68725000D03*
%TO.P,J23,3*%
%TO.N,SER*%
X54980000Y-68725000D03*
%TO.P,J23,2*%
%TO.N,GND*%
X52440000Y-68725000D03*
D11*
%TO.P,J23,1*%
%TO.N,+5V*%
X49900000Y-68725000D03*
%TD*%
D10*
%TO.P,J18,20*%
%TO.N,r16*%
X80550000Y-124260000D03*
%TO.P,J18,19*%
%TO.N,r15*%
X80550000Y-121720000D03*
%TO.P,J18,18*%
%TO.N,r14*%
X80550000Y-119180000D03*
%TO.P,J18,17*%
%TO.N,r13*%
X80550000Y-116640000D03*
%TO.P,J18,16*%
%TO.N,r12*%
X80550000Y-114100000D03*
%TO.P,J18,15*%
%TO.N,r11*%
X80550000Y-111560000D03*
%TO.P,J18,14*%
%TO.N,r10*%
X80550000Y-109020000D03*
%TO.P,J18,13*%
%TO.N,r9*%
X80550000Y-106480000D03*
%TO.P,J18,12*%
%TO.N,r8*%
X80550000Y-103940000D03*
%TO.P,J18,11*%
%TO.N,r7*%
X80550000Y-101400000D03*
%TO.P,J18,10*%
%TO.N,r6*%
X80550000Y-98860000D03*
%TO.P,J18,9*%
%TO.N,r5*%
X80550000Y-96320000D03*
%TO.P,J18,8*%
%TO.N,r4*%
X80550000Y-93780000D03*
%TO.P,J18,7*%
%TO.N,r3*%
X80550000Y-91240000D03*
%TO.P,J18,6*%
%TO.N,r2*%
X80550000Y-88700000D03*
%TO.P,J18,5*%
%TO.N,r1*%
X80550000Y-86160000D03*
%TO.P,J18,4*%
%TO.N,GND*%
X80550000Y-83620000D03*
%TO.P,J18,3*%
X80550000Y-81080000D03*
%TO.P,J18,2*%
X80550000Y-78540000D03*
D11*
%TO.P,J18,1*%
X80550000Y-76000000D03*
%TD*%
D10*
%TO.P,J17,20*%
%TO.N,GND*%
X66625000Y-124260000D03*
%TO.P,J17,19*%
X66625000Y-121720000D03*
%TO.P,J17,18*%
X66625000Y-119180000D03*
%TO.P,J17,17*%
X66625000Y-116640000D03*
%TO.P,J17,16*%
%TO.N,l16*%
X66625000Y-114100000D03*
%TO.P,J17,15*%
%TO.N,l15*%
X66625000Y-111560000D03*
%TO.P,J17,14*%
%TO.N,l14*%
X66625000Y-109020000D03*
%TO.P,J17,13*%
%TO.N,l13*%
X66625000Y-106480000D03*
%TO.P,J17,12*%
%TO.N,l12*%
X66625000Y-103940000D03*
%TO.P,J17,11*%
%TO.N,l11*%
X66625000Y-101400000D03*
%TO.P,J17,10*%
%TO.N,l10*%
X66625000Y-98860000D03*
%TO.P,J17,9*%
%TO.N,l9*%
X66625000Y-96320000D03*
%TO.P,J17,8*%
%TO.N,l8*%
X66625000Y-93780000D03*
%TO.P,J17,7*%
%TO.N,l7*%
X66625000Y-91240000D03*
%TO.P,J17,6*%
%TO.N,l6*%
X66625000Y-88700000D03*
%TO.P,J17,5*%
%TO.N,l5*%
X66625000Y-86160000D03*
%TO.P,J17,4*%
%TO.N,l4*%
X66625000Y-83620000D03*
%TO.P,J17,3*%
%TO.N,l3*%
X66625000Y-81080000D03*
%TO.P,J17,2*%
%TO.N,l2*%
X66625000Y-78540000D03*
D11*
%TO.P,J17,1*%
%TO.N,l1*%
X66625000Y-76000000D03*
%TD*%
D10*
%TO.P,J16,20*%
%TO.N,ur16*%
X61975000Y-124260000D03*
%TO.P,J16,19*%
%TO.N,ur15*%
X61975000Y-121720000D03*
%TO.P,J16,18*%
%TO.N,ur14*%
X61975000Y-119180000D03*
%TO.P,J16,17*%
%TO.N,ur13*%
X61975000Y-116640000D03*
%TO.P,J16,16*%
%TO.N,ur12*%
X61975000Y-114100000D03*
%TO.P,J16,15*%
%TO.N,ur11*%
X61975000Y-111560000D03*
%TO.P,J16,14*%
%TO.N,ur10*%
X61975000Y-109020000D03*
%TO.P,J16,13*%
%TO.N,ur9*%
X61975000Y-106480000D03*
%TO.P,J16,12*%
%TO.N,ur8*%
X61975000Y-103940000D03*
%TO.P,J16,11*%
%TO.N,ur7*%
X61975000Y-101400000D03*
%TO.P,J16,10*%
%TO.N,ur6*%
X61975000Y-98860000D03*
%TO.P,J16,9*%
%TO.N,ur5*%
X61975000Y-96320000D03*
%TO.P,J16,8*%
%TO.N,ur4*%
X61975000Y-93780000D03*
%TO.P,J16,7*%
%TO.N,ur3*%
X61975000Y-91240000D03*
%TO.P,J16,6*%
%TO.N,ur2*%
X61975000Y-88700000D03*
%TO.P,J16,5*%
%TO.N,ur1*%
X61975000Y-86160000D03*
%TO.P,J16,4*%
%TO.N,GND*%
X61975000Y-83620000D03*
%TO.P,J16,3*%
X61975000Y-81080000D03*
%TO.P,J16,2*%
X61975000Y-78540000D03*
D11*
%TO.P,J16,1*%
X61975000Y-76000000D03*
%TD*%
D10*
%TO.P,J15,20*%
%TO.N,GND*%
X48100000Y-124260000D03*
%TO.P,J15,19*%
X48100000Y-121720000D03*
%TO.P,J15,18*%
X48100000Y-119180000D03*
%TO.P,J15,17*%
X48100000Y-116640000D03*
%TO.P,J15,16*%
%TO.N,ul16*%
X48100000Y-114100000D03*
%TO.P,J15,15*%
%TO.N,ul15*%
X48100000Y-111560000D03*
%TO.P,J15,14*%
%TO.N,ul14*%
X48100000Y-109020000D03*
%TO.P,J15,13*%
%TO.N,ul13*%
X48100000Y-106480000D03*
%TO.P,J15,12*%
%TO.N,ul12*%
X48100000Y-103940000D03*
%TO.P,J15,11*%
%TO.N,ul11*%
X48100000Y-101400000D03*
%TO.P,J15,10*%
%TO.N,ul10*%
X48100000Y-98860000D03*
%TO.P,J15,9*%
%TO.N,ul9*%
X48100000Y-96320000D03*
%TO.P,J15,8*%
%TO.N,ul8*%
X48100000Y-93780000D03*
%TO.P,J15,7*%
%TO.N,ul7*%
X48100000Y-91240000D03*
%TO.P,J15,6*%
%TO.N,ul6*%
X48100000Y-88700000D03*
%TO.P,J15,5*%
%TO.N,ul5*%
X48100000Y-86160000D03*
%TO.P,J15,4*%
%TO.N,ul4*%
X48100000Y-83620000D03*
%TO.P,J15,3*%
%TO.N,ul3*%
X48100000Y-81080000D03*
%TO.P,J15,2*%
%TO.N,ul2*%
X48100000Y-78540000D03*
D11*
%TO.P,J15,1*%
%TO.N,ul1*%
X48100000Y-76000000D03*
%TD*%
%TO.P,R11,2*%
%TO.N,GND*%
%TA.AperFunction,SMDPad,CuDef*%
G36*
G01*
X70799999Y-130200000D02*
X71700001Y-130200000D01*
G75*
G02*
X71950000Y-130449999I0J-249999D01*
G01*
X71950000Y-131150001D01*
G75*
G02*
X71700001Y-131400000I-249999J0D01*
G01*
X70799999Y-131400000D01*
G75*
G02*
X70550000Y-131150001I0J249999D01*
G01*
X70550000Y-130449999D01*
G75*
G02*
X70799999Y-130200000I249999J0D01*
G01*
G37*
%TD.AperFunction*%
%TO.P,R11,1*%
%TO.N,Net-(D12-Pad3)*%
%TA.AperFunction,SMDPad,CuDef*%
G36*
G01*
X70799999Y-128200000D02*
X71700001Y-128200000D01*
G75*
G02*
X71950000Y-128449999I0J-249999D01*
G01*
X71950000Y-129150001D01*
G75*
G02*
X71700001Y-129400000I-249999J0D01*
G01*
X70799999Y-129400000D01*
G75*
G02*
X70550000Y-129150001I0J249999D01*
G01*
X70550000Y-128449999D01*
G75*
G02*
X70799999Y-128200000I249999J0D01*
G01*
G37*
%TD.AperFunction*%
%TD*%
%TO.P,R10,2*%
%TO.N,GND*%
%TA.AperFunction,SMDPad,CuDef*%
G36*
G01*
X71024999Y-124575000D02*
X71925001Y-124575000D01*
G75*
G02*
X72175000Y-124824999I0J-249999D01*
G01*
X72175000Y-125525001D01*
G75*
G02*
X71925001Y-125775000I-249999J0D01*
G01*
X71024999Y-125775000D01*
G75*
G02*
X70775000Y-125525001I0J249999D01*
G01*
X70775000Y-124824999D01*
G75*
G02*
X71024999Y-124575000I249999J0D01*
G01*
G37*
%TD.AperFunction*%
%TO.P,R10,1*%
%TO.N,Net-(D11-Pad3)*%
%TA.AperFunction,SMDPad,CuDef*%
G36*
G01*
X71024999Y-122575000D02*
X71925001Y-122575000D01*
G75*
G02*
X72175000Y-122824999I0J-249999D01*
G01*
X72175000Y-123525001D01*
G75*
G02*
X71925001Y-123775000I-249999J0D01*
G01*
X71024999Y-123775000D01*
G75*
G02*
X70775000Y-123525001I0J249999D01*
G01*
X70775000Y-122824999D01*
G75*
G02*
X71024999Y-122575000I249999J0D01*
G01*
G37*
%TD.AperFunction*%
%TD*%
%TO.P,R9,2*%
%TO.N,GND*%
%TA.AperFunction,SMDPad,CuDef*%
G36*
G01*
X71074999Y-118775000D02*
X71975001Y-118775000D01*
G75*
G02*
X72225000Y-119024999I0J-249999D01*
G01*
X72225000Y-119725001D01*
G75*
G02*
X71975001Y-119975000I-249999J0D01*
G01*
X71074999Y-119975000D01*
G75*
G02*
X70825000Y-119725001I0J249999D01*
G01*
X70825000Y-119024999D01*
G75*
G02*
X71074999Y-118775000I249999J0D01*
G01*
G37*
%TD.AperFunction*%
%TO.P,R9,1*%
%TO.N,Net-(D10-Pad3)*%
%TA.AperFunction,SMDPad,CuDef*%
G36*
G01*
X71074999Y-116775000D02*
X71975001Y-116775000D01*
G75*
G02*
X72225000Y-117024999I0J-249999D01*
G01*
X72225000Y-117725001D01*
G75*
G02*
X71975001Y-117975000I-249999J0D01*
G01*
X71074999Y-117975000D01*
G75*
G02*
X70825000Y-117725001I0J249999D01*
G01*
X70825000Y-117024999D01*
G75*
G02*
X71074999Y-116775000I249999J0D01*
G01*
G37*
%TD.AperFunction*%
%TD*%
%TO.P,R8,2*%
%TO.N,GND*%
%TA.AperFunction,SMDPad,CuDef*%
G36*
G01*
X71024999Y-112800000D02*
X71925001Y-112800000D01*
G75*
G02*
X72175000Y-113049999I0J-249999D01*
G01*
X72175000Y-113750001D01*
G75*
G02*
X71925001Y-114000000I-249999J0D01*
G01*
X71024999Y-114000000D01*
G75*
G02*
X70775000Y-113750001I0J249999D01*
G01*
X70775000Y-113049999D01*
G75*
G02*
X71024999Y-112800000I249999J0D01*
G01*
G37*
%TD.AperFunction*%
%TO.P,R8,1*%
%TO.N,Net-(D9-Pad3)*%
%TA.AperFunction,SMDPad,CuDef*%
G36*
G01*
X71024999Y-110800000D02*
X71925001Y-110800000D01*
G75*
G02*
X72175000Y-111049999I0J-249999D01*
G01*
X72175000Y-111750001D01*
G75*
G02*
X71925001Y-112000000I-249999J0D01*
G01*
X71024999Y-112000000D01*
G75*
G02*
X70775000Y-111750001I0J249999D01*
G01*
X70775000Y-111049999D01*
G75*
G02*
X71024999Y-110800000I249999J0D01*
G01*
G37*
%TD.AperFunction*%
%TD*%
%TO.P,R7,2*%
%TO.N,GND*%
%TA.AperFunction,SMDPad,CuDef*%
G36*
G01*
X70999999Y-107175000D02*
X71900001Y-107175000D01*
G75*
G02*
X72150000Y-107424999I0J-249999D01*
G01*
X72150000Y-108125001D01*
G75*
G02*
X71900001Y-108375000I-249999J0D01*
G01*
X70999999Y-108375000D01*
G75*
G02*
X70750000Y-108125001I0J249999D01*
G01*
X70750000Y-107424999D01*
G75*
G02*
X70999999Y-107175000I249999J0D01*
G01*
G37*
%TD.AperFunction*%
%TO.P,R7,1*%
%TO.N,Net-(D8-Pad3)*%
%TA.AperFunction,SMDPad,CuDef*%
G36*
G01*
X70999999Y-105175000D02*
X71900001Y-105175000D01*
G75*
G02*
X72150000Y-105424999I0J-249999D01*
G01*
X72150000Y-106125001D01*
G75*
G02*
X71900001Y-106375000I-249999J0D01*
G01*
X70999999Y-106375000D01*
G75*
G02*
X70750000Y-106125001I0J249999D01*
G01*
X70750000Y-105424999D01*
G75*
G02*
X70999999Y-105175000I249999J0D01*
G01*
G37*
%TD.AperFunction*%
%TD*%
%TO.P,R6,2*%
%TO.N,GND*%
%TA.AperFunction,SMDPad,CuDef*%
G36*
G01*
X70849999Y-101575000D02*
X71750001Y-101575000D01*
G75*
G02*
X72000000Y-101824999I0J-249999D01*
G01*
X72000000Y-102525001D01*
G75*
G02*
X71750001Y-102775000I-249999J0D01*
G01*
X70849999Y-102775000D01*
G75*
G02*
X70600000Y-102525001I0J249999D01*
G01*
X70600000Y-101824999D01*
G75*
G02*
X70849999Y-101575000I249999J0D01*
G01*
G37*
%TD.AperFunction*%
%TO.P,R6,1*%
%TO.N,Net-(D7-Pad3)*%
%TA.AperFunction,SMDPad,CuDef*%
G36*
G01*
X70849999Y-99575000D02*
X71750001Y-99575000D01*
G75*
G02*
X72000000Y-99824999I0J-249999D01*
G01*
X72000000Y-100525001D01*
G75*
G02*
X71750001Y-100775000I-249999J0D01*
G01*
X70849999Y-100775000D01*
G75*
G02*
X70600000Y-100525001I0J249999D01*
G01*
X70600000Y-99824999D01*
G75*
G02*
X70849999Y-99575000I249999J0D01*
G01*
G37*
%TD.AperFunction*%
%TD*%
%TO.P,R5,2*%
%TO.N,GND*%
%TA.AperFunction,SMDPad,CuDef*%
G36*
G01*
X76575001Y-93100000D02*
X75674999Y-93100000D01*
G75*
G02*
X75425000Y-92850001I0J249999D01*
G01*
X75425000Y-92149999D01*
G75*
G02*
X75674999Y-91900000I249999J0D01*
G01*
X76575001Y-91900000D01*
G75*
G02*
X76825000Y-92149999I0J-249999D01*
G01*
X76825000Y-92850001D01*
G75*
G02*
X76575001Y-93100000I-249999J0D01*
G01*
G37*
%TD.AperFunction*%
%TO.P,R5,1*%
%TO.N,Net-(D6-Pad3)*%
%TA.AperFunction,SMDPad,CuDef*%
G36*
G01*
X76575001Y-95100000D02*
X75674999Y-95100000D01*
G75*
G02*
X75425000Y-94850001I0J249999D01*
G01*
X75425000Y-94149999D01*
G75*
G02*
X75674999Y-93900000I249999J0D01*
G01*
X76575001Y-93900000D01*
G75*
G02*
X76825000Y-94149999I0J-249999D01*
G01*
X76825000Y-94850001D01*
G75*
G02*
X76575001Y-95100000I-249999J0D01*
G01*
G37*
%TD.AperFunction*%
%TD*%
%TO.P,R4,2*%
%TO.N,GND*%
%TA.AperFunction,SMDPad,CuDef*%
G36*
G01*
X76475001Y-87350000D02*
X75574999Y-87350000D01*
G75*
G02*
X75325000Y-87100001I0J249999D01*
G01*
X75325000Y-86399999D01*
G75*
G02*
X75574999Y-86150000I249999J0D01*
G01*
X76475001Y-86150000D01*
G75*
G02*
X76725000Y-86399999I0J-249999D01*
G01*
X76725000Y-87100001D01*
G75*
G02*
X76475001Y-87350000I-249999J0D01*
G01*
G37*
%TD.AperFunction*%
%TO.P,R4,1*%
%TO.N,Net-(D5-Pad3)*%
%TA.AperFunction,SMDPad,CuDef*%
G36*
G01*
X76475001Y-89350000D02*
X75574999Y-89350000D01*
G75*
G02*
X75325000Y-89100001I0J249999D01*
G01*
X75325000Y-88399999D01*
G75*
G02*
X75574999Y-88150000I249999J0D01*
G01*
X76475001Y-88150000D01*
G75*
G02*
X76725000Y-88399999I0J-249999D01*
G01*
X76725000Y-89100001D01*
G75*
G02*
X76475001Y-89350000I-249999J0D01*
G01*
G37*
%TD.AperFunction*%
%TD*%
%TO.P,R3,2*%
%TO.N,GND*%
%TA.AperFunction,SMDPad,CuDef*%
G36*
G01*
X76575001Y-81750000D02*
X75674999Y-81750000D01*
G75*
G02*
X75425000Y-81500001I0J249999D01*
G01*
X75425000Y-80799999D01*
G75*
G02*
X75674999Y-80550000I249999J0D01*
G01*
X76575001Y-80550000D01*
G75*
G02*
X76825000Y-80799999I0J-249999D01*
G01*
X76825000Y-81500001D01*
G75*
G02*
X76575001Y-81750000I-249999J0D01*
G01*
G37*
%TD.AperFunction*%
%TO.P,R3,1*%
%TO.N,Net-(D4-Pad3)*%
%TA.AperFunction,SMDPad,CuDef*%
G36*
G01*
X76575001Y-83750000D02*
X75674999Y-83750000D01*
G75*
G02*
X75425000Y-83500001I0J249999D01*
G01*
X75425000Y-82799999D01*
G75*
G02*
X75674999Y-82550000I249999J0D01*
G01*
X76575001Y-82550000D01*
G75*
G02*
X76825000Y-82799999I0J-249999D01*
G01*
X76825000Y-83500001D01*
G75*
G02*
X76575001Y-83750000I-249999J0D01*
G01*
G37*
%TD.AperFunction*%
%TD*%
%TO.P,R2,2*%
%TO.N,GND*%
%TA.AperFunction,SMDPad,CuDef*%
G36*
G01*
X76325001Y-76075000D02*
X75424999Y-76075000D01*
G75*
G02*
X75175000Y-75825001I0J249999D01*
G01*
X75175000Y-75124999D01*
G75*
G02*
X75424999Y-74875000I249999J0D01*
G01*
X76325001Y-74875000D01*
G75*
G02*
X76575000Y-75124999I0J-249999D01*
G01*
X76575000Y-75825001D01*
G75*
G02*
X76325001Y-76075000I-249999J0D01*
G01*
G37*
%TD.AperFunction*%
%TO.P,R2,1*%
%TO.N,Net-(D3-Pad3)*%
%TA.AperFunction,SMDPad,CuDef*%
G36*
G01*
X76325001Y-78075000D02*
X75424999Y-78075000D01*
G75*
G02*
X75175000Y-77825001I0J249999D01*
G01*
X75175000Y-77124999D01*
G75*
G02*
X75424999Y-76875000I249999J0D01*
G01*
X76325001Y-76875000D01*
G75*
G02*
X76575000Y-77124999I0J-249999D01*
G01*
X76575000Y-77825001D01*
G75*
G02*
X76325001Y-78075000I-249999J0D01*
G01*
G37*
%TD.AperFunction*%
%TD*%
%TO.P,R1,2*%
%TO.N,GND*%
%TA.AperFunction,SMDPad,CuDef*%
G36*
G01*
X76450001Y-69850000D02*
X75549999Y-69850000D01*
G75*
G02*
X75300000Y-69600001I0J249999D01*
G01*
X75300000Y-68899999D01*
G75*
G02*
X75549999Y-68650000I249999J0D01*
G01*
X76450001Y-68650000D01*
G75*
G02*
X76700000Y-68899999I0J-249999D01*
G01*
X76700000Y-69600001D01*
G75*
G02*
X76450001Y-69850000I-249999J0D01*
G01*
G37*
%TD.AperFunction*%
%TO.P,R1,1*%
%TO.N,Net-(D2-Pad3)*%
%TA.AperFunction,SMDPad,CuDef*%
G36*
G01*
X76450001Y-71850000D02*
X75549999Y-71850000D01*
G75*
G02*
X75300000Y-71600001I0J249999D01*
G01*
X75300000Y-70899999D01*
G75*
G02*
X75549999Y-70650000I249999J0D01*
G01*
X76450001Y-70650000D01*
G75*
G02*
X76700000Y-70899999I0J-249999D01*
G01*
X76700000Y-71600001D01*
G75*
G02*
X76450001Y-71850000I-249999J0D01*
G01*
G37*
%TD.AperFunction*%
%TD*%
D12*
%TO.P,D12,4*%
%TO.N,Net-(D12-Pad4)*%
X73600000Y-127640000D03*
%TO.P,D12,3*%
%TO.N,Net-(D12-Pad3)*%
X73600000Y-128910000D03*
%TO.P,D12,2*%
%TO.N,r15*%
X73600000Y-130180000D03*
D13*
%TO.P,D12,1*%
%TO.N,r16*%
X73600000Y-131450000D03*
%TD*%
D12*
%TO.P,D11,4*%
%TO.N,r14*%
X73625000Y-121715000D03*
%TO.P,D11,3*%
%TO.N,Net-(D11-Pad3)*%
X73625000Y-122985000D03*
%TO.P,D11,2*%
%TO.N,r12*%
X73625000Y-124255000D03*
D13*
%TO.P,D11,1*%
%TO.N,r13*%
X73625000Y-125525000D03*
%TD*%
D12*
%TO.P,D10,4*%
%TO.N,r11*%
X73725000Y-116015000D03*
%TO.P,D10,3*%
%TO.N,Net-(D10-Pad3)*%
X73725000Y-117285000D03*
%TO.P,D10,2*%
%TO.N,r9*%
X73725000Y-118555000D03*
D13*
%TO.P,D10,1*%
%TO.N,r10*%
X73725000Y-119825000D03*
%TD*%
D12*
%TO.P,D9,4*%
%TO.N,r8*%
X73675000Y-110085000D03*
%TO.P,D9,3*%
%TO.N,Net-(D9-Pad3)*%
X73675000Y-111355000D03*
%TO.P,D9,2*%
%TO.N,r6*%
X73675000Y-112625000D03*
D13*
%TO.P,D9,1*%
%TO.N,r7*%
X73675000Y-113895000D03*
%TD*%
D12*
%TO.P,D8,4*%
%TO.N,r5*%
X73625000Y-104440000D03*
%TO.P,D8,3*%
%TO.N,Net-(D8-Pad3)*%
X73625000Y-105710000D03*
%TO.P,D8,2*%
%TO.N,r3*%
X73625000Y-106980000D03*
D13*
%TO.P,D8,1*%
%TO.N,r4*%
X73625000Y-108250000D03*
%TD*%
D12*
%TO.P,D7,4*%
%TO.N,r2*%
X73600000Y-98805000D03*
%TO.P,D7,3*%
%TO.N,Net-(D7-Pad3)*%
X73600000Y-100075000D03*
%TO.P,D7,2*%
%TO.N,l16*%
X73600000Y-101345000D03*
D13*
%TO.P,D7,1*%
%TO.N,r1*%
X73600000Y-102615000D03*
%TD*%
D12*
%TO.P,D6,4*%
%TO.N,l15*%
X73625000Y-93080000D03*
%TO.P,D6,3*%
%TO.N,Net-(D6-Pad3)*%
X73625000Y-94350000D03*
%TO.P,D6,2*%
%TO.N,l13*%
X73625000Y-95620000D03*
D13*
%TO.P,D6,1*%
%TO.N,l14*%
X73625000Y-96890000D03*
%TD*%
D12*
%TO.P,D5,4*%
%TO.N,l12*%
X73600000Y-87440000D03*
%TO.P,D5,3*%
%TO.N,Net-(D5-Pad3)*%
X73600000Y-88710000D03*
%TO.P,D5,2*%
%TO.N,l10*%
X73600000Y-89980000D03*
D13*
%TO.P,D5,1*%
%TO.N,l11*%
X73600000Y-91250000D03*
%TD*%
D12*
%TO.P,D4,4*%
%TO.N,l9*%
X73625000Y-81765000D03*
%TO.P,D4,3*%
%TO.N,Net-(D4-Pad3)*%
X73625000Y-83035000D03*
%TO.P,D4,2*%
%TO.N,l7*%
X73625000Y-84305000D03*
D13*
%TO.P,D4,1*%
%TO.N,l8*%
X73625000Y-85575000D03*
%TD*%
D12*
%TO.P,D3,4*%
%TO.N,l6*%
X73600000Y-76110000D03*
%TO.P,D3,3*%
%TO.N,Net-(D3-Pad3)*%
X73600000Y-77380000D03*
%TO.P,D3,2*%
%TO.N,l4*%
X73600000Y-78650000D03*
D13*
%TO.P,D3,1*%
%TO.N,l5*%
X73600000Y-79920000D03*
%TD*%
%TO.P,D2,1*%
%TO.N,l2*%
X73600000Y-73920000D03*
D12*
%TO.P,D2,2*%
%TO.N,l1*%
X73600000Y-72650000D03*
%TO.P,D2,3*%
%TO.N,Net-(D2-Pad3)*%
X73600000Y-71380000D03*
%TO.P,D2,4*%
%TO.N,l3*%
X73600000Y-70110000D03*
%TD*%
%TO.P,C4,2*%
%TO.N,GND*%
%TA.AperFunction,SMDPad,CuDef*%
G36*
G01*
X53100000Y-123975000D02*
X53100000Y-124925000D01*
G75*
G02*
X52850000Y-125175000I-250000J0D01*
G01*
X52175000Y-125175000D01*
G75*
G02*
X51925000Y-124925000I0J250000D01*
G01*
X51925000Y-123975000D01*
G75*
G02*
X52175000Y-123725000I250000J0D01*
G01*
X52850000Y-123725000D01*
G75*
G02*
X53100000Y-123975000I0J-250000D01*
G01*
G37*
%TD.AperFunction*%
%TO.P,C4,1*%
%TO.N,+5V*%
%TA.AperFunction,SMDPad,CuDef*%
G36*
G01*
X55175000Y-123975000D02*
X55175000Y-124925000D01*
G75*
G02*
X54925000Y-125175000I-250000J0D01*
G01*
X54250000Y-125175000D01*
G75*
G02*
X54000000Y-124925000I0J250000D01*
G01*
X54000000Y-123975000D01*
G75*
G02*
X54250000Y-123725000I250000J0D01*
G01*
X54925000Y-123725000D01*
G75*
G02*
X55175000Y-123975000I0J-250000D01*
G01*
G37*
%TD.AperFunction*%
%TD*%
%TO.P,C3,2*%
%TO.N,GND*%
%TA.AperFunction,SMDPad,CuDef*%
G36*
G01*
X53150000Y-121600000D02*
X53150000Y-122550000D01*
G75*
G02*
X52900000Y-122800000I-250000J0D01*
G01*
X52225000Y-122800000D01*
G75*
G02*
X51975000Y-122550000I0J250000D01*
G01*
X51975000Y-121600000D01*
G75*
G02*
X52225000Y-121350000I250000J0D01*
G01*
X52900000Y-121350000D01*
G75*
G02*
X53150000Y-121600000I0J-250000D01*
G01*
G37*
%TD.AperFunction*%
%TO.P,C3,1*%
%TO.N,+5V*%
%TA.AperFunction,SMDPad,CuDef*%
G36*
G01*
X55225000Y-121600000D02*
X55225000Y-122550000D01*
G75*
G02*
X54975000Y-122800000I-250000J0D01*
G01*
X54300000Y-122800000D01*
G75*
G02*
X54050000Y-122550000I0J250000D01*
G01*
X54050000Y-121600000D01*
G75*
G02*
X54300000Y-121350000I250000J0D01*
G01*
X54975000Y-121350000D01*
G75*
G02*
X55225000Y-121600000I0J-250000D01*
G01*
G37*
%TD.AperFunction*%
%TD*%
%TO.P,C2,2*%
%TO.N,GND*%
%TA.AperFunction,SMDPad,CuDef*%
G36*
G01*
X55925000Y-82325000D02*
X54975000Y-82325000D01*
G75*
G02*
X54725000Y-82075000I0J250000D01*
G01*
X54725000Y-81400000D01*
G75*
G02*
X54975000Y-81150000I250000J0D01*
G01*
X55925000Y-81150000D01*
G75*
G02*
X56175000Y-81400000I0J-250000D01*
G01*
X56175000Y-82075000D01*
G75*
G02*
X55925000Y-82325000I-250000J0D01*
G01*
G37*
%TD.AperFunction*%
%TO.P,C2,1*%
%TO.N,+5V*%
%TA.AperFunction,SMDPad,CuDef*%
G36*
G01*
X55925000Y-84400000D02*
X54975000Y-84400000D01*
G75*
G02*
X54725000Y-84150000I0J250000D01*
G01*
X54725000Y-83475000D01*
G75*
G02*
X54975000Y-83225000I250000J0D01*
G01*
X55925000Y-83225000D01*
G75*
G02*
X56175000Y-83475000I0J-250000D01*
G01*
X56175000Y-84150000D01*
G75*
G02*
X55925000Y-84400000I-250000J0D01*
G01*
G37*
%TD.AperFunction*%
%TD*%
%TO.P,C1,2*%
%TO.N,GND*%
%TA.AperFunction,SMDPad,CuDef*%
G36*
G01*
X55825000Y-74587500D02*
X54875000Y-74587500D01*
G75*
G02*
X54625000Y-74337500I0J250000D01*
G01*
X54625000Y-73662500D01*
G75*
G02*
X54875000Y-73412500I250000J0D01*
G01*
X55825000Y-73412500D01*
G75*
G02*
X56075000Y-73662500I0J-250000D01*
G01*
X56075000Y-74337500D01*
G75*
G02*
X55825000Y-74587500I-250000J0D01*
G01*
G37*
%TD.AperFunction*%
%TO.P,C1,1*%
%TO.N,+5V*%
%TA.AperFunction,SMDPad,CuDef*%
G36*
G01*
X55825000Y-76662500D02*
X54875000Y-76662500D01*
G75*
G02*
X54625000Y-76412500I0J250000D01*
G01*
X54625000Y-75737500D01*
G75*
G02*
X54875000Y-75487500I250000J0D01*
G01*
X55825000Y-75487500D01*
G75*
G02*
X56075000Y-75737500I0J-250000D01*
G01*
X56075000Y-76412500D01*
G75*
G02*
X55825000Y-76662500I-250000J0D01*
G01*
G37*
%TD.AperFunction*%
%TD*%
D14*
%TO.N,GND*%
X55450000Y-81737500D03*
X55150000Y-88425000D03*
X77500000Y-126850000D03*
X79250000Y-130075000D03*
X76175000Y-115800000D03*
X78725000Y-113450000D03*
X78300000Y-109975000D03*
X77975000Y-107925000D03*
X76125000Y-100025000D03*
X79075000Y-97400000D03*
X68975000Y-109250000D03*
X70275000Y-102175000D03*
X69700000Y-76000000D03*
X69275000Y-77600000D03*
X70875000Y-71525000D03*
X50050000Y-106900000D03*
X51650000Y-93500000D03*
X51500000Y-119800000D03*
X55125000Y-78800000D03*
X51700000Y-81200000D03*
X48150000Y-71950000D03*
X61775000Y-71850000D03*
X67250000Y-67200000D03*
X76850000Y-66525000D03*
X71575000Y-98700000D03*
X75525000Y-96150000D03*
X75925000Y-90725000D03*
X75925000Y-84825000D03*
X78475000Y-84950000D03*
X71800000Y-83275000D03*
X71325000Y-104175000D03*
X71600000Y-109675000D03*
X71275000Y-115450000D03*
X71275000Y-121175000D03*
X59700000Y-120325000D03*
X57200000Y-113850000D03*
X60500000Y-100275000D03*
X59075000Y-87925000D03*
X57275000Y-76400000D03*
X57425000Y-86125000D03*
X55175000Y-89475000D03*
X77900000Y-93350000D03*
X76575000Y-73625000D03*
X77300000Y-79225000D03*
X71675000Y-80975000D03*
X69750000Y-113525000D03*
X71425000Y-107800000D03*
X71250000Y-113450000D03*
X71400000Y-119850000D03*
X58000000Y-125000000D03*
X60450000Y-115500000D03*
X62475000Y-73750000D03*
X53975000Y-72800000D03*
X57475000Y-82025000D03*
X63124532Y-94998795D03*
X78950000Y-98374998D03*
X59725000Y-108725000D03*
X60050000Y-110275000D03*
X54450000Y-91425000D03*
X59150158Y-95925162D03*
X54400000Y-94025000D03*
X80350000Y-69150000D03*
%TO.N,+5V*%
X54637500Y-122075000D03*
X54587500Y-124450000D03*
X55350000Y-76075000D03*
X58575000Y-105350000D03*
X53625000Y-110950000D03*
X58488000Y-110175010D03*
X58499998Y-108350000D03*
X56750000Y-71400000D03*
X55525000Y-83650000D03*
X58591653Y-97783653D03*
X55950006Y-87500000D03*
%TO.N,SER*%
X58975000Y-75000000D03*
%TO.N,RCLK*%
X59038000Y-89085000D03*
X56700000Y-89624990D03*
X58963000Y-77435000D03*
%TO.N,SRCLK*%
X59038000Y-90355000D03*
X58963000Y-78705000D03*
X56250010Y-92307232D03*
%TO.N,Net-(IC3-Pad9)*%
X59025000Y-82700000D03*
X59038000Y-86545000D03*
%TO.N,Net-(IC5-Pad9)*%
X56275000Y-108525000D03*
X56793390Y-106770622D03*
%TO.N,r5*%
X77265160Y-97315160D03*
%TO.N,r8*%
X77825000Y-104400000D03*
%TO.N,r11*%
X76425010Y-112300000D03*
%TO.N,r14*%
X77375000Y-119225000D03*
%TO.N,ul8*%
X53900000Y-80075000D03*
%TO.N,ul7*%
X53125000Y-78700000D03*
%TO.N,ul6*%
X51887000Y-77435000D03*
%TO.N,ul5*%
X50900021Y-76375000D03*
%TO.N,ul15*%
X55525000Y-91000000D03*
X53524990Y-96100000D03*
%TO.N,ul11*%
X53599998Y-89600000D03*
%TO.N,ul10*%
X53325000Y-84475000D03*
%TO.N,ur8*%
X51525000Y-105425000D03*
%TO.N,ur7*%
X51525000Y-104100000D03*
%TO.N,ur6*%
X51450000Y-102950000D03*
%TO.N,ur5*%
X51425000Y-101550000D03*
%TO.N,ur4*%
X51500000Y-100325000D03*
%TO.N,ur3*%
X51500000Y-99025000D03*
%TO.N,ur2*%
X51475160Y-97775160D03*
%TO.N,ur16*%
X51425000Y-117525000D03*
%TO.N,ur15*%
X51400000Y-116250000D03*
%TO.N,ur14*%
X51450000Y-114950000D03*
%TO.N,ur13*%
X51275000Y-113775000D03*
%TO.N,ur12*%
X51450000Y-112475000D03*
%TO.N,ur11*%
X51450000Y-111200000D03*
%TO.N,ur10*%
X51375000Y-109900000D03*
%TD*%
D15*
%TO.N,GND*%
X59075000Y-87775000D02*
X57425000Y-86125000D01*
X59075000Y-87925000D02*
X59075000Y-87775000D01*
X57425000Y-82075000D02*
X57475000Y-82025000D01*
X57425000Y-86125000D02*
X57425000Y-82075000D01*
X76125000Y-100025000D02*
X77775002Y-98374998D01*
X77775002Y-98374998D02*
X78950000Y-98374998D01*
X60485001Y-115464999D02*
X60450000Y-115500000D01*
X62349003Y-115464999D02*
X60485001Y-115464999D01*
X63150001Y-114664001D02*
X62349003Y-115464999D01*
X63150001Y-110995999D02*
X63150001Y-114664001D01*
X62429002Y-110275000D02*
X63150001Y-110995999D01*
X60050000Y-110275000D02*
X62429002Y-110275000D01*
X55175000Y-89475000D02*
X54450000Y-90200000D01*
X54450000Y-90200000D02*
X54450000Y-91425000D01*
X60076525Y-94998795D02*
X59150158Y-95925162D01*
X63124532Y-94998795D02*
X60076525Y-94998795D01*
X54400000Y-91475000D02*
X54450000Y-91425000D01*
X54400000Y-94025000D02*
X54400000Y-91475000D01*
%TO.N,+5V*%
X58437990Y-110125000D02*
X58488000Y-110175010D01*
X54150000Y-110125000D02*
X58437990Y-110125000D01*
X53625000Y-110650000D02*
X54150000Y-110125000D01*
X53625000Y-110950000D02*
X53625000Y-110650000D01*
X58575000Y-108274998D02*
X58499998Y-108350000D01*
X58575000Y-105350000D02*
X58575000Y-108274998D01*
X56750000Y-74675000D02*
X56750000Y-71400000D01*
X55350000Y-76075000D02*
X56750000Y-74675000D01*
X55450000Y-83725000D02*
X55525000Y-83650000D01*
X55450000Y-83812500D02*
X55450000Y-83725000D01*
X58800306Y-97575000D02*
X58591653Y-97783653D01*
X62775000Y-97575000D02*
X58800306Y-97575000D01*
X63399990Y-98199990D02*
X62775000Y-97575000D01*
X63399990Y-104650010D02*
X63399990Y-98199990D01*
X62850000Y-105200000D02*
X63399990Y-104650010D01*
X58725000Y-105200000D02*
X62850000Y-105200000D01*
X58575000Y-105350000D02*
X58725000Y-105200000D01*
X55450000Y-86999994D02*
X55950006Y-87500000D01*
X55450000Y-83812500D02*
X55450000Y-86999994D01*
%TO.N,Net-(D2-Pad3)*%
X75870000Y-71380000D02*
X76000000Y-71250000D01*
X73600000Y-71380000D02*
X75870000Y-71380000D01*
%TO.N,Net-(D3-Pad3)*%
X75780000Y-77380000D02*
X75875000Y-77475000D01*
X73600000Y-77380000D02*
X75780000Y-77380000D01*
%TO.N,Net-(D4-Pad3)*%
X76010000Y-83035000D02*
X76125000Y-83150000D01*
X73625000Y-83035000D02*
X76010000Y-83035000D01*
%TO.N,Net-(D5-Pad3)*%
X73600000Y-88710000D02*
X75285000Y-88710000D01*
X75325000Y-88750000D02*
X76025000Y-88750000D01*
X75285000Y-88710000D02*
X75325000Y-88750000D01*
%TO.N,Net-(D6-Pad3)*%
X75975000Y-94350000D02*
X76125000Y-94500000D01*
X73625000Y-94350000D02*
X75975000Y-94350000D01*
%TO.N,Net-(D7-Pad3)*%
X73500000Y-100175000D02*
X73600000Y-100075000D01*
X71300000Y-100175000D02*
X73500000Y-100175000D01*
%TO.N,Net-(D8-Pad3)*%
X73560000Y-105775000D02*
X73625000Y-105710000D01*
X71450000Y-105775000D02*
X73560000Y-105775000D01*
%TO.N,Net-(D9-Pad3)*%
X73630000Y-111400000D02*
X73675000Y-111355000D01*
X71475000Y-111400000D02*
X73630000Y-111400000D01*
%TO.N,Net-(D10-Pad3)*%
X73635000Y-117375000D02*
X73725000Y-117285000D01*
X71525000Y-117375000D02*
X73635000Y-117375000D01*
%TO.N,Net-(D11-Pad3)*%
X73435000Y-123175000D02*
X73625000Y-122985000D01*
X71475000Y-123175000D02*
X73435000Y-123175000D01*
%TO.N,Net-(D12-Pad3)*%
X71360000Y-128910000D02*
X71250000Y-128800000D01*
X73600000Y-128910000D02*
X71360000Y-128910000D01*
%TO.N,SER*%
X55148002Y-68725000D02*
X54980000Y-68725000D01*
X58975000Y-72551998D02*
X55148002Y-68725000D01*
X58975000Y-75000000D02*
X58975000Y-72551998D01*
%TO.N,RCLK*%
X59038000Y-89085000D02*
X57239990Y-89085000D01*
X57239990Y-89085000D02*
X56700000Y-89624990D01*
X59700001Y-70905001D02*
X57520000Y-68725000D01*
X59700001Y-76697999D02*
X59700001Y-70905001D01*
X58963000Y-77435000D02*
X59700001Y-76697999D01*
X56700000Y-86651998D02*
X56700000Y-79698000D01*
X57099999Y-89224991D02*
X57099999Y-87051997D01*
X56700000Y-89624990D02*
X57099999Y-89224991D01*
X57099999Y-87051997D02*
X56700000Y-86651998D01*
X56700000Y-79698000D02*
X58963000Y-77435000D01*
%TO.N,SRCLK*%
X59038000Y-90355000D02*
X60200000Y-89193000D01*
X60200000Y-79942000D02*
X58963000Y-78705000D01*
X60200000Y-89193000D02*
X60200000Y-79942000D01*
X60060000Y-68725000D02*
X60325000Y-68990000D01*
X60325000Y-77343000D02*
X58963000Y-78705000D01*
X60325000Y-68990000D02*
X60325000Y-77343000D01*
X58202242Y-90355000D02*
X56250010Y-92307232D01*
X59038000Y-90355000D02*
X58202242Y-90355000D01*
%TO.N,Net-(IC3-Pad9)*%
X59025000Y-86532000D02*
X59038000Y-86545000D01*
X59025000Y-82700000D02*
X59025000Y-86532000D01*
%TO.N,Net-(IC5-Pad9)*%
X56275000Y-107289012D02*
X56793390Y-106770622D01*
X56275000Y-108525000D02*
X56275000Y-107289012D01*
%TO.N,r1*%
X78925000Y-87785000D02*
X80550000Y-86160000D01*
X78925000Y-93925000D02*
X78925000Y-87785000D01*
X75325000Y-102040000D02*
X75325000Y-97525000D01*
X75325000Y-97525000D02*
X78925000Y-93925000D01*
X74750000Y-102615000D02*
X75325000Y-102040000D01*
X73600000Y-102615000D02*
X74750000Y-102615000D01*
%TO.N,r5*%
X80550000Y-96320000D02*
X78260320Y-96320000D01*
X78260320Y-96320000D02*
X77265160Y-97315160D01*
%TO.N,r3*%
X81941908Y-92631908D02*
X80550000Y-91240000D01*
X81949990Y-101875010D02*
X81949990Y-98500000D01*
X81249999Y-102575001D02*
X81949990Y-101875010D01*
X81949990Y-98500000D02*
X81941908Y-92631908D01*
X78394999Y-102575001D02*
X81249999Y-102575001D01*
X73990000Y-106980000D02*
X78394999Y-102575001D01*
X73625000Y-106980000D02*
X73990000Y-106980000D01*
%TO.N,r8*%
X78285000Y-103940000D02*
X77825000Y-104400000D01*
X80550000Y-103940000D02*
X78285000Y-103940000D01*
%TO.N,r11*%
X77165010Y-111560000D02*
X76425010Y-112300000D01*
X80550000Y-111560000D02*
X77165010Y-111560000D01*
%TO.N,r14*%
X80505000Y-119225000D02*
X80550000Y-119180000D01*
X77375000Y-119225000D02*
X80505000Y-119225000D01*
%TO.N,ul8*%
X50475000Y-89501410D02*
X50475000Y-85925000D01*
X49550000Y-90426410D02*
X50475000Y-89501410D01*
X48100000Y-93780000D02*
X49550000Y-92330000D01*
X50475000Y-85925000D02*
X53900000Y-82500000D01*
X53900000Y-82500000D02*
X53900000Y-80075000D01*
X49550000Y-92330000D02*
X49550000Y-90426410D01*
%TO.N,ul7*%
X49850000Y-89490000D02*
X49850000Y-85913590D01*
X53125000Y-82638590D02*
X53125000Y-78700000D01*
X48100000Y-91240000D02*
X49850000Y-89490000D01*
X49850000Y-85913590D02*
X53125000Y-82638590D01*
%TO.N,ul6*%
X50525000Y-84525000D02*
X50525000Y-78797000D01*
X49275001Y-85774999D02*
X50525000Y-84525000D01*
X50525000Y-78797000D02*
X51887000Y-77435000D01*
X49275001Y-86999999D02*
X49275001Y-85774999D01*
X48100000Y-88175000D02*
X49275001Y-86999999D01*
X48100000Y-88700000D02*
X48100000Y-88175000D01*
%TO.N,ul5*%
X49900000Y-77375021D02*
X50900021Y-76375000D01*
X49900000Y-84360000D02*
X49900000Y-77375021D01*
X48100000Y-86160000D02*
X49900000Y-84360000D01*
%TO.N,ul15*%
X55525000Y-94099990D02*
X53524990Y-96100000D01*
X55525000Y-91000000D02*
X55525000Y-94099990D01*
%TO.N,ul11*%
X49275001Y-98949999D02*
X53599998Y-94625002D01*
X49275001Y-100224999D02*
X49275001Y-98949999D01*
X53599998Y-94625002D02*
X53599998Y-89600000D01*
X48100000Y-101400000D02*
X49275001Y-100224999D01*
%TO.N,ul10*%
X48100000Y-98860000D02*
X52849999Y-94110001D01*
X52849999Y-84950001D02*
X53325000Y-84475000D01*
X52849999Y-94110001D02*
X52849999Y-84950001D01*
%TO.N,ur8*%
X51525000Y-105425000D02*
X56675000Y-105425000D01*
X58160000Y-103940000D02*
X61975000Y-103940000D01*
X56675000Y-105425000D02*
X58160000Y-103940000D01*
%TO.N,ur7*%
X51525000Y-104100000D02*
X55550000Y-104100000D01*
X58250000Y-101400000D02*
X61975000Y-101400000D01*
X55550000Y-104100000D02*
X58250000Y-101400000D01*
%TO.N,ur6*%
X51450000Y-102950000D02*
X54725000Y-102950000D01*
X58815000Y-98860000D02*
X61975000Y-98860000D01*
X54725000Y-102950000D02*
X58815000Y-98860000D01*
%TO.N,ur5*%
X53800000Y-101550000D02*
X58674998Y-96675002D01*
X51425000Y-101550000D02*
X53800000Y-101550000D01*
X58674998Y-96675002D02*
X61619998Y-96675002D01*
X61619998Y-96675002D02*
X61975000Y-96320000D01*
%TO.N,ur4*%
X60270000Y-93780000D02*
X61975000Y-93780000D01*
X53725000Y-100325000D02*
X60270000Y-93780000D01*
X51500000Y-100325000D02*
X53725000Y-100325000D01*
%TO.N,ur3*%
X61935000Y-91240000D02*
X61975000Y-91240000D01*
X54150000Y-99025000D02*
X61935000Y-91240000D01*
X51500000Y-99025000D02*
X54150000Y-99025000D01*
%TO.N,ur2*%
X60799999Y-91600001D02*
X54624840Y-97775160D01*
X60799999Y-90675999D02*
X60799999Y-91600001D01*
X61125001Y-90350997D02*
X60799999Y-90675999D01*
X61125001Y-89549999D02*
X61125001Y-90350997D01*
X54624840Y-97775160D02*
X51475160Y-97775160D01*
X61975000Y-88700000D02*
X61125001Y-89549999D01*
%TO.N,ur16*%
X51425000Y-117525000D02*
X53050000Y-117525000D01*
X59785000Y-124260000D02*
X61975000Y-124260000D01*
X53050000Y-117525000D02*
X59785000Y-124260000D01*
%TO.N,ur15*%
X51400000Y-116250000D02*
X53300000Y-116250000D01*
X58770000Y-121720000D02*
X61975000Y-121720000D01*
X53300000Y-116250000D02*
X58770000Y-121720000D01*
%TO.N,ur14*%
X51450000Y-114950000D02*
X53525000Y-114950000D01*
X57755000Y-119180000D02*
X61975000Y-119180000D01*
X53525000Y-114950000D02*
X57755000Y-119180000D01*
%TO.N,ur13*%
X51275000Y-113775000D02*
X53825000Y-113775000D01*
X56690000Y-116640000D02*
X61975000Y-116640000D01*
X53825000Y-113775000D02*
X56690000Y-116640000D01*
%TO.N,ur12*%
X60749999Y-112874999D02*
X61125001Y-113250001D01*
X51849999Y-112874999D02*
X60749999Y-112874999D01*
X51450000Y-112475000D02*
X51849999Y-112874999D01*
X61125001Y-113250001D02*
X61975000Y-114100000D01*
%TO.N,ur11*%
X51450000Y-111200000D02*
X52275002Y-112025002D01*
X52275002Y-112025002D02*
X60307917Y-112025002D01*
X60307917Y-112025002D02*
X60772919Y-111560000D01*
X60772919Y-111560000D02*
X61975000Y-111560000D01*
%TO.N,ur10*%
X51825000Y-109450000D02*
X61545000Y-109450000D01*
X51375000Y-109900000D02*
X51825000Y-109450000D01*
X61545000Y-109450000D02*
X61975000Y-109020000D01*
%TD*%
D16*
%TO.N,GND*%
X75177589Y-56777784D02*
X76229011Y-57065421D01*
X77231662Y-57493088D01*
X78167006Y-58052879D01*
X79017716Y-58734427D01*
X79768052Y-59525118D01*
X80404142Y-60410330D01*
X80914216Y-61373690D01*
X81288820Y-62397344D01*
X81521035Y-63462378D01*
X81608376Y-64572153D01*
X81608715Y-64636836D01*
X81616038Y-64736550D01*
X81636826Y-64834347D01*
X81670693Y-64928419D01*
X81687268Y-64960124D01*
X81711461Y-67157200D01*
X81692663Y-67192368D01*
X81650635Y-67330916D01*
X81640000Y-67438896D01*
X81640001Y-77588886D01*
X81640000Y-77588896D01*
X81640000Y-77811105D01*
X81650635Y-77919085D01*
X81692663Y-78057633D01*
X81711876Y-78093578D01*
X81693176Y-80019689D01*
X81667275Y-80068308D01*
X81625438Y-80206913D01*
X81614951Y-80314908D01*
X81621586Y-85131479D01*
X81496632Y-85006525D01*
X81253411Y-84844010D01*
X80983158Y-84732068D01*
X80696260Y-84675000D01*
X80403740Y-84675000D01*
X80116842Y-84732068D01*
X79846589Y-84844010D01*
X79603368Y-85006525D01*
X79396525Y-85213368D01*
X79234010Y-85456589D01*
X79122068Y-85726842D01*
X79065000Y-86013740D01*
X79065000Y-86306260D01*
X79108791Y-86526408D01*
X78413998Y-87221201D01*
X78385000Y-87244999D01*
X78361202Y-87273997D01*
X78361201Y-87273998D01*
X78290026Y-87360724D01*
X78219454Y-87492754D01*
X78192989Y-87580000D01*
X78175998Y-87636014D01*
X78173242Y-87663998D01*
X78161324Y-87785000D01*
X78165001Y-87822332D01*
X78165000Y-93610198D01*
X77463072Y-94312126D01*
X77463072Y-94149999D01*
X77446008Y-93976745D01*
X77395472Y-93810149D01*
X77313405Y-93656613D01*
X77202962Y-93522038D01*
X77068387Y-93411595D01*
X76914851Y-93329528D01*
X76748255Y-93278992D01*
X76575001Y-93261928D01*
X75674999Y-93261928D01*
X75501745Y-93278992D01*
X75335149Y-93329528D01*
X75181613Y-93411595D01*
X75089003Y-93487598D01*
X75143071Y-93309360D01*
X75165661Y-93080000D01*
X75143071Y-92850640D01*
X75076169Y-92630094D01*
X74967526Y-92426838D01*
X74867455Y-92304900D01*
X74951185Y-92236185D01*
X75030537Y-92139494D01*
X75089502Y-92029180D01*
X75125812Y-91909482D01*
X75138072Y-91785000D01*
X75138072Y-90715000D01*
X75125812Y-90590518D01*
X75089502Y-90470820D01*
X75057130Y-90410257D01*
X75118071Y-90209360D01*
X75140661Y-89980000D01*
X75129221Y-89863852D01*
X75235149Y-89920472D01*
X75401745Y-89971008D01*
X75574999Y-89988072D01*
X76475001Y-89988072D01*
X76648255Y-89971008D01*
X76814851Y-89920472D01*
X76968387Y-89838405D01*
X77102962Y-89727962D01*
X77213405Y-89593387D01*
X77295472Y-89439851D01*
X77346008Y-89273255D01*
X77363072Y-89100001D01*
X77363072Y-88399999D01*
X77346008Y-88226745D01*
X77295472Y-88060149D01*
X77213405Y-87906613D01*
X77102962Y-87772038D01*
X76968387Y-87661595D01*
X76814851Y-87579528D01*
X76648255Y-87528992D01*
X76475001Y-87511928D01*
X75574999Y-87511928D01*
X75401745Y-87528992D01*
X75235149Y-87579528D01*
X75120904Y-87640593D01*
X75140661Y-87440000D01*
X75118071Y-87210640D01*
X75051169Y-86990094D01*
X74942526Y-86786838D01*
X74839851Y-86661727D01*
X74879494Y-86640537D01*
X74976185Y-86561185D01*
X75055537Y-86464494D01*
X75114502Y-86354180D01*
X75150812Y-86234482D01*
X75163072Y-86110000D01*
X75163072Y-85040000D01*
X75150812Y-84915518D01*
X75114502Y-84795820D01*
X75082130Y-84735257D01*
X75143071Y-84534360D01*
X75165661Y-84305000D01*
X75157122Y-84218306D01*
X75181613Y-84238405D01*
X75335149Y-84320472D01*
X75501745Y-84371008D01*
X75674999Y-84388072D01*
X76575001Y-84388072D01*
X76748255Y-84371008D01*
X76914851Y-84320472D01*
X77068387Y-84238405D01*
X77202962Y-84127962D01*
X77313405Y-83993387D01*
X77395472Y-83839851D01*
X77446008Y-83673255D01*
X77463072Y-83500001D01*
X77463072Y-82799999D01*
X77446008Y-82626745D01*
X77395472Y-82460149D01*
X77313405Y-82306613D01*
X77202962Y-82172038D01*
X77068387Y-82061595D01*
X76914851Y-81979528D01*
X76748255Y-81928992D01*
X76575001Y-81911928D01*
X75674999Y-81911928D01*
X75501745Y-81928992D01*
X75335149Y-81979528D01*
X75181613Y-82061595D01*
X75103139Y-82125997D01*
X75143071Y-81994360D01*
X75165661Y-81765000D01*
X75143071Y-81535640D01*
X75076169Y-81315094D01*
X74967526Y-81111838D01*
X74860099Y-80980937D01*
X74951185Y-80906185D01*
X75030537Y-80809494D01*
X75089502Y-80699180D01*
X75125812Y-80579482D01*
X75138072Y-80455000D01*
X75138072Y-79385000D01*
X75125812Y-79260518D01*
X75089502Y-79140820D01*
X75057130Y-79080257D01*
X75118071Y-78879360D01*
X75139484Y-78661954D01*
X75251745Y-78696008D01*
X75424999Y-78713072D01*
X76325001Y-78713072D01*
X76498255Y-78696008D01*
X76664851Y-78645472D01*
X76818387Y-78563405D01*
X76952962Y-78452962D01*
X77063405Y-78318387D01*
X77145472Y-78164851D01*
X77196008Y-77998255D01*
X77213072Y-77825001D01*
X77213072Y-77124999D01*
X77196008Y-76951745D01*
X77145472Y-76785149D01*
X77063405Y-76631613D01*
X76952962Y-76497038D01*
X76818387Y-76386595D01*
X76664851Y-76304528D01*
X76498255Y-76253992D01*
X76325001Y-76236928D01*
X75424999Y-76236928D01*
X75251745Y-76253992D01*
X75122621Y-76293161D01*
X75140661Y-76110000D01*
X75118071Y-75880640D01*
X75051169Y-75660094D01*
X74942526Y-75456838D01*
X74796318Y-75278682D01*
X74618162Y-75132474D01*
X74537531Y-75089376D01*
X74624482Y-75080812D01*
X74744180Y-75044502D01*
X74854494Y-74985537D01*
X74951185Y-74906185D01*
X75030537Y-74809494D01*
X75089502Y-74699180D01*
X75125812Y-74579482D01*
X75138072Y-74455000D01*
X75138072Y-73385000D01*
X75125812Y-73260518D01*
X75089502Y-73140820D01*
X75057130Y-73080257D01*
X75118071Y-72879360D01*
X75140661Y-72650000D01*
X75118071Y-72420640D01*
X75100191Y-72361698D01*
X75210149Y-72420472D01*
X75376745Y-72471008D01*
X75549999Y-72488072D01*
X76450001Y-72488072D01*
X76623255Y-72471008D01*
X76789851Y-72420472D01*
X76943387Y-72338405D01*
X77077962Y-72227962D01*
X77188405Y-72093387D01*
X77270472Y-71939851D01*
X77321008Y-71773255D01*
X77338072Y-71600001D01*
X77338072Y-70899999D01*
X77321008Y-70726745D01*
X77270472Y-70560149D01*
X77188405Y-70406613D01*
X77077962Y-70272038D01*
X76943387Y-70161595D01*
X76789851Y-70079528D01*
X76623255Y-70028992D01*
X76450001Y-70011928D01*
X75549999Y-70011928D01*
X75376745Y-70028992D01*
X75210149Y-70079528D01*
X75139968Y-70117041D01*
X75140661Y-70110000D01*
X75118071Y-69880640D01*
X75051169Y-69660094D01*
X74942526Y-69456838D01*
X74796318Y-69278682D01*
X74618162Y-69132474D01*
X74414906Y-69023831D01*
X74194360Y-68956929D01*
X74022477Y-68940000D01*
X73177523Y-68940000D01*
X73005640Y-68956929D01*
X72785094Y-69023831D01*
X72581838Y-69132474D01*
X72403682Y-69278682D01*
X72257474Y-69456838D01*
X72148831Y-69660094D01*
X72081929Y-69880640D01*
X72059339Y-70110000D01*
X72081929Y-70339360D01*
X72148831Y-70559906D01*
X72247766Y-70745000D01*
X72148831Y-70930094D01*
X72081929Y-71150640D01*
X72059339Y-71380000D01*
X72081929Y-71609360D01*
X72148831Y-71829906D01*
X72247766Y-72015000D01*
X72148831Y-72200094D01*
X72081929Y-72420640D01*
X72059339Y-72650000D01*
X72081929Y-72879360D01*
X72142870Y-73080257D01*
X72110498Y-73140820D01*
X72074188Y-73260518D01*
X72061928Y-73385000D01*
X72061928Y-74455000D01*
X72074188Y-74579482D01*
X72110498Y-74699180D01*
X72169463Y-74809494D01*
X72248815Y-74906185D01*
X72345506Y-74985537D01*
X72455820Y-75044502D01*
X72575518Y-75080812D01*
X72662469Y-75089376D01*
X72581838Y-75132474D01*
X72403682Y-75278682D01*
X72257474Y-75456838D01*
X72148831Y-75660094D01*
X72081929Y-75880640D01*
X72059339Y-76110000D01*
X72081929Y-76339360D01*
X72148831Y-76559906D01*
X72247766Y-76745000D01*
X72148831Y-76930094D01*
X72081929Y-77150640D01*
X72059339Y-77380000D01*
X72081929Y-77609360D01*
X72148831Y-77829906D01*
X72247766Y-78015000D01*
X72148831Y-78200094D01*
X72081929Y-78420640D01*
X72059339Y-78650000D01*
X72081929Y-78879360D01*
X72142870Y-79080257D01*
X72110498Y-79140820D01*
X72074188Y-79260518D01*
X72061928Y-79385000D01*
X72061928Y-80455000D01*
X72074188Y-80579482D01*
X72110498Y-80699180D01*
X72169463Y-80809494D01*
X72248815Y-80906185D01*
X72345506Y-80985537D01*
X72373740Y-81000629D01*
X72282474Y-81111838D01*
X72173831Y-81315094D01*
X72106929Y-81535640D01*
X72084339Y-81765000D01*
X72106929Y-81994360D01*
X72173831Y-82214906D01*
X72272766Y-82400000D01*
X72173831Y-82585094D01*
X72106929Y-82805640D01*
X72084339Y-83035000D01*
X72106929Y-83264360D01*
X72173831Y-83484906D01*
X72272766Y-83670000D01*
X72173831Y-83855094D01*
X72106929Y-84075640D01*
X72084339Y-84305000D01*
X72106929Y-84534360D01*
X72167870Y-84735257D01*
X72135498Y-84795820D01*
X72099188Y-84915518D01*
X72086928Y-85040000D01*
X72086928Y-86110000D01*
X72099188Y-86234482D01*
X72135498Y-86354180D01*
X72194463Y-86464494D01*
X72273815Y-86561185D01*
X72370506Y-86640537D01*
X72375395Y-86643150D01*
X72257474Y-86786838D01*
X72148831Y-86990094D01*
X72081929Y-87210640D01*
X72059339Y-87440000D01*
X72081929Y-87669360D01*
X72148831Y-87889906D01*
X72247766Y-88075000D01*
X72148831Y-88260094D01*
X72081929Y-88480640D01*
X72059339Y-88710000D01*
X72081929Y-88939360D01*
X72148831Y-89159906D01*
X72247766Y-89345000D01*
X72148831Y-89530094D01*
X72081929Y-89750640D01*
X72059339Y-89980000D01*
X72081929Y-90209360D01*
X72142870Y-90410257D01*
X72110498Y-90470820D01*
X72074188Y-90590518D01*
X72061928Y-90715000D01*
X72061928Y-91785000D01*
X72074188Y-91909482D01*
X72110498Y-92029180D01*
X72169463Y-92139494D01*
X72248815Y-92236185D01*
X72345506Y-92315537D01*
X72365184Y-92326055D01*
X72282474Y-92426838D01*
X72173831Y-92630094D01*
X72106929Y-92850640D01*
X72084339Y-93080000D01*
X72106929Y-93309360D01*
X72173831Y-93529906D01*
X72272766Y-93715000D01*
X72173831Y-93900094D01*
X72106929Y-94120640D01*
X72084339Y-94350000D01*
X72106929Y-94579360D01*
X72173831Y-94799906D01*
X72272766Y-94985000D01*
X72173831Y-95170094D01*
X72106929Y-95390640D01*
X72084339Y-95620000D01*
X72106929Y-95849360D01*
X72167870Y-96050257D01*
X72135498Y-96110820D01*
X72099188Y-96230518D01*
X72086928Y-96355000D01*
X72086928Y-97425000D01*
X72099188Y-97549482D01*
X72135498Y-97669180D01*
X72194463Y-97779494D01*
X72273815Y-97876185D01*
X72370506Y-97955537D01*
X72403986Y-97973433D01*
X72403682Y-97973682D01*
X72257474Y-98151838D01*
X72148831Y-98355094D01*
X72081929Y-98575640D01*
X72059339Y-98805000D01*
X72078656Y-99001132D01*
X71923255Y-98953992D01*
X71750001Y-98936928D01*
X70849999Y-98936928D01*
X70676745Y-98953992D01*
X70510149Y-99004528D01*
X70356613Y-99086595D01*
X70222038Y-99197038D01*
X70111595Y-99331613D01*
X70029528Y-99485149D01*
X69978992Y-99651745D01*
X69961928Y-99824999D01*
X69961928Y-100525001D01*
X69978992Y-100698255D01*
X70029528Y-100864851D01*
X70111595Y-101018387D01*
X70222038Y-101152962D01*
X70356613Y-101263405D01*
X70510149Y-101345472D01*
X70676745Y-101396008D01*
X70849999Y-101413072D01*
X71750001Y-101413072D01*
X71923255Y-101396008D01*
X72060269Y-101354445D01*
X72081929Y-101574360D01*
X72142870Y-101775257D01*
X72110498Y-101835820D01*
X72074188Y-101955518D01*
X72061928Y-102080000D01*
X72061928Y-103150000D01*
X72074188Y-103274482D01*
X72110498Y-103394180D01*
X72169463Y-103504494D01*
X72248815Y-103601185D01*
X72345506Y-103680537D01*
X72362332Y-103689531D01*
X72282474Y-103786838D01*
X72173831Y-103990094D01*
X72106929Y-104210640D01*
X72084339Y-104440000D01*
X72096253Y-104560968D01*
X72073255Y-104553992D01*
X71900001Y-104536928D01*
X70999999Y-104536928D01*
X70826745Y-104553992D01*
X70660149Y-104604528D01*
X70506613Y-104686595D01*
X70372038Y-104797038D01*
X70261595Y-104931613D01*
X70179528Y-105085149D01*
X70128992Y-105251745D01*
X70111928Y-105424999D01*
X70111928Y-106125001D01*
X70128992Y-106298255D01*
X70179528Y-106464851D01*
X70261595Y-106618387D01*
X70372038Y-106752962D01*
X70506613Y-106863405D01*
X70660149Y-106945472D01*
X70826745Y-106996008D01*
X70999999Y-107013072D01*
X71900001Y-107013072D01*
X72073255Y-106996008D01*
X72085548Y-106992279D01*
X72106929Y-107209360D01*
X72167870Y-107410257D01*
X72135498Y-107470820D01*
X72099188Y-107590518D01*
X72086928Y-107715000D01*
X72086928Y-108785000D01*
X72099188Y-108909482D01*
X72135498Y-109029180D01*
X72194463Y-109139494D01*
X72273815Y-109236185D01*
X72370506Y-109315537D01*
X72410413Y-109336868D01*
X72332474Y-109431838D01*
X72223831Y-109635094D01*
X72156929Y-109855640D01*
X72134339Y-110085000D01*
X72144993Y-110193170D01*
X72098255Y-110178992D01*
X71925001Y-110161928D01*
X71024999Y-110161928D01*
X70851745Y-110178992D01*
X70685149Y-110229528D01*
X70531613Y-110311595D01*
X70397038Y-110422038D01*
X70286595Y-110556613D01*
X70204528Y-110710149D01*
X70153992Y-110876745D01*
X70136928Y-111049999D01*
X70136928Y-111750001D01*
X70153992Y-111923255D01*
X70204528Y-112089851D01*
X70286595Y-112243387D01*
X70397038Y-112377962D01*
X70531613Y-112488405D01*
X70685149Y-112570472D01*
X70851745Y-112621008D01*
X71024999Y-112638072D01*
X71925001Y-112638072D01*
X72098255Y-112621008D01*
X72135856Y-112609602D01*
X72134339Y-112625000D01*
X72156929Y-112854360D01*
X72217870Y-113055257D01*
X72185498Y-113115820D01*
X72149188Y-113235518D01*
X72136928Y-113360000D01*
X72136928Y-114430000D01*
X72149188Y-114554482D01*
X72185498Y-114674180D01*
X72244463Y-114784494D01*
X72323815Y-114881185D01*
X72420506Y-114960537D01*
X72530820Y-115019502D01*
X72650518Y-115055812D01*
X72680853Y-115058800D01*
X72528682Y-115183682D01*
X72382474Y-115361838D01*
X72273831Y-115565094D01*
X72206929Y-115785640D01*
X72184339Y-116015000D01*
X72199561Y-116169556D01*
X72148255Y-116153992D01*
X71975001Y-116136928D01*
X71074999Y-116136928D01*
X70901745Y-116153992D01*
X70735149Y-116204528D01*
X70581613Y-116286595D01*
X70447038Y-116397038D01*
X70336595Y-116531613D01*
X70254528Y-116685149D01*
X70203992Y-116851745D01*
X70186928Y-117024999D01*
X70186928Y-117725001D01*
X70203992Y-117898255D01*
X70254528Y-118064851D01*
X70336595Y-118218387D01*
X70447038Y-118352962D01*
X70581613Y-118463405D01*
X70735149Y-118545472D01*
X70901745Y-118596008D01*
X71074999Y-118613072D01*
X71975001Y-118613072D01*
X72148255Y-118596008D01*
X72187214Y-118584190D01*
X72206929Y-118784360D01*
X72267870Y-118985257D01*
X72235498Y-119045820D01*
X72199188Y-119165518D01*
X72186928Y-119290000D01*
X72186928Y-120360000D01*
X72199188Y-120484482D01*
X72235498Y-120604180D01*
X72294463Y-120714494D01*
X72373815Y-120811185D01*
X72445418Y-120869948D01*
X72428682Y-120883682D01*
X72282474Y-121061838D01*
X72173831Y-121265094D01*
X72106929Y-121485640D01*
X72084339Y-121715000D01*
X72106929Y-121944360D01*
X72111026Y-121957866D01*
X72098255Y-121953992D01*
X71925001Y-121936928D01*
X71024999Y-121936928D01*
X70851745Y-121953992D01*
X70685149Y-122004528D01*
X70531613Y-122086595D01*
X70397038Y-122197038D01*
X70286595Y-122331613D01*
X70204528Y-122485149D01*
X70153992Y-122651745D01*
X70136928Y-122824999D01*
X70136928Y-123525001D01*
X70153992Y-123698255D01*
X70204528Y-123864851D01*
X70286595Y-124018387D01*
X70397038Y-124152962D01*
X70531613Y-124263405D01*
X70685149Y-124345472D01*
X70851745Y-124396008D01*
X71024999Y-124413072D01*
X71925001Y-124413072D01*
X72098227Y-124396011D01*
X72106929Y-124484360D01*
X72167870Y-124685257D01*
X72135498Y-124745820D01*
X72099188Y-124865518D01*
X72086928Y-124990000D01*
X72086928Y-126060000D01*
X72099188Y-126184482D01*
X72135498Y-126304180D01*
X72194463Y-126414494D01*
X72273815Y-126511185D01*
X72370506Y-126590537D01*
X72480820Y-126649502D01*
X72566116Y-126675376D01*
X72403682Y-126808682D01*
X72257474Y-126986838D01*
X72148831Y-127190094D01*
X72081929Y-127410640D01*
X72059344Y-127639947D01*
X72039851Y-127629528D01*
X71873255Y-127578992D01*
X71700001Y-127561928D01*
X70799999Y-127561928D01*
X70626745Y-127578992D01*
X70460149Y-127629528D01*
X70306613Y-127711595D01*
X70172038Y-127822038D01*
X70061595Y-127956613D01*
X69979528Y-128110149D01*
X69928992Y-128276745D01*
X69911928Y-128449999D01*
X69911928Y-129150001D01*
X69928992Y-129323255D01*
X69979528Y-129489851D01*
X70061595Y-129643387D01*
X70172038Y-129777962D01*
X70306613Y-129888405D01*
X70460149Y-129970472D01*
X70626745Y-130021008D01*
X70799999Y-130038072D01*
X71700001Y-130038072D01*
X71873255Y-130021008D01*
X72039851Y-129970472D01*
X72082892Y-129947466D01*
X72081929Y-129950640D01*
X72059339Y-130180000D01*
X72081929Y-130409360D01*
X72142870Y-130610257D01*
X72110498Y-130670820D01*
X72074188Y-130790518D01*
X72061928Y-130915000D01*
X72061928Y-131985000D01*
X72074188Y-132109482D01*
X72110498Y-132229180D01*
X72169463Y-132339494D01*
X72248815Y-132436185D01*
X72345506Y-132515537D01*
X72455820Y-132574502D01*
X72575518Y-132610812D01*
X72700000Y-132623072D01*
X74500000Y-132623072D01*
X74624482Y-132610812D01*
X74744180Y-132574502D01*
X74854494Y-132515537D01*
X74951185Y-132436185D01*
X75030537Y-132339494D01*
X75089502Y-132229180D01*
X75125812Y-132109482D01*
X75138072Y-131985000D01*
X75138072Y-130915000D01*
X75125812Y-130790518D01*
X75089502Y-130670820D01*
X75057130Y-130610257D01*
X75118071Y-130409360D01*
X75140661Y-130180000D01*
X75118071Y-129950640D01*
X75051169Y-129730094D01*
X74952234Y-129545000D01*
X75051169Y-129359906D01*
X75118071Y-129139360D01*
X75140661Y-128910000D01*
X75118071Y-128680640D01*
X75051169Y-128460094D01*
X74952234Y-128275000D01*
X75051169Y-128089906D01*
X75118071Y-127869360D01*
X75140661Y-127640000D01*
X75118071Y-127410640D01*
X75051169Y-127190094D01*
X74942526Y-126986838D01*
X74796318Y-126808682D01*
X74646908Y-126686065D01*
X74649482Y-126685812D01*
X74769180Y-126649502D01*
X74879494Y-126590537D01*
X74976185Y-126511185D01*
X75055537Y-126414494D01*
X75114502Y-126304180D01*
X75150812Y-126184482D01*
X75163072Y-126060000D01*
X75163072Y-124990000D01*
X75150812Y-124865518D01*
X75114502Y-124745820D01*
X75082130Y-124685257D01*
X75143071Y-124484360D01*
X75165661Y-124255000D01*
X75143071Y-124025640D01*
X75076169Y-123805094D01*
X74977234Y-123620000D01*
X75076169Y-123434906D01*
X75143071Y-123214360D01*
X75165661Y-122985000D01*
X75143071Y-122755640D01*
X75076169Y-122535094D01*
X74977234Y-122350000D01*
X75076169Y-122164906D01*
X75143071Y-121944360D01*
X75165661Y-121715000D01*
X75143071Y-121485640D01*
X75076169Y-121265094D01*
X74967526Y-121061838D01*
X74873458Y-120947215D01*
X74979494Y-120890537D01*
X75076185Y-120811185D01*
X75155537Y-120714494D01*
X75214502Y-120604180D01*
X75250812Y-120484482D01*
X75263072Y-120360000D01*
X75263072Y-119290000D01*
X75250812Y-119165518D01*
X75214502Y-119045820D01*
X75182130Y-118985257D01*
X75243071Y-118784360D01*
X75265661Y-118555000D01*
X75243071Y-118325640D01*
X75176169Y-118105094D01*
X75077234Y-117920000D01*
X75176169Y-117734906D01*
X75243071Y-117514360D01*
X75265661Y-117285000D01*
X75243071Y-117055640D01*
X75176169Y-116835094D01*
X75077234Y-116650000D01*
X75176169Y-116464906D01*
X75243071Y-116244360D01*
X75265661Y-116015000D01*
X75243071Y-115785640D01*
X75176169Y-115565094D01*
X75067526Y-115361838D01*
X74921318Y-115183682D01*
X74747688Y-115041189D01*
X74819180Y-115019502D01*
X74929494Y-114960537D01*
X75026185Y-114881185D01*
X75105537Y-114784494D01*
X75164502Y-114674180D01*
X75200812Y-114554482D01*
X75213072Y-114430000D01*
X75213072Y-113360000D01*
X75200812Y-113235518D01*
X75164502Y-113115820D01*
X75132130Y-113055257D01*
X75193071Y-112854360D01*
X75215661Y-112625000D01*
X75193071Y-112395640D01*
X75126169Y-112175094D01*
X75027234Y-111990000D01*
X75126169Y-111804906D01*
X75193071Y-111584360D01*
X75215661Y-111355000D01*
X75193071Y-111125640D01*
X75126169Y-110905094D01*
X75027234Y-110720000D01*
X75126169Y-110534906D01*
X75193071Y-110314360D01*
X75215661Y-110085000D01*
X75193071Y-109855640D01*
X75126169Y-109635094D01*
X75017526Y-109431838D01*
X74904942Y-109294653D01*
X74976185Y-109236185D01*
X75055537Y-109139494D01*
X75114502Y-109029180D01*
X75150812Y-108909482D01*
X75163072Y-108785000D01*
X75163072Y-107715000D01*
X75150812Y-107590518D01*
X75114502Y-107470820D01*
X75082130Y-107410257D01*
X75143071Y-107209360D01*
X75165661Y-106980000D01*
X75156618Y-106888183D01*
X77006629Y-105038172D01*
X77021063Y-105059774D01*
X77165226Y-105203937D01*
X77334744Y-105317205D01*
X77523102Y-105395226D01*
X77723061Y-105435000D01*
X77926939Y-105435000D01*
X78126898Y-105395226D01*
X78315256Y-105317205D01*
X78484774Y-105203937D01*
X78628937Y-105059774D01*
X78742205Y-104890256D01*
X78820226Y-104701898D01*
X78820604Y-104700000D01*
X79271822Y-104700000D01*
X79396525Y-104886632D01*
X79603368Y-105093475D01*
X79777760Y-105210000D01*
X79603368Y-105326525D01*
X79396525Y-105533368D01*
X79234010Y-105776589D01*
X79122068Y-106046842D01*
X79065000Y-106333740D01*
X79065000Y-106626260D01*
X79122068Y-106913158D01*
X79234010Y-107183411D01*
X79396525Y-107426632D01*
X79603368Y-107633475D01*
X79777760Y-107750000D01*
X79603368Y-107866525D01*
X79396525Y-108073368D01*
X79234010Y-108316589D01*
X79122068Y-108586842D01*
X79065000Y-108873740D01*
X79065000Y-109166260D01*
X79122068Y-109453158D01*
X79234010Y-109723411D01*
X79396525Y-109966632D01*
X79603368Y-110173475D01*
X79777760Y-110290000D01*
X79603368Y-110406525D01*
X79396525Y-110613368D01*
X79271822Y-110800000D01*
X77202332Y-110800000D01*
X77165009Y-110796324D01*
X77127686Y-110800000D01*
X77127677Y-110800000D01*
X77016024Y-110810997D01*
X76872763Y-110854454D01*
X76740733Y-110925026D01*
X76719751Y-110942246D01*
X76625009Y-111019999D01*
X76601211Y-111048998D01*
X76385208Y-111265000D01*
X76323071Y-111265000D01*
X76123112Y-111304774D01*
X75934754Y-111382795D01*
X75765236Y-111496063D01*
X75621073Y-111640226D01*
X75507805Y-111809744D01*
X75429784Y-111998102D01*
X75390010Y-112198061D01*
X75390010Y-112401939D01*
X75429784Y-112601898D01*
X75507805Y-112790256D01*
X75621073Y-112959774D01*
X75765236Y-113103937D01*
X75934754Y-113217205D01*
X76123112Y-113295226D01*
X76323071Y-113335000D01*
X76526949Y-113335000D01*
X76726908Y-113295226D01*
X76915266Y-113217205D01*
X77084784Y-113103937D01*
X77228947Y-112959774D01*
X77342215Y-112790256D01*
X77420236Y-112601898D01*
X77460010Y-112401939D01*
X77460010Y-112339802D01*
X77479812Y-112320000D01*
X79271822Y-112320000D01*
X79396525Y-112506632D01*
X79603368Y-112713475D01*
X79777760Y-112830000D01*
X79603368Y-112946525D01*
X79396525Y-113153368D01*
X79234010Y-113396589D01*
X79122068Y-113666842D01*
X79065000Y-113953740D01*
X79065000Y-114246260D01*
X79122068Y-114533158D01*
X79234010Y-114803411D01*
X79396525Y-115046632D01*
X79603368Y-115253475D01*
X79777760Y-115370000D01*
X79603368Y-115486525D01*
X79396525Y-115693368D01*
X79234010Y-115936589D01*
X79122068Y-116206842D01*
X79065000Y-116493740D01*
X79065000Y-116786260D01*
X79122068Y-117073158D01*
X79234010Y-117343411D01*
X79396525Y-117586632D01*
X79603368Y-117793475D01*
X79777760Y-117910000D01*
X79603368Y-118026525D01*
X79396525Y-118233368D01*
X79241754Y-118465000D01*
X78078711Y-118465000D01*
X78034774Y-118421063D01*
X77865256Y-118307795D01*
X77676898Y-118229774D01*
X77476939Y-118190000D01*
X77273061Y-118190000D01*
X77073102Y-118229774D01*
X76884744Y-118307795D01*
X76715226Y-118421063D01*
X76571063Y-118565226D01*
X76457795Y-118734744D01*
X76379774Y-118923102D01*
X76340000Y-119123061D01*
X76340000Y-119326939D01*
X76379774Y-119526898D01*
X76457795Y-119715256D01*
X76571063Y-119884774D01*
X76715226Y-120028937D01*
X76884744Y-120142205D01*
X77073102Y-120220226D01*
X77273061Y-120260000D01*
X77476939Y-120260000D01*
X77676898Y-120220226D01*
X77865256Y-120142205D01*
X78034774Y-120028937D01*
X78078711Y-119985000D01*
X79301890Y-119985000D01*
X79396525Y-120126632D01*
X79603368Y-120333475D01*
X79777760Y-120450000D01*
X79603368Y-120566525D01*
X79396525Y-120773368D01*
X79234010Y-121016589D01*
X79122068Y-121286842D01*
X79065000Y-121573740D01*
X79065000Y-121866260D01*
X79122068Y-122153158D01*
X79234010Y-122423411D01*
X79396525Y-122666632D01*
X79603368Y-122873475D01*
X79777760Y-122990000D01*
X79603368Y-123106525D01*
X79396525Y-123313368D01*
X79234010Y-123556589D01*
X79122068Y-123826842D01*
X79065000Y-124113740D01*
X79065000Y-124406260D01*
X79122068Y-124693158D01*
X79234010Y-124963411D01*
X79396525Y-125206632D01*
X79603368Y-125413475D01*
X79846589Y-125575990D01*
X80116842Y-125687932D01*
X80403740Y-125745000D01*
X80696260Y-125745000D01*
X80983158Y-125687932D01*
X81253411Y-125575990D01*
X81496632Y-125413475D01*
X81626001Y-125284106D01*
X81614932Y-130984677D01*
X81625357Y-131092678D01*
X81667116Y-131231307D01*
X81687048Y-131268773D01*
X81668003Y-133344685D01*
X81644442Y-133388111D01*
X81601549Y-133526394D01*
X81590240Y-133634306D01*
X81583861Y-134655666D01*
X81507859Y-135770511D01*
X81286809Y-136837918D01*
X80922941Y-137865451D01*
X80422986Y-138834095D01*
X79796204Y-139725914D01*
X79054183Y-140524424D01*
X78210658Y-141214842D01*
X77281232Y-141784396D01*
X76283111Y-142222540D01*
X75234759Y-142521172D01*
X74155588Y-142674760D01*
X73065546Y-142680468D01*
X71984821Y-142538188D01*
X70933400Y-142250551D01*
X69930743Y-141822882D01*
X68995408Y-141263095D01*
X68144698Y-140581549D01*
X67394358Y-139790856D01*
X67375254Y-139764269D01*
X71175286Y-139764269D01*
X71175286Y-140235731D01*
X71267263Y-140698135D01*
X71447684Y-141133709D01*
X71709615Y-141525716D01*
X72042989Y-141859090D01*
X72434996Y-142121021D01*
X72870570Y-142301442D01*
X73332974Y-142393419D01*
X73804436Y-142393419D01*
X74266840Y-142301442D01*
X74702414Y-142121021D01*
X75094421Y-141859090D01*
X75427795Y-141525716D01*
X75689726Y-141133709D01*
X75870147Y-140698135D01*
X75962124Y-140235731D01*
X75962124Y-139764269D01*
X75870147Y-139301865D01*
X75689726Y-138866291D01*
X75427795Y-138474284D01*
X75094421Y-138140910D01*
X74702414Y-137878979D01*
X74266840Y-137698558D01*
X73804436Y-137606581D01*
X73332974Y-137606581D01*
X72870570Y-137698558D01*
X72434996Y-137878979D01*
X72042989Y-138140910D01*
X71709615Y-138474284D01*
X71447684Y-138866291D01*
X71267263Y-139301865D01*
X71175286Y-139764269D01*
X67375254Y-139764269D01*
X66758261Y-138905632D01*
X66248194Y-137942282D01*
X65873591Y-136918628D01*
X65641374Y-135853587D01*
X65554034Y-134743819D01*
X65553894Y-134717170D01*
X65557261Y-134682986D01*
X65543070Y-134538901D01*
X65501042Y-134400353D01*
X65432792Y-134272666D01*
X65340943Y-134160748D01*
X65229025Y-134068899D01*
X65101338Y-134000649D01*
X64962790Y-133958621D01*
X64854810Y-133947986D01*
X63782600Y-133947986D01*
X63674620Y-133958621D01*
X63536072Y-134000649D01*
X63408385Y-134068899D01*
X63296467Y-134160748D01*
X63204618Y-134272666D01*
X63136368Y-134400353D01*
X63094340Y-134538901D01*
X63080149Y-134682986D01*
X63081242Y-134694086D01*
X63007859Y-135770511D01*
X62786809Y-136837918D01*
X62422941Y-137865451D01*
X61922986Y-138834095D01*
X61296204Y-139725914D01*
X60554183Y-140524424D01*
X59710658Y-141214842D01*
X58781232Y-141784396D01*
X57783111Y-142222540D01*
X56734759Y-142521172D01*
X55655588Y-142674760D01*
X54565546Y-142680468D01*
X53484821Y-142538188D01*
X52433400Y-142250551D01*
X51430743Y-141822882D01*
X50495408Y-141263095D01*
X49644698Y-140581549D01*
X48894358Y-139790856D01*
X48875254Y-139764269D01*
X52675286Y-139764269D01*
X52675286Y-140235731D01*
X52767263Y-140698135D01*
X52947684Y-141133709D01*
X53209615Y-141525716D01*
X53542989Y-141859090D01*
X53934996Y-142121021D01*
X54370570Y-142301442D01*
X54832974Y-142393419D01*
X55304436Y-142393419D01*
X55766840Y-142301442D01*
X56202414Y-142121021D01*
X56594421Y-141859090D01*
X56927795Y-141525716D01*
X57189726Y-141133709D01*
X57370147Y-140698135D01*
X57462124Y-140235731D01*
X57462124Y-139764269D01*
X57370147Y-139301865D01*
X57189726Y-138866291D01*
X56927795Y-138474284D01*
X56594421Y-138140910D01*
X56202414Y-137878979D01*
X55766840Y-137698558D01*
X55304436Y-137606581D01*
X54832974Y-137606581D01*
X54370570Y-137698558D01*
X53934996Y-137878979D01*
X53542989Y-138140910D01*
X53209615Y-138474284D01*
X52947684Y-138866291D01*
X52767263Y-139301865D01*
X52675286Y-139764269D01*
X48875254Y-139764269D01*
X48258261Y-138905632D01*
X47748194Y-137942282D01*
X47373591Y-136918628D01*
X47141374Y-135853587D01*
X47054034Y-134743819D01*
X47053706Y-134681165D01*
X47060672Y-115160779D01*
X47153368Y-115253475D01*
X47396589Y-115415990D01*
X47666842Y-115527932D01*
X47953740Y-115585000D01*
X48246260Y-115585000D01*
X48533158Y-115527932D01*
X48803411Y-115415990D01*
X49046632Y-115253475D01*
X49253475Y-115046632D01*
X49415990Y-114803411D01*
X49527932Y-114533158D01*
X49585000Y-114246260D01*
X49585000Y-113953740D01*
X49527932Y-113666842D01*
X49415990Y-113396589D01*
X49253475Y-113153368D01*
X49046632Y-112946525D01*
X48872240Y-112830000D01*
X49046632Y-112713475D01*
X49253475Y-112506632D01*
X49415990Y-112263411D01*
X49527932Y-111993158D01*
X49585000Y-111706260D01*
X49585000Y-111413740D01*
X49527932Y-111126842D01*
X49415990Y-110856589D01*
X49253475Y-110613368D01*
X49046632Y-110406525D01*
X48872240Y-110290000D01*
X49046632Y-110173475D01*
X49253475Y-109966632D01*
X49415990Y-109723411D01*
X49527932Y-109453158D01*
X49585000Y-109166260D01*
X49585000Y-108873740D01*
X49527932Y-108586842D01*
X49415990Y-108316589D01*
X49253475Y-108073368D01*
X49046632Y-107866525D01*
X48872240Y-107750000D01*
X49046632Y-107633475D01*
X49253475Y-107426632D01*
X49415990Y-107183411D01*
X49527932Y-106913158D01*
X49585000Y-106626260D01*
X49585000Y-106333740D01*
X49527932Y-106046842D01*
X49415990Y-105776589D01*
X49253475Y-105533368D01*
X49046632Y-105326525D01*
X48872240Y-105210000D01*
X49046632Y-105093475D01*
X49253475Y-104886632D01*
X49415990Y-104643411D01*
X49527932Y-104373158D01*
X49585000Y-104086260D01*
X49585000Y-103793740D01*
X49527932Y-103506842D01*
X49415990Y-103236589D01*
X49253475Y-102993368D01*
X49046632Y-102786525D01*
X48872240Y-102670000D01*
X49046632Y-102553475D01*
X49253475Y-102346632D01*
X49415990Y-102103411D01*
X49527932Y-101833158D01*
X49585000Y-101546260D01*
X49585000Y-101253740D01*
X49541210Y-101033592D01*
X49786005Y-100788797D01*
X49815002Y-100765000D01*
X49909975Y-100649275D01*
X49980547Y-100517246D01*
X50024004Y-100373985D01*
X50035001Y-100262332D01*
X50035001Y-100262323D01*
X50038677Y-100225000D01*
X50035001Y-100187677D01*
X50035001Y-99264800D01*
X50486915Y-98812886D01*
X50465000Y-98923061D01*
X50465000Y-99126939D01*
X50504774Y-99326898D01*
X50582795Y-99515256D01*
X50689532Y-99675000D01*
X50582795Y-99834744D01*
X50504774Y-100023102D01*
X50465000Y-100223061D01*
X50465000Y-100426939D01*
X50504774Y-100626898D01*
X50582795Y-100815256D01*
X50628152Y-100883137D01*
X50621063Y-100890226D01*
X50507795Y-101059744D01*
X50429774Y-101248102D01*
X50390000Y-101448061D01*
X50390000Y-101651939D01*
X50429774Y-101851898D01*
X50507795Y-102040256D01*
X50621063Y-102209774D01*
X50673789Y-102262500D01*
X50646063Y-102290226D01*
X50532795Y-102459744D01*
X50454774Y-102648102D01*
X50415000Y-102848061D01*
X50415000Y-103051939D01*
X50454774Y-103251898D01*
X50532795Y-103440256D01*
X50626919Y-103581123D01*
X50607795Y-103609744D01*
X50529774Y-103798102D01*
X50490000Y-103998061D01*
X50490000Y-104201939D01*
X50529774Y-104401898D01*
X50607795Y-104590256D01*
X50721063Y-104759774D01*
X50723789Y-104762500D01*
X50721063Y-104765226D01*
X50607795Y-104934744D01*
X50529774Y-105123102D01*
X50490000Y-105323061D01*
X50490000Y-105526939D01*
X50529774Y-105726898D01*
X50607795Y-105915256D01*
X50721063Y-106084774D01*
X50865226Y-106228937D01*
X51034744Y-106342205D01*
X51223102Y-106420226D01*
X51423061Y-106460000D01*
X51626939Y-106460000D01*
X51826898Y-106420226D01*
X52015256Y-106342205D01*
X52184774Y-106228937D01*
X52228711Y-106185000D01*
X55939906Y-106185000D01*
X55876185Y-106280366D01*
X55798164Y-106468724D01*
X55758390Y-106668683D01*
X55758390Y-106729815D01*
X55735000Y-106749011D01*
X55711202Y-106778009D01*
X55711201Y-106778010D01*
X55640026Y-106864736D01*
X55569454Y-106996766D01*
X55525998Y-107140027D01*
X55511324Y-107289012D01*
X55515001Y-107326344D01*
X55515001Y-107821288D01*
X55471063Y-107865226D01*
X55357795Y-108034744D01*
X55279774Y-108223102D01*
X55240000Y-108423061D01*
X55240000Y-108626939D01*
X55252544Y-108690000D01*
X51862322Y-108690000D01*
X51824999Y-108686324D01*
X51787676Y-108690000D01*
X51787667Y-108690000D01*
X51676014Y-108700997D01*
X51532753Y-108744454D01*
X51400723Y-108815026D01*
X51369981Y-108840256D01*
X51339830Y-108865000D01*
X51273061Y-108865000D01*
X51073102Y-108904774D01*
X50884744Y-108982795D01*
X50715226Y-109096063D01*
X50571063Y-109240226D01*
X50457795Y-109409744D01*
X50379774Y-109598102D01*
X50340000Y-109798061D01*
X50340000Y-110001939D01*
X50379774Y-110201898D01*
X50457795Y-110390256D01*
X50571063Y-110559774D01*
X50608192Y-110596903D01*
X50532795Y-110709744D01*
X50454774Y-110898102D01*
X50415000Y-111098061D01*
X50415000Y-111301939D01*
X50454774Y-111501898D01*
X50532795Y-111690256D01*
X50631180Y-111837500D01*
X50532795Y-111984744D01*
X50454774Y-112173102D01*
X50415000Y-112373061D01*
X50415000Y-112576939D01*
X50454774Y-112776898D01*
X50532795Y-112965256D01*
X50568138Y-113018151D01*
X50471063Y-113115226D01*
X50357795Y-113284744D01*
X50279774Y-113473102D01*
X50240000Y-113673061D01*
X50240000Y-113876939D01*
X50279774Y-114076898D01*
X50357795Y-114265256D01*
X50471063Y-114434774D01*
X50522028Y-114485739D01*
X50454774Y-114648102D01*
X50415000Y-114848061D01*
X50415000Y-115051939D01*
X50454774Y-115251898D01*
X50532795Y-115440256D01*
X50618206Y-115568083D01*
X50596063Y-115590226D01*
X50482795Y-115759744D01*
X50404774Y-115948102D01*
X50365000Y-116148061D01*
X50365000Y-116351939D01*
X50404774Y-116551898D01*
X50482795Y-116740256D01*
X50593680Y-116906208D01*
X50507795Y-117034744D01*
X50429774Y-117223102D01*
X50390000Y-117423061D01*
X50390000Y-117626939D01*
X50429774Y-117826898D01*
X50507795Y-118015256D01*
X50621063Y-118184774D01*
X50765226Y-118328937D01*
X50934744Y-118442205D01*
X51123102Y-118520226D01*
X51323061Y-118560000D01*
X51526939Y-118560000D01*
X51726898Y-118520226D01*
X51915256Y-118442205D01*
X52084774Y-118328937D01*
X52128711Y-118285000D01*
X52735199Y-118285000D01*
X55192661Y-120742463D01*
X55148254Y-120728992D01*
X54975000Y-120711928D01*
X54300000Y-120711928D01*
X54126746Y-120728992D01*
X53960150Y-120779528D01*
X53806614Y-120861595D01*
X53672038Y-120972038D01*
X53561595Y-121106614D01*
X53479528Y-121260150D01*
X53428992Y-121426746D01*
X53411928Y-121600000D01*
X53411928Y-122550000D01*
X53428992Y-122723254D01*
X53479528Y-122889850D01*
X53561595Y-123043386D01*
X53672038Y-123177962D01*
X53750048Y-123241983D01*
X53622038Y-123347038D01*
X53511595Y-123481614D01*
X53429528Y-123635150D01*
X53378992Y-123801746D01*
X53361928Y-123975000D01*
X53361928Y-124925000D01*
X53378992Y-125098254D01*
X53429528Y-125264850D01*
X53511595Y-125418386D01*
X53622038Y-125552962D01*
X53756614Y-125663405D01*
X53910150Y-125745472D01*
X54076746Y-125796008D01*
X54250000Y-125813072D01*
X54925000Y-125813072D01*
X55098254Y-125796008D01*
X55264850Y-125745472D01*
X55418386Y-125663405D01*
X55552962Y-125552962D01*
X55663405Y-125418386D01*
X55745472Y-125264850D01*
X55796008Y-125098254D01*
X55813072Y-124925000D01*
X55813072Y-123975000D01*
X55796008Y-123801746D01*
X55745472Y-123635150D01*
X55663405Y-123481614D01*
X55552962Y-123347038D01*
X55474952Y-123283017D01*
X55602962Y-123177962D01*
X55713405Y-123043386D01*
X55795472Y-122889850D01*
X55846008Y-122723254D01*
X55863072Y-122550000D01*
X55863072Y-121600000D01*
X55846008Y-121426746D01*
X55832537Y-121382339D01*
X59221201Y-124771003D01*
X59244999Y-124800001D01*
X59360724Y-124894974D01*
X59492753Y-124965546D01*
X59636014Y-125009003D01*
X59747667Y-125020000D01*
X59747676Y-125020000D01*
X59784999Y-125023676D01*
X59822322Y-125020000D01*
X60696822Y-125020000D01*
X60821525Y-125206632D01*
X61028368Y-125413475D01*
X61271589Y-125575990D01*
X61541842Y-125687932D01*
X61828740Y-125745000D01*
X62121260Y-125745000D01*
X62408158Y-125687932D01*
X62678411Y-125575990D01*
X62921632Y-125413475D01*
X63090001Y-125245106D01*
X63090001Y-130888885D01*
X63086444Y-130925000D01*
X63100635Y-131069085D01*
X63142663Y-131207633D01*
X63210913Y-131335320D01*
X63302762Y-131447238D01*
X63414680Y-131539087D01*
X63542367Y-131607337D01*
X63680915Y-131649365D01*
X63788895Y-131660000D01*
X63825000Y-131663556D01*
X63861105Y-131660000D01*
X64813895Y-131660000D01*
X64850000Y-131663556D01*
X64886105Y-131660000D01*
X64994085Y-131649365D01*
X65132633Y-131607337D01*
X65260320Y-131539087D01*
X65372238Y-131447238D01*
X65464087Y-131335320D01*
X65532337Y-131207633D01*
X65574365Y-131069085D01*
X65588556Y-130925000D01*
X65585000Y-130888895D01*
X65585000Y-115160107D01*
X65678368Y-115253475D01*
X65921589Y-115415990D01*
X66191842Y-115527932D01*
X66478740Y-115585000D01*
X66771260Y-115585000D01*
X67058158Y-115527932D01*
X67328411Y-115415990D01*
X67571632Y-115253475D01*
X67778475Y-115046632D01*
X67940990Y-114803411D01*
X68052932Y-114533158D01*
X68110000Y-114246260D01*
X68110000Y-113953740D01*
X68052932Y-113666842D01*
X67940990Y-113396589D01*
X67778475Y-113153368D01*
X67571632Y-112946525D01*
X67397240Y-112830000D01*
X67571632Y-112713475D01*
X67778475Y-112506632D01*
X67940990Y-112263411D01*
X68052932Y-111993158D01*
X68110000Y-111706260D01*
X68110000Y-111413740D01*
X68052932Y-111126842D01*
X67940990Y-110856589D01*
X67778475Y-110613368D01*
X67571632Y-110406525D01*
X67397240Y-110290000D01*
X67571632Y-110173475D01*
X67778475Y-109966632D01*
X67940990Y-109723411D01*
X68052932Y-109453158D01*
X68110000Y-109166260D01*
X68110000Y-108873740D01*
X68052932Y-108586842D01*
X67940990Y-108316589D01*
X67778475Y-108073368D01*
X67571632Y-107866525D01*
X67397240Y-107750000D01*
X67571632Y-107633475D01*
X67778475Y-107426632D01*
X67940990Y-107183411D01*
X68052932Y-106913158D01*
X68110000Y-106626260D01*
X68110000Y-106333740D01*
X68052932Y-106046842D01*
X67940990Y-105776589D01*
X67778475Y-105533368D01*
X67571632Y-105326525D01*
X67397240Y-105210000D01*
X67571632Y-105093475D01*
X67778475Y-104886632D01*
X67940990Y-104643411D01*
X68052932Y-104373158D01*
X68110000Y-104086260D01*
X68110000Y-103793740D01*
X68052932Y-103506842D01*
X67940990Y-103236589D01*
X67778475Y-102993368D01*
X67571632Y-102786525D01*
X67397240Y-102670000D01*
X67571632Y-102553475D01*
X67778475Y-102346632D01*
X67940990Y-102103411D01*
X68052932Y-101833158D01*
X68110000Y-101546260D01*
X68110000Y-101253740D01*
X68052932Y-100966842D01*
X67940990Y-100696589D01*
X67778475Y-100453368D01*
X67571632Y-100246525D01*
X67397240Y-100130000D01*
X67571632Y-100013475D01*
X67778475Y-99806632D01*
X67940990Y-99563411D01*
X68052932Y-99293158D01*
X68110000Y-99006260D01*
X68110000Y-98713740D01*
X68052932Y-98426842D01*
X67940990Y-98156589D01*
X67778475Y-97913368D01*
X67571632Y-97706525D01*
X67397240Y-97590000D01*
X67571632Y-97473475D01*
X67778475Y-97266632D01*
X67940990Y-97023411D01*
X68052932Y-96753158D01*
X68110000Y-96466260D01*
X68110000Y-96173740D01*
X68052932Y-95886842D01*
X67940990Y-95616589D01*
X67778475Y-95373368D01*
X67571632Y-95166525D01*
X67397240Y-95050000D01*
X67571632Y-94933475D01*
X67778475Y-94726632D01*
X67940990Y-94483411D01*
X68052932Y-94213158D01*
X68110000Y-93926260D01*
X68110000Y-93633740D01*
X68052932Y-93346842D01*
X67940990Y-93076589D01*
X67778475Y-92833368D01*
X67571632Y-92626525D01*
X67397240Y-92510000D01*
X67571632Y-92393475D01*
X67778475Y-92186632D01*
X67940990Y-91943411D01*
X68052932Y-91673158D01*
X68110000Y-91386260D01*
X68110000Y-91093740D01*
X68052932Y-90806842D01*
X67940990Y-90536589D01*
X67778475Y-90293368D01*
X67571632Y-90086525D01*
X67397240Y-89970000D01*
X67571632Y-89853475D01*
X67778475Y-89646632D01*
X67940990Y-89403411D01*
X68052932Y-89133158D01*
X68110000Y-88846260D01*
X68110000Y-88553740D01*
X68052932Y-88266842D01*
X67940990Y-87996589D01*
X67778475Y-87753368D01*
X67571632Y-87546525D01*
X67397240Y-87430000D01*
X67571632Y-87313475D01*
X67778475Y-87106632D01*
X67940990Y-86863411D01*
X68052932Y-86593158D01*
X68110000Y-86306260D01*
X68110000Y-86013740D01*
X68052932Y-85726842D01*
X67940990Y-85456589D01*
X67778475Y-85213368D01*
X67571632Y-85006525D01*
X67397240Y-84890000D01*
X67571632Y-84773475D01*
X67778475Y-84566632D01*
X67940990Y-84323411D01*
X68052932Y-84053158D01*
X68110000Y-83766260D01*
X68110000Y-83473740D01*
X68052932Y-83186842D01*
X67940990Y-82916589D01*
X67778475Y-82673368D01*
X67571632Y-82466525D01*
X67397240Y-82350000D01*
X67571632Y-82233475D01*
X67778475Y-82026632D01*
X67940990Y-81783411D01*
X68052932Y-81513158D01*
X68110000Y-81226260D01*
X68110000Y-80933740D01*
X68052932Y-80646842D01*
X67940990Y-80376589D01*
X67778475Y-80133368D01*
X67571632Y-79926525D01*
X67397240Y-79810000D01*
X67571632Y-79693475D01*
X67778475Y-79486632D01*
X67940990Y-79243411D01*
X68052932Y-78973158D01*
X68110000Y-78686260D01*
X68110000Y-78393740D01*
X68052932Y-78106842D01*
X67940990Y-77836589D01*
X67778475Y-77593368D01*
X67646620Y-77461513D01*
X67719180Y-77439502D01*
X67829494Y-77380537D01*
X67926185Y-77301185D01*
X68005537Y-77204494D01*
X68064502Y-77094180D01*
X68100812Y-76974482D01*
X68113072Y-76850000D01*
X68113072Y-75150000D01*
X68100812Y-75025518D01*
X68064502Y-74905820D01*
X68005537Y-74795506D01*
X67926185Y-74698815D01*
X67829494Y-74619463D01*
X67719180Y-74560498D01*
X67599482Y-74524188D01*
X67475000Y-74511928D01*
X65775000Y-74511928D01*
X65650518Y-74524188D01*
X65597540Y-74540259D01*
X65585080Y-67644017D01*
X65588356Y-67617171D01*
X65584950Y-67571790D01*
X65584933Y-67562568D01*
X65582249Y-67535815D01*
X65577519Y-67472796D01*
X65575030Y-67463846D01*
X65574103Y-67454607D01*
X65555652Y-67394175D01*
X65538723Y-67333308D01*
X65534538Y-67325020D01*
X65531825Y-67316135D01*
X65501944Y-67260474D01*
X65473461Y-67204069D01*
X65467735Y-67196751D01*
X65463344Y-67188572D01*
X65423187Y-67139820D01*
X65384238Y-67090045D01*
X65377196Y-67083986D01*
X65371293Y-67076820D01*
X65322395Y-67036838D01*
X65274486Y-66995619D01*
X65266397Y-66991051D01*
X65259209Y-66985173D01*
X65203440Y-66955493D01*
X65148420Y-66924419D01*
X65139597Y-66921517D01*
X65131399Y-66917154D01*
X65070905Y-66898922D01*
X65010887Y-66879181D01*
X65001669Y-66878056D01*
X64992776Y-66875376D01*
X64929871Y-66869295D01*
X64903183Y-66866039D01*
X64893964Y-66865825D01*
X64848666Y-66861446D01*
X64821757Y-66864145D01*
X63818962Y-66840824D01*
X63773666Y-66836446D01*
X63710806Y-66842752D01*
X63647796Y-66847481D01*
X63638846Y-66849970D01*
X63629607Y-66850897D01*
X63569175Y-66869348D01*
X63508308Y-66886277D01*
X63500020Y-66890462D01*
X63491135Y-66893175D01*
X63435456Y-66923066D01*
X63379069Y-66951540D01*
X63371755Y-66957263D01*
X63363572Y-66961656D01*
X63314809Y-67001822D01*
X63265045Y-67040762D01*
X63258986Y-67047804D01*
X63251820Y-67053707D01*
X63211838Y-67102605D01*
X63170619Y-67150514D01*
X63166051Y-67158603D01*
X63160173Y-67165791D01*
X63130493Y-67221560D01*
X63099419Y-67276580D01*
X63096517Y-67285403D01*
X63092154Y-67293601D01*
X63073922Y-67354095D01*
X63054181Y-67414113D01*
X63053056Y-67423331D01*
X63050376Y-67432224D01*
X63044296Y-67495124D01*
X63036644Y-67557829D01*
X63040050Y-67603202D01*
X63071764Y-85156657D01*
X62921632Y-85006525D01*
X62678411Y-84844010D01*
X62408158Y-84732068D01*
X62121260Y-84675000D01*
X61828740Y-84675000D01*
X61541842Y-84732068D01*
X61271589Y-84844010D01*
X61028368Y-85006525D01*
X60960000Y-85074893D01*
X60960000Y-79979322D01*
X60963676Y-79941999D01*
X60960000Y-79904676D01*
X60960000Y-79904667D01*
X60949003Y-79793014D01*
X60905546Y-79649753D01*
X60834974Y-79517724D01*
X60740001Y-79401999D01*
X60711003Y-79378201D01*
X60037801Y-78705000D01*
X60836003Y-77906799D01*
X60865001Y-77883001D01*
X60959974Y-77767276D01*
X61030546Y-77635247D01*
X61074003Y-77491986D01*
X61085000Y-77380333D01*
X61085000Y-77380323D01*
X61088676Y-77343000D01*
X61085000Y-77305677D01*
X61085000Y-69800107D01*
X61213475Y-69671632D01*
X61375990Y-69428411D01*
X61487932Y-69158158D01*
X61545000Y-68871260D01*
X61545000Y-68578740D01*
X61487932Y-68291842D01*
X61375990Y-68021589D01*
X61213475Y-67778368D01*
X61006632Y-67571525D01*
X60763411Y-67409010D01*
X60493158Y-67297068D01*
X60206260Y-67240000D01*
X59913740Y-67240000D01*
X59626842Y-67297068D01*
X59356589Y-67409010D01*
X59113368Y-67571525D01*
X58906525Y-67778368D01*
X58790000Y-67952760D01*
X58673475Y-67778368D01*
X58466632Y-67571525D01*
X58223411Y-67409010D01*
X57953158Y-67297068D01*
X57666260Y-67240000D01*
X57373740Y-67240000D01*
X57086842Y-67297068D01*
X56816589Y-67409010D01*
X56573368Y-67571525D01*
X56366525Y-67778368D01*
X56250000Y-67952760D01*
X56133475Y-67778368D01*
X55926632Y-67571525D01*
X55683411Y-67409010D01*
X55413158Y-67297068D01*
X55126260Y-67240000D01*
X54833740Y-67240000D01*
X54546842Y-67297068D01*
X54276589Y-67409010D01*
X54033368Y-67571525D01*
X53826525Y-67778368D01*
X53664010Y-68021589D01*
X53552068Y-68291842D01*
X53495000Y-68578740D01*
X53495000Y-68871260D01*
X53552068Y-69158158D01*
X53664010Y-69428411D01*
X53826525Y-69671632D01*
X54033368Y-69878475D01*
X54276589Y-70040990D01*
X54546842Y-70152932D01*
X54833740Y-70210000D01*
X55126260Y-70210000D01*
X55413158Y-70152932D01*
X55475365Y-70127165D01*
X56017245Y-70669044D01*
X55946063Y-70740226D01*
X55832795Y-70909744D01*
X55754774Y-71098102D01*
X55715000Y-71298061D01*
X55715000Y-71501939D01*
X55754774Y-71701898D01*
X55832795Y-71890256D01*
X55946063Y-72059774D01*
X55990001Y-72103712D01*
X55990000Y-74360198D01*
X55500771Y-74849428D01*
X54875000Y-74849428D01*
X54701746Y-74866492D01*
X54535150Y-74917028D01*
X54381614Y-74999095D01*
X54247038Y-75109538D01*
X54136595Y-75244114D01*
X54054528Y-75397650D01*
X54003992Y-75564246D01*
X53986928Y-75737500D01*
X53986928Y-76412500D01*
X54003992Y-76585754D01*
X54054528Y-76752350D01*
X54136595Y-76905886D01*
X54247038Y-77040462D01*
X54381614Y-77150905D01*
X54535150Y-77232972D01*
X54701746Y-77283508D01*
X54875000Y-77300572D01*
X55825000Y-77300572D01*
X55998254Y-77283508D01*
X56164850Y-77232972D01*
X56318386Y-77150905D01*
X56452962Y-77040462D01*
X56563405Y-76905886D01*
X56645472Y-76752350D01*
X56696008Y-76585754D01*
X56713072Y-76412500D01*
X56713072Y-75786730D01*
X57261004Y-75238798D01*
X57290001Y-75215001D01*
X57344179Y-75148985D01*
X57384974Y-75099277D01*
X57455546Y-74967247D01*
X57463811Y-74940000D01*
X57499003Y-74823986D01*
X57510000Y-74712333D01*
X57510000Y-74712323D01*
X57513676Y-74675000D01*
X57510000Y-74637678D01*
X57510000Y-72161801D01*
X58215001Y-72866802D01*
X58215000Y-74296289D01*
X58171063Y-74340226D01*
X58057795Y-74509744D01*
X57979774Y-74698102D01*
X57940000Y-74898061D01*
X57940000Y-75101939D01*
X57979774Y-75301898D01*
X58057795Y-75490256D01*
X58171063Y-75659774D01*
X58315226Y-75803937D01*
X58484744Y-75917205D01*
X58673102Y-75995226D01*
X58873061Y-76035000D01*
X58940001Y-76035000D01*
X58940001Y-76383197D01*
X58923198Y-76400000D01*
X58861061Y-76400000D01*
X58661102Y-76439774D01*
X58472744Y-76517795D01*
X58303226Y-76631063D01*
X58159063Y-76775226D01*
X58045795Y-76944744D01*
X57967774Y-77133102D01*
X57928000Y-77333061D01*
X57928000Y-77395198D01*
X56188998Y-79134201D01*
X56160000Y-79157999D01*
X56136202Y-79186997D01*
X56136201Y-79186998D01*
X56065026Y-79273724D01*
X55994454Y-79405754D01*
X55979819Y-79454002D01*
X55955250Y-79534999D01*
X55950998Y-79549015D01*
X55936324Y-79698000D01*
X55940001Y-79735332D01*
X55940001Y-82588405D01*
X55925000Y-82586928D01*
X54975000Y-82586928D01*
X54801746Y-82603992D01*
X54648555Y-82650462D01*
X54649003Y-82648986D01*
X54660000Y-82537333D01*
X54660000Y-82537324D01*
X54663676Y-82500001D01*
X54660000Y-82462678D01*
X54660000Y-80778711D01*
X54703937Y-80734774D01*
X54817205Y-80565256D01*
X54895226Y-80376898D01*
X54935000Y-80176939D01*
X54935000Y-79973061D01*
X54895226Y-79773102D01*
X54817205Y-79584744D01*
X54703937Y-79415226D01*
X54559774Y-79271063D01*
X54390256Y-79157795D01*
X54201898Y-79079774D01*
X54096641Y-79058837D01*
X54120226Y-79001898D01*
X54160000Y-78801939D01*
X54160000Y-78598061D01*
X54120226Y-78398102D01*
X54042205Y-78209744D01*
X53928937Y-78040226D01*
X53784774Y-77896063D01*
X53615256Y-77782795D01*
X53426898Y-77704774D01*
X53226939Y-77665000D01*
X53023061Y-77665000D01*
X52891315Y-77691206D01*
X52922000Y-77536939D01*
X52922000Y-77333061D01*
X52882226Y-77133102D01*
X52804205Y-76944744D01*
X52690937Y-76775226D01*
X52546774Y-76631063D01*
X52377256Y-76517795D01*
X52188898Y-76439774D01*
X51988939Y-76400000D01*
X51935021Y-76400000D01*
X51935021Y-76273061D01*
X51895247Y-76073102D01*
X51817226Y-75884744D01*
X51703958Y-75715226D01*
X51559795Y-75571063D01*
X51390277Y-75457795D01*
X51201919Y-75379774D01*
X51001960Y-75340000D01*
X50798082Y-75340000D01*
X50598123Y-75379774D01*
X50409765Y-75457795D01*
X50240247Y-75571063D01*
X50096084Y-75715226D01*
X49982816Y-75884744D01*
X49904795Y-76073102D01*
X49865021Y-76273061D01*
X49865021Y-76335198D01*
X49588072Y-76612148D01*
X49588072Y-75150000D01*
X49575812Y-75025518D01*
X49539502Y-74905820D01*
X49480537Y-74795506D01*
X49401185Y-74698815D01*
X49304494Y-74619463D01*
X49194180Y-74560498D01*
X49074482Y-74524188D01*
X48950000Y-74511928D01*
X47250000Y-74511928D01*
X47125518Y-74524188D01*
X47075169Y-74539461D01*
X47077547Y-67875000D01*
X48411928Y-67875000D01*
X48411928Y-69575000D01*
X48424188Y-69699482D01*
X48460498Y-69819180D01*
X48519463Y-69929494D01*
X48598815Y-70026185D01*
X48695506Y-70105537D01*
X48805820Y-70164502D01*
X48925518Y-70200812D01*
X49050000Y-70213072D01*
X50750000Y-70213072D01*
X50874482Y-70200812D01*
X50994180Y-70164502D01*
X51104494Y-70105537D01*
X51201185Y-70026185D01*
X51280537Y-69929494D01*
X51339502Y-69819180D01*
X51375812Y-69699482D01*
X51388072Y-69575000D01*
X51388072Y-67875000D01*
X51375812Y-67750518D01*
X51339502Y-67630820D01*
X51280537Y-67520506D01*
X51201185Y-67423815D01*
X51104494Y-67344463D01*
X50994180Y-67285498D01*
X50874482Y-67249188D01*
X50750000Y-67236928D01*
X49050000Y-67236928D01*
X48925518Y-67249188D01*
X48805820Y-67285498D01*
X48695506Y-67344463D01*
X48598815Y-67423815D01*
X48519463Y-67520506D01*
X48460498Y-67630820D01*
X48424188Y-67750518D01*
X48411928Y-67875000D01*
X47077547Y-67875000D01*
X47078695Y-64658154D01*
X47154551Y-63545460D01*
X47375601Y-62478054D01*
X47739468Y-61450524D01*
X48239419Y-60481886D01*
X48866206Y-59590057D01*
X49608230Y-58791544D01*
X50451752Y-58101130D01*
X51381176Y-57531577D01*
X52379299Y-57093432D01*
X53427652Y-56794800D01*
X54506822Y-56641212D01*
X54688659Y-56640260D01*
X54395570Y-56698558D01*
X53959996Y-56878979D01*
X53567989Y-57140910D01*
X53234615Y-57474284D01*
X52972684Y-57866291D01*
X52792263Y-58301865D01*
X52700286Y-58764269D01*
X52700286Y-59235731D01*
X52792263Y-59698135D01*
X52972684Y-60133709D01*
X53234615Y-60525716D01*
X53567989Y-60859090D01*
X53959996Y-61121021D01*
X54395570Y-61301442D01*
X54857974Y-61393419D01*
X55329436Y-61393419D01*
X55791840Y-61301442D01*
X56227414Y-61121021D01*
X56619421Y-60859090D01*
X56952795Y-60525716D01*
X57214726Y-60133709D01*
X57395147Y-59698135D01*
X57487124Y-59235731D01*
X57487124Y-58764269D01*
X57395147Y-58301865D01*
X57214726Y-57866291D01*
X56952795Y-57474284D01*
X56619421Y-57140910D01*
X56227414Y-56878979D01*
X55791840Y-56698558D01*
X55477974Y-56636127D01*
X55596864Y-56635504D01*
X56677589Y-56777784D01*
X57729011Y-57065421D01*
X58731662Y-57493088D01*
X59667006Y-58052879D01*
X60517716Y-58734427D01*
X61268052Y-59525118D01*
X61904142Y-60410330D01*
X62414216Y-61373690D01*
X62788820Y-62397344D01*
X63021035Y-63462378D01*
X63108376Y-64572153D01*
X63108516Y-64598802D01*
X63105149Y-64632986D01*
X63119340Y-64777071D01*
X63161368Y-64915619D01*
X63229618Y-65043306D01*
X63321467Y-65155224D01*
X63433385Y-65247073D01*
X63561072Y-65315323D01*
X63699620Y-65357351D01*
X63807600Y-65367986D01*
X64879810Y-65367986D01*
X64987790Y-65357351D01*
X65126338Y-65315323D01*
X65254025Y-65247073D01*
X65365943Y-65155224D01*
X65457792Y-65043306D01*
X65526042Y-64915619D01*
X65568070Y-64777071D01*
X65582261Y-64632986D01*
X65581168Y-64621886D01*
X65654551Y-63545460D01*
X65875601Y-62478054D01*
X66239468Y-61450524D01*
X66739419Y-60481886D01*
X67366206Y-59590057D01*
X68108230Y-58791544D01*
X68951752Y-58101130D01*
X69881176Y-57531577D01*
X70879299Y-57093432D01*
X71927652Y-56794800D01*
X73006822Y-56641212D01*
X73188659Y-56640260D01*
X72895570Y-56698558D01*
X72459996Y-56878979D01*
X72067989Y-57140910D01*
X71734615Y-57474284D01*
X71472684Y-57866291D01*
X71292263Y-58301865D01*
X71200286Y-58764269D01*
X71200286Y-59235731D01*
X71292263Y-59698135D01*
X71472684Y-60133709D01*
X71734615Y-60525716D01*
X72067989Y-60859090D01*
X72459996Y-61121021D01*
X72895570Y-61301442D01*
X73357974Y-61393419D01*
X73829436Y-61393419D01*
X74291840Y-61301442D01*
X74727414Y-61121021D01*
X75119421Y-60859090D01*
X75452795Y-60525716D01*
X75714726Y-60133709D01*
X75895147Y-59698135D01*
X75987124Y-59235731D01*
X75987124Y-58764269D01*
X75895147Y-58301865D01*
X75714726Y-57866291D01*
X75452795Y-57474284D01*
X75119421Y-57140910D01*
X74727414Y-56878979D01*
X74291840Y-56698558D01*
X73977974Y-56636127D01*
X74096864Y-56635504D01*
X75177589Y-56777784D01*
%TA.AperFunction,Conductor*%
D17*
G36*
X75177589Y-56777784D02*
G01*
X76229011Y-57065421D01*
X77231662Y-57493088D01*
X78167006Y-58052879D01*
X79017716Y-58734427D01*
X79768052Y-59525118D01*
X80404142Y-60410330D01*
X80914216Y-61373690D01*
X81288820Y-62397344D01*
X81521035Y-63462378D01*
X81608376Y-64572153D01*
X81608715Y-64636836D01*
X81616038Y-64736550D01*
X81636826Y-64834347D01*
X81670693Y-64928419D01*
X81687268Y-64960124D01*
X81711461Y-67157200D01*
X81692663Y-67192368D01*
X81650635Y-67330916D01*
X81640000Y-67438896D01*
X81640001Y-77588886D01*
X81640000Y-77588896D01*
X81640000Y-77811105D01*
X81650635Y-77919085D01*
X81692663Y-78057633D01*
X81711876Y-78093578D01*
X81693176Y-80019689D01*
X81667275Y-80068308D01*
X81625438Y-80206913D01*
X81614951Y-80314908D01*
X81621586Y-85131479D01*
X81496632Y-85006525D01*
X81253411Y-84844010D01*
X80983158Y-84732068D01*
X80696260Y-84675000D01*
X80403740Y-84675000D01*
X80116842Y-84732068D01*
X79846589Y-84844010D01*
X79603368Y-85006525D01*
X79396525Y-85213368D01*
X79234010Y-85456589D01*
X79122068Y-85726842D01*
X79065000Y-86013740D01*
X79065000Y-86306260D01*
X79108791Y-86526408D01*
X78413998Y-87221201D01*
X78385000Y-87244999D01*
X78361202Y-87273997D01*
X78361201Y-87273998D01*
X78290026Y-87360724D01*
X78219454Y-87492754D01*
X78192989Y-87580000D01*
X78175998Y-87636014D01*
X78173242Y-87663998D01*
X78161324Y-87785000D01*
X78165001Y-87822332D01*
X78165000Y-93610198D01*
X77463072Y-94312126D01*
X77463072Y-94149999D01*
X77446008Y-93976745D01*
X77395472Y-93810149D01*
X77313405Y-93656613D01*
X77202962Y-93522038D01*
X77068387Y-93411595D01*
X76914851Y-93329528D01*
X76748255Y-93278992D01*
X76575001Y-93261928D01*
X75674999Y-93261928D01*
X75501745Y-93278992D01*
X75335149Y-93329528D01*
X75181613Y-93411595D01*
X75089003Y-93487598D01*
X75143071Y-93309360D01*
X75165661Y-93080000D01*
X75143071Y-92850640D01*
X75076169Y-92630094D01*
X74967526Y-92426838D01*
X74867455Y-92304900D01*
X74951185Y-92236185D01*
X75030537Y-92139494D01*
X75089502Y-92029180D01*
X75125812Y-91909482D01*
X75138072Y-91785000D01*
X75138072Y-90715000D01*
X75125812Y-90590518D01*
X75089502Y-90470820D01*
X75057130Y-90410257D01*
X75118071Y-90209360D01*
X75140661Y-89980000D01*
X75129221Y-89863852D01*
X75235149Y-89920472D01*
X75401745Y-89971008D01*
X75574999Y-89988072D01*
X76475001Y-89988072D01*
X76648255Y-89971008D01*
X76814851Y-89920472D01*
X76968387Y-89838405D01*
X77102962Y-89727962D01*
X77213405Y-89593387D01*
X77295472Y-89439851D01*
X77346008Y-89273255D01*
X77363072Y-89100001D01*
X77363072Y-88399999D01*
X77346008Y-88226745D01*
X77295472Y-88060149D01*
X77213405Y-87906613D01*
X77102962Y-87772038D01*
X76968387Y-87661595D01*
X76814851Y-87579528D01*
X76648255Y-87528992D01*
X76475001Y-87511928D01*
X75574999Y-87511928D01*
X75401745Y-87528992D01*
X75235149Y-87579528D01*
X75120904Y-87640593D01*
X75140661Y-87440000D01*
X75118071Y-87210640D01*
X75051169Y-86990094D01*
X74942526Y-86786838D01*
X74839851Y-86661727D01*
X74879494Y-86640537D01*
X74976185Y-86561185D01*
X75055537Y-86464494D01*
X75114502Y-86354180D01*
X75150812Y-86234482D01*
X75163072Y-86110000D01*
X75163072Y-85040000D01*
X75150812Y-84915518D01*
X75114502Y-84795820D01*
X75082130Y-84735257D01*
X75143071Y-84534360D01*
X75165661Y-84305000D01*
X75157122Y-84218306D01*
X75181613Y-84238405D01*
X75335149Y-84320472D01*
X75501745Y-84371008D01*
X75674999Y-84388072D01*
X76575001Y-84388072D01*
X76748255Y-84371008D01*
X76914851Y-84320472D01*
X77068387Y-84238405D01*
X77202962Y-84127962D01*
X77313405Y-83993387D01*
X77395472Y-83839851D01*
X77446008Y-83673255D01*
X77463072Y-83500001D01*
X77463072Y-82799999D01*
X77446008Y-82626745D01*
X77395472Y-82460149D01*
X77313405Y-82306613D01*
X77202962Y-82172038D01*
X77068387Y-82061595D01*
X76914851Y-81979528D01*
X76748255Y-81928992D01*
X76575001Y-81911928D01*
X75674999Y-81911928D01*
X75501745Y-81928992D01*
X75335149Y-81979528D01*
X75181613Y-82061595D01*
X75103139Y-82125997D01*
X75143071Y-81994360D01*
X75165661Y-81765000D01*
X75143071Y-81535640D01*
X75076169Y-81315094D01*
X74967526Y-81111838D01*
X74860099Y-80980937D01*
X74951185Y-80906185D01*
X75030537Y-80809494D01*
X75089502Y-80699180D01*
X75125812Y-80579482D01*
X75138072Y-80455000D01*
X75138072Y-79385000D01*
X75125812Y-79260518D01*
X75089502Y-79140820D01*
X75057130Y-79080257D01*
X75118071Y-78879360D01*
X75139484Y-78661954D01*
X75251745Y-78696008D01*
X75424999Y-78713072D01*
X76325001Y-78713072D01*
X76498255Y-78696008D01*
X76664851Y-78645472D01*
X76818387Y-78563405D01*
X76952962Y-78452962D01*
X77063405Y-78318387D01*
X77145472Y-78164851D01*
X77196008Y-77998255D01*
X77213072Y-77825001D01*
X77213072Y-77124999D01*
X77196008Y-76951745D01*
X77145472Y-76785149D01*
X77063405Y-76631613D01*
X76952962Y-76497038D01*
X76818387Y-76386595D01*
X76664851Y-76304528D01*
X76498255Y-76253992D01*
X76325001Y-76236928D01*
X75424999Y-76236928D01*
X75251745Y-76253992D01*
X75122621Y-76293161D01*
X75140661Y-76110000D01*
X75118071Y-75880640D01*
X75051169Y-75660094D01*
X74942526Y-75456838D01*
X74796318Y-75278682D01*
X74618162Y-75132474D01*
X74537531Y-75089376D01*
X74624482Y-75080812D01*
X74744180Y-75044502D01*
X74854494Y-74985537D01*
X74951185Y-74906185D01*
X75030537Y-74809494D01*
X75089502Y-74699180D01*
X75125812Y-74579482D01*
X75138072Y-74455000D01*
X75138072Y-73385000D01*
X75125812Y-73260518D01*
X75089502Y-73140820D01*
X75057130Y-73080257D01*
X75118071Y-72879360D01*
X75140661Y-72650000D01*
X75118071Y-72420640D01*
X75100191Y-72361698D01*
X75210149Y-72420472D01*
X75376745Y-72471008D01*
X75549999Y-72488072D01*
X76450001Y-72488072D01*
X76623255Y-72471008D01*
X76789851Y-72420472D01*
X76943387Y-72338405D01*
X77077962Y-72227962D01*
X77188405Y-72093387D01*
X77270472Y-71939851D01*
X77321008Y-71773255D01*
X77338072Y-71600001D01*
X77338072Y-70899999D01*
X77321008Y-70726745D01*
X77270472Y-70560149D01*
X77188405Y-70406613D01*
X77077962Y-70272038D01*
X76943387Y-70161595D01*
X76789851Y-70079528D01*
X76623255Y-70028992D01*
X76450001Y-70011928D01*
X75549999Y-70011928D01*
X75376745Y-70028992D01*
X75210149Y-70079528D01*
X75139968Y-70117041D01*
X75140661Y-70110000D01*
X75118071Y-69880640D01*
X75051169Y-69660094D01*
X74942526Y-69456838D01*
X74796318Y-69278682D01*
X74618162Y-69132474D01*
X74414906Y-69023831D01*
X74194360Y-68956929D01*
X74022477Y-68940000D01*
X73177523Y-68940000D01*
X73005640Y-68956929D01*
X72785094Y-69023831D01*
X72581838Y-69132474D01*
X72403682Y-69278682D01*
X72257474Y-69456838D01*
X72148831Y-69660094D01*
X72081929Y-69880640D01*
X72059339Y-70110000D01*
X72081929Y-70339360D01*
X72148831Y-70559906D01*
X72247766Y-70745000D01*
X72148831Y-70930094D01*
X72081929Y-71150640D01*
X72059339Y-71380000D01*
X72081929Y-71609360D01*
X72148831Y-71829906D01*
X72247766Y-72015000D01*
X72148831Y-72200094D01*
X72081929Y-72420640D01*
X72059339Y-72650000D01*
X72081929Y-72879360D01*
X72142870Y-73080257D01*
X72110498Y-73140820D01*
X72074188Y-73260518D01*
X72061928Y-73385000D01*
X72061928Y-74455000D01*
X72074188Y-74579482D01*
X72110498Y-74699180D01*
X72169463Y-74809494D01*
X72248815Y-74906185D01*
X72345506Y-74985537D01*
X72455820Y-75044502D01*
X72575518Y-75080812D01*
X72662469Y-75089376D01*
X72581838Y-75132474D01*
X72403682Y-75278682D01*
X72257474Y-75456838D01*
X72148831Y-75660094D01*
X72081929Y-75880640D01*
X72059339Y-76110000D01*
X72081929Y-76339360D01*
X72148831Y-76559906D01*
X72247766Y-76745000D01*
X72148831Y-76930094D01*
X72081929Y-77150640D01*
X72059339Y-77380000D01*
X72081929Y-77609360D01*
X72148831Y-77829906D01*
X72247766Y-78015000D01*
X72148831Y-78200094D01*
X72081929Y-78420640D01*
X72059339Y-78650000D01*
X72081929Y-78879360D01*
X72142870Y-79080257D01*
X72110498Y-79140820D01*
X72074188Y-79260518D01*
X72061928Y-79385000D01*
X72061928Y-80455000D01*
X72074188Y-80579482D01*
X72110498Y-80699180D01*
X72169463Y-80809494D01*
X72248815Y-80906185D01*
X72345506Y-80985537D01*
X72373740Y-81000629D01*
X72282474Y-81111838D01*
X72173831Y-81315094D01*
X72106929Y-81535640D01*
X72084339Y-81765000D01*
X72106929Y-81994360D01*
X72173831Y-82214906D01*
X72272766Y-82400000D01*
X72173831Y-82585094D01*
X72106929Y-82805640D01*
X72084339Y-83035000D01*
X72106929Y-83264360D01*
X72173831Y-83484906D01*
X72272766Y-83670000D01*
X72173831Y-83855094D01*
X72106929Y-84075640D01*
X72084339Y-84305000D01*
X72106929Y-84534360D01*
X72167870Y-84735257D01*
X72135498Y-84795820D01*
X72099188Y-84915518D01*
X72086928Y-85040000D01*
X72086928Y-86110000D01*
X72099188Y-86234482D01*
X72135498Y-86354180D01*
X72194463Y-86464494D01*
X72273815Y-86561185D01*
X72370506Y-86640537D01*
X72375395Y-86643150D01*
X72257474Y-86786838D01*
X72148831Y-86990094D01*
X72081929Y-87210640D01*
X72059339Y-87440000D01*
X72081929Y-87669360D01*
X72148831Y-87889906D01*
X72247766Y-88075000D01*
X72148831Y-88260094D01*
X72081929Y-88480640D01*
X72059339Y-88710000D01*
X72081929Y-88939360D01*
X72148831Y-89159906D01*
X72247766Y-89345000D01*
X72148831Y-89530094D01*
X72081929Y-89750640D01*
X72059339Y-89980000D01*
X72081929Y-90209360D01*
X72142870Y-90410257D01*
X72110498Y-90470820D01*
X72074188Y-90590518D01*
X72061928Y-90715000D01*
X72061928Y-91785000D01*
X72074188Y-91909482D01*
X72110498Y-92029180D01*
X72169463Y-92139494D01*
X72248815Y-92236185D01*
X72345506Y-92315537D01*
X72365184Y-92326055D01*
X72282474Y-92426838D01*
X72173831Y-92630094D01*
X72106929Y-92850640D01*
X72084339Y-93080000D01*
X72106929Y-93309360D01*
X72173831Y-93529906D01*
X72272766Y-93715000D01*
X72173831Y-93900094D01*
X72106929Y-94120640D01*
X72084339Y-94350000D01*
X72106929Y-94579360D01*
X72173831Y-94799906D01*
X72272766Y-94985000D01*
X72173831Y-95170094D01*
X72106929Y-95390640D01*
X72084339Y-95620000D01*
X72106929Y-95849360D01*
X72167870Y-96050257D01*
X72135498Y-96110820D01*
X72099188Y-96230518D01*
X72086928Y-96355000D01*
X72086928Y-97425000D01*
X72099188Y-97549482D01*
X72135498Y-97669180D01*
X72194463Y-97779494D01*
X72273815Y-97876185D01*
X72370506Y-97955537D01*
X72403986Y-97973433D01*
X72403682Y-97973682D01*
X72257474Y-98151838D01*
X72148831Y-98355094D01*
X72081929Y-98575640D01*
X72059339Y-98805000D01*
X72078656Y-99001132D01*
X71923255Y-98953992D01*
X71750001Y-98936928D01*
X70849999Y-98936928D01*
X70676745Y-98953992D01*
X70510149Y-99004528D01*
X70356613Y-99086595D01*
X70222038Y-99197038D01*
X70111595Y-99331613D01*
X70029528Y-99485149D01*
X69978992Y-99651745D01*
X69961928Y-99824999D01*
X69961928Y-100525001D01*
X69978992Y-100698255D01*
X70029528Y-100864851D01*
X70111595Y-101018387D01*
X70222038Y-101152962D01*
X70356613Y-101263405D01*
X70510149Y-101345472D01*
X70676745Y-101396008D01*
X70849999Y-101413072D01*
X71750001Y-101413072D01*
X71923255Y-101396008D01*
X72060269Y-101354445D01*
X72081929Y-101574360D01*
X72142870Y-101775257D01*
X72110498Y-101835820D01*
X72074188Y-101955518D01*
X72061928Y-102080000D01*
X72061928Y-103150000D01*
X72074188Y-103274482D01*
X72110498Y-103394180D01*
X72169463Y-103504494D01*
X72248815Y-103601185D01*
X72345506Y-103680537D01*
X72362332Y-103689531D01*
X72282474Y-103786838D01*
X72173831Y-103990094D01*
X72106929Y-104210640D01*
X72084339Y-104440000D01*
X72096253Y-104560968D01*
X72073255Y-104553992D01*
X71900001Y-104536928D01*
X70999999Y-104536928D01*
X70826745Y-104553992D01*
X70660149Y-104604528D01*
X70506613Y-104686595D01*
X70372038Y-104797038D01*
X70261595Y-104931613D01*
X70179528Y-105085149D01*
X70128992Y-105251745D01*
X70111928Y-105424999D01*
X70111928Y-106125001D01*
X70128992Y-106298255D01*
X70179528Y-106464851D01*
X70261595Y-106618387D01*
X70372038Y-106752962D01*
X70506613Y-106863405D01*
X70660149Y-106945472D01*
X70826745Y-106996008D01*
X70999999Y-107013072D01*
X71900001Y-107013072D01*
X72073255Y-106996008D01*
X72085548Y-106992279D01*
X72106929Y-107209360D01*
X72167870Y-107410257D01*
X72135498Y-107470820D01*
X72099188Y-107590518D01*
X72086928Y-107715000D01*
X72086928Y-108785000D01*
X72099188Y-108909482D01*
X72135498Y-109029180D01*
X72194463Y-109139494D01*
X72273815Y-109236185D01*
X72370506Y-109315537D01*
X72410413Y-109336868D01*
X72332474Y-109431838D01*
X72223831Y-109635094D01*
X72156929Y-109855640D01*
X72134339Y-110085000D01*
X72144993Y-110193170D01*
X72098255Y-110178992D01*
X71925001Y-110161928D01*
X71024999Y-110161928D01*
X70851745Y-110178992D01*
X70685149Y-110229528D01*
X70531613Y-110311595D01*
X70397038Y-110422038D01*
X70286595Y-110556613D01*
X70204528Y-110710149D01*
X70153992Y-110876745D01*
X70136928Y-111049999D01*
X70136928Y-111750001D01*
X70153992Y-111923255D01*
X70204528Y-112089851D01*
X70286595Y-112243387D01*
X70397038Y-112377962D01*
X70531613Y-112488405D01*
X70685149Y-112570472D01*
X70851745Y-112621008D01*
X71024999Y-112638072D01*
X71925001Y-112638072D01*
X72098255Y-112621008D01*
X72135856Y-112609602D01*
X72134339Y-112625000D01*
X72156929Y-112854360D01*
X72217870Y-113055257D01*
X72185498Y-113115820D01*
X72149188Y-113235518D01*
X72136928Y-113360000D01*
X72136928Y-114430000D01*
X72149188Y-114554482D01*
X72185498Y-114674180D01*
X72244463Y-114784494D01*
X72323815Y-114881185D01*
X72420506Y-114960537D01*
X72530820Y-115019502D01*
X72650518Y-115055812D01*
X72680853Y-115058800D01*
X72528682Y-115183682D01*
X72382474Y-115361838D01*
X72273831Y-115565094D01*
X72206929Y-115785640D01*
X72184339Y-116015000D01*
X72199561Y-116169556D01*
X72148255Y-116153992D01*
X71975001Y-116136928D01*
X71074999Y-116136928D01*
X70901745Y-116153992D01*
X70735149Y-116204528D01*
X70581613Y-116286595D01*
X70447038Y-116397038D01*
X70336595Y-116531613D01*
X70254528Y-116685149D01*
X70203992Y-116851745D01*
X70186928Y-117024999D01*
X70186928Y-117725001D01*
X70203992Y-117898255D01*
X70254528Y-118064851D01*
X70336595Y-118218387D01*
X70447038Y-118352962D01*
X70581613Y-118463405D01*
X70735149Y-118545472D01*
X70901745Y-118596008D01*
X71074999Y-118613072D01*
X71975001Y-118613072D01*
X72148255Y-118596008D01*
X72187214Y-118584190D01*
X72206929Y-118784360D01*
X72267870Y-118985257D01*
X72235498Y-119045820D01*
X72199188Y-119165518D01*
X72186928Y-119290000D01*
X72186928Y-120360000D01*
X72199188Y-120484482D01*
X72235498Y-120604180D01*
X72294463Y-120714494D01*
X72373815Y-120811185D01*
X72445418Y-120869948D01*
X72428682Y-120883682D01*
X72282474Y-121061838D01*
X72173831Y-121265094D01*
X72106929Y-121485640D01*
X72084339Y-121715000D01*
X72106929Y-121944360D01*
X72111026Y-121957866D01*
X72098255Y-121953992D01*
X71925001Y-121936928D01*
X71024999Y-121936928D01*
X70851745Y-121953992D01*
X70685149Y-122004528D01*
X70531613Y-122086595D01*
X70397038Y-122197038D01*
X70286595Y-122331613D01*
X70204528Y-122485149D01*
X70153992Y-122651745D01*
X70136928Y-122824999D01*
X70136928Y-123525001D01*
X70153992Y-123698255D01*
X70204528Y-123864851D01*
X70286595Y-124018387D01*
X70397038Y-124152962D01*
X70531613Y-124263405D01*
X70685149Y-124345472D01*
X70851745Y-124396008D01*
X71024999Y-124413072D01*
X71925001Y-124413072D01*
X72098227Y-124396011D01*
X72106929Y-124484360D01*
X72167870Y-124685257D01*
X72135498Y-124745820D01*
X72099188Y-124865518D01*
X72086928Y-124990000D01*
X72086928Y-126060000D01*
X72099188Y-126184482D01*
X72135498Y-126304180D01*
X72194463Y-126414494D01*
X72273815Y-126511185D01*
X72370506Y-126590537D01*
X72480820Y-126649502D01*
X72566116Y-126675376D01*
X72403682Y-126808682D01*
X72257474Y-126986838D01*
X72148831Y-127190094D01*
X72081929Y-127410640D01*
X72059344Y-127639947D01*
X72039851Y-127629528D01*
X71873255Y-127578992D01*
X71700001Y-127561928D01*
X70799999Y-127561928D01*
X70626745Y-127578992D01*
X70460149Y-127629528D01*
X70306613Y-127711595D01*
X70172038Y-127822038D01*
X70061595Y-127956613D01*
X69979528Y-128110149D01*
X69928992Y-128276745D01*
X69911928Y-128449999D01*
X69911928Y-129150001D01*
X69928992Y-129323255D01*
X69979528Y-129489851D01*
X70061595Y-129643387D01*
X70172038Y-129777962D01*
X70306613Y-129888405D01*
X70460149Y-129970472D01*
X70626745Y-130021008D01*
X70799999Y-130038072D01*
X71700001Y-130038072D01*
X71873255Y-130021008D01*
X72039851Y-129970472D01*
X72082892Y-129947466D01*
X72081929Y-129950640D01*
X72059339Y-130180000D01*
X72081929Y-130409360D01*
X72142870Y-130610257D01*
X72110498Y-130670820D01*
X72074188Y-130790518D01*
X72061928Y-130915000D01*
X72061928Y-131985000D01*
X72074188Y-132109482D01*
X72110498Y-132229180D01*
X72169463Y-132339494D01*
X72248815Y-132436185D01*
X72345506Y-132515537D01*
X72455820Y-132574502D01*
X72575518Y-132610812D01*
X72700000Y-132623072D01*
X74500000Y-132623072D01*
X74624482Y-132610812D01*
X74744180Y-132574502D01*
X74854494Y-132515537D01*
X74951185Y-132436185D01*
X75030537Y-132339494D01*
X75089502Y-132229180D01*
X75125812Y-132109482D01*
X75138072Y-131985000D01*
X75138072Y-130915000D01*
X75125812Y-130790518D01*
X75089502Y-130670820D01*
X75057130Y-130610257D01*
X75118071Y-130409360D01*
X75140661Y-130180000D01*
X75118071Y-129950640D01*
X75051169Y-129730094D01*
X74952234Y-129545000D01*
X75051169Y-129359906D01*
X75118071Y-129139360D01*
X75140661Y-128910000D01*
X75118071Y-128680640D01*
X75051169Y-128460094D01*
X74952234Y-128275000D01*
X75051169Y-128089906D01*
X75118071Y-127869360D01*
X75140661Y-127640000D01*
X75118071Y-127410640D01*
X75051169Y-127190094D01*
X74942526Y-126986838D01*
X74796318Y-126808682D01*
X74646908Y-126686065D01*
X74649482Y-126685812D01*
X74769180Y-126649502D01*
X74879494Y-126590537D01*
X74976185Y-126511185D01*
X75055537Y-126414494D01*
X75114502Y-126304180D01*
X75150812Y-126184482D01*
X75163072Y-126060000D01*
X75163072Y-124990000D01*
X75150812Y-124865518D01*
X75114502Y-124745820D01*
X75082130Y-124685257D01*
X75143071Y-124484360D01*
X75165661Y-124255000D01*
X75143071Y-124025640D01*
X75076169Y-123805094D01*
X74977234Y-123620000D01*
X75076169Y-123434906D01*
X75143071Y-123214360D01*
X75165661Y-122985000D01*
X75143071Y-122755640D01*
X75076169Y-122535094D01*
X74977234Y-122350000D01*
X75076169Y-122164906D01*
X75143071Y-121944360D01*
X75165661Y-121715000D01*
X75143071Y-121485640D01*
X75076169Y-121265094D01*
X74967526Y-121061838D01*
X74873458Y-120947215D01*
X74979494Y-120890537D01*
X75076185Y-120811185D01*
X75155537Y-120714494D01*
X75214502Y-120604180D01*
X75250812Y-120484482D01*
X75263072Y-120360000D01*
X75263072Y-119290000D01*
X75250812Y-119165518D01*
X75214502Y-119045820D01*
X75182130Y-118985257D01*
X75243071Y-118784360D01*
X75265661Y-118555000D01*
X75243071Y-118325640D01*
X75176169Y-118105094D01*
X75077234Y-117920000D01*
X75176169Y-117734906D01*
X75243071Y-117514360D01*
X75265661Y-117285000D01*
X75243071Y-117055640D01*
X75176169Y-116835094D01*
X75077234Y-116650000D01*
X75176169Y-116464906D01*
X75243071Y-116244360D01*
X75265661Y-116015000D01*
X75243071Y-115785640D01*
X75176169Y-115565094D01*
X75067526Y-115361838D01*
X74921318Y-115183682D01*
X74747688Y-115041189D01*
X74819180Y-115019502D01*
X74929494Y-114960537D01*
X75026185Y-114881185D01*
X75105537Y-114784494D01*
X75164502Y-114674180D01*
X75200812Y-114554482D01*
X75213072Y-114430000D01*
X75213072Y-113360000D01*
X75200812Y-113235518D01*
X75164502Y-113115820D01*
X75132130Y-113055257D01*
X75193071Y-112854360D01*
X75215661Y-112625000D01*
X75193071Y-112395640D01*
X75126169Y-112175094D01*
X75027234Y-111990000D01*
X75126169Y-111804906D01*
X75193071Y-111584360D01*
X75215661Y-111355000D01*
X75193071Y-111125640D01*
X75126169Y-110905094D01*
X75027234Y-110720000D01*
X75126169Y-110534906D01*
X75193071Y-110314360D01*
X75215661Y-110085000D01*
X75193071Y-109855640D01*
X75126169Y-109635094D01*
X75017526Y-109431838D01*
X74904942Y-109294653D01*
X74976185Y-109236185D01*
X75055537Y-109139494D01*
X75114502Y-109029180D01*
X75150812Y-108909482D01*
X75163072Y-108785000D01*
X75163072Y-107715000D01*
X75150812Y-107590518D01*
X75114502Y-107470820D01*
X75082130Y-107410257D01*
X75143071Y-107209360D01*
X75165661Y-106980000D01*
X75156618Y-106888183D01*
X77006629Y-105038172D01*
X77021063Y-105059774D01*
X77165226Y-105203937D01*
X77334744Y-105317205D01*
X77523102Y-105395226D01*
X77723061Y-105435000D01*
X77926939Y-105435000D01*
X78126898Y-105395226D01*
X78315256Y-105317205D01*
X78484774Y-105203937D01*
X78628937Y-105059774D01*
X78742205Y-104890256D01*
X78820226Y-104701898D01*
X78820604Y-104700000D01*
X79271822Y-104700000D01*
X79396525Y-104886632D01*
X79603368Y-105093475D01*
X79777760Y-105210000D01*
X79603368Y-105326525D01*
X79396525Y-105533368D01*
X79234010Y-105776589D01*
X79122068Y-106046842D01*
X79065000Y-106333740D01*
X79065000Y-106626260D01*
X79122068Y-106913158D01*
X79234010Y-107183411D01*
X79396525Y-107426632D01*
X79603368Y-107633475D01*
X79777760Y-107750000D01*
X79603368Y-107866525D01*
X79396525Y-108073368D01*
X79234010Y-108316589D01*
X79122068Y-108586842D01*
X79065000Y-108873740D01*
X79065000Y-109166260D01*
X79122068Y-109453158D01*
X79234010Y-109723411D01*
X79396525Y-109966632D01*
X79603368Y-110173475D01*
X79777760Y-110290000D01*
X79603368Y-110406525D01*
X79396525Y-110613368D01*
X79271822Y-110800000D01*
X77202332Y-110800000D01*
X77165009Y-110796324D01*
X77127686Y-110800000D01*
X77127677Y-110800000D01*
X77016024Y-110810997D01*
X76872763Y-110854454D01*
X76740733Y-110925026D01*
X76719751Y-110942246D01*
X76625009Y-111019999D01*
X76601211Y-111048998D01*
X76385208Y-111265000D01*
X76323071Y-111265000D01*
X76123112Y-111304774D01*
X75934754Y-111382795D01*
X75765236Y-111496063D01*
X75621073Y-111640226D01*
X75507805Y-111809744D01*
X75429784Y-111998102D01*
X75390010Y-112198061D01*
X75390010Y-112401939D01*
X75429784Y-112601898D01*
X75507805Y-112790256D01*
X75621073Y-112959774D01*
X75765236Y-113103937D01*
X75934754Y-113217205D01*
X76123112Y-113295226D01*
X76323071Y-113335000D01*
X76526949Y-113335000D01*
X76726908Y-113295226D01*
X76915266Y-113217205D01*
X77084784Y-113103937D01*
X77228947Y-112959774D01*
X77342215Y-112790256D01*
X77420236Y-112601898D01*
X77460010Y-112401939D01*
X77460010Y-112339802D01*
X77479812Y-112320000D01*
X79271822Y-112320000D01*
X79396525Y-112506632D01*
X79603368Y-112713475D01*
X79777760Y-112830000D01*
X79603368Y-112946525D01*
X79396525Y-113153368D01*
X79234010Y-113396589D01*
X79122068Y-113666842D01*
X79065000Y-113953740D01*
X79065000Y-114246260D01*
X79122068Y-114533158D01*
X79234010Y-114803411D01*
X79396525Y-115046632D01*
X79603368Y-115253475D01*
X79777760Y-115370000D01*
X79603368Y-115486525D01*
X79396525Y-115693368D01*
X79234010Y-115936589D01*
X79122068Y-116206842D01*
X79065000Y-116493740D01*
X79065000Y-116786260D01*
X79122068Y-117073158D01*
X79234010Y-117343411D01*
X79396525Y-117586632D01*
X79603368Y-117793475D01*
X79777760Y-117910000D01*
X79603368Y-118026525D01*
X79396525Y-118233368D01*
X79241754Y-118465000D01*
X78078711Y-118465000D01*
X78034774Y-118421063D01*
X77865256Y-118307795D01*
X77676898Y-118229774D01*
X77476939Y-118190000D01*
X77273061Y-118190000D01*
X77073102Y-118229774D01*
X76884744Y-118307795D01*
X76715226Y-118421063D01*
X76571063Y-118565226D01*
X76457795Y-118734744D01*
X76379774Y-118923102D01*
X76340000Y-119123061D01*
X76340000Y-119326939D01*
X76379774Y-119526898D01*
X76457795Y-119715256D01*
X76571063Y-119884774D01*
X76715226Y-120028937D01*
X76884744Y-120142205D01*
X77073102Y-120220226D01*
X77273061Y-120260000D01*
X77476939Y-120260000D01*
X77676898Y-120220226D01*
X77865256Y-120142205D01*
X78034774Y-120028937D01*
X78078711Y-119985000D01*
X79301890Y-119985000D01*
X79396525Y-120126632D01*
X79603368Y-120333475D01*
X79777760Y-120450000D01*
X79603368Y-120566525D01*
X79396525Y-120773368D01*
X79234010Y-121016589D01*
X79122068Y-121286842D01*
X79065000Y-121573740D01*
X79065000Y-121866260D01*
X79122068Y-122153158D01*
X79234010Y-122423411D01*
X79396525Y-122666632D01*
X79603368Y-122873475D01*
X79777760Y-122990000D01*
X79603368Y-123106525D01*
X79396525Y-123313368D01*
X79234010Y-123556589D01*
X79122068Y-123826842D01*
X79065000Y-124113740D01*
X79065000Y-124406260D01*
X79122068Y-124693158D01*
X79234010Y-124963411D01*
X79396525Y-125206632D01*
X79603368Y-125413475D01*
X79846589Y-125575990D01*
X80116842Y-125687932D01*
X80403740Y-125745000D01*
X80696260Y-125745000D01*
X80983158Y-125687932D01*
X81253411Y-125575990D01*
X81496632Y-125413475D01*
X81626001Y-125284106D01*
X81614932Y-130984677D01*
X81625357Y-131092678D01*
X81667116Y-131231307D01*
X81687048Y-131268773D01*
X81668003Y-133344685D01*
X81644442Y-133388111D01*
X81601549Y-133526394D01*
X81590240Y-133634306D01*
X81583861Y-134655666D01*
X81507859Y-135770511D01*
X81286809Y-136837918D01*
X80922941Y-137865451D01*
X80422986Y-138834095D01*
X79796204Y-139725914D01*
X79054183Y-140524424D01*
X78210658Y-141214842D01*
X77281232Y-141784396D01*
X76283111Y-142222540D01*
X75234759Y-142521172D01*
X74155588Y-142674760D01*
X73065546Y-142680468D01*
X71984821Y-142538188D01*
X70933400Y-142250551D01*
X69930743Y-141822882D01*
X68995408Y-141263095D01*
X68144698Y-140581549D01*
X67394358Y-139790856D01*
X67375254Y-139764269D01*
X71175286Y-139764269D01*
X71175286Y-140235731D01*
X71267263Y-140698135D01*
X71447684Y-141133709D01*
X71709615Y-141525716D01*
X72042989Y-141859090D01*
X72434996Y-142121021D01*
X72870570Y-142301442D01*
X73332974Y-142393419D01*
X73804436Y-142393419D01*
X74266840Y-142301442D01*
X74702414Y-142121021D01*
X75094421Y-141859090D01*
X75427795Y-141525716D01*
X75689726Y-141133709D01*
X75870147Y-140698135D01*
X75962124Y-140235731D01*
X75962124Y-139764269D01*
X75870147Y-139301865D01*
X75689726Y-138866291D01*
X75427795Y-138474284D01*
X75094421Y-138140910D01*
X74702414Y-137878979D01*
X74266840Y-137698558D01*
X73804436Y-137606581D01*
X73332974Y-137606581D01*
X72870570Y-137698558D01*
X72434996Y-137878979D01*
X72042989Y-138140910D01*
X71709615Y-138474284D01*
X71447684Y-138866291D01*
X71267263Y-139301865D01*
X71175286Y-139764269D01*
X67375254Y-139764269D01*
X66758261Y-138905632D01*
X66248194Y-137942282D01*
X65873591Y-136918628D01*
X65641374Y-135853587D01*
X65554034Y-134743819D01*
X65553894Y-134717170D01*
X65557261Y-134682986D01*
X65543070Y-134538901D01*
X65501042Y-134400353D01*
X65432792Y-134272666D01*
X65340943Y-134160748D01*
X65229025Y-134068899D01*
X65101338Y-134000649D01*
X64962790Y-133958621D01*
X64854810Y-133947986D01*
X63782600Y-133947986D01*
X63674620Y-133958621D01*
X63536072Y-134000649D01*
X63408385Y-134068899D01*
X63296467Y-134160748D01*
X63204618Y-134272666D01*
X63136368Y-134400353D01*
X63094340Y-134538901D01*
X63080149Y-134682986D01*
X63081242Y-134694086D01*
X63007859Y-135770511D01*
X62786809Y-136837918D01*
X62422941Y-137865451D01*
X61922986Y-138834095D01*
X61296204Y-139725914D01*
X60554183Y-140524424D01*
X59710658Y-141214842D01*
X58781232Y-141784396D01*
X57783111Y-142222540D01*
X56734759Y-142521172D01*
X55655588Y-142674760D01*
X54565546Y-142680468D01*
X53484821Y-142538188D01*
X52433400Y-142250551D01*
X51430743Y-141822882D01*
X50495408Y-141263095D01*
X49644698Y-140581549D01*
X48894358Y-139790856D01*
X48875254Y-139764269D01*
X52675286Y-139764269D01*
X52675286Y-140235731D01*
X52767263Y-140698135D01*
X52947684Y-141133709D01*
X53209615Y-141525716D01*
X53542989Y-141859090D01*
X53934996Y-142121021D01*
X54370570Y-142301442D01*
X54832974Y-142393419D01*
X55304436Y-142393419D01*
X55766840Y-142301442D01*
X56202414Y-142121021D01*
X56594421Y-141859090D01*
X56927795Y-141525716D01*
X57189726Y-141133709D01*
X57370147Y-140698135D01*
X57462124Y-140235731D01*
X57462124Y-139764269D01*
X57370147Y-139301865D01*
X57189726Y-138866291D01*
X56927795Y-138474284D01*
X56594421Y-138140910D01*
X56202414Y-137878979D01*
X55766840Y-137698558D01*
X55304436Y-137606581D01*
X54832974Y-137606581D01*
X54370570Y-137698558D01*
X53934996Y-137878979D01*
X53542989Y-138140910D01*
X53209615Y-138474284D01*
X52947684Y-138866291D01*
X52767263Y-139301865D01*
X52675286Y-139764269D01*
X48875254Y-139764269D01*
X48258261Y-138905632D01*
X47748194Y-137942282D01*
X47373591Y-136918628D01*
X47141374Y-135853587D01*
X47054034Y-134743819D01*
X47053706Y-134681165D01*
X47060672Y-115160779D01*
X47153368Y-115253475D01*
X47396589Y-115415990D01*
X47666842Y-115527932D01*
X47953740Y-115585000D01*
X48246260Y-115585000D01*
X48533158Y-115527932D01*
X48803411Y-115415990D01*
X49046632Y-115253475D01*
X49253475Y-115046632D01*
X49415990Y-114803411D01*
X49527932Y-114533158D01*
X49585000Y-114246260D01*
X49585000Y-113953740D01*
X49527932Y-113666842D01*
X49415990Y-113396589D01*
X49253475Y-113153368D01*
X49046632Y-112946525D01*
X48872240Y-112830000D01*
X49046632Y-112713475D01*
X49253475Y-112506632D01*
X49415990Y-112263411D01*
X49527932Y-111993158D01*
X49585000Y-111706260D01*
X49585000Y-111413740D01*
X49527932Y-111126842D01*
X49415990Y-110856589D01*
X49253475Y-110613368D01*
X49046632Y-110406525D01*
X48872240Y-110290000D01*
X49046632Y-110173475D01*
X49253475Y-109966632D01*
X49415990Y-109723411D01*
X49527932Y-109453158D01*
X49585000Y-109166260D01*
X49585000Y-108873740D01*
X49527932Y-108586842D01*
X49415990Y-108316589D01*
X49253475Y-108073368D01*
X49046632Y-107866525D01*
X48872240Y-107750000D01*
X49046632Y-107633475D01*
X49253475Y-107426632D01*
X49415990Y-107183411D01*
X49527932Y-106913158D01*
X49585000Y-106626260D01*
X49585000Y-106333740D01*
X49527932Y-106046842D01*
X49415990Y-105776589D01*
X49253475Y-105533368D01*
X49046632Y-105326525D01*
X48872240Y-105210000D01*
X49046632Y-105093475D01*
X49253475Y-104886632D01*
X49415990Y-104643411D01*
X49527932Y-104373158D01*
X49585000Y-104086260D01*
X49585000Y-103793740D01*
X49527932Y-103506842D01*
X49415990Y-103236589D01*
X49253475Y-102993368D01*
X49046632Y-102786525D01*
X48872240Y-102670000D01*
X49046632Y-102553475D01*
X49253475Y-102346632D01*
X49415990Y-102103411D01*
X49527932Y-101833158D01*
X49585000Y-101546260D01*
X49585000Y-101253740D01*
X49541210Y-101033592D01*
X49786005Y-100788797D01*
X49815002Y-100765000D01*
X49909975Y-100649275D01*
X49980547Y-100517246D01*
X50024004Y-100373985D01*
X50035001Y-100262332D01*
X50035001Y-100262323D01*
X50038677Y-100225000D01*
X50035001Y-100187677D01*
X50035001Y-99264800D01*
X50486915Y-98812886D01*
X50465000Y-98923061D01*
X50465000Y-99126939D01*
X50504774Y-99326898D01*
X50582795Y-99515256D01*
X50689532Y-99675000D01*
X50582795Y-99834744D01*
X50504774Y-100023102D01*
X50465000Y-100223061D01*
X50465000Y-100426939D01*
X50504774Y-100626898D01*
X50582795Y-100815256D01*
X50628152Y-100883137D01*
X50621063Y-100890226D01*
X50507795Y-101059744D01*
X50429774Y-101248102D01*
X50390000Y-101448061D01*
X50390000Y-101651939D01*
X50429774Y-101851898D01*
X50507795Y-102040256D01*
X50621063Y-102209774D01*
X50673789Y-102262500D01*
X50646063Y-102290226D01*
X50532795Y-102459744D01*
X50454774Y-102648102D01*
X50415000Y-102848061D01*
X50415000Y-103051939D01*
X50454774Y-103251898D01*
X50532795Y-103440256D01*
X50626919Y-103581123D01*
X50607795Y-103609744D01*
X50529774Y-103798102D01*
X50490000Y-103998061D01*
X50490000Y-104201939D01*
X50529774Y-104401898D01*
X50607795Y-104590256D01*
X50721063Y-104759774D01*
X50723789Y-104762500D01*
X50721063Y-104765226D01*
X50607795Y-104934744D01*
X50529774Y-105123102D01*
X50490000Y-105323061D01*
X50490000Y-105526939D01*
X50529774Y-105726898D01*
X50607795Y-105915256D01*
X50721063Y-106084774D01*
X50865226Y-106228937D01*
X51034744Y-106342205D01*
X51223102Y-106420226D01*
X51423061Y-106460000D01*
X51626939Y-106460000D01*
X51826898Y-106420226D01*
X52015256Y-106342205D01*
X52184774Y-106228937D01*
X52228711Y-106185000D01*
X55939906Y-106185000D01*
X55876185Y-106280366D01*
X55798164Y-106468724D01*
X55758390Y-106668683D01*
X55758390Y-106729815D01*
X55735000Y-106749011D01*
X55711202Y-106778009D01*
X55711201Y-106778010D01*
X55640026Y-106864736D01*
X55569454Y-106996766D01*
X55525998Y-107140027D01*
X55511324Y-107289012D01*
X55515001Y-107326344D01*
X55515001Y-107821288D01*
X55471063Y-107865226D01*
X55357795Y-108034744D01*
X55279774Y-108223102D01*
X55240000Y-108423061D01*
X55240000Y-108626939D01*
X55252544Y-108690000D01*
X51862322Y-108690000D01*
X51824999Y-108686324D01*
X51787676Y-108690000D01*
X51787667Y-108690000D01*
X51676014Y-108700997D01*
X51532753Y-108744454D01*
X51400723Y-108815026D01*
X51369981Y-108840256D01*
X51339830Y-108865000D01*
X51273061Y-108865000D01*
X51073102Y-108904774D01*
X50884744Y-108982795D01*
X50715226Y-109096063D01*
X50571063Y-109240226D01*
X50457795Y-109409744D01*
X50379774Y-109598102D01*
X50340000Y-109798061D01*
X50340000Y-110001939D01*
X50379774Y-110201898D01*
X50457795Y-110390256D01*
X50571063Y-110559774D01*
X50608192Y-110596903D01*
X50532795Y-110709744D01*
X50454774Y-110898102D01*
X50415000Y-111098061D01*
X50415000Y-111301939D01*
X50454774Y-111501898D01*
X50532795Y-111690256D01*
X50631180Y-111837500D01*
X50532795Y-111984744D01*
X50454774Y-112173102D01*
X50415000Y-112373061D01*
X50415000Y-112576939D01*
X50454774Y-112776898D01*
X50532795Y-112965256D01*
X50568138Y-113018151D01*
X50471063Y-113115226D01*
X50357795Y-113284744D01*
X50279774Y-113473102D01*
X50240000Y-113673061D01*
X50240000Y-113876939D01*
X50279774Y-114076898D01*
X50357795Y-114265256D01*
X50471063Y-114434774D01*
X50522028Y-114485739D01*
X50454774Y-114648102D01*
X50415000Y-114848061D01*
X50415000Y-115051939D01*
X50454774Y-115251898D01*
X50532795Y-115440256D01*
X50618206Y-115568083D01*
X50596063Y-115590226D01*
X50482795Y-115759744D01*
X50404774Y-115948102D01*
X50365000Y-116148061D01*
X50365000Y-116351939D01*
X50404774Y-116551898D01*
X50482795Y-116740256D01*
X50593680Y-116906208D01*
X50507795Y-117034744D01*
X50429774Y-117223102D01*
X50390000Y-117423061D01*
X50390000Y-117626939D01*
X50429774Y-117826898D01*
X50507795Y-118015256D01*
X50621063Y-118184774D01*
X50765226Y-118328937D01*
X50934744Y-118442205D01*
X51123102Y-118520226D01*
X51323061Y-118560000D01*
X51526939Y-118560000D01*
X51726898Y-118520226D01*
X51915256Y-118442205D01*
X52084774Y-118328937D01*
X52128711Y-118285000D01*
X52735199Y-118285000D01*
X55192661Y-120742463D01*
X55148254Y-120728992D01*
X54975000Y-120711928D01*
X54300000Y-120711928D01*
X54126746Y-120728992D01*
X53960150Y-120779528D01*
X53806614Y-120861595D01*
X53672038Y-120972038D01*
X53561595Y-121106614D01*
X53479528Y-121260150D01*
X53428992Y-121426746D01*
X53411928Y-121600000D01*
X53411928Y-122550000D01*
X53428992Y-122723254D01*
X53479528Y-122889850D01*
X53561595Y-123043386D01*
X53672038Y-123177962D01*
X53750048Y-123241983D01*
X53622038Y-123347038D01*
X53511595Y-123481614D01*
X53429528Y-123635150D01*
X53378992Y-123801746D01*
X53361928Y-123975000D01*
X53361928Y-124925000D01*
X53378992Y-125098254D01*
X53429528Y-125264850D01*
X53511595Y-125418386D01*
X53622038Y-125552962D01*
X53756614Y-125663405D01*
X53910150Y-125745472D01*
X54076746Y-125796008D01*
X54250000Y-125813072D01*
X54925000Y-125813072D01*
X55098254Y-125796008D01*
X55264850Y-125745472D01*
X55418386Y-125663405D01*
X55552962Y-125552962D01*
X55663405Y-125418386D01*
X55745472Y-125264850D01*
X55796008Y-125098254D01*
X55813072Y-124925000D01*
X55813072Y-123975000D01*
X55796008Y-123801746D01*
X55745472Y-123635150D01*
X55663405Y-123481614D01*
X55552962Y-123347038D01*
X55474952Y-123283017D01*
X55602962Y-123177962D01*
X55713405Y-123043386D01*
X55795472Y-122889850D01*
X55846008Y-122723254D01*
X55863072Y-122550000D01*
X55863072Y-121600000D01*
X55846008Y-121426746D01*
X55832537Y-121382339D01*
X59221201Y-124771003D01*
X59244999Y-124800001D01*
X59360724Y-124894974D01*
X59492753Y-124965546D01*
X59636014Y-125009003D01*
X59747667Y-125020000D01*
X59747676Y-125020000D01*
X59784999Y-125023676D01*
X59822322Y-125020000D01*
X60696822Y-125020000D01*
X60821525Y-125206632D01*
X61028368Y-125413475D01*
X61271589Y-125575990D01*
X61541842Y-125687932D01*
X61828740Y-125745000D01*
X62121260Y-125745000D01*
X62408158Y-125687932D01*
X62678411Y-125575990D01*
X62921632Y-125413475D01*
X63090001Y-125245106D01*
X63090001Y-130888885D01*
X63086444Y-130925000D01*
X63100635Y-131069085D01*
X63142663Y-131207633D01*
X63210913Y-131335320D01*
X63302762Y-131447238D01*
X63414680Y-131539087D01*
X63542367Y-131607337D01*
X63680915Y-131649365D01*
X63788895Y-131660000D01*
X63825000Y-131663556D01*
X63861105Y-131660000D01*
X64813895Y-131660000D01*
X64850000Y-131663556D01*
X64886105Y-131660000D01*
X64994085Y-131649365D01*
X65132633Y-131607337D01*
X65260320Y-131539087D01*
X65372238Y-131447238D01*
X65464087Y-131335320D01*
X65532337Y-131207633D01*
X65574365Y-131069085D01*
X65588556Y-130925000D01*
X65585000Y-130888895D01*
X65585000Y-115160107D01*
X65678368Y-115253475D01*
X65921589Y-115415990D01*
X66191842Y-115527932D01*
X66478740Y-115585000D01*
X66771260Y-115585000D01*
X67058158Y-115527932D01*
X67328411Y-115415990D01*
X67571632Y-115253475D01*
X67778475Y-115046632D01*
X67940990Y-114803411D01*
X68052932Y-114533158D01*
X68110000Y-114246260D01*
X68110000Y-113953740D01*
X68052932Y-113666842D01*
X67940990Y-113396589D01*
X67778475Y-113153368D01*
X67571632Y-112946525D01*
X67397240Y-112830000D01*
X67571632Y-112713475D01*
X67778475Y-112506632D01*
X67940990Y-112263411D01*
X68052932Y-111993158D01*
X68110000Y-111706260D01*
X68110000Y-111413740D01*
X68052932Y-111126842D01*
X67940990Y-110856589D01*
X67778475Y-110613368D01*
X67571632Y-110406525D01*
X67397240Y-110290000D01*
X67571632Y-110173475D01*
X67778475Y-109966632D01*
X67940990Y-109723411D01*
X68052932Y-109453158D01*
X68110000Y-109166260D01*
X68110000Y-108873740D01*
X68052932Y-108586842D01*
X67940990Y-108316589D01*
X67778475Y-108073368D01*
X67571632Y-107866525D01*
X67397240Y-107750000D01*
X67571632Y-107633475D01*
X67778475Y-107426632D01*
X67940990Y-107183411D01*
X68052932Y-106913158D01*
X68110000Y-106626260D01*
X68110000Y-106333740D01*
X68052932Y-106046842D01*
X67940990Y-105776589D01*
X67778475Y-105533368D01*
X67571632Y-105326525D01*
X67397240Y-105210000D01*
X67571632Y-105093475D01*
X67778475Y-104886632D01*
X67940990Y-104643411D01*
X68052932Y-104373158D01*
X68110000Y-104086260D01*
X68110000Y-103793740D01*
X68052932Y-103506842D01*
X67940990Y-103236589D01*
X67778475Y-102993368D01*
X67571632Y-102786525D01*
X67397240Y-102670000D01*
X67571632Y-102553475D01*
X67778475Y-102346632D01*
X67940990Y-102103411D01*
X68052932Y-101833158D01*
X68110000Y-101546260D01*
X68110000Y-101253740D01*
X68052932Y-100966842D01*
X67940990Y-100696589D01*
X67778475Y-100453368D01*
X67571632Y-100246525D01*
X67397240Y-100130000D01*
X67571632Y-100013475D01*
X67778475Y-99806632D01*
X67940990Y-99563411D01*
X68052932Y-99293158D01*
X68110000Y-99006260D01*
X68110000Y-98713740D01*
X68052932Y-98426842D01*
X67940990Y-98156589D01*
X67778475Y-97913368D01*
X67571632Y-97706525D01*
X67397240Y-97590000D01*
X67571632Y-97473475D01*
X67778475Y-97266632D01*
X67940990Y-97023411D01*
X68052932Y-96753158D01*
X68110000Y-96466260D01*
X68110000Y-96173740D01*
X68052932Y-95886842D01*
X67940990Y-95616589D01*
X67778475Y-95373368D01*
X67571632Y-95166525D01*
X67397240Y-95050000D01*
X67571632Y-94933475D01*
X67778475Y-94726632D01*
X67940990Y-94483411D01*
X68052932Y-94213158D01*
X68110000Y-93926260D01*
X68110000Y-93633740D01*
X68052932Y-93346842D01*
X67940990Y-93076589D01*
X67778475Y-92833368D01*
X67571632Y-92626525D01*
X67397240Y-92510000D01*
X67571632Y-92393475D01*
X67778475Y-92186632D01*
X67940990Y-91943411D01*
X68052932Y-91673158D01*
X68110000Y-91386260D01*
X68110000Y-91093740D01*
X68052932Y-90806842D01*
X67940990Y-90536589D01*
X67778475Y-90293368D01*
X67571632Y-90086525D01*
X67397240Y-89970000D01*
X67571632Y-89853475D01*
X67778475Y-89646632D01*
X67940990Y-89403411D01*
X68052932Y-89133158D01*
X68110000Y-88846260D01*
X68110000Y-88553740D01*
X68052932Y-88266842D01*
X67940990Y-87996589D01*
X67778475Y-87753368D01*
X67571632Y-87546525D01*
X67397240Y-87430000D01*
X67571632Y-87313475D01*
X67778475Y-87106632D01*
X67940990Y-86863411D01*
X68052932Y-86593158D01*
X68110000Y-86306260D01*
X68110000Y-86013740D01*
X68052932Y-85726842D01*
X67940990Y-85456589D01*
X67778475Y-85213368D01*
X67571632Y-85006525D01*
X67397240Y-84890000D01*
X67571632Y-84773475D01*
X67778475Y-84566632D01*
X67940990Y-84323411D01*
X68052932Y-84053158D01*
X68110000Y-83766260D01*
X68110000Y-83473740D01*
X68052932Y-83186842D01*
X67940990Y-82916589D01*
X67778475Y-82673368D01*
X67571632Y-82466525D01*
X67397240Y-82350000D01*
X67571632Y-82233475D01*
X67778475Y-82026632D01*
X67940990Y-81783411D01*
X68052932Y-81513158D01*
X68110000Y-81226260D01*
X68110000Y-80933740D01*
X68052932Y-80646842D01*
X67940990Y-80376589D01*
X67778475Y-80133368D01*
X67571632Y-79926525D01*
X67397240Y-79810000D01*
X67571632Y-79693475D01*
X67778475Y-79486632D01*
X67940990Y-79243411D01*
X68052932Y-78973158D01*
X68110000Y-78686260D01*
X68110000Y-78393740D01*
X68052932Y-78106842D01*
X67940990Y-77836589D01*
X67778475Y-77593368D01*
X67646620Y-77461513D01*
X67719180Y-77439502D01*
X67829494Y-77380537D01*
X67926185Y-77301185D01*
X68005537Y-77204494D01*
X68064502Y-77094180D01*
X68100812Y-76974482D01*
X68113072Y-76850000D01*
X68113072Y-75150000D01*
X68100812Y-75025518D01*
X68064502Y-74905820D01*
X68005537Y-74795506D01*
X67926185Y-74698815D01*
X67829494Y-74619463D01*
X67719180Y-74560498D01*
X67599482Y-74524188D01*
X67475000Y-74511928D01*
X65775000Y-74511928D01*
X65650518Y-74524188D01*
X65597540Y-74540259D01*
X65585080Y-67644017D01*
X65588356Y-67617171D01*
X65584950Y-67571790D01*
X65584933Y-67562568D01*
X65582249Y-67535815D01*
X65577519Y-67472796D01*
X65575030Y-67463846D01*
X65574103Y-67454607D01*
X65555652Y-67394175D01*
X65538723Y-67333308D01*
X65534538Y-67325020D01*
X65531825Y-67316135D01*
X65501944Y-67260474D01*
X65473461Y-67204069D01*
X65467735Y-67196751D01*
X65463344Y-67188572D01*
X65423187Y-67139820D01*
X65384238Y-67090045D01*
X65377196Y-67083986D01*
X65371293Y-67076820D01*
X65322395Y-67036838D01*
X65274486Y-66995619D01*
X65266397Y-66991051D01*
X65259209Y-66985173D01*
X65203440Y-66955493D01*
X65148420Y-66924419D01*
X65139597Y-66921517D01*
X65131399Y-66917154D01*
X65070905Y-66898922D01*
X65010887Y-66879181D01*
X65001669Y-66878056D01*
X64992776Y-66875376D01*
X64929871Y-66869295D01*
X64903183Y-66866039D01*
X64893964Y-66865825D01*
X64848666Y-66861446D01*
X64821757Y-66864145D01*
X63818962Y-66840824D01*
X63773666Y-66836446D01*
X63710806Y-66842752D01*
X63647796Y-66847481D01*
X63638846Y-66849970D01*
X63629607Y-66850897D01*
X63569175Y-66869348D01*
X63508308Y-66886277D01*
X63500020Y-66890462D01*
X63491135Y-66893175D01*
X63435456Y-66923066D01*
X63379069Y-66951540D01*
X63371755Y-66957263D01*
X63363572Y-66961656D01*
X63314809Y-67001822D01*
X63265045Y-67040762D01*
X63258986Y-67047804D01*
X63251820Y-67053707D01*
X63211838Y-67102605D01*
X63170619Y-67150514D01*
X63166051Y-67158603D01*
X63160173Y-67165791D01*
X63130493Y-67221560D01*
X63099419Y-67276580D01*
X63096517Y-67285403D01*
X63092154Y-67293601D01*
X63073922Y-67354095D01*
X63054181Y-67414113D01*
X63053056Y-67423331D01*
X63050376Y-67432224D01*
X63044296Y-67495124D01*
X63036644Y-67557829D01*
X63040050Y-67603202D01*
X63071764Y-85156657D01*
X62921632Y-85006525D01*
X62678411Y-84844010D01*
X62408158Y-84732068D01*
X62121260Y-84675000D01*
X61828740Y-84675000D01*
X61541842Y-84732068D01*
X61271589Y-84844010D01*
X61028368Y-85006525D01*
X60960000Y-85074893D01*
X60960000Y-79979322D01*
X60963676Y-79941999D01*
X60960000Y-79904676D01*
X60960000Y-79904667D01*
X60949003Y-79793014D01*
X60905546Y-79649753D01*
X60834974Y-79517724D01*
X60740001Y-79401999D01*
X60711003Y-79378201D01*
X60037801Y-78705000D01*
X60836003Y-77906799D01*
X60865001Y-77883001D01*
X60959974Y-77767276D01*
X61030546Y-77635247D01*
X61074003Y-77491986D01*
X61085000Y-77380333D01*
X61085000Y-77380323D01*
X61088676Y-77343000D01*
X61085000Y-77305677D01*
X61085000Y-69800107D01*
X61213475Y-69671632D01*
X61375990Y-69428411D01*
X61487932Y-69158158D01*
X61545000Y-68871260D01*
X61545000Y-68578740D01*
X61487932Y-68291842D01*
X61375990Y-68021589D01*
X61213475Y-67778368D01*
X61006632Y-67571525D01*
X60763411Y-67409010D01*
X60493158Y-67297068D01*
X60206260Y-67240000D01*
X59913740Y-67240000D01*
X59626842Y-67297068D01*
X59356589Y-67409010D01*
X59113368Y-67571525D01*
X58906525Y-67778368D01*
X58790000Y-67952760D01*
X58673475Y-67778368D01*
X58466632Y-67571525D01*
X58223411Y-67409010D01*
X57953158Y-67297068D01*
X57666260Y-67240000D01*
X57373740Y-67240000D01*
X57086842Y-67297068D01*
X56816589Y-67409010D01*
X56573368Y-67571525D01*
X56366525Y-67778368D01*
X56250000Y-67952760D01*
X56133475Y-67778368D01*
X55926632Y-67571525D01*
X55683411Y-67409010D01*
X55413158Y-67297068D01*
X55126260Y-67240000D01*
X54833740Y-67240000D01*
X54546842Y-67297068D01*
X54276589Y-67409010D01*
X54033368Y-67571525D01*
X53826525Y-67778368D01*
X53664010Y-68021589D01*
X53552068Y-68291842D01*
X53495000Y-68578740D01*
X53495000Y-68871260D01*
X53552068Y-69158158D01*
X53664010Y-69428411D01*
X53826525Y-69671632D01*
X54033368Y-69878475D01*
X54276589Y-70040990D01*
X54546842Y-70152932D01*
X54833740Y-70210000D01*
X55126260Y-70210000D01*
X55413158Y-70152932D01*
X55475365Y-70127165D01*
X56017245Y-70669044D01*
X55946063Y-70740226D01*
X55832795Y-70909744D01*
X55754774Y-71098102D01*
X55715000Y-71298061D01*
X55715000Y-71501939D01*
X55754774Y-71701898D01*
X55832795Y-71890256D01*
X55946063Y-72059774D01*
X55990001Y-72103712D01*
X55990000Y-74360198D01*
X55500771Y-74849428D01*
X54875000Y-74849428D01*
X54701746Y-74866492D01*
X54535150Y-74917028D01*
X54381614Y-74999095D01*
X54247038Y-75109538D01*
X54136595Y-75244114D01*
X54054528Y-75397650D01*
X54003992Y-75564246D01*
X53986928Y-75737500D01*
X53986928Y-76412500D01*
X54003992Y-76585754D01*
X54054528Y-76752350D01*
X54136595Y-76905886D01*
X54247038Y-77040462D01*
X54381614Y-77150905D01*
X54535150Y-77232972D01*
X54701746Y-77283508D01*
X54875000Y-77300572D01*
X55825000Y-77300572D01*
X55998254Y-77283508D01*
X56164850Y-77232972D01*
X56318386Y-77150905D01*
X56452962Y-77040462D01*
X56563405Y-76905886D01*
X56645472Y-76752350D01*
X56696008Y-76585754D01*
X56713072Y-76412500D01*
X56713072Y-75786730D01*
X57261004Y-75238798D01*
X57290001Y-75215001D01*
X57344179Y-75148985D01*
X57384974Y-75099277D01*
X57455546Y-74967247D01*
X57463811Y-74940000D01*
X57499003Y-74823986D01*
X57510000Y-74712333D01*
X57510000Y-74712323D01*
X57513676Y-74675000D01*
X57510000Y-74637678D01*
X57510000Y-72161801D01*
X58215001Y-72866802D01*
X58215000Y-74296289D01*
X58171063Y-74340226D01*
X58057795Y-74509744D01*
X57979774Y-74698102D01*
X57940000Y-74898061D01*
X57940000Y-75101939D01*
X57979774Y-75301898D01*
X58057795Y-75490256D01*
X58171063Y-75659774D01*
X58315226Y-75803937D01*
X58484744Y-75917205D01*
X58673102Y-75995226D01*
X58873061Y-76035000D01*
X58940001Y-76035000D01*
X58940001Y-76383197D01*
X58923198Y-76400000D01*
X58861061Y-76400000D01*
X58661102Y-76439774D01*
X58472744Y-76517795D01*
X58303226Y-76631063D01*
X58159063Y-76775226D01*
X58045795Y-76944744D01*
X57967774Y-77133102D01*
X57928000Y-77333061D01*
X57928000Y-77395198D01*
X56188998Y-79134201D01*
X56160000Y-79157999D01*
X56136202Y-79186997D01*
X56136201Y-79186998D01*
X56065026Y-79273724D01*
X55994454Y-79405754D01*
X55979819Y-79454002D01*
X55955250Y-79534999D01*
X55950998Y-79549015D01*
X55936324Y-79698000D01*
X55940001Y-79735332D01*
X55940001Y-82588405D01*
X55925000Y-82586928D01*
X54975000Y-82586928D01*
X54801746Y-82603992D01*
X54648555Y-82650462D01*
X54649003Y-82648986D01*
X54660000Y-82537333D01*
X54660000Y-82537324D01*
X54663676Y-82500001D01*
X54660000Y-82462678D01*
X54660000Y-80778711D01*
X54703937Y-80734774D01*
X54817205Y-80565256D01*
X54895226Y-80376898D01*
X54935000Y-80176939D01*
X54935000Y-79973061D01*
X54895226Y-79773102D01*
X54817205Y-79584744D01*
X54703937Y-79415226D01*
X54559774Y-79271063D01*
X54390256Y-79157795D01*
X54201898Y-79079774D01*
X54096641Y-79058837D01*
X54120226Y-79001898D01*
X54160000Y-78801939D01*
X54160000Y-78598061D01*
X54120226Y-78398102D01*
X54042205Y-78209744D01*
X53928937Y-78040226D01*
X53784774Y-77896063D01*
X53615256Y-77782795D01*
X53426898Y-77704774D01*
X53226939Y-77665000D01*
X53023061Y-77665000D01*
X52891315Y-77691206D01*
X52922000Y-77536939D01*
X52922000Y-77333061D01*
X52882226Y-77133102D01*
X52804205Y-76944744D01*
X52690937Y-76775226D01*
X52546774Y-76631063D01*
X52377256Y-76517795D01*
X52188898Y-76439774D01*
X51988939Y-76400000D01*
X51935021Y-76400000D01*
X51935021Y-76273061D01*
X51895247Y-76073102D01*
X51817226Y-75884744D01*
X51703958Y-75715226D01*
X51559795Y-75571063D01*
X51390277Y-75457795D01*
X51201919Y-75379774D01*
X51001960Y-75340000D01*
X50798082Y-75340000D01*
X50598123Y-75379774D01*
X50409765Y-75457795D01*
X50240247Y-75571063D01*
X50096084Y-75715226D01*
X49982816Y-75884744D01*
X49904795Y-76073102D01*
X49865021Y-76273061D01*
X49865021Y-76335198D01*
X49588072Y-76612148D01*
X49588072Y-75150000D01*
X49575812Y-75025518D01*
X49539502Y-74905820D01*
X49480537Y-74795506D01*
X49401185Y-74698815D01*
X49304494Y-74619463D01*
X49194180Y-74560498D01*
X49074482Y-74524188D01*
X48950000Y-74511928D01*
X47250000Y-74511928D01*
X47125518Y-74524188D01*
X47075169Y-74539461D01*
X47077547Y-67875000D01*
X48411928Y-67875000D01*
X48411928Y-69575000D01*
X48424188Y-69699482D01*
X48460498Y-69819180D01*
X48519463Y-69929494D01*
X48598815Y-70026185D01*
X48695506Y-70105537D01*
X48805820Y-70164502D01*
X48925518Y-70200812D01*
X49050000Y-70213072D01*
X50750000Y-70213072D01*
X50874482Y-70200812D01*
X50994180Y-70164502D01*
X51104494Y-70105537D01*
X51201185Y-70026185D01*
X51280537Y-69929494D01*
X51339502Y-69819180D01*
X51375812Y-69699482D01*
X51388072Y-69575000D01*
X51388072Y-67875000D01*
X51375812Y-67750518D01*
X51339502Y-67630820D01*
X51280537Y-67520506D01*
X51201185Y-67423815D01*
X51104494Y-67344463D01*
X50994180Y-67285498D01*
X50874482Y-67249188D01*
X50750000Y-67236928D01*
X49050000Y-67236928D01*
X48925518Y-67249188D01*
X48805820Y-67285498D01*
X48695506Y-67344463D01*
X48598815Y-67423815D01*
X48519463Y-67520506D01*
X48460498Y-67630820D01*
X48424188Y-67750518D01*
X48411928Y-67875000D01*
X47077547Y-67875000D01*
X47078695Y-64658154D01*
X47154551Y-63545460D01*
X47375601Y-62478054D01*
X47739468Y-61450524D01*
X48239419Y-60481886D01*
X48866206Y-59590057D01*
X49608230Y-58791544D01*
X50451752Y-58101130D01*
X51381176Y-57531577D01*
X52379299Y-57093432D01*
X53427652Y-56794800D01*
X54506822Y-56641212D01*
X54688659Y-56640260D01*
X54395570Y-56698558D01*
X53959996Y-56878979D01*
X53567989Y-57140910D01*
X53234615Y-57474284D01*
X52972684Y-57866291D01*
X52792263Y-58301865D01*
X52700286Y-58764269D01*
X52700286Y-59235731D01*
X52792263Y-59698135D01*
X52972684Y-60133709D01*
X53234615Y-60525716D01*
X53567989Y-60859090D01*
X53959996Y-61121021D01*
X54395570Y-61301442D01*
X54857974Y-61393419D01*
X55329436Y-61393419D01*
X55791840Y-61301442D01*
X56227414Y-61121021D01*
X56619421Y-60859090D01*
X56952795Y-60525716D01*
X57214726Y-60133709D01*
X57395147Y-59698135D01*
X57487124Y-59235731D01*
X57487124Y-58764269D01*
X57395147Y-58301865D01*
X57214726Y-57866291D01*
X56952795Y-57474284D01*
X56619421Y-57140910D01*
X56227414Y-56878979D01*
X55791840Y-56698558D01*
X55477974Y-56636127D01*
X55596864Y-56635504D01*
X56677589Y-56777784D01*
X57729011Y-57065421D01*
X58731662Y-57493088D01*
X59667006Y-58052879D01*
X60517716Y-58734427D01*
X61268052Y-59525118D01*
X61904142Y-60410330D01*
X62414216Y-61373690D01*
X62788820Y-62397344D01*
X63021035Y-63462378D01*
X63108376Y-64572153D01*
X63108516Y-64598802D01*
X63105149Y-64632986D01*
X63119340Y-64777071D01*
X63161368Y-64915619D01*
X63229618Y-65043306D01*
X63321467Y-65155224D01*
X63433385Y-65247073D01*
X63561072Y-65315323D01*
X63699620Y-65357351D01*
X63807600Y-65367986D01*
X64879810Y-65367986D01*
X64987790Y-65357351D01*
X65126338Y-65315323D01*
X65254025Y-65247073D01*
X65365943Y-65155224D01*
X65457792Y-65043306D01*
X65526042Y-64915619D01*
X65568070Y-64777071D01*
X65582261Y-64632986D01*
X65581168Y-64621886D01*
X65654551Y-63545460D01*
X65875601Y-62478054D01*
X66239468Y-61450524D01*
X66739419Y-60481886D01*
X67366206Y-59590057D01*
X68108230Y-58791544D01*
X68951752Y-58101130D01*
X69881176Y-57531577D01*
X70879299Y-57093432D01*
X71927652Y-56794800D01*
X73006822Y-56641212D01*
X73188659Y-56640260D01*
X72895570Y-56698558D01*
X72459996Y-56878979D01*
X72067989Y-57140910D01*
X71734615Y-57474284D01*
X71472684Y-57866291D01*
X71292263Y-58301865D01*
X71200286Y-58764269D01*
X71200286Y-59235731D01*
X71292263Y-59698135D01*
X71472684Y-60133709D01*
X71734615Y-60525716D01*
X72067989Y-60859090D01*
X72459996Y-61121021D01*
X72895570Y-61301442D01*
X73357974Y-61393419D01*
X73829436Y-61393419D01*
X74291840Y-61301442D01*
X74727414Y-61121021D01*
X75119421Y-60859090D01*
X75452795Y-60525716D01*
X75714726Y-60133709D01*
X75895147Y-59698135D01*
X75987124Y-59235731D01*
X75987124Y-58764269D01*
X75895147Y-58301865D01*
X75714726Y-57866291D01*
X75452795Y-57474284D01*
X75119421Y-57140910D01*
X74727414Y-56878979D01*
X74291840Y-56698558D01*
X73977974Y-56636127D01*
X74096864Y-56635504D01*
X75177589Y-56777784D01*
G37*
%TD.AperFunction*%
D16*
X60821525Y-120126632D02*
X61028368Y-120333475D01*
X61202760Y-120450000D01*
X61028368Y-120566525D01*
X60821525Y-120773368D01*
X60696822Y-120960000D01*
X59084802Y-120960000D01*
X58064802Y-119940000D01*
X60696822Y-119940000D01*
X60821525Y-120126632D01*
%TA.AperFunction,Conductor*%
D17*
G36*
X60821525Y-120126632D02*
G01*
X61028368Y-120333475D01*
X61202760Y-120450000D01*
X61028368Y-120566525D01*
X60821525Y-120773368D01*
X60696822Y-120960000D01*
X59084802Y-120960000D01*
X58064802Y-119940000D01*
X60696822Y-119940000D01*
X60821525Y-120126632D01*
G37*
%TD.AperFunction*%
D16*
X60533791Y-113733592D02*
X60490000Y-113953740D01*
X60490000Y-114246260D01*
X60547068Y-114533158D01*
X60659010Y-114803411D01*
X60821525Y-115046632D01*
X61028368Y-115253475D01*
X61202760Y-115370000D01*
X61028368Y-115486525D01*
X60821525Y-115693368D01*
X60696822Y-115880000D01*
X57004802Y-115880000D01*
X54759800Y-113634999D01*
X60435198Y-113634999D01*
X60533791Y-113733592D01*
%TA.AperFunction,Conductor*%
D17*
G36*
X60533791Y-113733592D02*
G01*
X60490000Y-113953740D01*
X60490000Y-114246260D01*
X60547068Y-114533158D01*
X60659010Y-114803411D01*
X60821525Y-115046632D01*
X61028368Y-115253475D01*
X61202760Y-115370000D01*
X61028368Y-115486525D01*
X60821525Y-115693368D01*
X60696822Y-115880000D01*
X57004802Y-115880000D01*
X54759800Y-113634999D01*
X60435198Y-113634999D01*
X60533791Y-113733592D01*
G37*
%TD.AperFunction*%
D16*
X61202760Y-110290000D02*
X61028368Y-110406525D01*
X60821525Y-110613368D01*
X60694091Y-110804087D01*
X60623933Y-110810997D01*
X60480672Y-110854454D01*
X60348642Y-110925026D01*
X60331998Y-110938686D01*
X60232918Y-111019999D01*
X60209115Y-111049003D01*
X59993116Y-111265002D01*
X54614798Y-111265002D01*
X54620226Y-111251898D01*
X54660000Y-111051939D01*
X54660000Y-110885000D01*
X57734279Y-110885000D01*
X57828226Y-110978947D01*
X57997744Y-111092215D01*
X58186102Y-111170236D01*
X58386061Y-111210010D01*
X58589939Y-111210010D01*
X58789898Y-111170236D01*
X58978256Y-111092215D01*
X59147774Y-110978947D01*
X59291937Y-110834784D01*
X59405205Y-110665266D01*
X59483226Y-110476908D01*
X59523000Y-110276949D01*
X59523000Y-110210000D01*
X61083032Y-110210000D01*
X61202760Y-110290000D01*
%TA.AperFunction,Conductor*%
D17*
G36*
X61202760Y-110290000D02*
G01*
X61028368Y-110406525D01*
X60821525Y-110613368D01*
X60694091Y-110804087D01*
X60623933Y-110810997D01*
X60480672Y-110854454D01*
X60348642Y-110925026D01*
X60331998Y-110938686D01*
X60232918Y-111019999D01*
X60209115Y-111049003D01*
X59993116Y-111265002D01*
X54614798Y-111265002D01*
X54620226Y-111251898D01*
X54660000Y-111051939D01*
X54660000Y-110885000D01*
X57734279Y-110885000D01*
X57828226Y-110978947D01*
X57997744Y-111092215D01*
X58186102Y-111170236D01*
X58386061Y-111210010D01*
X58589939Y-111210010D01*
X58789898Y-111170236D01*
X58978256Y-111092215D01*
X59147774Y-110978947D01*
X59291937Y-110834784D01*
X59405205Y-110665266D01*
X59483226Y-110476908D01*
X59523000Y-110276949D01*
X59523000Y-110210000D01*
X61083032Y-110210000D01*
X61202760Y-110290000D01*
G37*
%TD.AperFunction*%
D16*
X79396525Y-97266632D02*
X79603368Y-97473475D01*
X79777760Y-97590000D01*
X79603368Y-97706525D01*
X79396525Y-97913368D01*
X79234010Y-98156589D01*
X79122068Y-98426842D01*
X79065000Y-98713740D01*
X79065000Y-99006260D01*
X79122068Y-99293158D01*
X79234010Y-99563411D01*
X79396525Y-99806632D01*
X79603368Y-100013475D01*
X79777760Y-100130000D01*
X79603368Y-100246525D01*
X79396525Y-100453368D01*
X79234010Y-100696589D01*
X79122068Y-100966842D01*
X79065000Y-101253740D01*
X79065000Y-101546260D01*
X79118456Y-101815001D01*
X78432321Y-101815001D01*
X78394998Y-101811325D01*
X78357675Y-101815001D01*
X78357666Y-101815001D01*
X78246013Y-101825998D01*
X78102752Y-101869455D01*
X77970723Y-101940027D01*
X77854998Y-102035000D01*
X77831200Y-102063998D01*
X75107031Y-104788168D01*
X75143071Y-104669360D01*
X75165661Y-104440000D01*
X75143071Y-104210640D01*
X75076169Y-103990094D01*
X74967526Y-103786838D01*
X74869907Y-103667888D01*
X74951185Y-103601185D01*
X75030537Y-103504494D01*
X75089502Y-103394180D01*
X75125306Y-103276149D01*
X75174276Y-103249974D01*
X75290001Y-103155001D01*
X75313803Y-103125998D01*
X75836004Y-102603798D01*
X75865001Y-102580001D01*
X75959974Y-102464276D01*
X76030546Y-102332247D01*
X76074003Y-102188986D01*
X76085000Y-102077333D01*
X76085000Y-102077325D01*
X76088676Y-102040000D01*
X76085000Y-102002675D01*
X76085000Y-97839801D01*
X76281008Y-97643793D01*
X76347955Y-97805416D01*
X76461223Y-97974934D01*
X76605386Y-98119097D01*
X76774904Y-98232365D01*
X76963262Y-98310386D01*
X77163221Y-98350160D01*
X77367099Y-98350160D01*
X77567058Y-98310386D01*
X77755416Y-98232365D01*
X77924934Y-98119097D01*
X78069097Y-97974934D01*
X78182365Y-97805416D01*
X78260386Y-97617058D01*
X78300160Y-97417099D01*
X78300160Y-97354962D01*
X78575122Y-97080000D01*
X79271822Y-97080000D01*
X79396525Y-97266632D01*
%TA.AperFunction,Conductor*%
D17*
G36*
X79396525Y-97266632D02*
G01*
X79603368Y-97473475D01*
X79777760Y-97590000D01*
X79603368Y-97706525D01*
X79396525Y-97913368D01*
X79234010Y-98156589D01*
X79122068Y-98426842D01*
X79065000Y-98713740D01*
X79065000Y-99006260D01*
X79122068Y-99293158D01*
X79234010Y-99563411D01*
X79396525Y-99806632D01*
X79603368Y-100013475D01*
X79777760Y-100130000D01*
X79603368Y-100246525D01*
X79396525Y-100453368D01*
X79234010Y-100696589D01*
X79122068Y-100966842D01*
X79065000Y-101253740D01*
X79065000Y-101546260D01*
X79118456Y-101815001D01*
X78432321Y-101815001D01*
X78394998Y-101811325D01*
X78357675Y-101815001D01*
X78357666Y-101815001D01*
X78246013Y-101825998D01*
X78102752Y-101869455D01*
X77970723Y-101940027D01*
X77854998Y-102035000D01*
X77831200Y-102063998D01*
X75107031Y-104788168D01*
X75143071Y-104669360D01*
X75165661Y-104440000D01*
X75143071Y-104210640D01*
X75076169Y-103990094D01*
X74967526Y-103786838D01*
X74869907Y-103667888D01*
X74951185Y-103601185D01*
X75030537Y-103504494D01*
X75089502Y-103394180D01*
X75125306Y-103276149D01*
X75174276Y-103249974D01*
X75290001Y-103155001D01*
X75313803Y-103125998D01*
X75836004Y-102603798D01*
X75865001Y-102580001D01*
X75959974Y-102464276D01*
X76030546Y-102332247D01*
X76074003Y-102188986D01*
X76085000Y-102077333D01*
X76085000Y-102077325D01*
X76088676Y-102040000D01*
X76085000Y-102002675D01*
X76085000Y-97839801D01*
X76281008Y-97643793D01*
X76347955Y-97805416D01*
X76461223Y-97974934D01*
X76605386Y-98119097D01*
X76774904Y-98232365D01*
X76963262Y-98310386D01*
X77163221Y-98350160D01*
X77367099Y-98350160D01*
X77567058Y-98310386D01*
X77755416Y-98232365D01*
X77924934Y-98119097D01*
X78069097Y-97974934D01*
X78182365Y-97805416D01*
X78260386Y-97617058D01*
X78300160Y-97417099D01*
X78300160Y-97354962D01*
X78575122Y-97080000D01*
X79271822Y-97080000D01*
X79396525Y-97266632D01*
G37*
%TD.AperFunction*%
D16*
X60821525Y-99806632D02*
X61028368Y-100013475D01*
X61202760Y-100130000D01*
X61028368Y-100246525D01*
X60821525Y-100453368D01*
X60696822Y-100640000D01*
X58287333Y-100640000D01*
X58250000Y-100636323D01*
X58212667Y-100640000D01*
X58101014Y-100650997D01*
X58097844Y-100651959D01*
X59129803Y-99620000D01*
X60696822Y-99620000D01*
X60821525Y-99806632D01*
%TA.AperFunction,Conductor*%
D17*
G36*
X60821525Y-99806632D02*
G01*
X61028368Y-100013475D01*
X61202760Y-100130000D01*
X61028368Y-100246525D01*
X60821525Y-100453368D01*
X60696822Y-100640000D01*
X58287333Y-100640000D01*
X58250000Y-100636323D01*
X58212667Y-100640000D01*
X58101014Y-100650997D01*
X58097844Y-100651959D01*
X59129803Y-99620000D01*
X60696822Y-99620000D01*
X60821525Y-99806632D01*
G37*
%TD.AperFunction*%
D16*
X75181613Y-95588405D02*
X75335149Y-95670472D01*
X75501745Y-95721008D01*
X75674999Y-95738072D01*
X76037127Y-95738072D01*
X75163072Y-96612127D01*
X75163072Y-96355000D01*
X75150812Y-96230518D01*
X75114502Y-96110820D01*
X75082130Y-96050257D01*
X75143071Y-95849360D01*
X75165661Y-95620000D01*
X75160873Y-95571384D01*
X75181613Y-95588405D01*
%TA.AperFunction,Conductor*%
D17*
G36*
X75181613Y-95588405D02*
G01*
X75335149Y-95670472D01*
X75501745Y-95721008D01*
X75674999Y-95738072D01*
X76037127Y-95738072D01*
X75163072Y-96612127D01*
X75163072Y-96355000D01*
X75150812Y-96230518D01*
X75114502Y-96110820D01*
X75082130Y-96050257D01*
X75143071Y-95849360D01*
X75165661Y-95620000D01*
X75160873Y-95571384D01*
X75181613Y-95588405D01*
G37*
%TD.AperFunction*%
D16*
X52089999Y-93795199D02*
X49585000Y-96300199D01*
X49585000Y-96173740D01*
X49527932Y-95886842D01*
X49415990Y-95616589D01*
X49253475Y-95373368D01*
X49046632Y-95166525D01*
X48872240Y-95050000D01*
X49046632Y-94933475D01*
X49253475Y-94726632D01*
X49415990Y-94483411D01*
X49527932Y-94213158D01*
X49585000Y-93926260D01*
X49585000Y-93633740D01*
X49541210Y-93413592D01*
X50061004Y-92893798D01*
X50090001Y-92870001D01*
X50184974Y-92754276D01*
X50255546Y-92622247D01*
X50299003Y-92478986D01*
X50310000Y-92367333D01*
X50310000Y-92367325D01*
X50313676Y-92330000D01*
X50310000Y-92292675D01*
X50310000Y-90741211D01*
X50986004Y-90065208D01*
X51015001Y-90041411D01*
X51109974Y-89925686D01*
X51180546Y-89793657D01*
X51224003Y-89650396D01*
X51235000Y-89538743D01*
X51235000Y-89538742D01*
X51238677Y-89501410D01*
X51235000Y-89464077D01*
X51235000Y-86239801D01*
X52090000Y-85384802D01*
X52089999Y-93795199D01*
%TA.AperFunction,Conductor*%
D17*
G36*
X52089999Y-93795199D02*
G01*
X49585000Y-96300199D01*
X49585000Y-96173740D01*
X49527932Y-95886842D01*
X49415990Y-95616589D01*
X49253475Y-95373368D01*
X49046632Y-95166525D01*
X48872240Y-95050000D01*
X49046632Y-94933475D01*
X49253475Y-94726632D01*
X49415990Y-94483411D01*
X49527932Y-94213158D01*
X49585000Y-93926260D01*
X49585000Y-93633740D01*
X49541210Y-93413592D01*
X50061004Y-92893798D01*
X50090001Y-92870001D01*
X50184974Y-92754276D01*
X50255546Y-92622247D01*
X50299003Y-92478986D01*
X50310000Y-92367333D01*
X50310000Y-92367325D01*
X50313676Y-92330000D01*
X50310000Y-92292675D01*
X50310000Y-90741211D01*
X50986004Y-90065208D01*
X51015001Y-90041411D01*
X51109974Y-89925686D01*
X51180546Y-89793657D01*
X51224003Y-89650396D01*
X51235000Y-89538743D01*
X51235000Y-89538742D01*
X51238677Y-89501410D01*
X51235000Y-89464077D01*
X51235000Y-86239801D01*
X52090000Y-85384802D01*
X52089999Y-93795199D01*
G37*
%TD.AperFunction*%
D16*
X60821525Y-94726632D02*
X61028368Y-94933475D01*
X61202760Y-95050000D01*
X61028368Y-95166525D01*
X60821525Y-95373368D01*
X60659010Y-95616589D01*
X60547068Y-95886842D01*
X60541467Y-95915002D01*
X59209800Y-95915002D01*
X60584802Y-94540000D01*
X60696822Y-94540000D01*
X60821525Y-94726632D01*
%TA.AperFunction,Conductor*%
D17*
G36*
X60821525Y-94726632D02*
G01*
X61028368Y-94933475D01*
X61202760Y-95050000D01*
X61028368Y-95166525D01*
X60821525Y-95373368D01*
X60659010Y-95616589D01*
X60547068Y-95886842D01*
X60541467Y-95915002D01*
X59209800Y-95915002D01*
X60584802Y-94540000D01*
X60696822Y-94540000D01*
X60821525Y-94726632D01*
G37*
%TD.AperFunction*%
D16*
X63089920Y-95205983D02*
X63086644Y-95232829D01*
X63090050Y-95278210D01*
X63090067Y-95287432D01*
X63092751Y-95314185D01*
X63094654Y-95339547D01*
X62921632Y-95166525D01*
X62747240Y-95050000D01*
X62921632Y-94933475D01*
X63089125Y-94765982D01*
X63089920Y-95205983D01*
%TA.AperFunction,Conductor*%
D17*
G36*
X63089920Y-95205983D02*
G01*
X63086644Y-95232829D01*
X63090050Y-95278210D01*
X63090067Y-95287432D01*
X63092751Y-95314185D01*
X63094654Y-95339547D01*
X62921632Y-95166525D01*
X62747240Y-95050000D01*
X62921632Y-94933475D01*
X63089125Y-94765982D01*
X63089920Y-95205983D01*
G37*
%TD.AperFunction*%
D16*
X54347038Y-84777962D02*
X54481614Y-84888405D01*
X54635150Y-84970472D01*
X54690000Y-84987111D01*
X54690001Y-86962662D01*
X54686324Y-86999994D01*
X54690001Y-87037327D01*
X54700998Y-87148980D01*
X54710400Y-87179974D01*
X54744454Y-87292240D01*
X54815026Y-87424270D01*
X54871230Y-87492754D01*
X54910000Y-87539995D01*
X54915006Y-87544103D01*
X54915006Y-87601939D01*
X54954780Y-87801898D01*
X55032801Y-87990256D01*
X55146069Y-88159774D01*
X55290232Y-88303937D01*
X55459750Y-88417205D01*
X55648108Y-88495226D01*
X55848067Y-88535000D01*
X56051945Y-88535000D01*
X56251904Y-88495226D01*
X56339999Y-88458735D01*
X56339999Y-88653831D01*
X56209744Y-88707785D01*
X56040226Y-88821053D01*
X55896063Y-88965216D01*
X55782795Y-89134734D01*
X55704774Y-89323092D01*
X55665000Y-89523051D01*
X55665000Y-89726929D01*
X55704774Y-89926888D01*
X55728967Y-89985294D01*
X55626939Y-89965000D01*
X55423061Y-89965000D01*
X55223102Y-90004774D01*
X55034744Y-90082795D01*
X54865226Y-90196063D01*
X54721063Y-90340226D01*
X54607795Y-90509744D01*
X54529774Y-90698102D01*
X54490000Y-90898061D01*
X54490000Y-91101939D01*
X54529774Y-91301898D01*
X54607795Y-91490256D01*
X54721063Y-91659774D01*
X54765000Y-91703711D01*
X54765001Y-93785187D01*
X54359998Y-94190190D01*
X54359998Y-90303711D01*
X54403935Y-90259774D01*
X54517203Y-90090256D01*
X54595224Y-89901898D01*
X54634998Y-89701939D01*
X54634998Y-89498061D01*
X54595224Y-89298102D01*
X54517203Y-89109744D01*
X54403935Y-88940226D01*
X54259772Y-88796063D01*
X54090254Y-88682795D01*
X53901896Y-88604774D01*
X53701937Y-88565000D01*
X53609999Y-88565000D01*
X53609999Y-85473587D01*
X53626898Y-85470226D01*
X53815256Y-85392205D01*
X53984774Y-85278937D01*
X54128937Y-85134774D01*
X54242205Y-84965256D01*
X54320226Y-84776898D01*
X54325286Y-84751457D01*
X54347038Y-84777962D01*
%TA.AperFunction,Conductor*%
D17*
G36*
X54347038Y-84777962D02*
G01*
X54481614Y-84888405D01*
X54635150Y-84970472D01*
X54690000Y-84987111D01*
X54690001Y-86962662D01*
X54686324Y-86999994D01*
X54690001Y-87037327D01*
X54700998Y-87148980D01*
X54710400Y-87179974D01*
X54744454Y-87292240D01*
X54815026Y-87424270D01*
X54871230Y-87492754D01*
X54910000Y-87539995D01*
X54915006Y-87544103D01*
X54915006Y-87601939D01*
X54954780Y-87801898D01*
X55032801Y-87990256D01*
X55146069Y-88159774D01*
X55290232Y-88303937D01*
X55459750Y-88417205D01*
X55648108Y-88495226D01*
X55848067Y-88535000D01*
X56051945Y-88535000D01*
X56251904Y-88495226D01*
X56339999Y-88458735D01*
X56339999Y-88653831D01*
X56209744Y-88707785D01*
X56040226Y-88821053D01*
X55896063Y-88965216D01*
X55782795Y-89134734D01*
X55704774Y-89323092D01*
X55665000Y-89523051D01*
X55665000Y-89726929D01*
X55704774Y-89926888D01*
X55728967Y-89985294D01*
X55626939Y-89965000D01*
X55423061Y-89965000D01*
X55223102Y-90004774D01*
X55034744Y-90082795D01*
X54865226Y-90196063D01*
X54721063Y-90340226D01*
X54607795Y-90509744D01*
X54529774Y-90698102D01*
X54490000Y-90898061D01*
X54490000Y-91101939D01*
X54529774Y-91301898D01*
X54607795Y-91490256D01*
X54721063Y-91659774D01*
X54765000Y-91703711D01*
X54765001Y-93785187D01*
X54359998Y-94190190D01*
X54359998Y-90303711D01*
X54403935Y-90259774D01*
X54517203Y-90090256D01*
X54595224Y-89901898D01*
X54634998Y-89701939D01*
X54634998Y-89498061D01*
X54595224Y-89298102D01*
X54517203Y-89109744D01*
X54403935Y-88940226D01*
X54259772Y-88796063D01*
X54090254Y-88682795D01*
X53901896Y-88604774D01*
X53701937Y-88565000D01*
X53609999Y-88565000D01*
X53609999Y-85473587D01*
X53626898Y-85470226D01*
X53815256Y-85392205D01*
X53984774Y-85278937D01*
X54128937Y-85134774D01*
X54242205Y-84965256D01*
X54320226Y-84776898D01*
X54325286Y-84751457D01*
X54347038Y-84777962D01*
G37*
%TD.AperFunction*%
D16*
X58159063Y-79364774D02*
X58303226Y-79508937D01*
X58472744Y-79622205D01*
X58661102Y-79700226D01*
X58861061Y-79740000D01*
X58923199Y-79740000D01*
X59440001Y-80256803D01*
X59440001Y-81751623D01*
X59326898Y-81704774D01*
X59126939Y-81665000D01*
X58923061Y-81665000D01*
X58723102Y-81704774D01*
X58534744Y-81782795D01*
X58365226Y-81896063D01*
X58221063Y-82040226D01*
X58107795Y-82209744D01*
X58029774Y-82398102D01*
X57990000Y-82598061D01*
X57990000Y-82801939D01*
X58029774Y-83001898D01*
X58107795Y-83190256D01*
X58221063Y-83359774D01*
X58265000Y-83403711D01*
X58265001Y-85854288D01*
X58234063Y-85885226D01*
X58120795Y-86054744D01*
X58042774Y-86243102D01*
X58003000Y-86443061D01*
X58003000Y-86646939D01*
X58042774Y-86846898D01*
X58120795Y-87035256D01*
X58234063Y-87204774D01*
X58378226Y-87348937D01*
X58547744Y-87462205D01*
X58736102Y-87540226D01*
X58936061Y-87580000D01*
X59139939Y-87580000D01*
X59339898Y-87540226D01*
X59440000Y-87498762D01*
X59440000Y-88131238D01*
X59339898Y-88089774D01*
X59139939Y-88050000D01*
X58936061Y-88050000D01*
X58736102Y-88089774D01*
X58547744Y-88167795D01*
X58378226Y-88281063D01*
X58334289Y-88325000D01*
X57859999Y-88325000D01*
X57859999Y-87089319D01*
X57863675Y-87051996D01*
X57859999Y-87014674D01*
X57859999Y-87014664D01*
X57849002Y-86903011D01*
X57805545Y-86759750D01*
X57734973Y-86627721D01*
X57640000Y-86511996D01*
X57610996Y-86488193D01*
X57460000Y-86337197D01*
X57460000Y-80012801D01*
X58138621Y-79334180D01*
X58159063Y-79364774D01*
%TA.AperFunction,Conductor*%
D17*
G36*
X58159063Y-79364774D02*
G01*
X58303226Y-79508937D01*
X58472744Y-79622205D01*
X58661102Y-79700226D01*
X58861061Y-79740000D01*
X58923199Y-79740000D01*
X59440001Y-80256803D01*
X59440001Y-81751623D01*
X59326898Y-81704774D01*
X59126939Y-81665000D01*
X58923061Y-81665000D01*
X58723102Y-81704774D01*
X58534744Y-81782795D01*
X58365226Y-81896063D01*
X58221063Y-82040226D01*
X58107795Y-82209744D01*
X58029774Y-82398102D01*
X57990000Y-82598061D01*
X57990000Y-82801939D01*
X58029774Y-83001898D01*
X58107795Y-83190256D01*
X58221063Y-83359774D01*
X58265000Y-83403711D01*
X58265001Y-85854288D01*
X58234063Y-85885226D01*
X58120795Y-86054744D01*
X58042774Y-86243102D01*
X58003000Y-86443061D01*
X58003000Y-86646939D01*
X58042774Y-86846898D01*
X58120795Y-87035256D01*
X58234063Y-87204774D01*
X58378226Y-87348937D01*
X58547744Y-87462205D01*
X58736102Y-87540226D01*
X58936061Y-87580000D01*
X59139939Y-87580000D01*
X59339898Y-87540226D01*
X59440000Y-87498762D01*
X59440000Y-88131238D01*
X59339898Y-88089774D01*
X59139939Y-88050000D01*
X58936061Y-88050000D01*
X58736102Y-88089774D01*
X58547744Y-88167795D01*
X58378226Y-88281063D01*
X58334289Y-88325000D01*
X57859999Y-88325000D01*
X57859999Y-87089319D01*
X57863675Y-87051996D01*
X57859999Y-87014674D01*
X57859999Y-87014664D01*
X57849002Y-86903011D01*
X57805545Y-86759750D01*
X57734973Y-86627721D01*
X57640000Y-86511996D01*
X57610996Y-86488193D01*
X57460000Y-86337197D01*
X57460000Y-80012801D01*
X58138621Y-79334180D01*
X58159063Y-79364774D01*
G37*
%TD.AperFunction*%
D16*
X52090000Y-78598061D02*
X52090000Y-78801939D01*
X52129774Y-79001898D01*
X52207795Y-79190256D01*
X52321063Y-79359774D01*
X52365001Y-79403712D01*
X52365000Y-82323787D01*
X51285000Y-83403788D01*
X51285000Y-79111801D01*
X51926802Y-78470000D01*
X51988939Y-78470000D01*
X52120685Y-78443794D01*
X52090000Y-78598061D01*
%TA.AperFunction,Conductor*%
D17*
G36*
X52090000Y-78598061D02*
G01*
X52090000Y-78801939D01*
X52129774Y-79001898D01*
X52207795Y-79190256D01*
X52321063Y-79359774D01*
X52365001Y-79403712D01*
X52365000Y-82323787D01*
X51285000Y-83403788D01*
X51285000Y-79111801D01*
X51926802Y-78470000D01*
X51988939Y-78470000D01*
X52120685Y-78443794D01*
X52090000Y-78598061D01*
G37*
%TD.AperFunction*%
%TD*%
M02*
