%TF.GenerationSoftware,KiCad,Pcbnew,(5.1.12)-1*%
%TF.CreationDate,2024-09-26T07:51:33+09:00*%
%TF.ProjectId,imu_led_connect,696d755f-6c65-4645-9f63-6f6e6e656374,rev?*%
%TF.SameCoordinates,Original*%
%TF.FileFunction,Profile,NP*%
%FSLAX46Y46*%
G04 Gerber Fmt 4.6, Leading zero omitted, Abs format (unit mm)*
G04 Created by KiCad (PCBNEW (5.1.12)-1) date 2024-09-26 07:51:33*
%MOMM*%
%LPD*%
G01*
G04 APERTURE LIST*
%TA.AperFunction,Profile*%
%ADD10C,0.050000*%
%TD*%
%TA.AperFunction,Profile*%
%ADD11C,0.200000*%
%TD*%
G04 APERTURE END LIST*
D10*
X82375000Y-98500000D02*
X82375000Y-101625000D01*
X82375000Y-115775000D02*
X82375000Y-118075000D01*
X82375000Y-77775000D02*
X82350000Y-80350000D01*
X82350000Y-130950000D02*
X82325000Y-133675000D01*
X82343705Y-64632986D02*
X82375000Y-67475000D01*
D11*
X63818705Y-134682986D02*
X64818705Y-134682986D01*
X63825000Y-130925000D02*
X64850000Y-130925000D01*
X63825000Y-97925000D02*
X64850000Y-97925000D01*
X82375000Y-77625000D02*
X82375000Y-77775000D01*
X63825000Y-95250000D02*
X64900000Y-95275000D01*
X63775000Y-67575000D02*
X64850000Y-67600000D01*
X63843705Y-64632986D02*
X64843705Y-64632986D01*
X46343705Y-64632986D02*
X46318705Y-134682986D01*
X82318705Y-134682986D02*
X82325000Y-133675000D01*
X82375000Y-118075000D02*
X82350000Y-130950000D01*
X82375000Y-101625000D02*
X82375000Y-115775000D01*
X82350000Y-80350000D02*
X82375000Y-98500000D01*
X82375000Y-67475000D02*
X82375000Y-77625000D01*
X64850000Y-97925000D02*
X64850000Y-130925000D01*
X63825000Y-97925000D02*
X63825000Y-130925000D01*
X64850000Y-67600000D02*
X64900000Y-95275000D01*
X63775000Y-67575000D02*
X63825000Y-95250000D01*
X82318705Y-134682986D02*
G75*
G02*
X64818705Y-134682986I-8750000J0D01*
G01*
X64843705Y-64632986D02*
G75*
G02*
X82343705Y-64632986I8750000J0D01*
G01*
X46343705Y-64632986D02*
G75*
G02*
X63843705Y-64632986I8750000J0D01*
G01*
X63818705Y-134682986D02*
G75*
G02*
X46318705Y-134682986I-8750000J0D01*
G01*
X75243705Y-59000000D02*
G75*
G03*
X75243705Y-59000000I-1650000J0D01*
G01*
X75218705Y-140000000D02*
G75*
G03*
X75218705Y-140000000I-1650000J0D01*
G01*
X56718705Y-140000000D02*
G75*
G03*
X56718705Y-140000000I-1650000J0D01*
G01*
X56743705Y-59000000D02*
G75*
G03*
X56743705Y-59000000I-1650000J0D01*
G01*
M02*
