%TF.GenerationSoftware,KiCad,Pcbnew,(5.1.12)-1*%
%TF.CreationDate,2024-09-26T07:51:33+09:00*%
%TF.ProjectId,imu_led_connect,696d755f-6c65-4645-9f63-6f6e6e656374,rev?*%
%TF.SameCoordinates,Original*%
%TF.FileFunction,Paste,Top*%
%TF.FilePolarity,Positive*%
%FSLAX46Y46*%
G04 Gerber Fmt 4.6, Leading zero omitted, Abs format (unit mm)*
G04 Created by KiCad (PCBNEW (5.1.12)-1) date 2024-09-26 07:51:33*
%MOMM*%
%LPD*%
G01*
G04 APERTURE LIST*
%ADD10R,1.775000X0.700000*%
G04 APERTURE END LIST*
D10*
%TO.C,IC6*%
X58488000Y-109905000D03*
X58488000Y-111175000D03*
X58488000Y-112445000D03*
X58488000Y-113715000D03*
X58488000Y-114985000D03*
X58488000Y-116255000D03*
X58488000Y-117525000D03*
X58488000Y-118795000D03*
X51412000Y-118795000D03*
X51412000Y-117525000D03*
X51412000Y-116255000D03*
X51412000Y-114985000D03*
X51412000Y-113715000D03*
X51412000Y-112445000D03*
X51412000Y-111175000D03*
X51412000Y-109905000D03*
%TD*%
%TO.C,IC5*%
X58563000Y-97755000D03*
X58563000Y-99025000D03*
X58563000Y-100295000D03*
X58563000Y-101565000D03*
X58563000Y-102835000D03*
X58563000Y-104105000D03*
X58563000Y-105375000D03*
X58563000Y-106645000D03*
X51487000Y-106645000D03*
X51487000Y-105375000D03*
X51487000Y-104105000D03*
X51487000Y-102835000D03*
X51487000Y-101565000D03*
X51487000Y-100295000D03*
X51487000Y-99025000D03*
X51487000Y-97755000D03*
%TD*%
%TO.C,IC4*%
X59038000Y-84005000D03*
X59038000Y-85275000D03*
X59038000Y-86545000D03*
X59038000Y-87815000D03*
X59038000Y-89085000D03*
X59038000Y-90355000D03*
X59038000Y-91625000D03*
X59038000Y-92895000D03*
X51962000Y-92895000D03*
X51962000Y-91625000D03*
X51962000Y-90355000D03*
X51962000Y-89085000D03*
X51962000Y-87815000D03*
X51962000Y-86545000D03*
X51962000Y-85275000D03*
X51962000Y-84005000D03*
%TD*%
%TO.C,IC3*%
X58963000Y-72355000D03*
X58963000Y-73625000D03*
X58963000Y-74895000D03*
X58963000Y-76165000D03*
X58963000Y-77435000D03*
X58963000Y-78705000D03*
X58963000Y-79975000D03*
X58963000Y-81245000D03*
X51887000Y-81245000D03*
X51887000Y-79975000D03*
X51887000Y-78705000D03*
X51887000Y-77435000D03*
X51887000Y-76165000D03*
X51887000Y-74895000D03*
X51887000Y-73625000D03*
X51887000Y-72355000D03*
%TD*%
M02*
