%TF.GenerationSoftware,KiCad,Pcbnew,(5.1.12)-1*%
%TF.CreationDate,2024-09-26T07:51:33+09:00*%
%TF.ProjectId,imu_led_connect,696d755f-6c65-4645-9f63-6f6e6e656374,rev?*%
%TF.SameCoordinates,Original*%
%TF.FileFunction,Copper,L1,Top*%
%TF.FilePolarity,Positive*%
%FSLAX46Y46*%
G04 Gerber Fmt 4.6, Leading zero omitted, Abs format (unit mm)*
G04 Created by KiCad (PCBNEW (5.1.12)-1) date 2024-09-26 07:51:33*
%MOMM*%
%LPD*%
G01*
G04 APERTURE LIST*
%TA.AperFunction,ComponentPad*%
%ADD10O,1.700000X1.700000*%
%TD*%
%TA.AperFunction,ComponentPad*%
%ADD11R,1.700000X1.700000*%
%TD*%
%TA.AperFunction,SMDPad,CuDef*%
%ADD12R,1.775000X0.700000*%
%TD*%
%TA.AperFunction,ComponentPad*%
%ADD13O,1.800000X1.070000*%
%TD*%
%TA.AperFunction,ComponentPad*%
%ADD14R,1.800000X1.070000*%
%TD*%
%TA.AperFunction,ViaPad*%
%ADD15C,0.800000*%
%TD*%
%TA.AperFunction,Conductor*%
%ADD16C,0.250000*%
%TD*%
%TA.AperFunction,Conductor*%
%ADD17C,0.254000*%
%TD*%
%TA.AperFunction,Conductor*%
%ADD18C,0.100000*%
%TD*%
G04 APERTURE END LIST*
D10*
%TO.P,J23,5*%
%TO.N,SRCLK*%
X60060000Y-68725000D03*
%TO.P,J23,4*%
%TO.N,RCLK*%
X57520000Y-68725000D03*
%TO.P,J23,3*%
%TO.N,SER*%
X54980000Y-68725000D03*
%TO.P,J23,2*%
%TO.N,GND*%
X52440000Y-68725000D03*
D11*
%TO.P,J23,1*%
%TO.N,+5V*%
X49900000Y-68725000D03*
%TD*%
D10*
%TO.P,J18,20*%
%TO.N,r16*%
X80550000Y-124260000D03*
%TO.P,J18,19*%
%TO.N,r15*%
X80550000Y-121720000D03*
%TO.P,J18,18*%
%TO.N,r14*%
X80550000Y-119180000D03*
%TO.P,J18,17*%
%TO.N,r13*%
X80550000Y-116640000D03*
%TO.P,J18,16*%
%TO.N,r12*%
X80550000Y-114100000D03*
%TO.P,J18,15*%
%TO.N,r11*%
X80550000Y-111560000D03*
%TO.P,J18,14*%
%TO.N,r10*%
X80550000Y-109020000D03*
%TO.P,J18,13*%
%TO.N,r9*%
X80550000Y-106480000D03*
%TO.P,J18,12*%
%TO.N,r8*%
X80550000Y-103940000D03*
%TO.P,J18,11*%
%TO.N,r7*%
X80550000Y-101400000D03*
%TO.P,J18,10*%
%TO.N,r6*%
X80550000Y-98860000D03*
%TO.P,J18,9*%
%TO.N,r5*%
X80550000Y-96320000D03*
%TO.P,J18,8*%
%TO.N,r4*%
X80550000Y-93780000D03*
%TO.P,J18,7*%
%TO.N,r3*%
X80550000Y-91240000D03*
%TO.P,J18,6*%
%TO.N,r2*%
X80550000Y-88700000D03*
%TO.P,J18,5*%
%TO.N,r1*%
X80550000Y-86160000D03*
%TO.P,J18,4*%
%TO.N,GND*%
X80550000Y-83620000D03*
%TO.P,J18,3*%
X80550000Y-81080000D03*
%TO.P,J18,2*%
X80550000Y-78540000D03*
D11*
%TO.P,J18,1*%
X80550000Y-76000000D03*
%TD*%
D10*
%TO.P,J17,20*%
%TO.N,GND*%
X66625000Y-124260000D03*
%TO.P,J17,19*%
X66625000Y-121720000D03*
%TO.P,J17,18*%
X66625000Y-119180000D03*
%TO.P,J17,17*%
X66625000Y-116640000D03*
%TO.P,J17,16*%
%TO.N,l16*%
X66625000Y-114100000D03*
%TO.P,J17,15*%
%TO.N,l15*%
X66625000Y-111560000D03*
%TO.P,J17,14*%
%TO.N,l14*%
X66625000Y-109020000D03*
%TO.P,J17,13*%
%TO.N,l13*%
X66625000Y-106480000D03*
%TO.P,J17,12*%
%TO.N,l12*%
X66625000Y-103940000D03*
%TO.P,J17,11*%
%TO.N,l11*%
X66625000Y-101400000D03*
%TO.P,J17,10*%
%TO.N,l10*%
X66625000Y-98860000D03*
%TO.P,J17,9*%
%TO.N,l9*%
X66625000Y-96320000D03*
%TO.P,J17,8*%
%TO.N,l8*%
X66625000Y-93780000D03*
%TO.P,J17,7*%
%TO.N,l7*%
X66625000Y-91240000D03*
%TO.P,J17,6*%
%TO.N,l6*%
X66625000Y-88700000D03*
%TO.P,J17,5*%
%TO.N,l5*%
X66625000Y-86160000D03*
%TO.P,J17,4*%
%TO.N,l4*%
X66625000Y-83620000D03*
%TO.P,J17,3*%
%TO.N,l3*%
X66625000Y-81080000D03*
%TO.P,J17,2*%
%TO.N,l2*%
X66625000Y-78540000D03*
D11*
%TO.P,J17,1*%
%TO.N,l1*%
X66625000Y-76000000D03*
%TD*%
D10*
%TO.P,J16,20*%
%TO.N,ur16*%
X61975000Y-124260000D03*
%TO.P,J16,19*%
%TO.N,ur15*%
X61975000Y-121720000D03*
%TO.P,J16,18*%
%TO.N,ur14*%
X61975000Y-119180000D03*
%TO.P,J16,17*%
%TO.N,ur13*%
X61975000Y-116640000D03*
%TO.P,J16,16*%
%TO.N,ur12*%
X61975000Y-114100000D03*
%TO.P,J16,15*%
%TO.N,ur11*%
X61975000Y-111560000D03*
%TO.P,J16,14*%
%TO.N,ur10*%
X61975000Y-109020000D03*
%TO.P,J16,13*%
%TO.N,ur9*%
X61975000Y-106480000D03*
%TO.P,J16,12*%
%TO.N,ur8*%
X61975000Y-103940000D03*
%TO.P,J16,11*%
%TO.N,ur7*%
X61975000Y-101400000D03*
%TO.P,J16,10*%
%TO.N,ur6*%
X61975000Y-98860000D03*
%TO.P,J16,9*%
%TO.N,ur5*%
X61975000Y-96320000D03*
%TO.P,J16,8*%
%TO.N,ur4*%
X61975000Y-93780000D03*
%TO.P,J16,7*%
%TO.N,ur3*%
X61975000Y-91240000D03*
%TO.P,J16,6*%
%TO.N,ur2*%
X61975000Y-88700000D03*
%TO.P,J16,5*%
%TO.N,ur1*%
X61975000Y-86160000D03*
%TO.P,J16,4*%
%TO.N,GND*%
X61975000Y-83620000D03*
%TO.P,J16,3*%
X61975000Y-81080000D03*
%TO.P,J16,2*%
X61975000Y-78540000D03*
D11*
%TO.P,J16,1*%
X61975000Y-76000000D03*
%TD*%
D10*
%TO.P,J15,20*%
%TO.N,GND*%
X48100000Y-124260000D03*
%TO.P,J15,19*%
X48100000Y-121720000D03*
%TO.P,J15,18*%
X48100000Y-119180000D03*
%TO.P,J15,17*%
X48100000Y-116640000D03*
%TO.P,J15,16*%
%TO.N,ul16*%
X48100000Y-114100000D03*
%TO.P,J15,15*%
%TO.N,ul15*%
X48100000Y-111560000D03*
%TO.P,J15,14*%
%TO.N,ul14*%
X48100000Y-109020000D03*
%TO.P,J15,13*%
%TO.N,ul13*%
X48100000Y-106480000D03*
%TO.P,J15,12*%
%TO.N,ul12*%
X48100000Y-103940000D03*
%TO.P,J15,11*%
%TO.N,ul11*%
X48100000Y-101400000D03*
%TO.P,J15,10*%
%TO.N,ul10*%
X48100000Y-98860000D03*
%TO.P,J15,9*%
%TO.N,ul9*%
X48100000Y-96320000D03*
%TO.P,J15,8*%
%TO.N,ul8*%
X48100000Y-93780000D03*
%TO.P,J15,7*%
%TO.N,ul7*%
X48100000Y-91240000D03*
%TO.P,J15,6*%
%TO.N,ul6*%
X48100000Y-88700000D03*
%TO.P,J15,5*%
%TO.N,ul5*%
X48100000Y-86160000D03*
%TO.P,J15,4*%
%TO.N,ul4*%
X48100000Y-83620000D03*
%TO.P,J15,3*%
%TO.N,ul3*%
X48100000Y-81080000D03*
%TO.P,J15,2*%
%TO.N,ul2*%
X48100000Y-78540000D03*
D11*
%TO.P,J15,1*%
%TO.N,ul1*%
X48100000Y-76000000D03*
%TD*%
D12*
%TO.P,IC6,16*%
%TO.N,+5V*%
X58488000Y-109905000D03*
%TO.P,IC6,15*%
%TO.N,ur9*%
X58488000Y-111175000D03*
%TO.P,IC6,14*%
%TO.N,Net-(IC5-Pad9)*%
X58488000Y-112445000D03*
%TO.P,IC6,13*%
%TO.N,GND*%
X58488000Y-113715000D03*
%TO.P,IC6,12*%
%TO.N,RCLK*%
X58488000Y-114985000D03*
%TO.P,IC6,11*%
%TO.N,SRCLK*%
X58488000Y-116255000D03*
%TO.P,IC6,10*%
%TO.N,+5V*%
X58488000Y-117525000D03*
%TO.P,IC6,9*%
%TO.N,Net-(IC6-Pad9)*%
X58488000Y-118795000D03*
%TO.P,IC6,8*%
%TO.N,GND*%
X51412000Y-118795000D03*
%TO.P,IC6,7*%
%TO.N,ur16*%
X51412000Y-117525000D03*
%TO.P,IC6,6*%
%TO.N,ur15*%
X51412000Y-116255000D03*
%TO.P,IC6,5*%
%TO.N,ur14*%
X51412000Y-114985000D03*
%TO.P,IC6,4*%
%TO.N,ur13*%
X51412000Y-113715000D03*
%TO.P,IC6,3*%
%TO.N,ur12*%
X51412000Y-112445000D03*
%TO.P,IC6,2*%
%TO.N,ur11*%
X51412000Y-111175000D03*
%TO.P,IC6,1*%
%TO.N,ur10*%
X51412000Y-109905000D03*
%TD*%
%TO.P,IC5,16*%
%TO.N,+5V*%
X58563000Y-97755000D03*
%TO.P,IC5,15*%
%TO.N,ur1*%
X58563000Y-99025000D03*
%TO.P,IC5,14*%
%TO.N,Net-(IC4-Pad9)*%
X58563000Y-100295000D03*
%TO.P,IC5,13*%
%TO.N,GND*%
X58563000Y-101565000D03*
%TO.P,IC5,12*%
%TO.N,RCLK*%
X58563000Y-102835000D03*
%TO.P,IC5,11*%
%TO.N,SRCLK*%
X58563000Y-104105000D03*
%TO.P,IC5,10*%
%TO.N,+5V*%
X58563000Y-105375000D03*
%TO.P,IC5,9*%
%TO.N,Net-(IC5-Pad9)*%
X58563000Y-106645000D03*
%TO.P,IC5,8*%
%TO.N,GND*%
X51487000Y-106645000D03*
%TO.P,IC5,7*%
%TO.N,ur8*%
X51487000Y-105375000D03*
%TO.P,IC5,6*%
%TO.N,ur7*%
X51487000Y-104105000D03*
%TO.P,IC5,5*%
%TO.N,ur6*%
X51487000Y-102835000D03*
%TO.P,IC5,4*%
%TO.N,ur5*%
X51487000Y-101565000D03*
%TO.P,IC5,3*%
%TO.N,ur4*%
X51487000Y-100295000D03*
%TO.P,IC5,2*%
%TO.N,ur3*%
X51487000Y-99025000D03*
%TO.P,IC5,1*%
%TO.N,ur2*%
X51487000Y-97755000D03*
%TD*%
%TO.P,IC4,16*%
%TO.N,+5V*%
X59038000Y-84005000D03*
%TO.P,IC4,15*%
%TO.N,ul9*%
X59038000Y-85275000D03*
%TO.P,IC4,14*%
%TO.N,Net-(IC3-Pad9)*%
X59038000Y-86545000D03*
%TO.P,IC4,13*%
%TO.N,GND*%
X59038000Y-87815000D03*
%TO.P,IC4,12*%
%TO.N,RCLK*%
X59038000Y-89085000D03*
%TO.P,IC4,11*%
%TO.N,SRCLK*%
X59038000Y-90355000D03*
%TO.P,IC4,10*%
%TO.N,+5V*%
X59038000Y-91625000D03*
%TO.P,IC4,9*%
%TO.N,Net-(IC4-Pad9)*%
X59038000Y-92895000D03*
%TO.P,IC4,8*%
%TO.N,GND*%
X51962000Y-92895000D03*
%TO.P,IC4,7*%
%TO.N,ul16*%
X51962000Y-91625000D03*
%TO.P,IC4,6*%
%TO.N,ul15*%
X51962000Y-90355000D03*
%TO.P,IC4,5*%
%TO.N,ul14*%
X51962000Y-89085000D03*
%TO.P,IC4,4*%
%TO.N,ul13*%
X51962000Y-87815000D03*
%TO.P,IC4,3*%
%TO.N,ul12*%
X51962000Y-86545000D03*
%TO.P,IC4,2*%
%TO.N,ul11*%
X51962000Y-85275000D03*
%TO.P,IC4,1*%
%TO.N,ul10*%
X51962000Y-84005000D03*
%TD*%
%TO.P,IC3,16*%
%TO.N,+5V*%
X58963000Y-72355000D03*
%TO.P,IC3,15*%
%TO.N,ul1*%
X58963000Y-73625000D03*
%TO.P,IC3,14*%
%TO.N,SER*%
X58963000Y-74895000D03*
%TO.P,IC3,13*%
%TO.N,GND*%
X58963000Y-76165000D03*
%TO.P,IC3,12*%
%TO.N,RCLK*%
X58963000Y-77435000D03*
%TO.P,IC3,11*%
%TO.N,SRCLK*%
X58963000Y-78705000D03*
%TO.P,IC3,10*%
%TO.N,+5V*%
X58963000Y-79975000D03*
%TO.P,IC3,9*%
%TO.N,Net-(IC3-Pad9)*%
X58963000Y-81245000D03*
%TO.P,IC3,8*%
%TO.N,GND*%
X51887000Y-81245000D03*
%TO.P,IC3,7*%
%TO.N,ul8*%
X51887000Y-79975000D03*
%TO.P,IC3,6*%
%TO.N,ul7*%
X51887000Y-78705000D03*
%TO.P,IC3,5*%
%TO.N,ul6*%
X51887000Y-77435000D03*
%TO.P,IC3,4*%
%TO.N,ul5*%
X51887000Y-76165000D03*
%TO.P,IC3,3*%
%TO.N,ul4*%
X51887000Y-74895000D03*
%TO.P,IC3,2*%
%TO.N,ul3*%
X51887000Y-73625000D03*
%TO.P,IC3,1*%
%TO.N,ul2*%
X51887000Y-72355000D03*
%TD*%
D13*
%TO.P,D12,4*%
%TO.N,Net-(D12-Pad4)*%
X73600000Y-127640000D03*
%TO.P,D12,3*%
%TO.N,Net-(D12-Pad3)*%
X73600000Y-128910000D03*
%TO.P,D12,2*%
%TO.N,r15*%
X73600000Y-130180000D03*
D14*
%TO.P,D12,1*%
%TO.N,r16*%
X73600000Y-131450000D03*
%TD*%
D13*
%TO.P,D11,4*%
%TO.N,r14*%
X73625000Y-121715000D03*
%TO.P,D11,3*%
%TO.N,Net-(D11-Pad3)*%
X73625000Y-122985000D03*
%TO.P,D11,2*%
%TO.N,r12*%
X73625000Y-124255000D03*
D14*
%TO.P,D11,1*%
%TO.N,r13*%
X73625000Y-125525000D03*
%TD*%
D13*
%TO.P,D10,4*%
%TO.N,r11*%
X73725000Y-116015000D03*
%TO.P,D10,3*%
%TO.N,Net-(D10-Pad3)*%
X73725000Y-117285000D03*
%TO.P,D10,2*%
%TO.N,r9*%
X73725000Y-118555000D03*
D14*
%TO.P,D10,1*%
%TO.N,r10*%
X73725000Y-119825000D03*
%TD*%
D13*
%TO.P,D9,4*%
%TO.N,r8*%
X73675000Y-110085000D03*
%TO.P,D9,3*%
%TO.N,Net-(D9-Pad3)*%
X73675000Y-111355000D03*
%TO.P,D9,2*%
%TO.N,r6*%
X73675000Y-112625000D03*
D14*
%TO.P,D9,1*%
%TO.N,r7*%
X73675000Y-113895000D03*
%TD*%
D13*
%TO.P,D8,4*%
%TO.N,r5*%
X73625000Y-104440000D03*
%TO.P,D8,3*%
%TO.N,Net-(D8-Pad3)*%
X73625000Y-105710000D03*
%TO.P,D8,2*%
%TO.N,r3*%
X73625000Y-106980000D03*
D14*
%TO.P,D8,1*%
%TO.N,r4*%
X73625000Y-108250000D03*
%TD*%
D13*
%TO.P,D7,4*%
%TO.N,r2*%
X73600000Y-98805000D03*
%TO.P,D7,3*%
%TO.N,Net-(D7-Pad3)*%
X73600000Y-100075000D03*
%TO.P,D7,2*%
%TO.N,l16*%
X73600000Y-101345000D03*
D14*
%TO.P,D7,1*%
%TO.N,r1*%
X73600000Y-102615000D03*
%TD*%
D13*
%TO.P,D6,4*%
%TO.N,l15*%
X73625000Y-93080000D03*
%TO.P,D6,3*%
%TO.N,Net-(D6-Pad3)*%
X73625000Y-94350000D03*
%TO.P,D6,2*%
%TO.N,l13*%
X73625000Y-95620000D03*
D14*
%TO.P,D6,1*%
%TO.N,l14*%
X73625000Y-96890000D03*
%TD*%
D13*
%TO.P,D5,4*%
%TO.N,l12*%
X73600000Y-87440000D03*
%TO.P,D5,3*%
%TO.N,Net-(D5-Pad3)*%
X73600000Y-88710000D03*
%TO.P,D5,2*%
%TO.N,l10*%
X73600000Y-89980000D03*
D14*
%TO.P,D5,1*%
%TO.N,l11*%
X73600000Y-91250000D03*
%TD*%
D13*
%TO.P,D4,4*%
%TO.N,l9*%
X73625000Y-81765000D03*
%TO.P,D4,3*%
%TO.N,Net-(D4-Pad3)*%
X73625000Y-83035000D03*
%TO.P,D4,2*%
%TO.N,l7*%
X73625000Y-84305000D03*
D14*
%TO.P,D4,1*%
%TO.N,l8*%
X73625000Y-85575000D03*
%TD*%
D13*
%TO.P,D3,4*%
%TO.N,l6*%
X73600000Y-76110000D03*
%TO.P,D3,3*%
%TO.N,Net-(D3-Pad3)*%
X73600000Y-77380000D03*
%TO.P,D3,2*%
%TO.N,l4*%
X73600000Y-78650000D03*
D14*
%TO.P,D3,1*%
%TO.N,l5*%
X73600000Y-79920000D03*
%TD*%
%TO.P,D2,1*%
%TO.N,l2*%
X73600000Y-73920000D03*
D13*
%TO.P,D2,2*%
%TO.N,l1*%
X73600000Y-72650000D03*
%TO.P,D2,3*%
%TO.N,Net-(D2-Pad3)*%
X73600000Y-71380000D03*
%TO.P,D2,4*%
%TO.N,l3*%
X73600000Y-70110000D03*
%TD*%
D15*
%TO.N,GND*%
X55450000Y-81737500D03*
X55150000Y-88425000D03*
X77500000Y-126850000D03*
X79250000Y-130075000D03*
X76175000Y-115800000D03*
X78725000Y-113450000D03*
X78300000Y-109975000D03*
X77975000Y-107925000D03*
X76125000Y-100025000D03*
X79075000Y-97400000D03*
X68975000Y-109250000D03*
X70275000Y-102175000D03*
X69700000Y-76000000D03*
X69275000Y-77600000D03*
X70875000Y-71525000D03*
X50050000Y-106900000D03*
X51650000Y-93500000D03*
X51500000Y-119800000D03*
X55125000Y-78800000D03*
X51700000Y-81200000D03*
X48150000Y-71950000D03*
X61775000Y-71850000D03*
X67250000Y-67200000D03*
X76850000Y-66525000D03*
X71575000Y-98700000D03*
X75525000Y-96150000D03*
X75925000Y-90725000D03*
X75925000Y-84825000D03*
X78475000Y-84950000D03*
X71800000Y-83275000D03*
X71325000Y-104175000D03*
X71600000Y-109675000D03*
X71275000Y-115450000D03*
X71275000Y-121175000D03*
X59700000Y-120325000D03*
X57200000Y-113850000D03*
X60500000Y-100275000D03*
X59075000Y-87925000D03*
X57275000Y-76400000D03*
X57425000Y-86125000D03*
X55175000Y-89475000D03*
X77900000Y-93350000D03*
X76575000Y-73625000D03*
X77300000Y-79225000D03*
X71675000Y-80975000D03*
X69750000Y-113525000D03*
X71425000Y-107800000D03*
X71250000Y-113450000D03*
X71400000Y-119850000D03*
X58000000Y-125000000D03*
X60450000Y-115500000D03*
X62475000Y-73750000D03*
X53975000Y-72800000D03*
X57475000Y-82025000D03*
X63124532Y-94998795D03*
X78950000Y-98374998D03*
X59725000Y-108725000D03*
X60050000Y-110275000D03*
X54450000Y-91425000D03*
X59150158Y-95925162D03*
X54400000Y-94025000D03*
X80350000Y-69150000D03*
%TO.N,+5V*%
X54637500Y-122075000D03*
X54587500Y-124450000D03*
X55350000Y-76075000D03*
X58575000Y-105350000D03*
X53625000Y-110950000D03*
X58488000Y-110175010D03*
X58499998Y-108350000D03*
X56750000Y-71400000D03*
X55525000Y-83650000D03*
X58591653Y-97783653D03*
X55950006Y-87500000D03*
%TO.N,SER*%
X58975000Y-75000000D03*
%TO.N,RCLK*%
X59038000Y-89085000D03*
X56700000Y-89624990D03*
X58963000Y-77435000D03*
%TO.N,SRCLK*%
X59038000Y-90355000D03*
X58963000Y-78705000D03*
X56250010Y-92307232D03*
%TO.N,Net-(IC3-Pad9)*%
X59025000Y-82700000D03*
X59038000Y-86545000D03*
%TO.N,Net-(IC5-Pad9)*%
X56275000Y-108525000D03*
X56793390Y-106770622D03*
%TO.N,r5*%
X77265160Y-97315160D03*
%TO.N,r8*%
X77825000Y-104400000D03*
%TO.N,r11*%
X76425010Y-112300000D03*
%TO.N,r14*%
X77375000Y-119225000D03*
%TO.N,ul8*%
X53900000Y-80075000D03*
%TO.N,ul7*%
X53125000Y-78700000D03*
%TO.N,ul6*%
X51887000Y-77435000D03*
%TO.N,ul5*%
X50900021Y-76375000D03*
%TO.N,ul15*%
X55525000Y-91000000D03*
X53524990Y-96100000D03*
%TO.N,ul11*%
X53599998Y-89600000D03*
%TO.N,ul10*%
X53325000Y-84475000D03*
%TO.N,ur8*%
X51525000Y-105425000D03*
%TO.N,ur7*%
X51525000Y-104100000D03*
%TO.N,ur6*%
X51450000Y-102950000D03*
%TO.N,ur5*%
X51425000Y-101550000D03*
%TO.N,ur4*%
X51500000Y-100325000D03*
%TO.N,ur3*%
X51500000Y-99025000D03*
%TO.N,ur2*%
X51475160Y-97775160D03*
%TO.N,ur16*%
X51425000Y-117525000D03*
%TO.N,ur15*%
X51400000Y-116250000D03*
%TO.N,ur14*%
X51450000Y-114950000D03*
%TO.N,ur13*%
X51275000Y-113775000D03*
%TO.N,ur12*%
X51450000Y-112475000D03*
%TO.N,ur11*%
X51450000Y-111200000D03*
%TO.N,ur10*%
X51375000Y-109900000D03*
%TD*%
D16*
%TO.N,GND*%
X58488000Y-113715000D02*
X57935498Y-113715000D01*
X54957500Y-81245000D02*
X55450000Y-81737500D01*
X51887000Y-81245000D02*
X54957500Y-81245000D01*
X50305000Y-106645000D02*
X50050000Y-106900000D01*
X51487000Y-106645000D02*
X50305000Y-106645000D01*
X55150000Y-87227004D02*
X55150000Y-88425000D01*
X56252004Y-86125000D02*
X55150000Y-87227004D01*
X57425000Y-86125000D02*
X56252004Y-86125000D01*
X62350000Y-100225000D02*
X63350000Y-99225000D01*
X63350000Y-95224263D02*
X63124532Y-94998795D01*
X60500000Y-100275000D02*
X60550000Y-100225000D01*
X60550000Y-100225000D02*
X62350000Y-100225000D01*
X63350000Y-99225000D02*
X63350000Y-95224263D01*
X77900000Y-88575000D02*
X77900000Y-93350000D01*
X79075000Y-87400000D02*
X77900000Y-88575000D01*
X81935474Y-87960474D02*
X81375000Y-87400000D01*
X81947458Y-96661545D02*
X81935474Y-87960474D01*
X79170001Y-97495001D02*
X81114001Y-97495001D01*
X81375000Y-87400000D02*
X79075000Y-87400000D01*
X81114001Y-97495001D02*
X81947458Y-96661545D01*
X79075000Y-97400000D02*
X79170001Y-97495001D01*
X59210000Y-101565000D02*
X58563000Y-101565000D01*
X60500000Y-100275000D02*
X59210000Y-101565000D01*
X59725000Y-108093590D02*
X59725000Y-108725000D01*
X60500000Y-107318590D02*
X59725000Y-108093590D01*
X60500000Y-100275000D02*
X60500000Y-107318590D01*
X59725000Y-109950000D02*
X60050000Y-110275000D01*
X59725000Y-108725000D02*
X59725000Y-109950000D01*
X60450000Y-114539500D02*
X60450000Y-115500000D01*
X59625500Y-113715000D02*
X60450000Y-114539500D01*
X58488000Y-113715000D02*
X59625500Y-113715000D01*
X60450000Y-119575000D02*
X59700000Y-120325000D01*
X60450000Y-115500000D02*
X60450000Y-119575000D01*
X53875000Y-93500000D02*
X54400000Y-94025000D01*
X51650000Y-93500000D02*
X53875000Y-93500000D01*
%TO.N,+5V*%
X59038000Y-84005000D02*
X58780000Y-84005000D01*
X54637500Y-124400000D02*
X54587500Y-124450000D01*
X54637500Y-122075000D02*
X54637500Y-124400000D01*
X55440000Y-76165000D02*
X55350000Y-76075000D01*
X60100500Y-79975000D02*
X60450000Y-79625500D01*
X58963000Y-79975000D02*
X60100500Y-79975000D01*
X60100500Y-72355000D02*
X58963000Y-72355000D01*
X60450000Y-72704500D02*
X60100500Y-72355000D01*
X60450000Y-79625500D02*
X60450000Y-72704500D01*
X59515502Y-79975000D02*
X60325000Y-80784498D01*
X58963000Y-79975000D02*
X59515502Y-79975000D01*
X60325000Y-80784498D02*
X60325000Y-83875000D01*
X60195000Y-84005000D02*
X59038000Y-84005000D01*
X60325000Y-83875000D02*
X60195000Y-84005000D01*
X60300000Y-92050000D02*
X59875000Y-91625000D01*
X60300000Y-96018000D02*
X60300000Y-92050000D01*
X59875000Y-91625000D02*
X59038000Y-91625000D01*
X58563000Y-97755000D02*
X60300000Y-96018000D01*
X58563000Y-105362000D02*
X58575000Y-105350000D01*
X58563000Y-105375000D02*
X58563000Y-105362000D01*
X53625000Y-113799500D02*
X53625000Y-110950000D01*
X57350500Y-117525000D02*
X53625000Y-113799500D01*
X58488000Y-108361998D02*
X58499998Y-108350000D01*
X58488000Y-110175010D02*
X58488000Y-108361998D01*
X58008000Y-71400000D02*
X58963000Y-72355000D01*
X56750000Y-71400000D02*
X58008000Y-71400000D01*
X58683000Y-83650000D02*
X59038000Y-84005000D01*
X55525000Y-83650000D02*
X58683000Y-83650000D01*
X57350500Y-117525000D02*
X58488000Y-117525000D01*
X54637500Y-120238000D02*
X57350500Y-117525000D01*
X54637500Y-122075000D02*
X54637500Y-120238000D01*
X56750000Y-71400000D02*
X55650000Y-70300000D01*
X51475000Y-70300000D02*
X49900000Y-68725000D01*
X55650000Y-70300000D02*
X51475000Y-70300000D01*
X57425001Y-88974995D02*
X55950006Y-87500000D01*
X57900500Y-91625000D02*
X57425001Y-91149501D01*
X59038000Y-91625000D02*
X57900500Y-91625000D01*
X57425001Y-91149501D02*
X57425001Y-88974995D01*
%TO.N,SER*%
X58963000Y-74988000D02*
X58975000Y-75000000D01*
X58963000Y-74895000D02*
X58963000Y-74988000D01*
%TO.N,RCLK*%
X55075000Y-108625000D02*
X56125001Y-107574999D01*
X59455503Y-107574999D02*
X60025000Y-107005502D01*
X55075000Y-113225000D02*
X55075000Y-108625000D01*
X60025000Y-107005502D02*
X60025000Y-103159500D01*
X56125001Y-107574999D02*
X59455503Y-107574999D01*
X58488000Y-114985000D02*
X56835000Y-114985000D01*
X56835000Y-114985000D02*
X55075000Y-113225000D01*
X59700500Y-102835000D02*
X58563000Y-102835000D01*
X60025000Y-103159500D02*
X59700500Y-102835000D01*
X56600022Y-102009522D02*
X56600022Y-93030222D01*
X56600022Y-93030222D02*
X56975011Y-92655233D01*
X56700000Y-91684220D02*
X56700000Y-89624990D01*
X56975011Y-91959231D02*
X56700000Y-91684220D01*
X56975011Y-92655233D02*
X56975011Y-91959231D01*
X58563000Y-102835000D02*
X57425500Y-102835000D01*
X57425500Y-102835000D02*
X56600022Y-102009522D01*
%TO.N,SRCLK*%
X57425500Y-104105000D02*
X58563000Y-104105000D01*
X57425500Y-104105000D02*
X56150011Y-105380489D01*
X56150011Y-106436400D02*
X54375000Y-108211411D01*
X56150011Y-92407231D02*
X56250010Y-92307232D01*
X54375000Y-113279500D02*
X57350500Y-116255000D01*
X56150011Y-105380489D02*
X56150011Y-106436400D01*
X57350500Y-116255000D02*
X58488000Y-116255000D01*
X56150011Y-102829511D02*
X56150011Y-92407231D01*
X57425500Y-104105000D02*
X56150011Y-102829511D01*
X54375000Y-108211411D02*
X54375000Y-113279500D01*
%TO.N,Net-(IC3-Pad9)*%
X58963000Y-82638000D02*
X59025000Y-82700000D01*
X58963000Y-81245000D02*
X58963000Y-82638000D01*
%TO.N,Net-(IC4-Pad9)*%
X58010498Y-100295000D02*
X57300000Y-99584502D01*
X58563000Y-100295000D02*
X58010498Y-100295000D01*
X57300000Y-94633000D02*
X59038000Y-92895000D01*
X57300000Y-99584502D02*
X57300000Y-94633000D01*
%TO.N,Net-(IC5-Pad9)*%
X56275000Y-111369500D02*
X56275000Y-108525000D01*
X57350500Y-112445000D02*
X56275000Y-111369500D01*
X58488000Y-112445000D02*
X57350500Y-112445000D01*
X56919012Y-106645000D02*
X56793390Y-106770622D01*
X58563000Y-106645000D02*
X56919012Y-106645000D01*
%TO.N,l3*%
X70103590Y-70110000D02*
X73600000Y-70110000D01*
X65449999Y-74763591D02*
X70103590Y-70110000D01*
X65449999Y-80149999D02*
X65449999Y-74763591D01*
X66380000Y-81080000D02*
X65449999Y-80149999D01*
X66625000Y-81080000D02*
X66380000Y-81080000D01*
%TO.N,l1*%
X66625000Y-76000000D02*
X66625000Y-74225000D01*
X68200000Y-72650000D02*
X73600000Y-72650000D01*
X66625000Y-74225000D02*
X68200000Y-72650000D01*
%TO.N,l2*%
X67800001Y-77364999D02*
X67800001Y-74424999D01*
X66625000Y-78540000D02*
X67800001Y-77364999D01*
X68305000Y-73920000D02*
X73600000Y-73920000D01*
X67800001Y-74424999D02*
X68305000Y-73920000D01*
%TO.N,l6*%
X72450000Y-76110000D02*
X73600000Y-76110000D01*
X72225000Y-77219002D02*
X72225000Y-76335000D01*
X67094002Y-82350000D02*
X72225000Y-77219002D01*
X65875000Y-82350000D02*
X67094002Y-82350000D01*
X72225000Y-76335000D02*
X72450000Y-76110000D01*
X65310756Y-82914244D02*
X65875000Y-82350000D01*
X65310756Y-87385756D02*
X65310756Y-82914244D01*
X66625000Y-88700000D02*
X65310756Y-87385756D01*
%TO.N,l4*%
X71595000Y-78650000D02*
X73600000Y-78650000D01*
X66625000Y-83620000D02*
X71595000Y-78650000D01*
%TO.N,l5*%
X66625000Y-86160000D02*
X69450000Y-83335000D01*
X69450000Y-83335000D02*
X69450000Y-81575000D01*
X69450000Y-81575000D02*
X71105000Y-79920000D01*
X71105000Y-79920000D02*
X73600000Y-79920000D01*
%TO.N,l9*%
X71860000Y-81765000D02*
X73625000Y-81765000D01*
X68600000Y-85025000D02*
X71860000Y-81765000D01*
X68600000Y-88464002D02*
X68600000Y-85025000D01*
X67089002Y-89975000D02*
X68600000Y-88464002D01*
X66150997Y-89975000D02*
X67089002Y-89975000D01*
X65316941Y-90809056D02*
X66150997Y-89975000D01*
X65323099Y-94217101D02*
X65316941Y-90809056D01*
X66625000Y-95519002D02*
X65323099Y-94217101D01*
X66625000Y-96320000D02*
X66625000Y-95519002D01*
%TO.N,l7*%
X70745000Y-84305000D02*
X73625000Y-84305000D01*
X69375000Y-85675000D02*
X70745000Y-84305000D01*
X69375000Y-88490000D02*
X69375000Y-85675000D01*
X66625000Y-91240000D02*
X69375000Y-88490000D01*
%TO.N,l8*%
X66625000Y-93780000D02*
X70450000Y-89955000D01*
X70450000Y-89955000D02*
X70450000Y-86900000D01*
X71775000Y-85575000D02*
X73625000Y-85575000D01*
X70450000Y-86900000D02*
X71775000Y-85575000D01*
%TO.N,l12*%
X72450000Y-87440000D02*
X73600000Y-87440000D01*
X68875000Y-92675000D02*
X71800000Y-89750000D01*
X68875000Y-96050000D02*
X68875000Y-92675000D01*
X67300000Y-97625000D02*
X68875000Y-96050000D01*
X66120998Y-97625000D02*
X67300000Y-97625000D01*
X71800000Y-89750000D02*
X71800000Y-88090000D01*
X65449999Y-98295999D02*
X66120998Y-97625000D01*
X65449999Y-102764999D02*
X65449999Y-98295999D01*
X71800000Y-88090000D02*
X72450000Y-87440000D01*
X66625000Y-103940000D02*
X65449999Y-102764999D01*
%TO.N,l10*%
X72849998Y-89980000D02*
X73600000Y-89980000D01*
X69600000Y-93229998D02*
X72849998Y-89980000D01*
X66765000Y-98860000D02*
X69600000Y-96025000D01*
X69600000Y-96025000D02*
X69600000Y-93229998D01*
X66625000Y-98860000D02*
X66765000Y-98860000D01*
%TO.N,l11*%
X72450000Y-91250000D02*
X73600000Y-91250000D01*
X70775000Y-95725000D02*
X70775000Y-92925000D01*
X66625000Y-101400000D02*
X67899989Y-100125011D01*
X67899989Y-98600010D02*
X70775000Y-95725000D01*
X67899989Y-100125011D02*
X67899989Y-98600010D01*
X70775000Y-92925000D02*
X72450000Y-91250000D01*
%TO.N,l15*%
X71625000Y-93930000D02*
X72475000Y-93080000D01*
X68350000Y-104575000D02*
X68350000Y-99050000D01*
X67725000Y-105200000D02*
X68350000Y-104575000D01*
X72475000Y-93080000D02*
X73625000Y-93080000D01*
X65625000Y-105200000D02*
X67725000Y-105200000D01*
X65275010Y-105549990D02*
X65625000Y-105200000D01*
X68350000Y-99050000D02*
X71625000Y-95775000D01*
X65275010Y-110210010D02*
X65275010Y-105549990D01*
X71625000Y-95775000D02*
X71625000Y-93930000D01*
X66625000Y-111560000D02*
X65275010Y-110210010D01*
%TO.N,l13*%
X72475000Y-95620000D02*
X73625000Y-95620000D01*
X68950000Y-99145000D02*
X72475000Y-95620000D01*
X68950000Y-105425000D02*
X68950000Y-99145000D01*
X67895000Y-106480000D02*
X68950000Y-105425000D01*
X66625000Y-106480000D02*
X67895000Y-106480000D01*
%TO.N,l14*%
X72010000Y-96890000D02*
X73625000Y-96890000D01*
X69400000Y-99500000D02*
X72010000Y-96890000D01*
X69400000Y-106245000D02*
X69400000Y-99500000D01*
X66625000Y-109020000D02*
X69400000Y-106245000D01*
%TO.N,r2*%
X80025000Y-88700000D02*
X80550000Y-88700000D01*
X78950000Y-89775000D02*
X80025000Y-88700000D01*
X78950000Y-94605000D02*
X78950000Y-89775000D01*
X74750000Y-98805000D02*
X78950000Y-94605000D01*
X73600000Y-98805000D02*
X74750000Y-98805000D01*
%TO.N,l16*%
X66625000Y-114100000D02*
X70200000Y-110525000D01*
X70200000Y-103595000D02*
X72450000Y-101345000D01*
X72450000Y-101345000D02*
X73600000Y-101345000D01*
X70200000Y-110525000D02*
X70200000Y-103595000D01*
%TO.N,r5*%
X74775000Y-104440000D02*
X77265160Y-101949840D01*
X73625000Y-104440000D02*
X74775000Y-104440000D01*
X77265160Y-101949840D02*
X77265160Y-97315160D01*
%TO.N,r4*%
X77990161Y-97663161D02*
X77990161Y-96339839D01*
X74999990Y-108025010D02*
X74999990Y-106075010D01*
X77975000Y-97678322D02*
X77990161Y-97663161D01*
X77975000Y-103100000D02*
X77975000Y-97678322D01*
X74999990Y-106075010D02*
X77975000Y-103100000D01*
X74775000Y-108250000D02*
X74999990Y-108025010D01*
X77990161Y-96339839D02*
X80550000Y-93780000D01*
X73625000Y-108250000D02*
X74775000Y-108250000D01*
%TO.N,r8*%
X75450000Y-109460000D02*
X75450000Y-106775000D01*
X74825000Y-110085000D02*
X75450000Y-109460000D01*
X73675000Y-110085000D02*
X74825000Y-110085000D01*
X75450000Y-106775000D02*
X77825000Y-104400000D01*
%TO.N,r6*%
X78775000Y-100635000D02*
X80550000Y-98860000D01*
X74040000Y-112625000D02*
X76175000Y-110490000D01*
X76175000Y-107350000D02*
X78775000Y-104750000D01*
X76175000Y-110490000D02*
X76175000Y-107350000D01*
X73675000Y-112625000D02*
X74040000Y-112625000D01*
X78775000Y-104750000D02*
X78775000Y-100635000D01*
%TO.N,r7*%
X76675000Y-108075000D02*
X79225011Y-105524989D01*
X76675000Y-110800000D02*
X76675000Y-108075000D01*
X75700000Y-111775000D02*
X76675000Y-110800000D01*
X79225011Y-102724989D02*
X80550000Y-101400000D01*
X75700000Y-113020000D02*
X75700000Y-111775000D01*
X74825000Y-113895000D02*
X75700000Y-113020000D01*
X79225011Y-105524989D02*
X79225011Y-102724989D01*
X73675000Y-113895000D02*
X74825000Y-113895000D01*
%TO.N,r11*%
X73725000Y-116015000D02*
X76425010Y-113314990D01*
X76425010Y-113314990D02*
X76425010Y-112300000D01*
%TO.N,r9*%
X77150011Y-109879989D02*
X80550000Y-106480000D01*
X77150011Y-112648001D02*
X77150011Y-109879989D01*
X77125000Y-112673012D02*
X77150011Y-112648001D01*
X77125000Y-116305000D02*
X77125000Y-112673012D01*
X73725000Y-118555000D02*
X74875000Y-118555000D01*
X74875000Y-118555000D02*
X77125000Y-116305000D01*
%TO.N,r10*%
X77775000Y-117350000D02*
X77775000Y-111795000D01*
X75300000Y-119825000D02*
X77775000Y-117350000D01*
X77775000Y-111795000D02*
X80550000Y-109020000D01*
X73725000Y-119825000D02*
X75300000Y-119825000D01*
%TO.N,r14*%
X74885000Y-121715000D02*
X77375000Y-119225000D01*
X73625000Y-121715000D02*
X74885000Y-121715000D01*
%TO.N,r12*%
X74775000Y-124255000D02*
X78350000Y-120680000D01*
X73625000Y-124255000D02*
X74775000Y-124255000D01*
X78350000Y-116300000D02*
X80550000Y-114100000D01*
X78350000Y-120680000D02*
X78350000Y-116300000D01*
%TO.N,r13*%
X79374999Y-117815001D02*
X80550000Y-116640000D01*
X79374999Y-120925001D02*
X79374999Y-117815001D01*
X74775000Y-125525000D02*
X79374999Y-120925001D01*
X73625000Y-125525000D02*
X74775000Y-125525000D01*
%TO.N,r15*%
X73600000Y-130180000D02*
X77870000Y-130180000D01*
X77870000Y-130180000D02*
X79100000Y-128950000D01*
X79100000Y-123170000D02*
X80550000Y-121720000D01*
X79100000Y-128950000D02*
X79100000Y-123170000D01*
%TO.N,r16*%
X79400000Y-132275000D02*
X74425000Y-132275000D01*
X74425000Y-132275000D02*
X73600000Y-131450000D01*
X81000000Y-130675000D02*
X79400000Y-132275000D01*
X81000000Y-124710000D02*
X81000000Y-130675000D01*
X80550000Y-124260000D02*
X81000000Y-124710000D01*
%TO.N,ul1*%
X48100000Y-74319498D02*
X48100000Y-76000000D01*
X51219498Y-71200000D02*
X48100000Y-74319498D01*
X54725000Y-71200000D02*
X51219498Y-71200000D01*
X57125000Y-73600000D02*
X54725000Y-71200000D01*
X58513000Y-73600000D02*
X57125000Y-73600000D01*
%TO.N,ul8*%
X51987000Y-80075000D02*
X51887000Y-79975000D01*
X53900000Y-80075000D02*
X51987000Y-80075000D01*
%TO.N,ul7*%
X51892000Y-78700000D02*
X51887000Y-78705000D01*
X53125000Y-78700000D02*
X51892000Y-78700000D01*
%TO.N,ul5*%
X51677000Y-76375000D02*
X51887000Y-76165000D01*
X50900021Y-76375000D02*
X51677000Y-76375000D01*
%TO.N,ul4*%
X50175021Y-75469479D02*
X50175021Y-80024979D01*
X50749500Y-74895000D02*
X50175021Y-75469479D01*
X51887000Y-74895000D02*
X50749500Y-74895000D01*
X50175021Y-80024979D02*
X49575000Y-80625000D01*
X49575000Y-82145000D02*
X48100000Y-83620000D01*
X49575000Y-80625000D02*
X49575000Y-82145000D01*
%TO.N,ul3*%
X50749500Y-73625000D02*
X49725011Y-74649489D01*
X51887000Y-73625000D02*
X50749500Y-73625000D01*
X49725011Y-74649489D02*
X49725011Y-78949989D01*
X48100000Y-80575000D02*
X48100000Y-81080000D01*
X49725011Y-78949989D02*
X48100000Y-80575000D01*
%TO.N,ul2*%
X50749500Y-72355000D02*
X49275001Y-73829499D01*
X51887000Y-72355000D02*
X50749500Y-72355000D01*
X48100000Y-78285002D02*
X48100000Y-78540000D01*
X49275001Y-77110001D02*
X48100000Y-78285002D01*
X49275001Y-73829499D02*
X49275001Y-77110001D01*
%TO.N,ul9*%
X49299978Y-88066700D02*
X49299978Y-95120022D01*
X49350000Y-88016678D02*
X49299978Y-88066700D01*
X49299978Y-95120022D02*
X48100000Y-96320000D01*
X49350000Y-83525000D02*
X49350000Y-88016678D01*
X50825000Y-82050000D02*
X49350000Y-83525000D01*
X52000000Y-82050000D02*
X50825000Y-82050000D01*
X55225000Y-85275000D02*
X52000000Y-82050000D01*
X59038000Y-85275000D02*
X55225000Y-85275000D01*
%TO.N,ul16*%
X49275001Y-112924999D02*
X48100000Y-114100000D01*
X49275001Y-111374999D02*
X49275001Y-112924999D01*
X55700000Y-106250000D02*
X53174990Y-108775010D01*
X51962000Y-91625000D02*
X53099500Y-91625000D01*
X53099500Y-91625000D02*
X55700000Y-94225500D01*
X55700000Y-94225500D02*
X55700000Y-106250000D01*
X53174990Y-108775010D02*
X50461400Y-108775010D01*
X50461400Y-108775010D02*
X49950000Y-109286410D01*
X49950000Y-109286410D02*
X49950000Y-110700000D01*
X49950000Y-110700000D02*
X49275001Y-111374999D01*
%TO.N,ul15*%
X51962000Y-90355000D02*
X54880000Y-90355000D01*
X54880000Y-90355000D02*
X55525000Y-91000000D01*
X53549990Y-107575010D02*
X53549990Y-96125000D01*
X50275000Y-108325000D02*
X52800000Y-108325000D01*
X49325000Y-110335000D02*
X49325000Y-109275000D01*
X49325000Y-109275000D02*
X50275000Y-108325000D01*
X48100000Y-111560000D02*
X49325000Y-110335000D01*
X53549990Y-96125000D02*
X53524990Y-96100000D01*
X52800000Y-108325000D02*
X53549990Y-107575010D01*
%TO.N,ul14*%
X50824500Y-89085000D02*
X51962000Y-89085000D01*
X53075000Y-97520498D02*
X50749499Y-95194997D01*
X53075000Y-106879502D02*
X53075000Y-97520498D01*
X50749499Y-89160001D02*
X50824500Y-89085000D01*
X52204502Y-107750000D02*
X53075000Y-106879502D01*
X50749499Y-95194997D02*
X50749499Y-89160001D01*
X49370000Y-107750000D02*
X52204502Y-107750000D01*
X48100000Y-109020000D02*
X49370000Y-107750000D01*
%TO.N,ul13*%
X50824500Y-87815000D02*
X51962000Y-87815000D01*
X50025000Y-95667820D02*
X50200000Y-95492820D01*
X50025000Y-104555000D02*
X50025000Y-95667820D01*
X48100000Y-106480000D02*
X50025000Y-104555000D01*
X50200000Y-95492820D02*
X50200000Y-88439500D01*
X50200000Y-88439500D02*
X50824500Y-87815000D01*
%TO.N,ul12*%
X49749989Y-88253100D02*
X51458089Y-86545000D01*
X49500000Y-95556410D02*
X49749989Y-95306421D01*
X49749989Y-95306421D02*
X49749989Y-88253100D01*
X48100000Y-103940000D02*
X49500000Y-102540000D01*
X49500000Y-102540000D02*
X49500000Y-95556410D01*
X51458089Y-86545000D02*
X51962000Y-86545000D01*
%TO.N,ul11*%
X53099500Y-85275000D02*
X53599998Y-85775498D01*
X51962000Y-85275000D02*
X53099500Y-85275000D01*
X53599998Y-85775498D02*
X53599998Y-89600000D01*
%TO.N,ul10*%
X51962000Y-84005000D02*
X52855000Y-84005000D01*
X52855000Y-84005000D02*
X53325000Y-84475000D01*
%TO.N,ur1*%
X59700500Y-99025000D02*
X60799999Y-97925501D01*
X60799999Y-97925501D02*
X60799999Y-87826911D01*
X58563000Y-99025000D02*
X59700500Y-99025000D01*
X60799999Y-87826911D02*
X61975000Y-86651910D01*
X61975000Y-86651910D02*
X61975000Y-86160000D01*
%TO.N,ur8*%
X51487000Y-105387000D02*
X51525000Y-105425000D01*
X51487000Y-105375000D02*
X51487000Y-105387000D01*
%TO.N,ur7*%
X51520000Y-104105000D02*
X51525000Y-104100000D01*
X51487000Y-104105000D02*
X51520000Y-104105000D01*
%TO.N,ur6*%
X51487000Y-102913000D02*
X51450000Y-102950000D01*
X51487000Y-102835000D02*
X51487000Y-102913000D01*
%TO.N,ur5*%
X51440000Y-101565000D02*
X51425000Y-101550000D01*
X51487000Y-101565000D02*
X51440000Y-101565000D01*
%TO.N,ur4*%
X51487000Y-100312000D02*
X51500000Y-100325000D01*
X51487000Y-100295000D02*
X51487000Y-100312000D01*
%TO.N,ur3*%
X51487000Y-99025000D02*
X51500000Y-99025000D01*
%TO.N,ur2*%
X51487000Y-97755000D02*
X51475160Y-97766840D01*
X51475160Y-97766840D02*
X51475160Y-97775160D01*
%TO.N,ur9*%
X60775000Y-107680000D02*
X61975000Y-106480000D01*
X60775000Y-110600000D02*
X60775000Y-107680000D01*
X60075000Y-111300000D02*
X60775000Y-110600000D01*
X58613000Y-111300000D02*
X60075000Y-111300000D01*
X58488000Y-111175000D02*
X58613000Y-111300000D01*
%TO.N,ur16*%
X51412000Y-117525000D02*
X51425000Y-117525000D01*
%TO.N,ur15*%
X51405000Y-116255000D02*
X51400000Y-116250000D01*
X51412000Y-116255000D02*
X51405000Y-116255000D01*
%TO.N,ur14*%
X51415000Y-114985000D02*
X51450000Y-114950000D01*
X51412000Y-114985000D02*
X51415000Y-114985000D01*
%TO.N,ur13*%
X51335000Y-113715000D02*
X51275000Y-113775000D01*
X51412000Y-113715000D02*
X51335000Y-113715000D01*
%TO.N,ur12*%
X51420000Y-112445000D02*
X51450000Y-112475000D01*
X51412000Y-112445000D02*
X51420000Y-112445000D01*
%TO.N,ur11*%
X51425000Y-111175000D02*
X51450000Y-111200000D01*
X51412000Y-111175000D02*
X51425000Y-111175000D01*
%TO.N,ur10*%
X51380000Y-109905000D02*
X51375000Y-109900000D01*
X51412000Y-109905000D02*
X51380000Y-109905000D01*
%TD*%
D17*
%TO.N,GND*%
X72061928Y-103150000D02*
X72074188Y-103274482D01*
X72110498Y-103394180D01*
X72169463Y-103504494D01*
X72248815Y-103601185D01*
X72345506Y-103680537D01*
X72362332Y-103689531D01*
X72282474Y-103786838D01*
X72173831Y-103990094D01*
X72106929Y-104210640D01*
X72084339Y-104440000D01*
X72106929Y-104669360D01*
X72173831Y-104889906D01*
X72272766Y-105075000D01*
X72173831Y-105260094D01*
X72106929Y-105480640D01*
X72084339Y-105710000D01*
X72106929Y-105939360D01*
X72173831Y-106159906D01*
X72272766Y-106345000D01*
X72173831Y-106530094D01*
X72106929Y-106750640D01*
X72084339Y-106980000D01*
X72106929Y-107209360D01*
X72167870Y-107410257D01*
X72135498Y-107470820D01*
X72099188Y-107590518D01*
X72086928Y-107715000D01*
X72086928Y-108785000D01*
X72099188Y-108909482D01*
X72135498Y-109029180D01*
X72194463Y-109139494D01*
X72273815Y-109236185D01*
X72370506Y-109315537D01*
X72410413Y-109336868D01*
X72332474Y-109431838D01*
X72223831Y-109635094D01*
X72156929Y-109855640D01*
X72134339Y-110085000D01*
X72156929Y-110314360D01*
X72223831Y-110534906D01*
X72322766Y-110720000D01*
X72223831Y-110905094D01*
X72156929Y-111125640D01*
X72134339Y-111355000D01*
X72156929Y-111584360D01*
X72223831Y-111804906D01*
X72322766Y-111990000D01*
X72223831Y-112175094D01*
X72156929Y-112395640D01*
X72134339Y-112625000D01*
X72156929Y-112854360D01*
X72217870Y-113055257D01*
X72185498Y-113115820D01*
X72149188Y-113235518D01*
X72136928Y-113360000D01*
X72136928Y-114430000D01*
X72149188Y-114554482D01*
X72185498Y-114674180D01*
X72244463Y-114784494D01*
X72323815Y-114881185D01*
X72420506Y-114960537D01*
X72530820Y-115019502D01*
X72650518Y-115055812D01*
X72680853Y-115058800D01*
X72528682Y-115183682D01*
X72382474Y-115361838D01*
X72273831Y-115565094D01*
X72206929Y-115785640D01*
X72184339Y-116015000D01*
X72206929Y-116244360D01*
X72273831Y-116464906D01*
X72372766Y-116650000D01*
X72273831Y-116835094D01*
X72206929Y-117055640D01*
X72184339Y-117285000D01*
X72206929Y-117514360D01*
X72273831Y-117734906D01*
X72372766Y-117920000D01*
X72273831Y-118105094D01*
X72206929Y-118325640D01*
X72184339Y-118555000D01*
X72206929Y-118784360D01*
X72267870Y-118985257D01*
X72235498Y-119045820D01*
X72199188Y-119165518D01*
X72186928Y-119290000D01*
X72186928Y-120360000D01*
X72199188Y-120484482D01*
X72235498Y-120604180D01*
X72294463Y-120714494D01*
X72373815Y-120811185D01*
X72445418Y-120869948D01*
X72428682Y-120883682D01*
X72282474Y-121061838D01*
X72173831Y-121265094D01*
X72106929Y-121485640D01*
X72084339Y-121715000D01*
X72106929Y-121944360D01*
X72173831Y-122164906D01*
X72272766Y-122350000D01*
X72173831Y-122535094D01*
X72106929Y-122755640D01*
X72084339Y-122985000D01*
X72106929Y-123214360D01*
X72173831Y-123434906D01*
X72272766Y-123620000D01*
X72173831Y-123805094D01*
X72106929Y-124025640D01*
X72084339Y-124255000D01*
X72106929Y-124484360D01*
X72167870Y-124685257D01*
X72135498Y-124745820D01*
X72099188Y-124865518D01*
X72086928Y-124990000D01*
X72086928Y-126060000D01*
X72099188Y-126184482D01*
X72135498Y-126304180D01*
X72194463Y-126414494D01*
X72273815Y-126511185D01*
X72370506Y-126590537D01*
X72480820Y-126649502D01*
X72566116Y-126675376D01*
X72403682Y-126808682D01*
X72257474Y-126986838D01*
X72148831Y-127190094D01*
X72081929Y-127410640D01*
X72059339Y-127640000D01*
X72081929Y-127869360D01*
X72148831Y-128089906D01*
X72247766Y-128275000D01*
X72148831Y-128460094D01*
X72081929Y-128680640D01*
X72059339Y-128910000D01*
X72081929Y-129139360D01*
X72148831Y-129359906D01*
X72247766Y-129545000D01*
X72148831Y-129730094D01*
X72081929Y-129950640D01*
X72059339Y-130180000D01*
X72081929Y-130409360D01*
X72142870Y-130610257D01*
X72110498Y-130670820D01*
X72074188Y-130790518D01*
X72061928Y-130915000D01*
X72061928Y-131985000D01*
X72074188Y-132109482D01*
X72110498Y-132229180D01*
X72169463Y-132339494D01*
X72248815Y-132436185D01*
X72345506Y-132515537D01*
X72455820Y-132574502D01*
X72575518Y-132610812D01*
X72700000Y-132623072D01*
X73698270Y-132623072D01*
X73861201Y-132786002D01*
X73884999Y-132815001D01*
X74000724Y-132909974D01*
X74132753Y-132980546D01*
X74276014Y-133024003D01*
X74387667Y-133035000D01*
X74387676Y-133035000D01*
X74424999Y-133038676D01*
X74462322Y-133035000D01*
X79362678Y-133035000D01*
X79400000Y-133038676D01*
X79437322Y-133035000D01*
X79437333Y-133035000D01*
X79548986Y-133024003D01*
X79692247Y-132980546D01*
X79824276Y-132909974D01*
X79940001Y-132815001D01*
X79963804Y-132785997D01*
X81511003Y-131238799D01*
X81540001Y-131215001D01*
X81629393Y-131106076D01*
X81667116Y-131231307D01*
X81687048Y-131268773D01*
X81668003Y-133344685D01*
X81644442Y-133388111D01*
X81601549Y-133526394D01*
X81590240Y-133634306D01*
X81583861Y-134655666D01*
X81507859Y-135770511D01*
X81286809Y-136837918D01*
X80922941Y-137865451D01*
X80422986Y-138834095D01*
X79796204Y-139725914D01*
X79054183Y-140524424D01*
X78210658Y-141214842D01*
X77281232Y-141784396D01*
X76283111Y-142222540D01*
X75234759Y-142521172D01*
X74155588Y-142674760D01*
X73065546Y-142680468D01*
X71984821Y-142538188D01*
X70933400Y-142250551D01*
X69930743Y-141822882D01*
X68995408Y-141263095D01*
X68144698Y-140581549D01*
X67394358Y-139790856D01*
X67375254Y-139764269D01*
X71175286Y-139764269D01*
X71175286Y-140235731D01*
X71267263Y-140698135D01*
X71447684Y-141133709D01*
X71709615Y-141525716D01*
X72042989Y-141859090D01*
X72434996Y-142121021D01*
X72870570Y-142301442D01*
X73332974Y-142393419D01*
X73804436Y-142393419D01*
X74266840Y-142301442D01*
X74702414Y-142121021D01*
X75094421Y-141859090D01*
X75427795Y-141525716D01*
X75689726Y-141133709D01*
X75870147Y-140698135D01*
X75962124Y-140235731D01*
X75962124Y-139764269D01*
X75870147Y-139301865D01*
X75689726Y-138866291D01*
X75427795Y-138474284D01*
X75094421Y-138140910D01*
X74702414Y-137878979D01*
X74266840Y-137698558D01*
X73804436Y-137606581D01*
X73332974Y-137606581D01*
X72870570Y-137698558D01*
X72434996Y-137878979D01*
X72042989Y-138140910D01*
X71709615Y-138474284D01*
X71447684Y-138866291D01*
X71267263Y-139301865D01*
X71175286Y-139764269D01*
X67375254Y-139764269D01*
X66758261Y-138905632D01*
X66248194Y-137942282D01*
X65873591Y-136918628D01*
X65641374Y-135853587D01*
X65554034Y-134743819D01*
X65553894Y-134717170D01*
X65557261Y-134682986D01*
X65543070Y-134538901D01*
X65501042Y-134400353D01*
X65432792Y-134272666D01*
X65340943Y-134160748D01*
X65229025Y-134068899D01*
X65101338Y-134000649D01*
X64962790Y-133958621D01*
X64854810Y-133947986D01*
X63782600Y-133947986D01*
X63674620Y-133958621D01*
X63536072Y-134000649D01*
X63408385Y-134068899D01*
X63296467Y-134160748D01*
X63204618Y-134272666D01*
X63136368Y-134400353D01*
X63094340Y-134538901D01*
X63080149Y-134682986D01*
X63081242Y-134694086D01*
X63007859Y-135770511D01*
X62786809Y-136837918D01*
X62422941Y-137865451D01*
X61922986Y-138834095D01*
X61296204Y-139725914D01*
X60554183Y-140524424D01*
X59710658Y-141214842D01*
X58781232Y-141784396D01*
X57783111Y-142222540D01*
X56734759Y-142521172D01*
X55655588Y-142674760D01*
X54565546Y-142680468D01*
X53484821Y-142538188D01*
X52433400Y-142250551D01*
X51430743Y-141822882D01*
X50495408Y-141263095D01*
X49644698Y-140581549D01*
X48894358Y-139790856D01*
X48875254Y-139764269D01*
X52675286Y-139764269D01*
X52675286Y-140235731D01*
X52767263Y-140698135D01*
X52947684Y-141133709D01*
X53209615Y-141525716D01*
X53542989Y-141859090D01*
X53934996Y-142121021D01*
X54370570Y-142301442D01*
X54832974Y-142393419D01*
X55304436Y-142393419D01*
X55766840Y-142301442D01*
X56202414Y-142121021D01*
X56594421Y-141859090D01*
X56927795Y-141525716D01*
X57189726Y-141133709D01*
X57370147Y-140698135D01*
X57462124Y-140235731D01*
X57462124Y-139764269D01*
X57370147Y-139301865D01*
X57189726Y-138866291D01*
X56927795Y-138474284D01*
X56594421Y-138140910D01*
X56202414Y-137878979D01*
X55766840Y-137698558D01*
X55304436Y-137606581D01*
X54832974Y-137606581D01*
X54370570Y-137698558D01*
X53934996Y-137878979D01*
X53542989Y-138140910D01*
X53209615Y-138474284D01*
X52947684Y-138866291D01*
X52767263Y-139301865D01*
X52675286Y-139764269D01*
X48875254Y-139764269D01*
X48258261Y-138905632D01*
X47748194Y-137942282D01*
X47373591Y-136918628D01*
X47141374Y-135853587D01*
X47054034Y-134743819D01*
X47053706Y-134681165D01*
X47060672Y-115160779D01*
X47153368Y-115253475D01*
X47396589Y-115415990D01*
X47666842Y-115527932D01*
X47953740Y-115585000D01*
X48246260Y-115585000D01*
X48533158Y-115527932D01*
X48803411Y-115415990D01*
X49046632Y-115253475D01*
X49253475Y-115046632D01*
X49415990Y-114803411D01*
X49527932Y-114533158D01*
X49585000Y-114246260D01*
X49585000Y-113953740D01*
X49541210Y-113733592D01*
X49786004Y-113488798D01*
X49815002Y-113465000D01*
X49886428Y-113377967D01*
X49886428Y-114065000D01*
X49898688Y-114189482D01*
X49934998Y-114309180D01*
X49956817Y-114350000D01*
X49934998Y-114390820D01*
X49898688Y-114510518D01*
X49886428Y-114635000D01*
X49886428Y-115335000D01*
X49898688Y-115459482D01*
X49934998Y-115579180D01*
X49956817Y-115620000D01*
X49934998Y-115660820D01*
X49898688Y-115780518D01*
X49886428Y-115905000D01*
X49886428Y-116605000D01*
X49898688Y-116729482D01*
X49934998Y-116849180D01*
X49956817Y-116890000D01*
X49934998Y-116930820D01*
X49898688Y-117050518D01*
X49886428Y-117175000D01*
X49886428Y-117875000D01*
X49898688Y-117999482D01*
X49934998Y-118119180D01*
X49993963Y-118229494D01*
X50073315Y-118326185D01*
X50170006Y-118405537D01*
X50280320Y-118464502D01*
X50400018Y-118500812D01*
X50524500Y-118513072D01*
X51105831Y-118513072D01*
X51123102Y-118520226D01*
X51323061Y-118560000D01*
X51526939Y-118560000D01*
X51726898Y-118520226D01*
X51744169Y-118513072D01*
X52299500Y-118513072D01*
X52423982Y-118500812D01*
X52543680Y-118464502D01*
X52653994Y-118405537D01*
X52750685Y-118326185D01*
X52830037Y-118229494D01*
X52889002Y-118119180D01*
X52925312Y-117999482D01*
X52937572Y-117875000D01*
X52937572Y-117175000D01*
X52925312Y-117050518D01*
X52889002Y-116930820D01*
X52867183Y-116890000D01*
X52889002Y-116849180D01*
X52925312Y-116729482D01*
X52937572Y-116605000D01*
X52937572Y-115905000D01*
X52925312Y-115780518D01*
X52889002Y-115660820D01*
X52867183Y-115620000D01*
X52889002Y-115579180D01*
X52925312Y-115459482D01*
X52937572Y-115335000D01*
X52937572Y-114635000D01*
X52925312Y-114510518D01*
X52889002Y-114390820D01*
X52867183Y-114350000D01*
X52889002Y-114309180D01*
X52925312Y-114189482D01*
X52932529Y-114116207D01*
X52990026Y-114223776D01*
X53010715Y-114248985D01*
X53084999Y-114339501D01*
X53114003Y-114363304D01*
X56275698Y-117525000D01*
X54126498Y-119674201D01*
X54097500Y-119697999D01*
X54073702Y-119726997D01*
X54073701Y-119726998D01*
X54002526Y-119813724D01*
X53931954Y-119945754D01*
X53888498Y-120089015D01*
X53873824Y-120238000D01*
X53877501Y-120275332D01*
X53877500Y-121371289D01*
X53833563Y-121415226D01*
X53720295Y-121584744D01*
X53642274Y-121773102D01*
X53602500Y-121973061D01*
X53602500Y-122176939D01*
X53642274Y-122376898D01*
X53720295Y-122565256D01*
X53833563Y-122734774D01*
X53877500Y-122778711D01*
X53877501Y-123696288D01*
X53783563Y-123790226D01*
X53670295Y-123959744D01*
X53592274Y-124148102D01*
X53552500Y-124348061D01*
X53552500Y-124551939D01*
X53592274Y-124751898D01*
X53670295Y-124940256D01*
X53783563Y-125109774D01*
X53927726Y-125253937D01*
X54097244Y-125367205D01*
X54285602Y-125445226D01*
X54485561Y-125485000D01*
X54689439Y-125485000D01*
X54889398Y-125445226D01*
X55077756Y-125367205D01*
X55247274Y-125253937D01*
X55391437Y-125109774D01*
X55504705Y-124940256D01*
X55582726Y-124751898D01*
X55622500Y-124551939D01*
X55622500Y-124348061D01*
X55582726Y-124148102D01*
X55504705Y-123959744D01*
X55397500Y-123799300D01*
X55397500Y-122778711D01*
X55441437Y-122734774D01*
X55554705Y-122565256D01*
X55632726Y-122376898D01*
X55672500Y-122176939D01*
X55672500Y-121973061D01*
X55632726Y-121773102D01*
X55554705Y-121584744D01*
X55441437Y-121415226D01*
X55397500Y-121371289D01*
X55397500Y-120552801D01*
X56962428Y-118987874D01*
X56962428Y-119145000D01*
X56974688Y-119269482D01*
X57010998Y-119389180D01*
X57069963Y-119499494D01*
X57149315Y-119596185D01*
X57246006Y-119675537D01*
X57356320Y-119734502D01*
X57476018Y-119770812D01*
X57600500Y-119783072D01*
X59375500Y-119783072D01*
X59499982Y-119770812D01*
X59619680Y-119734502D01*
X59729994Y-119675537D01*
X59826685Y-119596185D01*
X59906037Y-119499494D01*
X59965002Y-119389180D01*
X60001312Y-119269482D01*
X60013572Y-119145000D01*
X60013572Y-118445000D01*
X60001312Y-118320518D01*
X59965002Y-118200820D01*
X59943183Y-118160000D01*
X59965002Y-118119180D01*
X60001312Y-117999482D01*
X60013572Y-117875000D01*
X60013572Y-117175000D01*
X60001312Y-117050518D01*
X59965002Y-116930820D01*
X59943183Y-116890000D01*
X59965002Y-116849180D01*
X60001312Y-116729482D01*
X60013572Y-116605000D01*
X60013572Y-115905000D01*
X60001312Y-115780518D01*
X59965002Y-115660820D01*
X59943183Y-115620000D01*
X59965002Y-115579180D01*
X60001312Y-115459482D01*
X60013572Y-115335000D01*
X60013572Y-114635000D01*
X60001312Y-114510518D01*
X59965002Y-114390820D01*
X59906037Y-114280506D01*
X59826685Y-114183815D01*
X59729994Y-114104463D01*
X59619680Y-114045498D01*
X59499982Y-114009188D01*
X59375500Y-113996928D01*
X57600500Y-113996928D01*
X57476018Y-114009188D01*
X57356320Y-114045498D01*
X57246006Y-114104463D01*
X57149315Y-114183815D01*
X57130970Y-114206168D01*
X55835000Y-112910199D01*
X55835000Y-112004301D01*
X56786700Y-112956002D01*
X56810499Y-112985001D01*
X56926224Y-113079974D01*
X57058253Y-113150546D01*
X57074994Y-113155624D01*
X57149315Y-113246185D01*
X57246006Y-113325537D01*
X57356320Y-113384502D01*
X57476018Y-113420812D01*
X57600500Y-113433072D01*
X59375500Y-113433072D01*
X59499982Y-113420812D01*
X59619680Y-113384502D01*
X59729994Y-113325537D01*
X59826685Y-113246185D01*
X59906037Y-113149494D01*
X59965002Y-113039180D01*
X60001312Y-112919482D01*
X60013572Y-112795000D01*
X60013572Y-112095000D01*
X60010125Y-112060000D01*
X60037678Y-112060000D01*
X60075000Y-112063676D01*
X60112322Y-112060000D01*
X60112333Y-112060000D01*
X60223986Y-112049003D01*
X60367247Y-112005546D01*
X60499276Y-111934974D01*
X60530412Y-111909422D01*
X60547068Y-111993158D01*
X60659010Y-112263411D01*
X60821525Y-112506632D01*
X61028368Y-112713475D01*
X61202760Y-112830000D01*
X61028368Y-112946525D01*
X60821525Y-113153368D01*
X60659010Y-113396589D01*
X60547068Y-113666842D01*
X60490000Y-113953740D01*
X60490000Y-114246260D01*
X60547068Y-114533158D01*
X60659010Y-114803411D01*
X60821525Y-115046632D01*
X61028368Y-115253475D01*
X61202760Y-115370000D01*
X61028368Y-115486525D01*
X60821525Y-115693368D01*
X60659010Y-115936589D01*
X60547068Y-116206842D01*
X60490000Y-116493740D01*
X60490000Y-116786260D01*
X60547068Y-117073158D01*
X60659010Y-117343411D01*
X60821525Y-117586632D01*
X61028368Y-117793475D01*
X61202760Y-117910000D01*
X61028368Y-118026525D01*
X60821525Y-118233368D01*
X60659010Y-118476589D01*
X60547068Y-118746842D01*
X60490000Y-119033740D01*
X60490000Y-119326260D01*
X60547068Y-119613158D01*
X60659010Y-119883411D01*
X60821525Y-120126632D01*
X61028368Y-120333475D01*
X61202760Y-120450000D01*
X61028368Y-120566525D01*
X60821525Y-120773368D01*
X60659010Y-121016589D01*
X60547068Y-121286842D01*
X60490000Y-121573740D01*
X60490000Y-121866260D01*
X60547068Y-122153158D01*
X60659010Y-122423411D01*
X60821525Y-122666632D01*
X61028368Y-122873475D01*
X61202760Y-122990000D01*
X61028368Y-123106525D01*
X60821525Y-123313368D01*
X60659010Y-123556589D01*
X60547068Y-123826842D01*
X60490000Y-124113740D01*
X60490000Y-124406260D01*
X60547068Y-124693158D01*
X60659010Y-124963411D01*
X60821525Y-125206632D01*
X61028368Y-125413475D01*
X61271589Y-125575990D01*
X61541842Y-125687932D01*
X61828740Y-125745000D01*
X62121260Y-125745000D01*
X62408158Y-125687932D01*
X62678411Y-125575990D01*
X62921632Y-125413475D01*
X63090001Y-125245106D01*
X63090001Y-130888885D01*
X63086444Y-130925000D01*
X63100635Y-131069085D01*
X63142663Y-131207633D01*
X63210913Y-131335320D01*
X63302762Y-131447238D01*
X63414680Y-131539087D01*
X63542367Y-131607337D01*
X63680915Y-131649365D01*
X63788895Y-131660000D01*
X63825000Y-131663556D01*
X63861105Y-131660000D01*
X64813895Y-131660000D01*
X64850000Y-131663556D01*
X64886105Y-131660000D01*
X64994085Y-131649365D01*
X65132633Y-131607337D01*
X65260320Y-131539087D01*
X65372238Y-131447238D01*
X65464087Y-131335320D01*
X65532337Y-131207633D01*
X65574365Y-131069085D01*
X65588556Y-130925000D01*
X65585000Y-130888895D01*
X65585000Y-115160107D01*
X65678368Y-115253475D01*
X65921589Y-115415990D01*
X66191842Y-115527932D01*
X66478740Y-115585000D01*
X66771260Y-115585000D01*
X67058158Y-115527932D01*
X67328411Y-115415990D01*
X67571632Y-115253475D01*
X67778475Y-115046632D01*
X67940990Y-114803411D01*
X68052932Y-114533158D01*
X68110000Y-114246260D01*
X68110000Y-113953740D01*
X68066210Y-113733592D01*
X70711009Y-111088794D01*
X70740001Y-111065001D01*
X70763795Y-111036008D01*
X70763799Y-111036004D01*
X70826983Y-110959013D01*
X70834974Y-110949276D01*
X70905546Y-110817247D01*
X70949003Y-110673986D01*
X70960000Y-110562333D01*
X70960000Y-110562324D01*
X70963676Y-110525001D01*
X70960000Y-110487678D01*
X70960000Y-103909801D01*
X72061928Y-102807874D01*
X72061928Y-103150000D01*
%TA.AperFunction,Conductor*%
D18*
G36*
X72061928Y-103150000D02*
G01*
X72074188Y-103274482D01*
X72110498Y-103394180D01*
X72169463Y-103504494D01*
X72248815Y-103601185D01*
X72345506Y-103680537D01*
X72362332Y-103689531D01*
X72282474Y-103786838D01*
X72173831Y-103990094D01*
X72106929Y-104210640D01*
X72084339Y-104440000D01*
X72106929Y-104669360D01*
X72173831Y-104889906D01*
X72272766Y-105075000D01*
X72173831Y-105260094D01*
X72106929Y-105480640D01*
X72084339Y-105710000D01*
X72106929Y-105939360D01*
X72173831Y-106159906D01*
X72272766Y-106345000D01*
X72173831Y-106530094D01*
X72106929Y-106750640D01*
X72084339Y-106980000D01*
X72106929Y-107209360D01*
X72167870Y-107410257D01*
X72135498Y-107470820D01*
X72099188Y-107590518D01*
X72086928Y-107715000D01*
X72086928Y-108785000D01*
X72099188Y-108909482D01*
X72135498Y-109029180D01*
X72194463Y-109139494D01*
X72273815Y-109236185D01*
X72370506Y-109315537D01*
X72410413Y-109336868D01*
X72332474Y-109431838D01*
X72223831Y-109635094D01*
X72156929Y-109855640D01*
X72134339Y-110085000D01*
X72156929Y-110314360D01*
X72223831Y-110534906D01*
X72322766Y-110720000D01*
X72223831Y-110905094D01*
X72156929Y-111125640D01*
X72134339Y-111355000D01*
X72156929Y-111584360D01*
X72223831Y-111804906D01*
X72322766Y-111990000D01*
X72223831Y-112175094D01*
X72156929Y-112395640D01*
X72134339Y-112625000D01*
X72156929Y-112854360D01*
X72217870Y-113055257D01*
X72185498Y-113115820D01*
X72149188Y-113235518D01*
X72136928Y-113360000D01*
X72136928Y-114430000D01*
X72149188Y-114554482D01*
X72185498Y-114674180D01*
X72244463Y-114784494D01*
X72323815Y-114881185D01*
X72420506Y-114960537D01*
X72530820Y-115019502D01*
X72650518Y-115055812D01*
X72680853Y-115058800D01*
X72528682Y-115183682D01*
X72382474Y-115361838D01*
X72273831Y-115565094D01*
X72206929Y-115785640D01*
X72184339Y-116015000D01*
X72206929Y-116244360D01*
X72273831Y-116464906D01*
X72372766Y-116650000D01*
X72273831Y-116835094D01*
X72206929Y-117055640D01*
X72184339Y-117285000D01*
X72206929Y-117514360D01*
X72273831Y-117734906D01*
X72372766Y-117920000D01*
X72273831Y-118105094D01*
X72206929Y-118325640D01*
X72184339Y-118555000D01*
X72206929Y-118784360D01*
X72267870Y-118985257D01*
X72235498Y-119045820D01*
X72199188Y-119165518D01*
X72186928Y-119290000D01*
X72186928Y-120360000D01*
X72199188Y-120484482D01*
X72235498Y-120604180D01*
X72294463Y-120714494D01*
X72373815Y-120811185D01*
X72445418Y-120869948D01*
X72428682Y-120883682D01*
X72282474Y-121061838D01*
X72173831Y-121265094D01*
X72106929Y-121485640D01*
X72084339Y-121715000D01*
X72106929Y-121944360D01*
X72173831Y-122164906D01*
X72272766Y-122350000D01*
X72173831Y-122535094D01*
X72106929Y-122755640D01*
X72084339Y-122985000D01*
X72106929Y-123214360D01*
X72173831Y-123434906D01*
X72272766Y-123620000D01*
X72173831Y-123805094D01*
X72106929Y-124025640D01*
X72084339Y-124255000D01*
X72106929Y-124484360D01*
X72167870Y-124685257D01*
X72135498Y-124745820D01*
X72099188Y-124865518D01*
X72086928Y-124990000D01*
X72086928Y-126060000D01*
X72099188Y-126184482D01*
X72135498Y-126304180D01*
X72194463Y-126414494D01*
X72273815Y-126511185D01*
X72370506Y-126590537D01*
X72480820Y-126649502D01*
X72566116Y-126675376D01*
X72403682Y-126808682D01*
X72257474Y-126986838D01*
X72148831Y-127190094D01*
X72081929Y-127410640D01*
X72059339Y-127640000D01*
X72081929Y-127869360D01*
X72148831Y-128089906D01*
X72247766Y-128275000D01*
X72148831Y-128460094D01*
X72081929Y-128680640D01*
X72059339Y-128910000D01*
X72081929Y-129139360D01*
X72148831Y-129359906D01*
X72247766Y-129545000D01*
X72148831Y-129730094D01*
X72081929Y-129950640D01*
X72059339Y-130180000D01*
X72081929Y-130409360D01*
X72142870Y-130610257D01*
X72110498Y-130670820D01*
X72074188Y-130790518D01*
X72061928Y-130915000D01*
X72061928Y-131985000D01*
X72074188Y-132109482D01*
X72110498Y-132229180D01*
X72169463Y-132339494D01*
X72248815Y-132436185D01*
X72345506Y-132515537D01*
X72455820Y-132574502D01*
X72575518Y-132610812D01*
X72700000Y-132623072D01*
X73698270Y-132623072D01*
X73861201Y-132786002D01*
X73884999Y-132815001D01*
X74000724Y-132909974D01*
X74132753Y-132980546D01*
X74276014Y-133024003D01*
X74387667Y-133035000D01*
X74387676Y-133035000D01*
X74424999Y-133038676D01*
X74462322Y-133035000D01*
X79362678Y-133035000D01*
X79400000Y-133038676D01*
X79437322Y-133035000D01*
X79437333Y-133035000D01*
X79548986Y-133024003D01*
X79692247Y-132980546D01*
X79824276Y-132909974D01*
X79940001Y-132815001D01*
X79963804Y-132785997D01*
X81511003Y-131238799D01*
X81540001Y-131215001D01*
X81629393Y-131106076D01*
X81667116Y-131231307D01*
X81687048Y-131268773D01*
X81668003Y-133344685D01*
X81644442Y-133388111D01*
X81601549Y-133526394D01*
X81590240Y-133634306D01*
X81583861Y-134655666D01*
X81507859Y-135770511D01*
X81286809Y-136837918D01*
X80922941Y-137865451D01*
X80422986Y-138834095D01*
X79796204Y-139725914D01*
X79054183Y-140524424D01*
X78210658Y-141214842D01*
X77281232Y-141784396D01*
X76283111Y-142222540D01*
X75234759Y-142521172D01*
X74155588Y-142674760D01*
X73065546Y-142680468D01*
X71984821Y-142538188D01*
X70933400Y-142250551D01*
X69930743Y-141822882D01*
X68995408Y-141263095D01*
X68144698Y-140581549D01*
X67394358Y-139790856D01*
X67375254Y-139764269D01*
X71175286Y-139764269D01*
X71175286Y-140235731D01*
X71267263Y-140698135D01*
X71447684Y-141133709D01*
X71709615Y-141525716D01*
X72042989Y-141859090D01*
X72434996Y-142121021D01*
X72870570Y-142301442D01*
X73332974Y-142393419D01*
X73804436Y-142393419D01*
X74266840Y-142301442D01*
X74702414Y-142121021D01*
X75094421Y-141859090D01*
X75427795Y-141525716D01*
X75689726Y-141133709D01*
X75870147Y-140698135D01*
X75962124Y-140235731D01*
X75962124Y-139764269D01*
X75870147Y-139301865D01*
X75689726Y-138866291D01*
X75427795Y-138474284D01*
X75094421Y-138140910D01*
X74702414Y-137878979D01*
X74266840Y-137698558D01*
X73804436Y-137606581D01*
X73332974Y-137606581D01*
X72870570Y-137698558D01*
X72434996Y-137878979D01*
X72042989Y-138140910D01*
X71709615Y-138474284D01*
X71447684Y-138866291D01*
X71267263Y-139301865D01*
X71175286Y-139764269D01*
X67375254Y-139764269D01*
X66758261Y-138905632D01*
X66248194Y-137942282D01*
X65873591Y-136918628D01*
X65641374Y-135853587D01*
X65554034Y-134743819D01*
X65553894Y-134717170D01*
X65557261Y-134682986D01*
X65543070Y-134538901D01*
X65501042Y-134400353D01*
X65432792Y-134272666D01*
X65340943Y-134160748D01*
X65229025Y-134068899D01*
X65101338Y-134000649D01*
X64962790Y-133958621D01*
X64854810Y-133947986D01*
X63782600Y-133947986D01*
X63674620Y-133958621D01*
X63536072Y-134000649D01*
X63408385Y-134068899D01*
X63296467Y-134160748D01*
X63204618Y-134272666D01*
X63136368Y-134400353D01*
X63094340Y-134538901D01*
X63080149Y-134682986D01*
X63081242Y-134694086D01*
X63007859Y-135770511D01*
X62786809Y-136837918D01*
X62422941Y-137865451D01*
X61922986Y-138834095D01*
X61296204Y-139725914D01*
X60554183Y-140524424D01*
X59710658Y-141214842D01*
X58781232Y-141784396D01*
X57783111Y-142222540D01*
X56734759Y-142521172D01*
X55655588Y-142674760D01*
X54565546Y-142680468D01*
X53484821Y-142538188D01*
X52433400Y-142250551D01*
X51430743Y-141822882D01*
X50495408Y-141263095D01*
X49644698Y-140581549D01*
X48894358Y-139790856D01*
X48875254Y-139764269D01*
X52675286Y-139764269D01*
X52675286Y-140235731D01*
X52767263Y-140698135D01*
X52947684Y-141133709D01*
X53209615Y-141525716D01*
X53542989Y-141859090D01*
X53934996Y-142121021D01*
X54370570Y-142301442D01*
X54832974Y-142393419D01*
X55304436Y-142393419D01*
X55766840Y-142301442D01*
X56202414Y-142121021D01*
X56594421Y-141859090D01*
X56927795Y-141525716D01*
X57189726Y-141133709D01*
X57370147Y-140698135D01*
X57462124Y-140235731D01*
X57462124Y-139764269D01*
X57370147Y-139301865D01*
X57189726Y-138866291D01*
X56927795Y-138474284D01*
X56594421Y-138140910D01*
X56202414Y-137878979D01*
X55766840Y-137698558D01*
X55304436Y-137606581D01*
X54832974Y-137606581D01*
X54370570Y-137698558D01*
X53934996Y-137878979D01*
X53542989Y-138140910D01*
X53209615Y-138474284D01*
X52947684Y-138866291D01*
X52767263Y-139301865D01*
X52675286Y-139764269D01*
X48875254Y-139764269D01*
X48258261Y-138905632D01*
X47748194Y-137942282D01*
X47373591Y-136918628D01*
X47141374Y-135853587D01*
X47054034Y-134743819D01*
X47053706Y-134681165D01*
X47060672Y-115160779D01*
X47153368Y-115253475D01*
X47396589Y-115415990D01*
X47666842Y-115527932D01*
X47953740Y-115585000D01*
X48246260Y-115585000D01*
X48533158Y-115527932D01*
X48803411Y-115415990D01*
X49046632Y-115253475D01*
X49253475Y-115046632D01*
X49415990Y-114803411D01*
X49527932Y-114533158D01*
X49585000Y-114246260D01*
X49585000Y-113953740D01*
X49541210Y-113733592D01*
X49786004Y-113488798D01*
X49815002Y-113465000D01*
X49886428Y-113377967D01*
X49886428Y-114065000D01*
X49898688Y-114189482D01*
X49934998Y-114309180D01*
X49956817Y-114350000D01*
X49934998Y-114390820D01*
X49898688Y-114510518D01*
X49886428Y-114635000D01*
X49886428Y-115335000D01*
X49898688Y-115459482D01*
X49934998Y-115579180D01*
X49956817Y-115620000D01*
X49934998Y-115660820D01*
X49898688Y-115780518D01*
X49886428Y-115905000D01*
X49886428Y-116605000D01*
X49898688Y-116729482D01*
X49934998Y-116849180D01*
X49956817Y-116890000D01*
X49934998Y-116930820D01*
X49898688Y-117050518D01*
X49886428Y-117175000D01*
X49886428Y-117875000D01*
X49898688Y-117999482D01*
X49934998Y-118119180D01*
X49993963Y-118229494D01*
X50073315Y-118326185D01*
X50170006Y-118405537D01*
X50280320Y-118464502D01*
X50400018Y-118500812D01*
X50524500Y-118513072D01*
X51105831Y-118513072D01*
X51123102Y-118520226D01*
X51323061Y-118560000D01*
X51526939Y-118560000D01*
X51726898Y-118520226D01*
X51744169Y-118513072D01*
X52299500Y-118513072D01*
X52423982Y-118500812D01*
X52543680Y-118464502D01*
X52653994Y-118405537D01*
X52750685Y-118326185D01*
X52830037Y-118229494D01*
X52889002Y-118119180D01*
X52925312Y-117999482D01*
X52937572Y-117875000D01*
X52937572Y-117175000D01*
X52925312Y-117050518D01*
X52889002Y-116930820D01*
X52867183Y-116890000D01*
X52889002Y-116849180D01*
X52925312Y-116729482D01*
X52937572Y-116605000D01*
X52937572Y-115905000D01*
X52925312Y-115780518D01*
X52889002Y-115660820D01*
X52867183Y-115620000D01*
X52889002Y-115579180D01*
X52925312Y-115459482D01*
X52937572Y-115335000D01*
X52937572Y-114635000D01*
X52925312Y-114510518D01*
X52889002Y-114390820D01*
X52867183Y-114350000D01*
X52889002Y-114309180D01*
X52925312Y-114189482D01*
X52932529Y-114116207D01*
X52990026Y-114223776D01*
X53010715Y-114248985D01*
X53084999Y-114339501D01*
X53114003Y-114363304D01*
X56275698Y-117525000D01*
X54126498Y-119674201D01*
X54097500Y-119697999D01*
X54073702Y-119726997D01*
X54073701Y-119726998D01*
X54002526Y-119813724D01*
X53931954Y-119945754D01*
X53888498Y-120089015D01*
X53873824Y-120238000D01*
X53877501Y-120275332D01*
X53877500Y-121371289D01*
X53833563Y-121415226D01*
X53720295Y-121584744D01*
X53642274Y-121773102D01*
X53602500Y-121973061D01*
X53602500Y-122176939D01*
X53642274Y-122376898D01*
X53720295Y-122565256D01*
X53833563Y-122734774D01*
X53877500Y-122778711D01*
X53877501Y-123696288D01*
X53783563Y-123790226D01*
X53670295Y-123959744D01*
X53592274Y-124148102D01*
X53552500Y-124348061D01*
X53552500Y-124551939D01*
X53592274Y-124751898D01*
X53670295Y-124940256D01*
X53783563Y-125109774D01*
X53927726Y-125253937D01*
X54097244Y-125367205D01*
X54285602Y-125445226D01*
X54485561Y-125485000D01*
X54689439Y-125485000D01*
X54889398Y-125445226D01*
X55077756Y-125367205D01*
X55247274Y-125253937D01*
X55391437Y-125109774D01*
X55504705Y-124940256D01*
X55582726Y-124751898D01*
X55622500Y-124551939D01*
X55622500Y-124348061D01*
X55582726Y-124148102D01*
X55504705Y-123959744D01*
X55397500Y-123799300D01*
X55397500Y-122778711D01*
X55441437Y-122734774D01*
X55554705Y-122565256D01*
X55632726Y-122376898D01*
X55672500Y-122176939D01*
X55672500Y-121973061D01*
X55632726Y-121773102D01*
X55554705Y-121584744D01*
X55441437Y-121415226D01*
X55397500Y-121371289D01*
X55397500Y-120552801D01*
X56962428Y-118987874D01*
X56962428Y-119145000D01*
X56974688Y-119269482D01*
X57010998Y-119389180D01*
X57069963Y-119499494D01*
X57149315Y-119596185D01*
X57246006Y-119675537D01*
X57356320Y-119734502D01*
X57476018Y-119770812D01*
X57600500Y-119783072D01*
X59375500Y-119783072D01*
X59499982Y-119770812D01*
X59619680Y-119734502D01*
X59729994Y-119675537D01*
X59826685Y-119596185D01*
X59906037Y-119499494D01*
X59965002Y-119389180D01*
X60001312Y-119269482D01*
X60013572Y-119145000D01*
X60013572Y-118445000D01*
X60001312Y-118320518D01*
X59965002Y-118200820D01*
X59943183Y-118160000D01*
X59965002Y-118119180D01*
X60001312Y-117999482D01*
X60013572Y-117875000D01*
X60013572Y-117175000D01*
X60001312Y-117050518D01*
X59965002Y-116930820D01*
X59943183Y-116890000D01*
X59965002Y-116849180D01*
X60001312Y-116729482D01*
X60013572Y-116605000D01*
X60013572Y-115905000D01*
X60001312Y-115780518D01*
X59965002Y-115660820D01*
X59943183Y-115620000D01*
X59965002Y-115579180D01*
X60001312Y-115459482D01*
X60013572Y-115335000D01*
X60013572Y-114635000D01*
X60001312Y-114510518D01*
X59965002Y-114390820D01*
X59906037Y-114280506D01*
X59826685Y-114183815D01*
X59729994Y-114104463D01*
X59619680Y-114045498D01*
X59499982Y-114009188D01*
X59375500Y-113996928D01*
X57600500Y-113996928D01*
X57476018Y-114009188D01*
X57356320Y-114045498D01*
X57246006Y-114104463D01*
X57149315Y-114183815D01*
X57130970Y-114206168D01*
X55835000Y-112910199D01*
X55835000Y-112004301D01*
X56786700Y-112956002D01*
X56810499Y-112985001D01*
X56926224Y-113079974D01*
X57058253Y-113150546D01*
X57074994Y-113155624D01*
X57149315Y-113246185D01*
X57246006Y-113325537D01*
X57356320Y-113384502D01*
X57476018Y-113420812D01*
X57600500Y-113433072D01*
X59375500Y-113433072D01*
X59499982Y-113420812D01*
X59619680Y-113384502D01*
X59729994Y-113325537D01*
X59826685Y-113246185D01*
X59906037Y-113149494D01*
X59965002Y-113039180D01*
X60001312Y-112919482D01*
X60013572Y-112795000D01*
X60013572Y-112095000D01*
X60010125Y-112060000D01*
X60037678Y-112060000D01*
X60075000Y-112063676D01*
X60112322Y-112060000D01*
X60112333Y-112060000D01*
X60223986Y-112049003D01*
X60367247Y-112005546D01*
X60499276Y-111934974D01*
X60530412Y-111909422D01*
X60547068Y-111993158D01*
X60659010Y-112263411D01*
X60821525Y-112506632D01*
X61028368Y-112713475D01*
X61202760Y-112830000D01*
X61028368Y-112946525D01*
X60821525Y-113153368D01*
X60659010Y-113396589D01*
X60547068Y-113666842D01*
X60490000Y-113953740D01*
X60490000Y-114246260D01*
X60547068Y-114533158D01*
X60659010Y-114803411D01*
X60821525Y-115046632D01*
X61028368Y-115253475D01*
X61202760Y-115370000D01*
X61028368Y-115486525D01*
X60821525Y-115693368D01*
X60659010Y-115936589D01*
X60547068Y-116206842D01*
X60490000Y-116493740D01*
X60490000Y-116786260D01*
X60547068Y-117073158D01*
X60659010Y-117343411D01*
X60821525Y-117586632D01*
X61028368Y-117793475D01*
X61202760Y-117910000D01*
X61028368Y-118026525D01*
X60821525Y-118233368D01*
X60659010Y-118476589D01*
X60547068Y-118746842D01*
X60490000Y-119033740D01*
X60490000Y-119326260D01*
X60547068Y-119613158D01*
X60659010Y-119883411D01*
X60821525Y-120126632D01*
X61028368Y-120333475D01*
X61202760Y-120450000D01*
X61028368Y-120566525D01*
X60821525Y-120773368D01*
X60659010Y-121016589D01*
X60547068Y-121286842D01*
X60490000Y-121573740D01*
X60490000Y-121866260D01*
X60547068Y-122153158D01*
X60659010Y-122423411D01*
X60821525Y-122666632D01*
X61028368Y-122873475D01*
X61202760Y-122990000D01*
X61028368Y-123106525D01*
X60821525Y-123313368D01*
X60659010Y-123556589D01*
X60547068Y-123826842D01*
X60490000Y-124113740D01*
X60490000Y-124406260D01*
X60547068Y-124693158D01*
X60659010Y-124963411D01*
X60821525Y-125206632D01*
X61028368Y-125413475D01*
X61271589Y-125575990D01*
X61541842Y-125687932D01*
X61828740Y-125745000D01*
X62121260Y-125745000D01*
X62408158Y-125687932D01*
X62678411Y-125575990D01*
X62921632Y-125413475D01*
X63090001Y-125245106D01*
X63090001Y-130888885D01*
X63086444Y-130925000D01*
X63100635Y-131069085D01*
X63142663Y-131207633D01*
X63210913Y-131335320D01*
X63302762Y-131447238D01*
X63414680Y-131539087D01*
X63542367Y-131607337D01*
X63680915Y-131649365D01*
X63788895Y-131660000D01*
X63825000Y-131663556D01*
X63861105Y-131660000D01*
X64813895Y-131660000D01*
X64850000Y-131663556D01*
X64886105Y-131660000D01*
X64994085Y-131649365D01*
X65132633Y-131607337D01*
X65260320Y-131539087D01*
X65372238Y-131447238D01*
X65464087Y-131335320D01*
X65532337Y-131207633D01*
X65574365Y-131069085D01*
X65588556Y-130925000D01*
X65585000Y-130888895D01*
X65585000Y-115160107D01*
X65678368Y-115253475D01*
X65921589Y-115415990D01*
X66191842Y-115527932D01*
X66478740Y-115585000D01*
X66771260Y-115585000D01*
X67058158Y-115527932D01*
X67328411Y-115415990D01*
X67571632Y-115253475D01*
X67778475Y-115046632D01*
X67940990Y-114803411D01*
X68052932Y-114533158D01*
X68110000Y-114246260D01*
X68110000Y-113953740D01*
X68066210Y-113733592D01*
X70711009Y-111088794D01*
X70740001Y-111065001D01*
X70763795Y-111036008D01*
X70763799Y-111036004D01*
X70826983Y-110959013D01*
X70834974Y-110949276D01*
X70905546Y-110817247D01*
X70949003Y-110673986D01*
X70960000Y-110562333D01*
X70960000Y-110562324D01*
X70963676Y-110525001D01*
X70960000Y-110487678D01*
X70960000Y-103909801D01*
X72061928Y-102807874D01*
X72061928Y-103150000D01*
G37*
%TD.AperFunction*%
D17*
X80116842Y-125687932D02*
X80240000Y-125712430D01*
X80240001Y-130360197D01*
X79085199Y-131515000D01*
X75138072Y-131515000D01*
X75138072Y-130940000D01*
X77832678Y-130940000D01*
X77870000Y-130943676D01*
X77907322Y-130940000D01*
X77907333Y-130940000D01*
X78018986Y-130929003D01*
X78162247Y-130885546D01*
X78294276Y-130814974D01*
X78410001Y-130720001D01*
X78433804Y-130690997D01*
X79611004Y-129513798D01*
X79640001Y-129490001D01*
X79734974Y-129374276D01*
X79805546Y-129242247D01*
X79849003Y-129098986D01*
X79860000Y-128987333D01*
X79860000Y-128987325D01*
X79863676Y-128950000D01*
X79860000Y-128912675D01*
X79860000Y-125581545D01*
X80116842Y-125687932D01*
%TA.AperFunction,Conductor*%
D18*
G36*
X80116842Y-125687932D02*
G01*
X80240000Y-125712430D01*
X80240001Y-130360197D01*
X79085199Y-131515000D01*
X75138072Y-131515000D01*
X75138072Y-130940000D01*
X77832678Y-130940000D01*
X77870000Y-130943676D01*
X77907322Y-130940000D01*
X77907333Y-130940000D01*
X78018986Y-130929003D01*
X78162247Y-130885546D01*
X78294276Y-130814974D01*
X78410001Y-130720001D01*
X78433804Y-130690997D01*
X79611004Y-129513798D01*
X79640001Y-129490001D01*
X79734974Y-129374276D01*
X79805546Y-129242247D01*
X79849003Y-129098986D01*
X79860000Y-128987333D01*
X79860000Y-128987325D01*
X79863676Y-128950000D01*
X79860000Y-128912675D01*
X79860000Y-125581545D01*
X80116842Y-125687932D01*
G37*
%TD.AperFunction*%
D17*
X78342576Y-123106525D02*
X78336324Y-123170000D01*
X78340001Y-123207332D01*
X78340000Y-128635198D01*
X77555199Y-129420000D01*
X75019048Y-129420000D01*
X75051169Y-129359906D01*
X75118071Y-129139360D01*
X75140661Y-128910000D01*
X75118071Y-128680640D01*
X75051169Y-128460094D01*
X74952234Y-128275000D01*
X75051169Y-128089906D01*
X75118071Y-127869360D01*
X75140661Y-127640000D01*
X75118071Y-127410640D01*
X75051169Y-127190094D01*
X74942526Y-126986838D01*
X74796318Y-126808682D01*
X74646908Y-126686065D01*
X74649482Y-126685812D01*
X74769180Y-126649502D01*
X74879494Y-126590537D01*
X74976185Y-126511185D01*
X75055537Y-126414494D01*
X75114502Y-126304180D01*
X75150306Y-126186149D01*
X75199276Y-126159974D01*
X75315001Y-126065001D01*
X75338804Y-126035997D01*
X78350693Y-123024108D01*
X78342576Y-123106525D01*
%TA.AperFunction,Conductor*%
D18*
G36*
X78342576Y-123106525D02*
G01*
X78336324Y-123170000D01*
X78340001Y-123207332D01*
X78340000Y-128635198D01*
X77555199Y-129420000D01*
X75019048Y-129420000D01*
X75051169Y-129359906D01*
X75118071Y-129139360D01*
X75140661Y-128910000D01*
X75118071Y-128680640D01*
X75051169Y-128460094D01*
X74952234Y-128275000D01*
X75051169Y-128089906D01*
X75118071Y-127869360D01*
X75140661Y-127640000D01*
X75118071Y-127410640D01*
X75051169Y-127190094D01*
X74942526Y-126986838D01*
X74796318Y-126808682D01*
X74646908Y-126686065D01*
X74649482Y-126685812D01*
X74769180Y-126649502D01*
X74879494Y-126590537D01*
X74976185Y-126511185D01*
X75055537Y-126414494D01*
X75114502Y-126304180D01*
X75150306Y-126186149D01*
X75199276Y-126159974D01*
X75315001Y-126065001D01*
X75338804Y-126035997D01*
X78350693Y-123024108D01*
X78342576Y-123106525D01*
G37*
%TD.AperFunction*%
D17*
X76365000Y-115990198D02*
X75248136Y-117107063D01*
X75243071Y-117055640D01*
X75176169Y-116835094D01*
X75077234Y-116650000D01*
X75176169Y-116464906D01*
X75243071Y-116244360D01*
X75265661Y-116015000D01*
X75243071Y-115785640D01*
X75193285Y-115621517D01*
X76365001Y-114449801D01*
X76365000Y-115990198D01*
%TA.AperFunction,Conductor*%
D18*
G36*
X76365000Y-115990198D02*
G01*
X75248136Y-117107063D01*
X75243071Y-117055640D01*
X75176169Y-116835094D01*
X75077234Y-116650000D01*
X75176169Y-116464906D01*
X75243071Y-116244360D01*
X75265661Y-116015000D01*
X75243071Y-115785640D01*
X75193285Y-115621517D01*
X76365001Y-114449801D01*
X76365000Y-115990198D01*
G37*
%TD.AperFunction*%
D17*
X79065000Y-111706260D02*
X79122068Y-111993158D01*
X79234010Y-112263411D01*
X79396525Y-112506632D01*
X79603368Y-112713475D01*
X79777760Y-112830000D01*
X79603368Y-112946525D01*
X79396525Y-113153368D01*
X79234010Y-113396589D01*
X79122068Y-113666842D01*
X79065000Y-113953740D01*
X79065000Y-114246260D01*
X79108790Y-114466408D01*
X78535000Y-115040199D01*
X78535000Y-112109801D01*
X79065000Y-111579801D01*
X79065000Y-111706260D01*
%TA.AperFunction,Conductor*%
D18*
G36*
X79065000Y-111706260D02*
G01*
X79122068Y-111993158D01*
X79234010Y-112263411D01*
X79396525Y-112506632D01*
X79603368Y-112713475D01*
X79777760Y-112830000D01*
X79603368Y-112946525D01*
X79396525Y-113153368D01*
X79234010Y-113396589D01*
X79122068Y-113666842D01*
X79065000Y-113953740D01*
X79065000Y-114246260D01*
X79108790Y-114466408D01*
X78535000Y-115040199D01*
X78535000Y-112109801D01*
X79065000Y-111579801D01*
X79065000Y-111706260D01*
G37*
%TD.AperFunction*%
D17*
X69440000Y-110210197D02*
X68110000Y-111540198D01*
X68110000Y-111413740D01*
X68052932Y-111126842D01*
X67940990Y-110856589D01*
X67778475Y-110613368D01*
X67571632Y-110406525D01*
X67397240Y-110290000D01*
X67571632Y-110173475D01*
X67778475Y-109966632D01*
X67940990Y-109723411D01*
X68052932Y-109453158D01*
X68110000Y-109166260D01*
X68110000Y-108873740D01*
X68066209Y-108653592D01*
X69440000Y-107279801D01*
X69440000Y-110210197D01*
%TA.AperFunction,Conductor*%
D18*
G36*
X69440000Y-110210197D02*
G01*
X68110000Y-111540198D01*
X68110000Y-111413740D01*
X68052932Y-111126842D01*
X67940990Y-110856589D01*
X67778475Y-110613368D01*
X67571632Y-110406525D01*
X67397240Y-110290000D01*
X67571632Y-110173475D01*
X67778475Y-109966632D01*
X67940990Y-109723411D01*
X68052932Y-109453158D01*
X68110000Y-109166260D01*
X68110000Y-108873740D01*
X68066209Y-108653592D01*
X69440000Y-107279801D01*
X69440000Y-110210197D01*
G37*
%TD.AperFunction*%
D17*
X79065000Y-109166260D02*
X79108790Y-109386408D01*
X77910011Y-110585188D01*
X77910011Y-110194790D01*
X79065000Y-109039801D01*
X79065000Y-109166260D01*
%TA.AperFunction,Conductor*%
D18*
G36*
X79065000Y-109166260D02*
G01*
X79108790Y-109386408D01*
X77910011Y-110585188D01*
X77910011Y-110194790D01*
X79065000Y-109039801D01*
X79065000Y-109166260D01*
G37*
%TD.AperFunction*%
D17*
X60015000Y-110285198D02*
X60010117Y-110290081D01*
X60013572Y-110255000D01*
X60013572Y-109555000D01*
X60001312Y-109430518D01*
X59965002Y-109310820D01*
X59906037Y-109200506D01*
X59826685Y-109103815D01*
X59729994Y-109024463D01*
X59619680Y-108965498D01*
X59499982Y-108929188D01*
X59375500Y-108916928D01*
X59365973Y-108916928D01*
X59417203Y-108840256D01*
X59495224Y-108651898D01*
X59534998Y-108451939D01*
X59534998Y-108330846D01*
X59604489Y-108324002D01*
X59747750Y-108280545D01*
X59879779Y-108209973D01*
X59995504Y-108115000D01*
X60015001Y-108091243D01*
X60015000Y-110285198D01*
%TA.AperFunction,Conductor*%
D18*
G36*
X60015000Y-110285198D02*
G01*
X60010117Y-110290081D01*
X60013572Y-110255000D01*
X60013572Y-109555000D01*
X60001312Y-109430518D01*
X59965002Y-109310820D01*
X59906037Y-109200506D01*
X59826685Y-109103815D01*
X59729994Y-109024463D01*
X59619680Y-108965498D01*
X59499982Y-108929188D01*
X59375500Y-108916928D01*
X59365973Y-108916928D01*
X59417203Y-108840256D01*
X59495224Y-108651898D01*
X59534998Y-108451939D01*
X59534998Y-108330846D01*
X59604489Y-108324002D01*
X59747750Y-108280545D01*
X59879779Y-108209973D01*
X59995504Y-108115000D01*
X60015001Y-108091243D01*
X60015000Y-110285198D01*
G37*
%TD.AperFunction*%
D17*
X79108790Y-106846408D02*
X77435000Y-108520199D01*
X77435000Y-108389801D01*
X79087156Y-106737646D01*
X79108790Y-106846408D01*
%TA.AperFunction,Conductor*%
D18*
G36*
X79108790Y-106846408D02*
G01*
X77435000Y-108520199D01*
X77435000Y-108389801D01*
X79087156Y-106737646D01*
X79108790Y-106846408D01*
G37*
%TD.AperFunction*%
D17*
X49961428Y-105725000D02*
X49973688Y-105849482D01*
X50009998Y-105969180D01*
X50068963Y-106079494D01*
X50148315Y-106176185D01*
X50245006Y-106255537D01*
X50355320Y-106314502D01*
X50475018Y-106350812D01*
X50599500Y-106363072D01*
X51085121Y-106363072D01*
X51223102Y-106420226D01*
X51423061Y-106460000D01*
X51626939Y-106460000D01*
X51826898Y-106420226D01*
X51964879Y-106363072D01*
X52315000Y-106363072D01*
X52315000Y-106564700D01*
X51889701Y-106990000D01*
X49496103Y-106990000D01*
X49527932Y-106913158D01*
X49585000Y-106626260D01*
X49585000Y-106333740D01*
X49541209Y-106113592D01*
X49961428Y-105693374D01*
X49961428Y-105725000D01*
%TA.AperFunction,Conductor*%
D18*
G36*
X49961428Y-105725000D02*
G01*
X49973688Y-105849482D01*
X50009998Y-105969180D01*
X50068963Y-106079494D01*
X50148315Y-106176185D01*
X50245006Y-106255537D01*
X50355320Y-106314502D01*
X50475018Y-106350812D01*
X50599500Y-106363072D01*
X51085121Y-106363072D01*
X51223102Y-106420226D01*
X51423061Y-106460000D01*
X51626939Y-106460000D01*
X51826898Y-106420226D01*
X51964879Y-106363072D01*
X52315000Y-106363072D01*
X52315000Y-106564700D01*
X51889701Y-106990000D01*
X49496103Y-106990000D01*
X49527932Y-106913158D01*
X49585000Y-106626260D01*
X49585000Y-106333740D01*
X49541209Y-106113592D01*
X49961428Y-105693374D01*
X49961428Y-105725000D01*
G37*
%TD.AperFunction*%
D17*
X54940000Y-94540302D02*
X54940001Y-105935196D01*
X54309990Y-106565208D01*
X54309990Y-96778711D01*
X54328927Y-96759774D01*
X54442195Y-96590256D01*
X54520216Y-96401898D01*
X54559990Y-96201939D01*
X54559990Y-95998061D01*
X54520216Y-95798102D01*
X54442195Y-95609744D01*
X54328927Y-95440226D01*
X54184764Y-95296063D01*
X54015246Y-95182795D01*
X53826888Y-95104774D01*
X53626929Y-95065000D01*
X53423051Y-95065000D01*
X53223092Y-95104774D01*
X53034734Y-95182795D01*
X52865216Y-95296063D01*
X52721053Y-95440226D01*
X52607785Y-95609744D01*
X52529764Y-95798102D01*
X52512782Y-95883478D01*
X51509499Y-94880196D01*
X51509499Y-92613072D01*
X52849500Y-92613072D01*
X52973982Y-92600812D01*
X52994336Y-92594638D01*
X54940000Y-94540302D01*
%TA.AperFunction,Conductor*%
D18*
G36*
X54940000Y-94540302D02*
G01*
X54940001Y-105935196D01*
X54309990Y-106565208D01*
X54309990Y-96778711D01*
X54328927Y-96759774D01*
X54442195Y-96590256D01*
X54520216Y-96401898D01*
X54559990Y-96201939D01*
X54559990Y-95998061D01*
X54520216Y-95798102D01*
X54442195Y-95609744D01*
X54328927Y-95440226D01*
X54184764Y-95296063D01*
X54015246Y-95182795D01*
X53826888Y-95104774D01*
X53626929Y-95065000D01*
X53423051Y-95065000D01*
X53223092Y-95104774D01*
X53034734Y-95182795D01*
X52865216Y-95296063D01*
X52721053Y-95440226D01*
X52607785Y-95609744D01*
X52529764Y-95798102D01*
X52512782Y-95883478D01*
X51509499Y-94880196D01*
X51509499Y-92613072D01*
X52849500Y-92613072D01*
X52973982Y-92600812D01*
X52994336Y-92594638D01*
X54940000Y-94540302D01*
G37*
%TD.AperFunction*%
D17*
X60547068Y-99293158D02*
X60659010Y-99563411D01*
X60821525Y-99806632D01*
X61028368Y-100013475D01*
X61202760Y-100130000D01*
X61028368Y-100246525D01*
X60821525Y-100453368D01*
X60659010Y-100696589D01*
X60547068Y-100966842D01*
X60490000Y-101253740D01*
X60490000Y-101546260D01*
X60547068Y-101833158D01*
X60659010Y-102103411D01*
X60821525Y-102346632D01*
X61028368Y-102553475D01*
X61202760Y-102670000D01*
X61028368Y-102786525D01*
X60821525Y-102993368D01*
X60778636Y-103057556D01*
X60774003Y-103010514D01*
X60730546Y-102867253D01*
X60659974Y-102735224D01*
X60565001Y-102619499D01*
X60535997Y-102595696D01*
X60264304Y-102324003D01*
X60240501Y-102294999D01*
X60124776Y-102200026D01*
X59992747Y-102129454D01*
X59976006Y-102124376D01*
X59901685Y-102033815D01*
X59804994Y-101954463D01*
X59694680Y-101895498D01*
X59574982Y-101859188D01*
X59450500Y-101846928D01*
X57675500Y-101846928D01*
X57551018Y-101859188D01*
X57530664Y-101865362D01*
X57360022Y-101694721D01*
X57360022Y-101196392D01*
X57431320Y-101234502D01*
X57551018Y-101270812D01*
X57675500Y-101283072D01*
X59450500Y-101283072D01*
X59574982Y-101270812D01*
X59694680Y-101234502D01*
X59804994Y-101175537D01*
X59901685Y-101096185D01*
X59981037Y-100999494D01*
X60040002Y-100889180D01*
X60076312Y-100769482D01*
X60088572Y-100645000D01*
X60088572Y-99945000D01*
X60076312Y-99820518D01*
X60041168Y-99704664D01*
X60124776Y-99659974D01*
X60240501Y-99565001D01*
X60264303Y-99535998D01*
X60540444Y-99259858D01*
X60547068Y-99293158D01*
%TA.AperFunction,Conductor*%
D18*
G36*
X60547068Y-99293158D02*
G01*
X60659010Y-99563411D01*
X60821525Y-99806632D01*
X61028368Y-100013475D01*
X61202760Y-100130000D01*
X61028368Y-100246525D01*
X60821525Y-100453368D01*
X60659010Y-100696589D01*
X60547068Y-100966842D01*
X60490000Y-101253740D01*
X60490000Y-101546260D01*
X60547068Y-101833158D01*
X60659010Y-102103411D01*
X60821525Y-102346632D01*
X61028368Y-102553475D01*
X61202760Y-102670000D01*
X61028368Y-102786525D01*
X60821525Y-102993368D01*
X60778636Y-103057556D01*
X60774003Y-103010514D01*
X60730546Y-102867253D01*
X60659974Y-102735224D01*
X60565001Y-102619499D01*
X60535997Y-102595696D01*
X60264304Y-102324003D01*
X60240501Y-102294999D01*
X60124776Y-102200026D01*
X59992747Y-102129454D01*
X59976006Y-102124376D01*
X59901685Y-102033815D01*
X59804994Y-101954463D01*
X59694680Y-101895498D01*
X59574982Y-101859188D01*
X59450500Y-101846928D01*
X57675500Y-101846928D01*
X57551018Y-101859188D01*
X57530664Y-101865362D01*
X57360022Y-101694721D01*
X57360022Y-101196392D01*
X57431320Y-101234502D01*
X57551018Y-101270812D01*
X57675500Y-101283072D01*
X59450500Y-101283072D01*
X59574982Y-101270812D01*
X59694680Y-101234502D01*
X59804994Y-101175537D01*
X59901685Y-101096185D01*
X59981037Y-100999494D01*
X60040002Y-100889180D01*
X60076312Y-100769482D01*
X60088572Y-100645000D01*
X60088572Y-99945000D01*
X60076312Y-99820518D01*
X60041168Y-99704664D01*
X60124776Y-99659974D01*
X60240501Y-99565001D01*
X60264303Y-99535998D01*
X60540444Y-99259858D01*
X60547068Y-99293158D01*
G37*
%TD.AperFunction*%
D17*
X76505160Y-101635038D02*
X75138072Y-103002127D01*
X75138072Y-102080000D01*
X75125812Y-101955518D01*
X75089502Y-101835820D01*
X75057130Y-101775257D01*
X75118071Y-101574360D01*
X75140661Y-101345000D01*
X75118071Y-101115640D01*
X75051169Y-100895094D01*
X74952234Y-100710000D01*
X75051169Y-100524906D01*
X75118071Y-100304360D01*
X75140661Y-100075000D01*
X75118071Y-99845640D01*
X75051169Y-99625094D01*
X74997239Y-99524199D01*
X75042247Y-99510546D01*
X75174276Y-99439974D01*
X75290001Y-99345001D01*
X75313804Y-99315997D01*
X76505161Y-98124640D01*
X76505160Y-101635038D01*
%TA.AperFunction,Conductor*%
D18*
G36*
X76505160Y-101635038D02*
G01*
X75138072Y-103002127D01*
X75138072Y-102080000D01*
X75125812Y-101955518D01*
X75089502Y-101835820D01*
X75057130Y-101775257D01*
X75118071Y-101574360D01*
X75140661Y-101345000D01*
X75118071Y-101115640D01*
X75051169Y-100895094D01*
X74952234Y-100710000D01*
X75051169Y-100524906D01*
X75118071Y-100304360D01*
X75140661Y-100075000D01*
X75118071Y-99845640D01*
X75051169Y-99625094D01*
X74997239Y-99524199D01*
X75042247Y-99510546D01*
X75174276Y-99439974D01*
X75290001Y-99345001D01*
X75313804Y-99315997D01*
X76505161Y-98124640D01*
X76505160Y-101635038D01*
G37*
%TD.AperFunction*%
D17*
X72273815Y-97876185D02*
X72370506Y-97955537D01*
X72403986Y-97973433D01*
X72403682Y-97973682D01*
X72257474Y-98151838D01*
X72148831Y-98355094D01*
X72081929Y-98575640D01*
X72059339Y-98805000D01*
X72081929Y-99034360D01*
X72148831Y-99254906D01*
X72247766Y-99440000D01*
X72148831Y-99625094D01*
X72081929Y-99845640D01*
X72059339Y-100075000D01*
X72081929Y-100304360D01*
X72148831Y-100524906D01*
X72202761Y-100625801D01*
X72157753Y-100639454D01*
X72025724Y-100710026D01*
X71909999Y-100804999D01*
X71886201Y-100833997D01*
X70160000Y-102560199D01*
X70160000Y-99814801D01*
X72194844Y-97779959D01*
X72273815Y-97876185D01*
%TA.AperFunction,Conductor*%
D18*
G36*
X72273815Y-97876185D02*
G01*
X72370506Y-97955537D01*
X72403986Y-97973433D01*
X72403682Y-97973682D01*
X72257474Y-98151838D01*
X72148831Y-98355094D01*
X72081929Y-98575640D01*
X72059339Y-98805000D01*
X72081929Y-99034360D01*
X72148831Y-99254906D01*
X72247766Y-99440000D01*
X72148831Y-99625094D01*
X72081929Y-99845640D01*
X72059339Y-100075000D01*
X72081929Y-100304360D01*
X72148831Y-100524906D01*
X72202761Y-100625801D01*
X72157753Y-100639454D01*
X72025724Y-100710026D01*
X71909999Y-100804999D01*
X71886201Y-100833997D01*
X70160000Y-102560199D01*
X70160000Y-99814801D01*
X72194844Y-97779959D01*
X72273815Y-97876185D01*
G37*
%TD.AperFunction*%
D17*
X79065000Y-96466260D02*
X79122068Y-96753158D01*
X79234010Y-97023411D01*
X79396525Y-97266632D01*
X79603368Y-97473475D01*
X79777760Y-97590000D01*
X79603368Y-97706525D01*
X79396525Y-97913368D01*
X79234010Y-98156589D01*
X79122068Y-98426842D01*
X79065000Y-98713740D01*
X79065000Y-99006260D01*
X79108790Y-99226408D01*
X78735000Y-99600199D01*
X78735000Y-97825874D01*
X78739164Y-97812147D01*
X78750161Y-97700494D01*
X78750161Y-97700483D01*
X78753837Y-97663161D01*
X78750161Y-97625838D01*
X78750161Y-96654640D01*
X79065000Y-96339801D01*
X79065000Y-96466260D01*
%TA.AperFunction,Conductor*%
D18*
G36*
X79065000Y-96466260D02*
G01*
X79122068Y-96753158D01*
X79234010Y-97023411D01*
X79396525Y-97266632D01*
X79603368Y-97473475D01*
X79777760Y-97590000D01*
X79603368Y-97706525D01*
X79396525Y-97913368D01*
X79234010Y-98156589D01*
X79122068Y-98426842D01*
X79065000Y-98713740D01*
X79065000Y-99006260D01*
X79108790Y-99226408D01*
X78735000Y-99600199D01*
X78735000Y-97825874D01*
X78739164Y-97812147D01*
X78750161Y-97700494D01*
X78750161Y-97700483D01*
X78753837Y-97663161D01*
X78750161Y-97625838D01*
X78750161Y-96654640D01*
X79065000Y-96339801D01*
X79065000Y-96466260D01*
G37*
%TD.AperFunction*%
D17*
X75177589Y-56777784D02*
X76229011Y-57065421D01*
X77231662Y-57493088D01*
X78167006Y-58052879D01*
X79017716Y-58734427D01*
X79768052Y-59525118D01*
X80404142Y-60410330D01*
X80914216Y-61373690D01*
X81288820Y-62397344D01*
X81521035Y-63462378D01*
X81608376Y-64572153D01*
X81608715Y-64636836D01*
X81616038Y-64736550D01*
X81636826Y-64834347D01*
X81670693Y-64928419D01*
X81687268Y-64960124D01*
X81711461Y-67157200D01*
X81692663Y-67192368D01*
X81650635Y-67330916D01*
X81640000Y-67438896D01*
X81640001Y-77588886D01*
X81640000Y-77588896D01*
X81640000Y-77811105D01*
X81650635Y-77919085D01*
X81692663Y-78057633D01*
X81711876Y-78093578D01*
X81693176Y-80019689D01*
X81667275Y-80068308D01*
X81625438Y-80206913D01*
X81614951Y-80314908D01*
X81621586Y-85131479D01*
X81496632Y-85006525D01*
X81253411Y-84844010D01*
X80983158Y-84732068D01*
X80696260Y-84675000D01*
X80403740Y-84675000D01*
X80116842Y-84732068D01*
X79846589Y-84844010D01*
X79603368Y-85006525D01*
X79396525Y-85213368D01*
X79234010Y-85456589D01*
X79122068Y-85726842D01*
X79065000Y-86013740D01*
X79065000Y-86306260D01*
X79122068Y-86593158D01*
X79234010Y-86863411D01*
X79396525Y-87106632D01*
X79603368Y-87313475D01*
X79777760Y-87430000D01*
X79603368Y-87546525D01*
X79396525Y-87753368D01*
X79234010Y-87996589D01*
X79122068Y-88266842D01*
X79065000Y-88553740D01*
X79065000Y-88585198D01*
X78438998Y-89211201D01*
X78410000Y-89234999D01*
X78386202Y-89263997D01*
X78386201Y-89263998D01*
X78315026Y-89350724D01*
X78244454Y-89482754D01*
X78221180Y-89559482D01*
X78200998Y-89626014D01*
X78195410Y-89682753D01*
X78186324Y-89775000D01*
X78190001Y-89812332D01*
X78190000Y-94290198D01*
X75163072Y-97317127D01*
X75163072Y-96355000D01*
X75150812Y-96230518D01*
X75114502Y-96110820D01*
X75082130Y-96050257D01*
X75143071Y-95849360D01*
X75165661Y-95620000D01*
X75143071Y-95390640D01*
X75076169Y-95170094D01*
X74977234Y-94985000D01*
X75076169Y-94799906D01*
X75143071Y-94579360D01*
X75165661Y-94350000D01*
X75143071Y-94120640D01*
X75076169Y-93900094D01*
X74977234Y-93715000D01*
X75076169Y-93529906D01*
X75143071Y-93309360D01*
X75165661Y-93080000D01*
X75143071Y-92850640D01*
X75076169Y-92630094D01*
X74967526Y-92426838D01*
X74867455Y-92304900D01*
X74951185Y-92236185D01*
X75030537Y-92139494D01*
X75089502Y-92029180D01*
X75125812Y-91909482D01*
X75138072Y-91785000D01*
X75138072Y-90715000D01*
X75125812Y-90590518D01*
X75089502Y-90470820D01*
X75057130Y-90410257D01*
X75118071Y-90209360D01*
X75140661Y-89980000D01*
X75118071Y-89750640D01*
X75051169Y-89530094D01*
X74952234Y-89345000D01*
X75051169Y-89159906D01*
X75118071Y-88939360D01*
X75140661Y-88710000D01*
X75118071Y-88480640D01*
X75051169Y-88260094D01*
X74952234Y-88075000D01*
X75051169Y-87889906D01*
X75118071Y-87669360D01*
X75140661Y-87440000D01*
X75118071Y-87210640D01*
X75051169Y-86990094D01*
X74942526Y-86786838D01*
X74839851Y-86661727D01*
X74879494Y-86640537D01*
X74976185Y-86561185D01*
X75055537Y-86464494D01*
X75114502Y-86354180D01*
X75150812Y-86234482D01*
X75163072Y-86110000D01*
X75163072Y-85040000D01*
X75150812Y-84915518D01*
X75114502Y-84795820D01*
X75082130Y-84735257D01*
X75143071Y-84534360D01*
X75165661Y-84305000D01*
X75143071Y-84075640D01*
X75076169Y-83855094D01*
X74977234Y-83670000D01*
X75076169Y-83484906D01*
X75143071Y-83264360D01*
X75165661Y-83035000D01*
X75143071Y-82805640D01*
X75076169Y-82585094D01*
X74977234Y-82400000D01*
X75076169Y-82214906D01*
X75143071Y-81994360D01*
X75165661Y-81765000D01*
X75143071Y-81535640D01*
X75076169Y-81315094D01*
X74967526Y-81111838D01*
X74860099Y-80980937D01*
X74951185Y-80906185D01*
X75030537Y-80809494D01*
X75089502Y-80699180D01*
X75125812Y-80579482D01*
X75138072Y-80455000D01*
X75138072Y-79385000D01*
X75125812Y-79260518D01*
X75089502Y-79140820D01*
X75057130Y-79080257D01*
X75118071Y-78879360D01*
X75140661Y-78650000D01*
X75118071Y-78420640D01*
X75051169Y-78200094D01*
X74952234Y-78015000D01*
X75051169Y-77829906D01*
X75118071Y-77609360D01*
X75140661Y-77380000D01*
X75118071Y-77150640D01*
X75051169Y-76930094D01*
X74952234Y-76745000D01*
X75051169Y-76559906D01*
X75118071Y-76339360D01*
X75140661Y-76110000D01*
X75118071Y-75880640D01*
X75051169Y-75660094D01*
X74942526Y-75456838D01*
X74796318Y-75278682D01*
X74618162Y-75132474D01*
X74537531Y-75089376D01*
X74624482Y-75080812D01*
X74744180Y-75044502D01*
X74854494Y-74985537D01*
X74951185Y-74906185D01*
X75030537Y-74809494D01*
X75089502Y-74699180D01*
X75125812Y-74579482D01*
X75138072Y-74455000D01*
X75138072Y-73385000D01*
X75125812Y-73260518D01*
X75089502Y-73140820D01*
X75057130Y-73080257D01*
X75118071Y-72879360D01*
X75140661Y-72650000D01*
X75118071Y-72420640D01*
X75051169Y-72200094D01*
X74952234Y-72015000D01*
X75051169Y-71829906D01*
X75118071Y-71609360D01*
X75140661Y-71380000D01*
X75118071Y-71150640D01*
X75051169Y-70930094D01*
X74952234Y-70745000D01*
X75051169Y-70559906D01*
X75118071Y-70339360D01*
X75140661Y-70110000D01*
X75118071Y-69880640D01*
X75051169Y-69660094D01*
X74942526Y-69456838D01*
X74796318Y-69278682D01*
X74618162Y-69132474D01*
X74414906Y-69023831D01*
X74194360Y-68956929D01*
X74022477Y-68940000D01*
X73177523Y-68940000D01*
X73005640Y-68956929D01*
X72785094Y-69023831D01*
X72581838Y-69132474D01*
X72403682Y-69278682D01*
X72345153Y-69350000D01*
X70140923Y-69350000D01*
X70103590Y-69346323D01*
X70066257Y-69350000D01*
X69954604Y-69360997D01*
X69811343Y-69404454D01*
X69679314Y-69475026D01*
X69563589Y-69569999D01*
X69539791Y-69598997D01*
X65595738Y-73543051D01*
X65585080Y-67644017D01*
X65588356Y-67617171D01*
X65584950Y-67571790D01*
X65584933Y-67562568D01*
X65582249Y-67535815D01*
X65577519Y-67472796D01*
X65575030Y-67463846D01*
X65574103Y-67454607D01*
X65555652Y-67394175D01*
X65538723Y-67333308D01*
X65534538Y-67325020D01*
X65531825Y-67316135D01*
X65501944Y-67260474D01*
X65473461Y-67204069D01*
X65467735Y-67196751D01*
X65463344Y-67188572D01*
X65423187Y-67139820D01*
X65384238Y-67090045D01*
X65377196Y-67083986D01*
X65371293Y-67076820D01*
X65322395Y-67036838D01*
X65274486Y-66995619D01*
X65266397Y-66991051D01*
X65259209Y-66985173D01*
X65203440Y-66955493D01*
X65148420Y-66924419D01*
X65139597Y-66921517D01*
X65131399Y-66917154D01*
X65070905Y-66898922D01*
X65010887Y-66879181D01*
X65001669Y-66878056D01*
X64992776Y-66875376D01*
X64929871Y-66869295D01*
X64903183Y-66866039D01*
X64893964Y-66865825D01*
X64848666Y-66861446D01*
X64821757Y-66864145D01*
X63818962Y-66840824D01*
X63773666Y-66836446D01*
X63710806Y-66842752D01*
X63647796Y-66847481D01*
X63638846Y-66849970D01*
X63629607Y-66850897D01*
X63569175Y-66869348D01*
X63508308Y-66886277D01*
X63500020Y-66890462D01*
X63491135Y-66893175D01*
X63435456Y-66923066D01*
X63379069Y-66951540D01*
X63371755Y-66957263D01*
X63363572Y-66961656D01*
X63314809Y-67001822D01*
X63265045Y-67040762D01*
X63258986Y-67047804D01*
X63251820Y-67053707D01*
X63211838Y-67102605D01*
X63170619Y-67150514D01*
X63166051Y-67158603D01*
X63160173Y-67165791D01*
X63130493Y-67221560D01*
X63099419Y-67276580D01*
X63096517Y-67285403D01*
X63092154Y-67293601D01*
X63073922Y-67354095D01*
X63054181Y-67414113D01*
X63053056Y-67423331D01*
X63050376Y-67432224D01*
X63044296Y-67495124D01*
X63036644Y-67557829D01*
X63040050Y-67603202D01*
X63071764Y-85156657D01*
X62921632Y-85006525D01*
X62678411Y-84844010D01*
X62408158Y-84732068D01*
X62121260Y-84675000D01*
X61828740Y-84675000D01*
X61541842Y-84732068D01*
X61271589Y-84844010D01*
X61028368Y-85006525D01*
X60821525Y-85213368D01*
X60659010Y-85456589D01*
X60555561Y-85706337D01*
X60563572Y-85625000D01*
X60563572Y-84925000D01*
X60551312Y-84800518D01*
X60518889Y-84693633D01*
X60619276Y-84639974D01*
X60735001Y-84545001D01*
X60758804Y-84515997D01*
X60835997Y-84438804D01*
X60865001Y-84415001D01*
X60959974Y-84299276D01*
X61030546Y-84167247D01*
X61074003Y-84023986D01*
X61085000Y-83912333D01*
X61085000Y-83912325D01*
X61088676Y-83875000D01*
X61085000Y-83837675D01*
X61085000Y-80821820D01*
X61088676Y-80784497D01*
X61085000Y-80747174D01*
X61085000Y-80747165D01*
X61074003Y-80635512D01*
X61030546Y-80492251D01*
X61007564Y-80449255D01*
X60959974Y-80360221D01*
X60888799Y-80273495D01*
X60883393Y-80266908D01*
X60960998Y-80189303D01*
X60990001Y-80165501D01*
X61084974Y-80049776D01*
X61155546Y-79917747D01*
X61199003Y-79774486D01*
X61210000Y-79662833D01*
X61210000Y-79662825D01*
X61213676Y-79625500D01*
X61210000Y-79588175D01*
X61210000Y-72741825D01*
X61213676Y-72704500D01*
X61210000Y-72667175D01*
X61210000Y-72667167D01*
X61199003Y-72555514D01*
X61155546Y-72412253D01*
X61084974Y-72280224D01*
X60990001Y-72164499D01*
X60960997Y-72140696D01*
X60664304Y-71844003D01*
X60640501Y-71814999D01*
X60524776Y-71720026D01*
X60392747Y-71649454D01*
X60376006Y-71644376D01*
X60301685Y-71553815D01*
X60204994Y-71474463D01*
X60094680Y-71415498D01*
X59974982Y-71379188D01*
X59850500Y-71366928D01*
X59049730Y-71366928D01*
X58571804Y-70889002D01*
X58548001Y-70859999D01*
X58432276Y-70765026D01*
X58300247Y-70694454D01*
X58156986Y-70650997D01*
X58045333Y-70640000D01*
X58045322Y-70640000D01*
X58008000Y-70636324D01*
X57970678Y-70640000D01*
X57453711Y-70640000D01*
X57409774Y-70596063D01*
X57240256Y-70482795D01*
X57051898Y-70404774D01*
X56851939Y-70365000D01*
X56789802Y-70365000D01*
X56213804Y-69789002D01*
X56190001Y-69759999D01*
X56110419Y-69694688D01*
X56133475Y-69671632D01*
X56250000Y-69497240D01*
X56366525Y-69671632D01*
X56573368Y-69878475D01*
X56816589Y-70040990D01*
X57086842Y-70152932D01*
X57373740Y-70210000D01*
X57666260Y-70210000D01*
X57953158Y-70152932D01*
X58223411Y-70040990D01*
X58466632Y-69878475D01*
X58673475Y-69671632D01*
X58790000Y-69497240D01*
X58906525Y-69671632D01*
X59113368Y-69878475D01*
X59356589Y-70040990D01*
X59626842Y-70152932D01*
X59913740Y-70210000D01*
X60206260Y-70210000D01*
X60493158Y-70152932D01*
X60763411Y-70040990D01*
X61006632Y-69878475D01*
X61213475Y-69671632D01*
X61375990Y-69428411D01*
X61487932Y-69158158D01*
X61545000Y-68871260D01*
X61545000Y-68578740D01*
X61487932Y-68291842D01*
X61375990Y-68021589D01*
X61213475Y-67778368D01*
X61006632Y-67571525D01*
X60763411Y-67409010D01*
X60493158Y-67297068D01*
X60206260Y-67240000D01*
X59913740Y-67240000D01*
X59626842Y-67297068D01*
X59356589Y-67409010D01*
X59113368Y-67571525D01*
X58906525Y-67778368D01*
X58790000Y-67952760D01*
X58673475Y-67778368D01*
X58466632Y-67571525D01*
X58223411Y-67409010D01*
X57953158Y-67297068D01*
X57666260Y-67240000D01*
X57373740Y-67240000D01*
X57086842Y-67297068D01*
X56816589Y-67409010D01*
X56573368Y-67571525D01*
X56366525Y-67778368D01*
X56250000Y-67952760D01*
X56133475Y-67778368D01*
X55926632Y-67571525D01*
X55683411Y-67409010D01*
X55413158Y-67297068D01*
X55126260Y-67240000D01*
X54833740Y-67240000D01*
X54546842Y-67297068D01*
X54276589Y-67409010D01*
X54033368Y-67571525D01*
X53826525Y-67778368D01*
X53664010Y-68021589D01*
X53552068Y-68291842D01*
X53495000Y-68578740D01*
X53495000Y-68871260D01*
X53552068Y-69158158D01*
X53664010Y-69428411D01*
X53738571Y-69540000D01*
X51789802Y-69540000D01*
X51388072Y-69138270D01*
X51388072Y-67875000D01*
X51375812Y-67750518D01*
X51339502Y-67630820D01*
X51280537Y-67520506D01*
X51201185Y-67423815D01*
X51104494Y-67344463D01*
X50994180Y-67285498D01*
X50874482Y-67249188D01*
X50750000Y-67236928D01*
X49050000Y-67236928D01*
X48925518Y-67249188D01*
X48805820Y-67285498D01*
X48695506Y-67344463D01*
X48598815Y-67423815D01*
X48519463Y-67520506D01*
X48460498Y-67630820D01*
X48424188Y-67750518D01*
X48411928Y-67875000D01*
X48411928Y-69575000D01*
X48424188Y-69699482D01*
X48460498Y-69819180D01*
X48519463Y-69929494D01*
X48598815Y-70026185D01*
X48695506Y-70105537D01*
X48805820Y-70164502D01*
X48925518Y-70200812D01*
X49050000Y-70213072D01*
X50313270Y-70213072D01*
X50723821Y-70623623D01*
X50708494Y-70636201D01*
X50708490Y-70636205D01*
X50679497Y-70659999D01*
X50655703Y-70688992D01*
X47589003Y-73755694D01*
X47559999Y-73779497D01*
X47518964Y-73829499D01*
X47465026Y-73895222D01*
X47420521Y-73978484D01*
X47394454Y-74027252D01*
X47350997Y-74170513D01*
X47340000Y-74282166D01*
X47340000Y-74282176D01*
X47336324Y-74319498D01*
X47340000Y-74356821D01*
X47340000Y-74511928D01*
X47250000Y-74511928D01*
X47125518Y-74524188D01*
X47075169Y-74539461D01*
X47078695Y-64658154D01*
X47154551Y-63545460D01*
X47375601Y-62478054D01*
X47739468Y-61450524D01*
X48239419Y-60481886D01*
X48866206Y-59590057D01*
X49608230Y-58791544D01*
X50451752Y-58101130D01*
X51381176Y-57531577D01*
X52379299Y-57093432D01*
X53427652Y-56794800D01*
X54506822Y-56641212D01*
X54688659Y-56640260D01*
X54395570Y-56698558D01*
X53959996Y-56878979D01*
X53567989Y-57140910D01*
X53234615Y-57474284D01*
X52972684Y-57866291D01*
X52792263Y-58301865D01*
X52700286Y-58764269D01*
X52700286Y-59235731D01*
X52792263Y-59698135D01*
X52972684Y-60133709D01*
X53234615Y-60525716D01*
X53567989Y-60859090D01*
X53959996Y-61121021D01*
X54395570Y-61301442D01*
X54857974Y-61393419D01*
X55329436Y-61393419D01*
X55791840Y-61301442D01*
X56227414Y-61121021D01*
X56619421Y-60859090D01*
X56952795Y-60525716D01*
X57214726Y-60133709D01*
X57395147Y-59698135D01*
X57487124Y-59235731D01*
X57487124Y-58764269D01*
X57395147Y-58301865D01*
X57214726Y-57866291D01*
X56952795Y-57474284D01*
X56619421Y-57140910D01*
X56227414Y-56878979D01*
X55791840Y-56698558D01*
X55477974Y-56636127D01*
X55596864Y-56635504D01*
X56677589Y-56777784D01*
X57729011Y-57065421D01*
X58731662Y-57493088D01*
X59667006Y-58052879D01*
X60517716Y-58734427D01*
X61268052Y-59525118D01*
X61904142Y-60410330D01*
X62414216Y-61373690D01*
X62788820Y-62397344D01*
X63021035Y-63462378D01*
X63108376Y-64572153D01*
X63108516Y-64598802D01*
X63105149Y-64632986D01*
X63119340Y-64777071D01*
X63161368Y-64915619D01*
X63229618Y-65043306D01*
X63321467Y-65155224D01*
X63433385Y-65247073D01*
X63561072Y-65315323D01*
X63699620Y-65357351D01*
X63807600Y-65367986D01*
X64879810Y-65367986D01*
X64987790Y-65357351D01*
X65126338Y-65315323D01*
X65254025Y-65247073D01*
X65365943Y-65155224D01*
X65457792Y-65043306D01*
X65526042Y-64915619D01*
X65568070Y-64777071D01*
X65582261Y-64632986D01*
X65581168Y-64621886D01*
X65654551Y-63545460D01*
X65875601Y-62478054D01*
X66239468Y-61450524D01*
X66739419Y-60481886D01*
X67366206Y-59590057D01*
X68108230Y-58791544D01*
X68951752Y-58101130D01*
X69881176Y-57531577D01*
X70879299Y-57093432D01*
X71927652Y-56794800D01*
X73006822Y-56641212D01*
X73188659Y-56640260D01*
X72895570Y-56698558D01*
X72459996Y-56878979D01*
X72067989Y-57140910D01*
X71734615Y-57474284D01*
X71472684Y-57866291D01*
X71292263Y-58301865D01*
X71200286Y-58764269D01*
X71200286Y-59235731D01*
X71292263Y-59698135D01*
X71472684Y-60133709D01*
X71734615Y-60525716D01*
X72067989Y-60859090D01*
X72459996Y-61121021D01*
X72895570Y-61301442D01*
X73357974Y-61393419D01*
X73829436Y-61393419D01*
X74291840Y-61301442D01*
X74727414Y-61121021D01*
X75119421Y-60859090D01*
X75452795Y-60525716D01*
X75714726Y-60133709D01*
X75895147Y-59698135D01*
X75987124Y-59235731D01*
X75987124Y-58764269D01*
X75895147Y-58301865D01*
X75714726Y-57866291D01*
X75452795Y-57474284D01*
X75119421Y-57140910D01*
X74727414Y-56878979D01*
X74291840Y-56698558D01*
X73977974Y-56636127D01*
X74096864Y-56635504D01*
X75177589Y-56777784D01*
%TA.AperFunction,Conductor*%
D18*
G36*
X75177589Y-56777784D02*
G01*
X76229011Y-57065421D01*
X77231662Y-57493088D01*
X78167006Y-58052879D01*
X79017716Y-58734427D01*
X79768052Y-59525118D01*
X80404142Y-60410330D01*
X80914216Y-61373690D01*
X81288820Y-62397344D01*
X81521035Y-63462378D01*
X81608376Y-64572153D01*
X81608715Y-64636836D01*
X81616038Y-64736550D01*
X81636826Y-64834347D01*
X81670693Y-64928419D01*
X81687268Y-64960124D01*
X81711461Y-67157200D01*
X81692663Y-67192368D01*
X81650635Y-67330916D01*
X81640000Y-67438896D01*
X81640001Y-77588886D01*
X81640000Y-77588896D01*
X81640000Y-77811105D01*
X81650635Y-77919085D01*
X81692663Y-78057633D01*
X81711876Y-78093578D01*
X81693176Y-80019689D01*
X81667275Y-80068308D01*
X81625438Y-80206913D01*
X81614951Y-80314908D01*
X81621586Y-85131479D01*
X81496632Y-85006525D01*
X81253411Y-84844010D01*
X80983158Y-84732068D01*
X80696260Y-84675000D01*
X80403740Y-84675000D01*
X80116842Y-84732068D01*
X79846589Y-84844010D01*
X79603368Y-85006525D01*
X79396525Y-85213368D01*
X79234010Y-85456589D01*
X79122068Y-85726842D01*
X79065000Y-86013740D01*
X79065000Y-86306260D01*
X79122068Y-86593158D01*
X79234010Y-86863411D01*
X79396525Y-87106632D01*
X79603368Y-87313475D01*
X79777760Y-87430000D01*
X79603368Y-87546525D01*
X79396525Y-87753368D01*
X79234010Y-87996589D01*
X79122068Y-88266842D01*
X79065000Y-88553740D01*
X79065000Y-88585198D01*
X78438998Y-89211201D01*
X78410000Y-89234999D01*
X78386202Y-89263997D01*
X78386201Y-89263998D01*
X78315026Y-89350724D01*
X78244454Y-89482754D01*
X78221180Y-89559482D01*
X78200998Y-89626014D01*
X78195410Y-89682753D01*
X78186324Y-89775000D01*
X78190001Y-89812332D01*
X78190000Y-94290198D01*
X75163072Y-97317127D01*
X75163072Y-96355000D01*
X75150812Y-96230518D01*
X75114502Y-96110820D01*
X75082130Y-96050257D01*
X75143071Y-95849360D01*
X75165661Y-95620000D01*
X75143071Y-95390640D01*
X75076169Y-95170094D01*
X74977234Y-94985000D01*
X75076169Y-94799906D01*
X75143071Y-94579360D01*
X75165661Y-94350000D01*
X75143071Y-94120640D01*
X75076169Y-93900094D01*
X74977234Y-93715000D01*
X75076169Y-93529906D01*
X75143071Y-93309360D01*
X75165661Y-93080000D01*
X75143071Y-92850640D01*
X75076169Y-92630094D01*
X74967526Y-92426838D01*
X74867455Y-92304900D01*
X74951185Y-92236185D01*
X75030537Y-92139494D01*
X75089502Y-92029180D01*
X75125812Y-91909482D01*
X75138072Y-91785000D01*
X75138072Y-90715000D01*
X75125812Y-90590518D01*
X75089502Y-90470820D01*
X75057130Y-90410257D01*
X75118071Y-90209360D01*
X75140661Y-89980000D01*
X75118071Y-89750640D01*
X75051169Y-89530094D01*
X74952234Y-89345000D01*
X75051169Y-89159906D01*
X75118071Y-88939360D01*
X75140661Y-88710000D01*
X75118071Y-88480640D01*
X75051169Y-88260094D01*
X74952234Y-88075000D01*
X75051169Y-87889906D01*
X75118071Y-87669360D01*
X75140661Y-87440000D01*
X75118071Y-87210640D01*
X75051169Y-86990094D01*
X74942526Y-86786838D01*
X74839851Y-86661727D01*
X74879494Y-86640537D01*
X74976185Y-86561185D01*
X75055537Y-86464494D01*
X75114502Y-86354180D01*
X75150812Y-86234482D01*
X75163072Y-86110000D01*
X75163072Y-85040000D01*
X75150812Y-84915518D01*
X75114502Y-84795820D01*
X75082130Y-84735257D01*
X75143071Y-84534360D01*
X75165661Y-84305000D01*
X75143071Y-84075640D01*
X75076169Y-83855094D01*
X74977234Y-83670000D01*
X75076169Y-83484906D01*
X75143071Y-83264360D01*
X75165661Y-83035000D01*
X75143071Y-82805640D01*
X75076169Y-82585094D01*
X74977234Y-82400000D01*
X75076169Y-82214906D01*
X75143071Y-81994360D01*
X75165661Y-81765000D01*
X75143071Y-81535640D01*
X75076169Y-81315094D01*
X74967526Y-81111838D01*
X74860099Y-80980937D01*
X74951185Y-80906185D01*
X75030537Y-80809494D01*
X75089502Y-80699180D01*
X75125812Y-80579482D01*
X75138072Y-80455000D01*
X75138072Y-79385000D01*
X75125812Y-79260518D01*
X75089502Y-79140820D01*
X75057130Y-79080257D01*
X75118071Y-78879360D01*
X75140661Y-78650000D01*
X75118071Y-78420640D01*
X75051169Y-78200094D01*
X74952234Y-78015000D01*
X75051169Y-77829906D01*
X75118071Y-77609360D01*
X75140661Y-77380000D01*
X75118071Y-77150640D01*
X75051169Y-76930094D01*
X74952234Y-76745000D01*
X75051169Y-76559906D01*
X75118071Y-76339360D01*
X75140661Y-76110000D01*
X75118071Y-75880640D01*
X75051169Y-75660094D01*
X74942526Y-75456838D01*
X74796318Y-75278682D01*
X74618162Y-75132474D01*
X74537531Y-75089376D01*
X74624482Y-75080812D01*
X74744180Y-75044502D01*
X74854494Y-74985537D01*
X74951185Y-74906185D01*
X75030537Y-74809494D01*
X75089502Y-74699180D01*
X75125812Y-74579482D01*
X75138072Y-74455000D01*
X75138072Y-73385000D01*
X75125812Y-73260518D01*
X75089502Y-73140820D01*
X75057130Y-73080257D01*
X75118071Y-72879360D01*
X75140661Y-72650000D01*
X75118071Y-72420640D01*
X75051169Y-72200094D01*
X74952234Y-72015000D01*
X75051169Y-71829906D01*
X75118071Y-71609360D01*
X75140661Y-71380000D01*
X75118071Y-71150640D01*
X75051169Y-70930094D01*
X74952234Y-70745000D01*
X75051169Y-70559906D01*
X75118071Y-70339360D01*
X75140661Y-70110000D01*
X75118071Y-69880640D01*
X75051169Y-69660094D01*
X74942526Y-69456838D01*
X74796318Y-69278682D01*
X74618162Y-69132474D01*
X74414906Y-69023831D01*
X74194360Y-68956929D01*
X74022477Y-68940000D01*
X73177523Y-68940000D01*
X73005640Y-68956929D01*
X72785094Y-69023831D01*
X72581838Y-69132474D01*
X72403682Y-69278682D01*
X72345153Y-69350000D01*
X70140923Y-69350000D01*
X70103590Y-69346323D01*
X70066257Y-69350000D01*
X69954604Y-69360997D01*
X69811343Y-69404454D01*
X69679314Y-69475026D01*
X69563589Y-69569999D01*
X69539791Y-69598997D01*
X65595738Y-73543051D01*
X65585080Y-67644017D01*
X65588356Y-67617171D01*
X65584950Y-67571790D01*
X65584933Y-67562568D01*
X65582249Y-67535815D01*
X65577519Y-67472796D01*
X65575030Y-67463846D01*
X65574103Y-67454607D01*
X65555652Y-67394175D01*
X65538723Y-67333308D01*
X65534538Y-67325020D01*
X65531825Y-67316135D01*
X65501944Y-67260474D01*
X65473461Y-67204069D01*
X65467735Y-67196751D01*
X65463344Y-67188572D01*
X65423187Y-67139820D01*
X65384238Y-67090045D01*
X65377196Y-67083986D01*
X65371293Y-67076820D01*
X65322395Y-67036838D01*
X65274486Y-66995619D01*
X65266397Y-66991051D01*
X65259209Y-66985173D01*
X65203440Y-66955493D01*
X65148420Y-66924419D01*
X65139597Y-66921517D01*
X65131399Y-66917154D01*
X65070905Y-66898922D01*
X65010887Y-66879181D01*
X65001669Y-66878056D01*
X64992776Y-66875376D01*
X64929871Y-66869295D01*
X64903183Y-66866039D01*
X64893964Y-66865825D01*
X64848666Y-66861446D01*
X64821757Y-66864145D01*
X63818962Y-66840824D01*
X63773666Y-66836446D01*
X63710806Y-66842752D01*
X63647796Y-66847481D01*
X63638846Y-66849970D01*
X63629607Y-66850897D01*
X63569175Y-66869348D01*
X63508308Y-66886277D01*
X63500020Y-66890462D01*
X63491135Y-66893175D01*
X63435456Y-66923066D01*
X63379069Y-66951540D01*
X63371755Y-66957263D01*
X63363572Y-66961656D01*
X63314809Y-67001822D01*
X63265045Y-67040762D01*
X63258986Y-67047804D01*
X63251820Y-67053707D01*
X63211838Y-67102605D01*
X63170619Y-67150514D01*
X63166051Y-67158603D01*
X63160173Y-67165791D01*
X63130493Y-67221560D01*
X63099419Y-67276580D01*
X63096517Y-67285403D01*
X63092154Y-67293601D01*
X63073922Y-67354095D01*
X63054181Y-67414113D01*
X63053056Y-67423331D01*
X63050376Y-67432224D01*
X63044296Y-67495124D01*
X63036644Y-67557829D01*
X63040050Y-67603202D01*
X63071764Y-85156657D01*
X62921632Y-85006525D01*
X62678411Y-84844010D01*
X62408158Y-84732068D01*
X62121260Y-84675000D01*
X61828740Y-84675000D01*
X61541842Y-84732068D01*
X61271589Y-84844010D01*
X61028368Y-85006525D01*
X60821525Y-85213368D01*
X60659010Y-85456589D01*
X60555561Y-85706337D01*
X60563572Y-85625000D01*
X60563572Y-84925000D01*
X60551312Y-84800518D01*
X60518889Y-84693633D01*
X60619276Y-84639974D01*
X60735001Y-84545001D01*
X60758804Y-84515997D01*
X60835997Y-84438804D01*
X60865001Y-84415001D01*
X60959974Y-84299276D01*
X61030546Y-84167247D01*
X61074003Y-84023986D01*
X61085000Y-83912333D01*
X61085000Y-83912325D01*
X61088676Y-83875000D01*
X61085000Y-83837675D01*
X61085000Y-80821820D01*
X61088676Y-80784497D01*
X61085000Y-80747174D01*
X61085000Y-80747165D01*
X61074003Y-80635512D01*
X61030546Y-80492251D01*
X61007564Y-80449255D01*
X60959974Y-80360221D01*
X60888799Y-80273495D01*
X60883393Y-80266908D01*
X60960998Y-80189303D01*
X60990001Y-80165501D01*
X61084974Y-80049776D01*
X61155546Y-79917747D01*
X61199003Y-79774486D01*
X61210000Y-79662833D01*
X61210000Y-79662825D01*
X61213676Y-79625500D01*
X61210000Y-79588175D01*
X61210000Y-72741825D01*
X61213676Y-72704500D01*
X61210000Y-72667175D01*
X61210000Y-72667167D01*
X61199003Y-72555514D01*
X61155546Y-72412253D01*
X61084974Y-72280224D01*
X60990001Y-72164499D01*
X60960997Y-72140696D01*
X60664304Y-71844003D01*
X60640501Y-71814999D01*
X60524776Y-71720026D01*
X60392747Y-71649454D01*
X60376006Y-71644376D01*
X60301685Y-71553815D01*
X60204994Y-71474463D01*
X60094680Y-71415498D01*
X59974982Y-71379188D01*
X59850500Y-71366928D01*
X59049730Y-71366928D01*
X58571804Y-70889002D01*
X58548001Y-70859999D01*
X58432276Y-70765026D01*
X58300247Y-70694454D01*
X58156986Y-70650997D01*
X58045333Y-70640000D01*
X58045322Y-70640000D01*
X58008000Y-70636324D01*
X57970678Y-70640000D01*
X57453711Y-70640000D01*
X57409774Y-70596063D01*
X57240256Y-70482795D01*
X57051898Y-70404774D01*
X56851939Y-70365000D01*
X56789802Y-70365000D01*
X56213804Y-69789002D01*
X56190001Y-69759999D01*
X56110419Y-69694688D01*
X56133475Y-69671632D01*
X56250000Y-69497240D01*
X56366525Y-69671632D01*
X56573368Y-69878475D01*
X56816589Y-70040990D01*
X57086842Y-70152932D01*
X57373740Y-70210000D01*
X57666260Y-70210000D01*
X57953158Y-70152932D01*
X58223411Y-70040990D01*
X58466632Y-69878475D01*
X58673475Y-69671632D01*
X58790000Y-69497240D01*
X58906525Y-69671632D01*
X59113368Y-69878475D01*
X59356589Y-70040990D01*
X59626842Y-70152932D01*
X59913740Y-70210000D01*
X60206260Y-70210000D01*
X60493158Y-70152932D01*
X60763411Y-70040990D01*
X61006632Y-69878475D01*
X61213475Y-69671632D01*
X61375990Y-69428411D01*
X61487932Y-69158158D01*
X61545000Y-68871260D01*
X61545000Y-68578740D01*
X61487932Y-68291842D01*
X61375990Y-68021589D01*
X61213475Y-67778368D01*
X61006632Y-67571525D01*
X60763411Y-67409010D01*
X60493158Y-67297068D01*
X60206260Y-67240000D01*
X59913740Y-67240000D01*
X59626842Y-67297068D01*
X59356589Y-67409010D01*
X59113368Y-67571525D01*
X58906525Y-67778368D01*
X58790000Y-67952760D01*
X58673475Y-67778368D01*
X58466632Y-67571525D01*
X58223411Y-67409010D01*
X57953158Y-67297068D01*
X57666260Y-67240000D01*
X57373740Y-67240000D01*
X57086842Y-67297068D01*
X56816589Y-67409010D01*
X56573368Y-67571525D01*
X56366525Y-67778368D01*
X56250000Y-67952760D01*
X56133475Y-67778368D01*
X55926632Y-67571525D01*
X55683411Y-67409010D01*
X55413158Y-67297068D01*
X55126260Y-67240000D01*
X54833740Y-67240000D01*
X54546842Y-67297068D01*
X54276589Y-67409010D01*
X54033368Y-67571525D01*
X53826525Y-67778368D01*
X53664010Y-68021589D01*
X53552068Y-68291842D01*
X53495000Y-68578740D01*
X53495000Y-68871260D01*
X53552068Y-69158158D01*
X53664010Y-69428411D01*
X53738571Y-69540000D01*
X51789802Y-69540000D01*
X51388072Y-69138270D01*
X51388072Y-67875000D01*
X51375812Y-67750518D01*
X51339502Y-67630820D01*
X51280537Y-67520506D01*
X51201185Y-67423815D01*
X51104494Y-67344463D01*
X50994180Y-67285498D01*
X50874482Y-67249188D01*
X50750000Y-67236928D01*
X49050000Y-67236928D01*
X48925518Y-67249188D01*
X48805820Y-67285498D01*
X48695506Y-67344463D01*
X48598815Y-67423815D01*
X48519463Y-67520506D01*
X48460498Y-67630820D01*
X48424188Y-67750518D01*
X48411928Y-67875000D01*
X48411928Y-69575000D01*
X48424188Y-69699482D01*
X48460498Y-69819180D01*
X48519463Y-69929494D01*
X48598815Y-70026185D01*
X48695506Y-70105537D01*
X48805820Y-70164502D01*
X48925518Y-70200812D01*
X49050000Y-70213072D01*
X50313270Y-70213072D01*
X50723821Y-70623623D01*
X50708494Y-70636201D01*
X50708490Y-70636205D01*
X50679497Y-70659999D01*
X50655703Y-70688992D01*
X47589003Y-73755694D01*
X47559999Y-73779497D01*
X47518964Y-73829499D01*
X47465026Y-73895222D01*
X47420521Y-73978484D01*
X47394454Y-74027252D01*
X47350997Y-74170513D01*
X47340000Y-74282166D01*
X47340000Y-74282176D01*
X47336324Y-74319498D01*
X47340000Y-74356821D01*
X47340000Y-74511928D01*
X47250000Y-74511928D01*
X47125518Y-74524188D01*
X47075169Y-74539461D01*
X47078695Y-64658154D01*
X47154551Y-63545460D01*
X47375601Y-62478054D01*
X47739468Y-61450524D01*
X48239419Y-60481886D01*
X48866206Y-59590057D01*
X49608230Y-58791544D01*
X50451752Y-58101130D01*
X51381176Y-57531577D01*
X52379299Y-57093432D01*
X53427652Y-56794800D01*
X54506822Y-56641212D01*
X54688659Y-56640260D01*
X54395570Y-56698558D01*
X53959996Y-56878979D01*
X53567989Y-57140910D01*
X53234615Y-57474284D01*
X52972684Y-57866291D01*
X52792263Y-58301865D01*
X52700286Y-58764269D01*
X52700286Y-59235731D01*
X52792263Y-59698135D01*
X52972684Y-60133709D01*
X53234615Y-60525716D01*
X53567989Y-60859090D01*
X53959996Y-61121021D01*
X54395570Y-61301442D01*
X54857974Y-61393419D01*
X55329436Y-61393419D01*
X55791840Y-61301442D01*
X56227414Y-61121021D01*
X56619421Y-60859090D01*
X56952795Y-60525716D01*
X57214726Y-60133709D01*
X57395147Y-59698135D01*
X57487124Y-59235731D01*
X57487124Y-58764269D01*
X57395147Y-58301865D01*
X57214726Y-57866291D01*
X56952795Y-57474284D01*
X56619421Y-57140910D01*
X56227414Y-56878979D01*
X55791840Y-56698558D01*
X55477974Y-56636127D01*
X55596864Y-56635504D01*
X56677589Y-56777784D01*
X57729011Y-57065421D01*
X58731662Y-57493088D01*
X59667006Y-58052879D01*
X60517716Y-58734427D01*
X61268052Y-59525118D01*
X61904142Y-60410330D01*
X62414216Y-61373690D01*
X62788820Y-62397344D01*
X63021035Y-63462378D01*
X63108376Y-64572153D01*
X63108516Y-64598802D01*
X63105149Y-64632986D01*
X63119340Y-64777071D01*
X63161368Y-64915619D01*
X63229618Y-65043306D01*
X63321467Y-65155224D01*
X63433385Y-65247073D01*
X63561072Y-65315323D01*
X63699620Y-65357351D01*
X63807600Y-65367986D01*
X64879810Y-65367986D01*
X64987790Y-65357351D01*
X65126338Y-65315323D01*
X65254025Y-65247073D01*
X65365943Y-65155224D01*
X65457792Y-65043306D01*
X65526042Y-64915619D01*
X65568070Y-64777071D01*
X65582261Y-64632986D01*
X65581168Y-64621886D01*
X65654551Y-63545460D01*
X65875601Y-62478054D01*
X66239468Y-61450524D01*
X66739419Y-60481886D01*
X67366206Y-59590057D01*
X68108230Y-58791544D01*
X68951752Y-58101130D01*
X69881176Y-57531577D01*
X70879299Y-57093432D01*
X71927652Y-56794800D01*
X73006822Y-56641212D01*
X73188659Y-56640260D01*
X72895570Y-56698558D01*
X72459996Y-56878979D01*
X72067989Y-57140910D01*
X71734615Y-57474284D01*
X71472684Y-57866291D01*
X71292263Y-58301865D01*
X71200286Y-58764269D01*
X71200286Y-59235731D01*
X71292263Y-59698135D01*
X71472684Y-60133709D01*
X71734615Y-60525716D01*
X72067989Y-60859090D01*
X72459996Y-61121021D01*
X72895570Y-61301442D01*
X73357974Y-61393419D01*
X73829436Y-61393419D01*
X74291840Y-61301442D01*
X74727414Y-61121021D01*
X75119421Y-60859090D01*
X75452795Y-60525716D01*
X75714726Y-60133709D01*
X75895147Y-59698135D01*
X75987124Y-59235731D01*
X75987124Y-58764269D01*
X75895147Y-58301865D01*
X75714726Y-57866291D01*
X75452795Y-57474284D01*
X75119421Y-57140910D01*
X74727414Y-56878979D01*
X74291840Y-56698558D01*
X73977974Y-56636127D01*
X74096864Y-56635504D01*
X75177589Y-56777784D01*
G37*
%TD.AperFunction*%
D17*
X59540000Y-95703198D02*
X58494546Y-96748653D01*
X58489714Y-96748653D01*
X58397839Y-96766928D01*
X58060000Y-96766928D01*
X58060000Y-94947801D01*
X59124730Y-93883072D01*
X59540001Y-93883072D01*
X59540000Y-95703198D01*
%TA.AperFunction,Conductor*%
D18*
G36*
X59540000Y-95703198D02*
G01*
X58494546Y-96748653D01*
X58489714Y-96748653D01*
X58397839Y-96766928D01*
X58060000Y-96766928D01*
X58060000Y-94947801D01*
X59124730Y-93883072D01*
X59540001Y-93883072D01*
X59540000Y-95703198D01*
G37*
%TD.AperFunction*%
D17*
X63089920Y-95205983D02*
X63086644Y-95232829D01*
X63090050Y-95278210D01*
X63090067Y-95287432D01*
X63092751Y-95314185D01*
X63094654Y-95339547D01*
X62921632Y-95166525D01*
X62747240Y-95050000D01*
X62921632Y-94933475D01*
X63089125Y-94765982D01*
X63089920Y-95205983D01*
%TA.AperFunction,Conductor*%
D18*
G36*
X63089920Y-95205983D02*
G01*
X63086644Y-95232829D01*
X63090050Y-95278210D01*
X63090067Y-95287432D01*
X63092751Y-95314185D01*
X63094654Y-95339547D01*
X62921632Y-95166525D01*
X62747240Y-95050000D01*
X62921632Y-94933475D01*
X63089125Y-94765982D01*
X63089920Y-95205983D01*
G37*
%TD.AperFunction*%
D17*
X54529774Y-91301898D02*
X54607795Y-91490256D01*
X54721063Y-91659774D01*
X54865226Y-91803937D01*
X55034744Y-91917205D01*
X55223102Y-91995226D01*
X55256241Y-92001818D01*
X55254784Y-92005334D01*
X55215010Y-92205293D01*
X55215010Y-92409171D01*
X55254784Y-92609130D01*
X55322916Y-92773615D01*
X53664301Y-91115000D01*
X54492598Y-91115000D01*
X54529774Y-91301898D01*
%TA.AperFunction,Conductor*%
D18*
G36*
X54529774Y-91301898D02*
G01*
X54607795Y-91490256D01*
X54721063Y-91659774D01*
X54865226Y-91803937D01*
X55034744Y-91917205D01*
X55223102Y-91995226D01*
X55256241Y-92001818D01*
X55254784Y-92005334D01*
X55215010Y-92205293D01*
X55215010Y-92409171D01*
X55254784Y-92609130D01*
X55322916Y-92773615D01*
X53664301Y-91115000D01*
X54492598Y-91115000D01*
X54529774Y-91301898D01*
G37*
%TD.AperFunction*%
D17*
X54661200Y-85786002D02*
X54684999Y-85815001D01*
X54800724Y-85909974D01*
X54932753Y-85980546D01*
X55076014Y-86024003D01*
X55187667Y-86035000D01*
X55187675Y-86035000D01*
X55225000Y-86038676D01*
X55262325Y-86035000D01*
X57535462Y-86035000D01*
X57524688Y-86070518D01*
X57512428Y-86195000D01*
X57512428Y-86895000D01*
X57524688Y-87019482D01*
X57560998Y-87139180D01*
X57619963Y-87249494D01*
X57699315Y-87346185D01*
X57796006Y-87425537D01*
X57906320Y-87484502D01*
X58026018Y-87520812D01*
X58150500Y-87533072D01*
X58718831Y-87533072D01*
X58736102Y-87540226D01*
X58936061Y-87580000D01*
X59139939Y-87580000D01*
X59339898Y-87540226D01*
X59357169Y-87533072D01*
X59925500Y-87533072D01*
X60049982Y-87520812D01*
X60111897Y-87502030D01*
X60094453Y-87534665D01*
X60067406Y-87623831D01*
X60050997Y-87677925D01*
X60050989Y-87678003D01*
X60036323Y-87826911D01*
X60040000Y-87864243D01*
X60040000Y-88108205D01*
X59925500Y-88096928D01*
X59357169Y-88096928D01*
X59339898Y-88089774D01*
X59139939Y-88050000D01*
X58936061Y-88050000D01*
X58736102Y-88089774D01*
X58718831Y-88096928D01*
X58150500Y-88096928D01*
X58026018Y-88109188D01*
X57906320Y-88145498D01*
X57796006Y-88204463D01*
X57759352Y-88234544D01*
X56985006Y-87460199D01*
X56985006Y-87398061D01*
X56945232Y-87198102D01*
X56867211Y-87009744D01*
X56753943Y-86840226D01*
X56609780Y-86696063D01*
X56440262Y-86582795D01*
X56251904Y-86504774D01*
X56051945Y-86465000D01*
X55848067Y-86465000D01*
X55648108Y-86504774D01*
X55459750Y-86582795D01*
X55290232Y-86696063D01*
X55146069Y-86840226D01*
X55032801Y-87009744D01*
X54954780Y-87198102D01*
X54915006Y-87398061D01*
X54915006Y-87601939D01*
X54954780Y-87801898D01*
X55032801Y-87990256D01*
X55146069Y-88159774D01*
X55290232Y-88303937D01*
X55459750Y-88417205D01*
X55648108Y-88495226D01*
X55848067Y-88535000D01*
X55910205Y-88535000D01*
X56133760Y-88758556D01*
X56040226Y-88821053D01*
X55896063Y-88965216D01*
X55782795Y-89134734D01*
X55704774Y-89323092D01*
X55665000Y-89523051D01*
X55665000Y-89726929D01*
X55704774Y-89926888D01*
X55728967Y-89985294D01*
X55626939Y-89965000D01*
X55564801Y-89965000D01*
X55443803Y-89844002D01*
X55420001Y-89814999D01*
X55304276Y-89720026D01*
X55172247Y-89649454D01*
X55028986Y-89605997D01*
X54917333Y-89595000D01*
X54917322Y-89595000D01*
X54880000Y-89591324D01*
X54842678Y-89595000D01*
X54634998Y-89595000D01*
X54634998Y-89498061D01*
X54595224Y-89298102D01*
X54517203Y-89109744D01*
X54403935Y-88940226D01*
X54359998Y-88896289D01*
X54359998Y-85812820D01*
X54363674Y-85775497D01*
X54359998Y-85738174D01*
X54359998Y-85738165D01*
X54349001Y-85626512D01*
X54305544Y-85483251D01*
X54291293Y-85456589D01*
X54244793Y-85369595D01*
X54661200Y-85786002D01*
%TA.AperFunction,Conductor*%
D18*
G36*
X54661200Y-85786002D02*
G01*
X54684999Y-85815001D01*
X54800724Y-85909974D01*
X54932753Y-85980546D01*
X55076014Y-86024003D01*
X55187667Y-86035000D01*
X55187675Y-86035000D01*
X55225000Y-86038676D01*
X55262325Y-86035000D01*
X57535462Y-86035000D01*
X57524688Y-86070518D01*
X57512428Y-86195000D01*
X57512428Y-86895000D01*
X57524688Y-87019482D01*
X57560998Y-87139180D01*
X57619963Y-87249494D01*
X57699315Y-87346185D01*
X57796006Y-87425537D01*
X57906320Y-87484502D01*
X58026018Y-87520812D01*
X58150500Y-87533072D01*
X58718831Y-87533072D01*
X58736102Y-87540226D01*
X58936061Y-87580000D01*
X59139939Y-87580000D01*
X59339898Y-87540226D01*
X59357169Y-87533072D01*
X59925500Y-87533072D01*
X60049982Y-87520812D01*
X60111897Y-87502030D01*
X60094453Y-87534665D01*
X60067406Y-87623831D01*
X60050997Y-87677925D01*
X60050989Y-87678003D01*
X60036323Y-87826911D01*
X60040000Y-87864243D01*
X60040000Y-88108205D01*
X59925500Y-88096928D01*
X59357169Y-88096928D01*
X59339898Y-88089774D01*
X59139939Y-88050000D01*
X58936061Y-88050000D01*
X58736102Y-88089774D01*
X58718831Y-88096928D01*
X58150500Y-88096928D01*
X58026018Y-88109188D01*
X57906320Y-88145498D01*
X57796006Y-88204463D01*
X57759352Y-88234544D01*
X56985006Y-87460199D01*
X56985006Y-87398061D01*
X56945232Y-87198102D01*
X56867211Y-87009744D01*
X56753943Y-86840226D01*
X56609780Y-86696063D01*
X56440262Y-86582795D01*
X56251904Y-86504774D01*
X56051945Y-86465000D01*
X55848067Y-86465000D01*
X55648108Y-86504774D01*
X55459750Y-86582795D01*
X55290232Y-86696063D01*
X55146069Y-86840226D01*
X55032801Y-87009744D01*
X54954780Y-87198102D01*
X54915006Y-87398061D01*
X54915006Y-87601939D01*
X54954780Y-87801898D01*
X55032801Y-87990256D01*
X55146069Y-88159774D01*
X55290232Y-88303937D01*
X55459750Y-88417205D01*
X55648108Y-88495226D01*
X55848067Y-88535000D01*
X55910205Y-88535000D01*
X56133760Y-88758556D01*
X56040226Y-88821053D01*
X55896063Y-88965216D01*
X55782795Y-89134734D01*
X55704774Y-89323092D01*
X55665000Y-89523051D01*
X55665000Y-89726929D01*
X55704774Y-89926888D01*
X55728967Y-89985294D01*
X55626939Y-89965000D01*
X55564801Y-89965000D01*
X55443803Y-89844002D01*
X55420001Y-89814999D01*
X55304276Y-89720026D01*
X55172247Y-89649454D01*
X55028986Y-89605997D01*
X54917333Y-89595000D01*
X54917322Y-89595000D01*
X54880000Y-89591324D01*
X54842678Y-89595000D01*
X54634998Y-89595000D01*
X54634998Y-89498061D01*
X54595224Y-89298102D01*
X54517203Y-89109744D01*
X54403935Y-88940226D01*
X54359998Y-88896289D01*
X54359998Y-85812820D01*
X54363674Y-85775497D01*
X54359998Y-85738174D01*
X54359998Y-85738165D01*
X54349001Y-85626512D01*
X54305544Y-85483251D01*
X54291293Y-85456589D01*
X54244793Y-85369595D01*
X54661200Y-85786002D01*
G37*
%TD.AperFunction*%
D17*
X81625089Y-87674982D02*
X81496632Y-87546525D01*
X81322240Y-87430000D01*
X81496632Y-87313475D01*
X81624415Y-87185692D01*
X81625089Y-87674982D01*
%TA.AperFunction,Conductor*%
D18*
G36*
X81625089Y-87674982D02*
G01*
X81496632Y-87546525D01*
X81322240Y-87430000D01*
X81496632Y-87313475D01*
X81624415Y-87185692D01*
X81625089Y-87674982D01*
G37*
%TD.AperFunction*%
D17*
X72173831Y-82585094D02*
X72106929Y-82805640D01*
X72084339Y-83035000D01*
X72106929Y-83264360D01*
X72173831Y-83484906D01*
X72205952Y-83545000D01*
X71154802Y-83545000D01*
X72174802Y-82525000D01*
X72205952Y-82525000D01*
X72173831Y-82585094D01*
%TA.AperFunction,Conductor*%
D18*
G36*
X72173831Y-82585094D02*
G01*
X72106929Y-82805640D01*
X72084339Y-83035000D01*
X72106929Y-83264360D01*
X72173831Y-83484906D01*
X72205952Y-83545000D01*
X71154802Y-83545000D01*
X72174802Y-82525000D01*
X72205952Y-82525000D01*
X72173831Y-82585094D01*
G37*
%TD.AperFunction*%
D17*
X56561201Y-74111003D02*
X56584999Y-74140001D01*
X56613997Y-74163799D01*
X56700724Y-74234974D01*
X56832753Y-74305546D01*
X56976014Y-74349003D01*
X57125000Y-74363677D01*
X57162333Y-74360000D01*
X57468046Y-74360000D01*
X57449688Y-74420518D01*
X57437428Y-74545000D01*
X57437428Y-75245000D01*
X57449688Y-75369482D01*
X57485998Y-75489180D01*
X57544963Y-75599494D01*
X57624315Y-75696185D01*
X57721006Y-75775537D01*
X57831320Y-75834502D01*
X57951018Y-75870812D01*
X58075500Y-75883072D01*
X58433660Y-75883072D01*
X58484744Y-75917205D01*
X58673102Y-75995226D01*
X58873061Y-76035000D01*
X59076939Y-76035000D01*
X59276898Y-75995226D01*
X59465256Y-75917205D01*
X59516340Y-75883072D01*
X59690001Y-75883072D01*
X59690000Y-76446928D01*
X59282169Y-76446928D01*
X59264898Y-76439774D01*
X59064939Y-76400000D01*
X58861061Y-76400000D01*
X58661102Y-76439774D01*
X58643831Y-76446928D01*
X58075500Y-76446928D01*
X57951018Y-76459188D01*
X57831320Y-76495498D01*
X57721006Y-76554463D01*
X57624315Y-76633815D01*
X57544963Y-76730506D01*
X57485998Y-76840820D01*
X57449688Y-76960518D01*
X57437428Y-77085000D01*
X57437428Y-77785000D01*
X57449688Y-77909482D01*
X57485998Y-78029180D01*
X57507817Y-78070000D01*
X57485998Y-78110820D01*
X57449688Y-78230518D01*
X57437428Y-78355000D01*
X57437428Y-79055000D01*
X57449688Y-79179482D01*
X57485998Y-79299180D01*
X57507817Y-79340000D01*
X57485998Y-79380820D01*
X57449688Y-79500518D01*
X57437428Y-79625000D01*
X57437428Y-80325000D01*
X57449688Y-80449482D01*
X57485998Y-80569180D01*
X57507817Y-80610000D01*
X57485998Y-80650820D01*
X57449688Y-80770518D01*
X57437428Y-80895000D01*
X57437428Y-81595000D01*
X57449688Y-81719482D01*
X57485998Y-81839180D01*
X57544963Y-81949494D01*
X57624315Y-82046185D01*
X57721006Y-82125537D01*
X57831320Y-82184502D01*
X57951018Y-82220812D01*
X58075500Y-82233072D01*
X58098132Y-82233072D01*
X58029774Y-82398102D01*
X57990000Y-82598061D01*
X57990000Y-82801939D01*
X58007516Y-82890000D01*
X56228711Y-82890000D01*
X56184774Y-82846063D01*
X56015256Y-82732795D01*
X55826898Y-82654774D01*
X55626939Y-82615000D01*
X55423061Y-82615000D01*
X55223102Y-82654774D01*
X55034744Y-82732795D01*
X54865226Y-82846063D01*
X54721063Y-82990226D01*
X54607795Y-83159744D01*
X54529774Y-83348102D01*
X54503748Y-83478946D01*
X52563804Y-81539003D01*
X52540001Y-81509999D01*
X52424276Y-81415026D01*
X52292247Y-81344454D01*
X52148986Y-81300997D01*
X52037333Y-81290000D01*
X52037322Y-81290000D01*
X52000000Y-81286324D01*
X51962678Y-81290000D01*
X50862322Y-81290000D01*
X50824999Y-81286324D01*
X50787677Y-81290000D01*
X50787667Y-81290000D01*
X50676014Y-81300997D01*
X50545046Y-81340725D01*
X50532753Y-81344454D01*
X50400723Y-81415026D01*
X50370958Y-81439454D01*
X50335000Y-81468964D01*
X50335000Y-80939801D01*
X50525913Y-80748888D01*
X50548315Y-80776185D01*
X50645006Y-80855537D01*
X50755320Y-80914502D01*
X50875018Y-80950812D01*
X50999500Y-80963072D01*
X52774500Y-80963072D01*
X52898982Y-80950812D01*
X53018680Y-80914502D01*
X53128994Y-80855537D01*
X53154018Y-80835000D01*
X53196289Y-80835000D01*
X53240226Y-80878937D01*
X53409744Y-80992205D01*
X53598102Y-81070226D01*
X53798061Y-81110000D01*
X54001939Y-81110000D01*
X54201898Y-81070226D01*
X54390256Y-80992205D01*
X54559774Y-80878937D01*
X54703937Y-80734774D01*
X54817205Y-80565256D01*
X54895226Y-80376898D01*
X54935000Y-80176939D01*
X54935000Y-79973061D01*
X54895226Y-79773102D01*
X54817205Y-79584744D01*
X54703937Y-79415226D01*
X54559774Y-79271063D01*
X54390256Y-79157795D01*
X54201898Y-79079774D01*
X54096641Y-79058837D01*
X54120226Y-79001898D01*
X54160000Y-78801939D01*
X54160000Y-78598061D01*
X54120226Y-78398102D01*
X54042205Y-78209744D01*
X53928937Y-78040226D01*
X53784774Y-77896063D01*
X53615256Y-77782795D01*
X53426898Y-77704774D01*
X53412572Y-77701924D01*
X53412572Y-77085000D01*
X53400312Y-76960518D01*
X53364002Y-76840820D01*
X53342183Y-76800000D01*
X53364002Y-76759180D01*
X53400312Y-76639482D01*
X53412572Y-76515000D01*
X53412572Y-75973061D01*
X54315000Y-75973061D01*
X54315000Y-76176939D01*
X54354774Y-76376898D01*
X54432795Y-76565256D01*
X54546063Y-76734774D01*
X54690226Y-76878937D01*
X54859744Y-76992205D01*
X55048102Y-77070226D01*
X55248061Y-77110000D01*
X55451939Y-77110000D01*
X55651898Y-77070226D01*
X55840256Y-76992205D01*
X56009774Y-76878937D01*
X56153937Y-76734774D01*
X56267205Y-76565256D01*
X56345226Y-76376898D01*
X56385000Y-76176939D01*
X56385000Y-75973061D01*
X56345226Y-75773102D01*
X56267205Y-75584744D01*
X56153937Y-75415226D01*
X56009774Y-75271063D01*
X55840256Y-75157795D01*
X55651898Y-75079774D01*
X55451939Y-75040000D01*
X55248061Y-75040000D01*
X55048102Y-75079774D01*
X54859744Y-75157795D01*
X54690226Y-75271063D01*
X54546063Y-75415226D01*
X54432795Y-75584744D01*
X54354774Y-75773102D01*
X54315000Y-75973061D01*
X53412572Y-75973061D01*
X53412572Y-75815000D01*
X53400312Y-75690518D01*
X53364002Y-75570820D01*
X53342183Y-75530000D01*
X53364002Y-75489180D01*
X53400312Y-75369482D01*
X53412572Y-75245000D01*
X53412572Y-74545000D01*
X53400312Y-74420518D01*
X53364002Y-74300820D01*
X53342183Y-74260000D01*
X53364002Y-74219180D01*
X53400312Y-74099482D01*
X53412572Y-73975000D01*
X53412572Y-73275000D01*
X53400312Y-73150518D01*
X53364002Y-73030820D01*
X53342183Y-72990000D01*
X53364002Y-72949180D01*
X53400312Y-72829482D01*
X53412572Y-72705000D01*
X53412572Y-72005000D01*
X53408140Y-71960000D01*
X54410199Y-71960000D01*
X56561201Y-74111003D01*
%TA.AperFunction,Conductor*%
D18*
G36*
X56561201Y-74111003D02*
G01*
X56584999Y-74140001D01*
X56613997Y-74163799D01*
X56700724Y-74234974D01*
X56832753Y-74305546D01*
X56976014Y-74349003D01*
X57125000Y-74363677D01*
X57162333Y-74360000D01*
X57468046Y-74360000D01*
X57449688Y-74420518D01*
X57437428Y-74545000D01*
X57437428Y-75245000D01*
X57449688Y-75369482D01*
X57485998Y-75489180D01*
X57544963Y-75599494D01*
X57624315Y-75696185D01*
X57721006Y-75775537D01*
X57831320Y-75834502D01*
X57951018Y-75870812D01*
X58075500Y-75883072D01*
X58433660Y-75883072D01*
X58484744Y-75917205D01*
X58673102Y-75995226D01*
X58873061Y-76035000D01*
X59076939Y-76035000D01*
X59276898Y-75995226D01*
X59465256Y-75917205D01*
X59516340Y-75883072D01*
X59690001Y-75883072D01*
X59690000Y-76446928D01*
X59282169Y-76446928D01*
X59264898Y-76439774D01*
X59064939Y-76400000D01*
X58861061Y-76400000D01*
X58661102Y-76439774D01*
X58643831Y-76446928D01*
X58075500Y-76446928D01*
X57951018Y-76459188D01*
X57831320Y-76495498D01*
X57721006Y-76554463D01*
X57624315Y-76633815D01*
X57544963Y-76730506D01*
X57485998Y-76840820D01*
X57449688Y-76960518D01*
X57437428Y-77085000D01*
X57437428Y-77785000D01*
X57449688Y-77909482D01*
X57485998Y-78029180D01*
X57507817Y-78070000D01*
X57485998Y-78110820D01*
X57449688Y-78230518D01*
X57437428Y-78355000D01*
X57437428Y-79055000D01*
X57449688Y-79179482D01*
X57485998Y-79299180D01*
X57507817Y-79340000D01*
X57485998Y-79380820D01*
X57449688Y-79500518D01*
X57437428Y-79625000D01*
X57437428Y-80325000D01*
X57449688Y-80449482D01*
X57485998Y-80569180D01*
X57507817Y-80610000D01*
X57485998Y-80650820D01*
X57449688Y-80770518D01*
X57437428Y-80895000D01*
X57437428Y-81595000D01*
X57449688Y-81719482D01*
X57485998Y-81839180D01*
X57544963Y-81949494D01*
X57624315Y-82046185D01*
X57721006Y-82125537D01*
X57831320Y-82184502D01*
X57951018Y-82220812D01*
X58075500Y-82233072D01*
X58098132Y-82233072D01*
X58029774Y-82398102D01*
X57990000Y-82598061D01*
X57990000Y-82801939D01*
X58007516Y-82890000D01*
X56228711Y-82890000D01*
X56184774Y-82846063D01*
X56015256Y-82732795D01*
X55826898Y-82654774D01*
X55626939Y-82615000D01*
X55423061Y-82615000D01*
X55223102Y-82654774D01*
X55034744Y-82732795D01*
X54865226Y-82846063D01*
X54721063Y-82990226D01*
X54607795Y-83159744D01*
X54529774Y-83348102D01*
X54503748Y-83478946D01*
X52563804Y-81539003D01*
X52540001Y-81509999D01*
X52424276Y-81415026D01*
X52292247Y-81344454D01*
X52148986Y-81300997D01*
X52037333Y-81290000D01*
X52037322Y-81290000D01*
X52000000Y-81286324D01*
X51962678Y-81290000D01*
X50862322Y-81290000D01*
X50824999Y-81286324D01*
X50787677Y-81290000D01*
X50787667Y-81290000D01*
X50676014Y-81300997D01*
X50545046Y-81340725D01*
X50532753Y-81344454D01*
X50400723Y-81415026D01*
X50370958Y-81439454D01*
X50335000Y-81468964D01*
X50335000Y-80939801D01*
X50525913Y-80748888D01*
X50548315Y-80776185D01*
X50645006Y-80855537D01*
X50755320Y-80914502D01*
X50875018Y-80950812D01*
X50999500Y-80963072D01*
X52774500Y-80963072D01*
X52898982Y-80950812D01*
X53018680Y-80914502D01*
X53128994Y-80855537D01*
X53154018Y-80835000D01*
X53196289Y-80835000D01*
X53240226Y-80878937D01*
X53409744Y-80992205D01*
X53598102Y-81070226D01*
X53798061Y-81110000D01*
X54001939Y-81110000D01*
X54201898Y-81070226D01*
X54390256Y-80992205D01*
X54559774Y-80878937D01*
X54703937Y-80734774D01*
X54817205Y-80565256D01*
X54895226Y-80376898D01*
X54935000Y-80176939D01*
X54935000Y-79973061D01*
X54895226Y-79773102D01*
X54817205Y-79584744D01*
X54703937Y-79415226D01*
X54559774Y-79271063D01*
X54390256Y-79157795D01*
X54201898Y-79079774D01*
X54096641Y-79058837D01*
X54120226Y-79001898D01*
X54160000Y-78801939D01*
X54160000Y-78598061D01*
X54120226Y-78398102D01*
X54042205Y-78209744D01*
X53928937Y-78040226D01*
X53784774Y-77896063D01*
X53615256Y-77782795D01*
X53426898Y-77704774D01*
X53412572Y-77701924D01*
X53412572Y-77085000D01*
X53400312Y-76960518D01*
X53364002Y-76840820D01*
X53342183Y-76800000D01*
X53364002Y-76759180D01*
X53400312Y-76639482D01*
X53412572Y-76515000D01*
X53412572Y-75973061D01*
X54315000Y-75973061D01*
X54315000Y-76176939D01*
X54354774Y-76376898D01*
X54432795Y-76565256D01*
X54546063Y-76734774D01*
X54690226Y-76878937D01*
X54859744Y-76992205D01*
X55048102Y-77070226D01*
X55248061Y-77110000D01*
X55451939Y-77110000D01*
X55651898Y-77070226D01*
X55840256Y-76992205D01*
X56009774Y-76878937D01*
X56153937Y-76734774D01*
X56267205Y-76565256D01*
X56345226Y-76376898D01*
X56385000Y-76176939D01*
X56385000Y-75973061D01*
X56345226Y-75773102D01*
X56267205Y-75584744D01*
X56153937Y-75415226D01*
X56009774Y-75271063D01*
X55840256Y-75157795D01*
X55651898Y-75079774D01*
X55451939Y-75040000D01*
X55248061Y-75040000D01*
X55048102Y-75079774D01*
X54859744Y-75157795D01*
X54690226Y-75271063D01*
X54546063Y-75415226D01*
X54432795Y-75584744D01*
X54354774Y-75773102D01*
X54315000Y-75973061D01*
X53412572Y-75973061D01*
X53412572Y-75815000D01*
X53400312Y-75690518D01*
X53364002Y-75570820D01*
X53342183Y-75530000D01*
X53364002Y-75489180D01*
X53400312Y-75369482D01*
X53412572Y-75245000D01*
X53412572Y-74545000D01*
X53400312Y-74420518D01*
X53364002Y-74300820D01*
X53342183Y-74260000D01*
X53364002Y-74219180D01*
X53400312Y-74099482D01*
X53412572Y-73975000D01*
X53412572Y-73275000D01*
X53400312Y-73150518D01*
X53364002Y-73030820D01*
X53342183Y-72990000D01*
X53364002Y-72949180D01*
X53400312Y-72829482D01*
X53412572Y-72705000D01*
X53412572Y-72005000D01*
X53408140Y-71960000D01*
X54410199Y-71960000D01*
X56561201Y-74111003D01*
G37*
%TD.AperFunction*%
D17*
X72110498Y-80699180D02*
X72169463Y-80809494D01*
X72248815Y-80906185D01*
X72345506Y-80985537D01*
X72373740Y-81000629D01*
X72370153Y-81005000D01*
X71897322Y-81005000D01*
X71859999Y-81001324D01*
X71822676Y-81005000D01*
X71822667Y-81005000D01*
X71711014Y-81015997D01*
X71567753Y-81059454D01*
X71435724Y-81130026D01*
X71319999Y-81224999D01*
X71296201Y-81253997D01*
X70210000Y-82340198D01*
X70210000Y-81889801D01*
X71419803Y-80680000D01*
X72104680Y-80680000D01*
X72110498Y-80699180D01*
%TA.AperFunction,Conductor*%
D18*
G36*
X72110498Y-80699180D02*
G01*
X72169463Y-80809494D01*
X72248815Y-80906185D01*
X72345506Y-80985537D01*
X72373740Y-81000629D01*
X72370153Y-81005000D01*
X71897322Y-81005000D01*
X71859999Y-81001324D01*
X71822676Y-81005000D01*
X71822667Y-81005000D01*
X71711014Y-81015997D01*
X71567753Y-81059454D01*
X71435724Y-81130026D01*
X71319999Y-81224999D01*
X71296201Y-81253997D01*
X70210000Y-82340198D01*
X70210000Y-81889801D01*
X71419803Y-80680000D01*
X72104680Y-80680000D01*
X72110498Y-80699180D01*
G37*
%TD.AperFunction*%
D17*
X72110498Y-74699180D02*
X72169463Y-74809494D01*
X72248815Y-74906185D01*
X72345506Y-74985537D01*
X72455820Y-75044502D01*
X72575518Y-75080812D01*
X72662469Y-75089376D01*
X72581838Y-75132474D01*
X72403682Y-75278682D01*
X72339216Y-75357234D01*
X72301014Y-75360997D01*
X72157753Y-75404454D01*
X72025724Y-75475026D01*
X71909999Y-75569999D01*
X71886196Y-75599003D01*
X71713998Y-75771201D01*
X71685000Y-75794999D01*
X71661202Y-75823997D01*
X71661201Y-75823998D01*
X71590026Y-75910724D01*
X71519454Y-76042754D01*
X71509673Y-76075000D01*
X71475998Y-76186014D01*
X71465000Y-76297667D01*
X71465000Y-76297678D01*
X71461324Y-76335000D01*
X71465000Y-76372322D01*
X71465000Y-76904200D01*
X67956110Y-80413091D01*
X67940990Y-80376589D01*
X67778475Y-80133368D01*
X67571632Y-79926525D01*
X67397240Y-79810000D01*
X67571632Y-79693475D01*
X67778475Y-79486632D01*
X67940990Y-79243411D01*
X68052932Y-78973158D01*
X68110000Y-78686260D01*
X68110000Y-78393740D01*
X68066210Y-78173592D01*
X68311005Y-77928797D01*
X68340002Y-77905000D01*
X68434975Y-77789275D01*
X68505547Y-77657246D01*
X68549004Y-77513985D01*
X68560001Y-77402332D01*
X68560001Y-77402323D01*
X68563677Y-77365000D01*
X68560001Y-77327677D01*
X68560001Y-74739800D01*
X68619802Y-74680000D01*
X72104680Y-74680000D01*
X72110498Y-74699180D01*
%TA.AperFunction,Conductor*%
D18*
G36*
X72110498Y-74699180D02*
G01*
X72169463Y-74809494D01*
X72248815Y-74906185D01*
X72345506Y-74985537D01*
X72455820Y-75044502D01*
X72575518Y-75080812D01*
X72662469Y-75089376D01*
X72581838Y-75132474D01*
X72403682Y-75278682D01*
X72339216Y-75357234D01*
X72301014Y-75360997D01*
X72157753Y-75404454D01*
X72025724Y-75475026D01*
X71909999Y-75569999D01*
X71886196Y-75599003D01*
X71713998Y-75771201D01*
X71685000Y-75794999D01*
X71661202Y-75823997D01*
X71661201Y-75823998D01*
X71590026Y-75910724D01*
X71519454Y-76042754D01*
X71509673Y-76075000D01*
X71475998Y-76186014D01*
X71465000Y-76297667D01*
X71465000Y-76297678D01*
X71461324Y-76335000D01*
X71465000Y-76372322D01*
X71465000Y-76904200D01*
X67956110Y-80413091D01*
X67940990Y-80376589D01*
X67778475Y-80133368D01*
X67571632Y-79926525D01*
X67397240Y-79810000D01*
X67571632Y-79693475D01*
X67778475Y-79486632D01*
X67940990Y-79243411D01*
X68052932Y-78973158D01*
X68110000Y-78686260D01*
X68110000Y-78393740D01*
X68066210Y-78173592D01*
X68311005Y-77928797D01*
X68340002Y-77905000D01*
X68434975Y-77789275D01*
X68505547Y-77657246D01*
X68549004Y-77513985D01*
X68560001Y-77402332D01*
X68560001Y-77402323D01*
X68563677Y-77365000D01*
X68560001Y-77327677D01*
X68560001Y-74739800D01*
X68619802Y-74680000D01*
X72104680Y-74680000D01*
X72110498Y-74699180D01*
G37*
%TD.AperFunction*%
D17*
X72148831Y-70930094D02*
X72081929Y-71150640D01*
X72059339Y-71380000D01*
X72081929Y-71609360D01*
X72148831Y-71829906D01*
X72180952Y-71890000D01*
X69398392Y-71890000D01*
X70418392Y-70870000D01*
X72180952Y-70870000D01*
X72148831Y-70930094D01*
%TA.AperFunction,Conductor*%
D18*
G36*
X72148831Y-70930094D02*
G01*
X72081929Y-71150640D01*
X72059339Y-71380000D01*
X72081929Y-71609360D01*
X72148831Y-71829906D01*
X72180952Y-71890000D01*
X69398392Y-71890000D01*
X70418392Y-70870000D01*
X72180952Y-70870000D01*
X72148831Y-70930094D01*
G37*
%TD.AperFunction*%
%TD*%
M02*
