M48
; DRILL file {KiCad (5.1.12)-1} date 09/26/24 07:51:39
; FORMAT={-:-/ absolute / inch / decimal}
; #@! TF.CreationDate,2024-09-26T07:51:39+09:00
; #@! TF.GenerationSoftware,Kicad,Pcbnew,(5.1.12)-1
; #@! TF.FileFunction,Plated,1,2,PTH
FMAT,2
INCH
T1C0.0157
T2C0.0354
T3C0.0394
%
G90
G05
T1
X1.8957Y-2.8327
X1.9705Y-4.2087
X2.0039Y-3.0069
X2.0187Y-4.4793
X2.0226Y-4.3268
X2.0236Y-4.5768
X2.0246Y-3.998
X2.0246Y-4.627
X2.0256Y-4.0531
X2.0256Y-4.378
X2.0256Y-4.4281
X2.0256Y-4.5256
X2.0266Y-3.8494
X2.0276Y-3.8986
X2.0276Y-3.9498
X2.0276Y-4.7165
X2.0285Y-4.0984
X2.0285Y-4.1506
X2.0335Y-3.6811
X2.0354Y-3.1969
X2.0428Y-3.0486
X2.0915Y-3.0984
X2.0994Y-3.3258
X2.1073Y-3.7835
X2.1102Y-3.5276
X2.1112Y-4.3681
X2.122Y-3.1526
X2.125Y-2.8661
X2.1417Y-3.7018
X2.1437Y-3.5994
X2.1491Y-4.8996
X2.1511Y-4.8061
X2.1703Y-3.1024
X2.1713Y-3.4813
X2.1722Y-3.5226
X2.1791Y-2.9951
X2.1831Y-3.218
X2.186Y-3.2933
X2.186Y-3.5827
X2.2028Y-3.4449
X2.2146Y-3.6341
X2.2156Y-4.2726
X2.2323Y-3.5285
X2.2343Y-2.811
X2.236Y-4.2036
X2.252Y-4.4823
X2.2549Y-3.0079
X2.2608Y-3.3907
X2.2628Y-3.2293
X2.2835Y-4.9213
X2.3027Y-4.3376
X2.3031Y-4.2657
X2.3061Y-4.1476
X2.3068Y-3.8498
X2.3214Y-3.0486
X2.3214Y-3.0986
X2.3219Y-2.9528
X2.3238Y-3.2559
X2.3243Y-3.4073
X2.3243Y-3.5073
X2.3243Y-3.5573
X2.3258Y-3.4616
X2.3287Y-3.7766
X2.3504Y-4.7372
X2.3514Y-4.2805
X2.3642Y-4.3415
X2.3799Y-4.5472
X2.3819Y-3.9478
X2.4321Y-2.8287
X2.4596Y-2.9035
X2.4852Y-3.7401
X2.6476Y-2.6457
X2.7156Y-4.3012
X2.7274Y-3.0551
X2.7441Y-2.9921
X2.7461Y-4.4695
X2.7667Y-4.0226
X2.7904Y-2.8159
X2.8051Y-4.4665
X2.8061Y-4.5453
X2.8061Y-4.7707
X2.8081Y-4.1014
X2.811Y-4.7185
X2.812Y-4.2441
X2.8179Y-3.8858
X2.8189Y-4.3179
X2.8219Y-3.188
X2.8268Y-3.2785
X2.9734Y-3.7854
X2.9892Y-3.3396
X2.9892Y-3.5719
X2.997Y-3.938
X2.999Y-4.5591
X3.0089Y-4.4213
X3.0148Y-2.8986
X3.0256Y-2.6191
X3.0419Y-3.8313
X3.0433Y-3.1191
X3.0463Y-4.6939
X3.0512Y-4.9941
X3.064Y-4.1102
X3.0669Y-3.6752
X3.0699Y-4.249
X3.0827Y-4.3297
X3.0896Y-3.3445
X3.0994Y-4.4665
X3.1083Y-3.873
X3.1132Y-3.8346
X3.1201Y-5.1211
X3.1634Y-2.7224
T2
X2.8976Y-2.7602
X2.8976Y-2.8102
X2.8976Y-2.8602
X2.8976Y-2.9102
X2.8976Y-2.9965
X2.8976Y-3.0465
X2.8976Y-3.0965
X2.8976Y-3.1465
X2.8976Y-3.4425
X2.8976Y-3.4925
X2.8976Y-3.5425
X2.8976Y-3.5925
X2.8976Y-3.89
X2.8976Y-3.94
X2.8976Y-3.99
X2.8976Y-4.04
X2.8976Y-5.0252
X2.8976Y-5.0752
X2.8976Y-5.1252
X2.8976Y-5.1752
X2.8986Y-3.2191
X2.8986Y-3.2691
X2.8986Y-3.3191
X2.8986Y-3.3691
X2.8986Y-3.6646
X2.8986Y-3.7146
X2.8986Y-3.7646
X2.8986Y-3.8146
X2.8986Y-4.1118
X2.8986Y-4.1618
X2.8986Y-4.2118
X2.8986Y-4.2618
X2.8986Y-4.7919
X2.8986Y-4.8419
X2.8986Y-4.8919
X2.8986Y-4.9419
X2.9006Y-4.3341
X2.9006Y-4.3841
X2.9006Y-4.4341
X2.9006Y-4.4841
X2.9026Y-4.5675
X2.9026Y-4.6175
X2.9026Y-4.6675
X2.9026Y-4.7175
T3
X1.8937Y-2.9921
X1.8937Y-3.0921
X1.8937Y-3.1921
X1.8937Y-3.2921
X1.8937Y-3.3921
X1.8937Y-3.4921
X1.8937Y-3.5921
X1.8937Y-3.6921
X1.8937Y-3.7921
X1.8937Y-3.8921
X1.8937Y-3.9921
X1.8937Y-4.0921
X1.8937Y-4.1921
X1.8937Y-4.2921
X1.8937Y-4.3921
X1.8937Y-4.4921
X1.8937Y-4.5921
X1.8937Y-4.6921
X1.8937Y-4.7921
X1.8937Y-4.8921
X1.9646Y-2.7057
X2.0646Y-2.7057
X2.1646Y-2.7057
X2.2646Y-2.7057
X2.3646Y-2.7057
X2.44Y-2.9921
X2.44Y-3.0921
X2.44Y-3.1921
X2.44Y-3.2921
X2.44Y-3.3921
X2.44Y-3.4921
X2.44Y-3.5921
X2.44Y-3.6921
X2.44Y-3.7921
X2.44Y-3.8921
X2.44Y-3.9921
X2.44Y-4.0921
X2.44Y-4.1921
X2.44Y-4.2921
X2.44Y-4.3921
X2.44Y-4.4921
X2.44Y-4.5921
X2.44Y-4.6921
X2.44Y-4.7921
X2.44Y-4.8921
X2.623Y-2.9921
X2.623Y-3.0921
X2.623Y-3.1921
X2.623Y-3.2921
X2.623Y-3.3921
X2.623Y-3.4921
X2.623Y-3.5921
X2.623Y-3.6921
X2.623Y-3.7921
X2.623Y-3.8921
X2.623Y-3.9921
X2.623Y-4.0921
X2.623Y-4.1921
X2.623Y-4.2921
X2.623Y-4.3921
X2.623Y-4.4921
X2.623Y-4.5921
X2.623Y-4.6921
X2.623Y-4.7921
X2.623Y-4.8921
X3.1713Y-2.9921
X3.1713Y-3.0921
X3.1713Y-3.1921
X3.1713Y-3.2921
X3.1713Y-3.3921
X3.1713Y-3.4921
X3.1713Y-3.5921
X3.1713Y-3.6921
X3.1713Y-3.7921
X3.1713Y-3.8921
X3.1713Y-3.9921
X3.1713Y-4.0921
X3.1713Y-4.1921
X3.1713Y-4.2921
X3.1713Y-4.3921
X3.1713Y-4.4921
X3.1713Y-4.5921
X3.1713Y-4.6921
X3.1713Y-4.7921
X3.1713Y-4.8921
T0
M30
