%TF.GenerationSoftware,KiCad,Pcbnew,(5.1.12)-1*%
%TF.CreationDate,2024-02-12T03:14:50+09:00*%
%TF.ProjectId,imu_led_connect,696d755f-6c65-4645-9f63-6f6e6e656374,rev?*%
%TF.SameCoordinates,Original*%
%TF.FileFunction,Legend,Top*%
%TF.FilePolarity,Positive*%
%FSLAX46Y46*%
G04 Gerber Fmt 4.6, Leading zero omitted, Abs format (unit mm)*
G04 Created by KiCad (PCBNEW (5.1.12)-1) date 2024-02-12 03:14:50*
%MOMM*%
%LPD*%
G01*
G04 APERTURE LIST*
%ADD10C,0.300000*%
%ADD11C,0.120000*%
%ADD12C,0.100000*%
%ADD13C,0.150000*%
%ADD14C,0.254000*%
G04 APERTURE END LIST*
D10*
X133146428Y-92503571D02*
X133146428Y-91003571D01*
X133146428Y-91717857D02*
X134003571Y-91717857D01*
X134003571Y-92503571D02*
X134003571Y-91003571D01*
X116996428Y-95353571D02*
X116996428Y-93853571D01*
X116996428Y-94567857D02*
X117853571Y-94567857D01*
X117853571Y-95353571D02*
X117853571Y-93853571D01*
X117764285Y-92503571D02*
X117050000Y-92503571D01*
X117050000Y-91003571D01*
X133889285Y-95103571D02*
X133175000Y-95103571D01*
X133175000Y-93603571D01*
X96164285Y-109503571D02*
X95450000Y-109503571D01*
X95450000Y-108003571D01*
X98246428Y-109403571D02*
X98246428Y-107903571D01*
X98246428Y-108617857D02*
X99103571Y-108617857D01*
X99103571Y-109403571D02*
X99103571Y-107903571D01*
X133614285Y-64253571D02*
X132900000Y-64253571D01*
X132900000Y-62753571D01*
X132871428Y-61653571D02*
X132871428Y-60153571D01*
X132871428Y-60867857D02*
X133728571Y-60867857D01*
X133728571Y-61653571D02*
X133728571Y-60153571D01*
X116721428Y-64503571D02*
X116721428Y-63003571D01*
X116721428Y-63717857D02*
X117578571Y-63717857D01*
X117578571Y-64503571D02*
X117578571Y-63003571D01*
X117489285Y-61653571D02*
X116775000Y-61653571D01*
X116775000Y-60153571D01*
D11*
%TO.C,J20*%
X113745000Y-95630000D02*
X116405000Y-95630000D01*
X113745000Y-93030000D02*
X113745000Y-95630000D01*
X116405000Y-93030000D02*
X116405000Y-95630000D01*
X113745000Y-93030000D02*
X116405000Y-93030000D01*
X113745000Y-91760000D02*
X113745000Y-90430000D01*
X113745000Y-90430000D02*
X115075000Y-90430000D01*
%TO.C,J24*%
X137505000Y-90520000D02*
X134845000Y-90520000D01*
X137505000Y-93120000D02*
X137505000Y-90520000D01*
X134845000Y-93120000D02*
X134845000Y-90520000D01*
X137505000Y-93120000D02*
X134845000Y-93120000D01*
X137505000Y-94390000D02*
X137505000Y-95720000D01*
X137505000Y-95720000D02*
X136175000Y-95720000D01*
D12*
%TO.C,J1*%
X97130000Y-100250000D02*
X88330000Y-100250000D01*
X97130000Y-79930000D02*
X97130000Y-100250000D01*
X88330000Y-79930000D02*
X97130000Y-79930000D01*
X88330000Y-100250000D02*
X88330000Y-79930000D01*
D11*
%TO.C,J19*%
X87580000Y-86755000D02*
X84920000Y-86755000D01*
X87580000Y-89355000D02*
X87580000Y-86755000D01*
X84920000Y-89355000D02*
X84920000Y-86755000D01*
X87580000Y-89355000D02*
X84920000Y-89355000D01*
X87580000Y-90625000D02*
X87580000Y-91955000D01*
X87580000Y-91955000D02*
X86250000Y-91955000D01*
D12*
%TO.C,J4*%
X125795000Y-96825000D02*
X125795000Y-76505000D01*
X125795000Y-76505000D02*
X134595000Y-76505000D01*
X134595000Y-76505000D02*
X134595000Y-96825000D01*
X134595000Y-96825000D02*
X125795000Y-96825000D01*
%TO.C,J6*%
X116355000Y-96880000D02*
X116355000Y-76560000D01*
X116355000Y-76560000D02*
X125155000Y-76560000D01*
X125155000Y-76560000D02*
X125155000Y-96880000D01*
X125155000Y-96880000D02*
X116355000Y-96880000D01*
%TO.C,J3*%
X106580000Y-100200000D02*
X97780000Y-100200000D01*
X106580000Y-79880000D02*
X106580000Y-100200000D01*
X97780000Y-79880000D02*
X106580000Y-79880000D01*
X97780000Y-100200000D02*
X97780000Y-79880000D01*
D11*
%TO.C,J18*%
X70220000Y-122920000D02*
X71550000Y-122920000D01*
X70220000Y-124250000D02*
X70220000Y-122920000D01*
X70220000Y-125520000D02*
X72880000Y-125520000D01*
X72880000Y-125520000D02*
X72880000Y-128120000D01*
X70220000Y-125520000D02*
X70220000Y-128120000D01*
X70220000Y-128120000D02*
X72880000Y-128120000D01*
%TO.C,J17*%
X70195000Y-114705000D02*
X71525000Y-114705000D01*
X70195000Y-116035000D02*
X70195000Y-114705000D01*
X70195000Y-117305000D02*
X72855000Y-117305000D01*
X72855000Y-117305000D02*
X72855000Y-119905000D01*
X70195000Y-117305000D02*
X70195000Y-119905000D01*
X70195000Y-119905000D02*
X72855000Y-119905000D01*
%TO.C,J16*%
X70320000Y-106555000D02*
X71650000Y-106555000D01*
X70320000Y-107885000D02*
X70320000Y-106555000D01*
X70320000Y-109155000D02*
X72980000Y-109155000D01*
X72980000Y-109155000D02*
X72980000Y-111755000D01*
X70320000Y-109155000D02*
X70320000Y-111755000D01*
X70320000Y-111755000D02*
X72980000Y-111755000D01*
%TO.C,J15*%
X70445000Y-98020000D02*
X71775000Y-98020000D01*
X70445000Y-99350000D02*
X70445000Y-98020000D01*
X70445000Y-100620000D02*
X73105000Y-100620000D01*
X73105000Y-100620000D02*
X73105000Y-103220000D01*
X70445000Y-100620000D02*
X70445000Y-103220000D01*
X70445000Y-103220000D02*
X73105000Y-103220000D01*
%TO.C,J14*%
X70445000Y-81545000D02*
X71775000Y-81545000D01*
X70445000Y-82875000D02*
X70445000Y-81545000D01*
X70445000Y-84145000D02*
X73105000Y-84145000D01*
X73105000Y-84145000D02*
X73105000Y-86745000D01*
X70445000Y-84145000D02*
X70445000Y-86745000D01*
X70445000Y-86745000D02*
X73105000Y-86745000D01*
%TO.C,J13*%
X69495000Y-69455000D02*
X69495000Y-68125000D01*
X70825000Y-69455000D02*
X69495000Y-69455000D01*
X72095000Y-69455000D02*
X72095000Y-66795000D01*
X72095000Y-66795000D02*
X74695000Y-66795000D01*
X72095000Y-69455000D02*
X74695000Y-69455000D01*
X74695000Y-69455000D02*
X74695000Y-66795000D01*
%TO.C,J12*%
X70495000Y-73455000D02*
X71825000Y-73455000D01*
X70495000Y-74785000D02*
X70495000Y-73455000D01*
X70495000Y-76055000D02*
X73155000Y-76055000D01*
X73155000Y-76055000D02*
X73155000Y-78655000D01*
X70495000Y-76055000D02*
X70495000Y-78655000D01*
X70495000Y-78655000D02*
X73155000Y-78655000D01*
%TO.C,J11*%
X70295000Y-89695000D02*
X71625000Y-89695000D01*
X70295000Y-91025000D02*
X70295000Y-89695000D01*
X70295000Y-92295000D02*
X72955000Y-92295000D01*
X72955000Y-92295000D02*
X72955000Y-94895000D01*
X70295000Y-92295000D02*
X70295000Y-94895000D01*
X70295000Y-94895000D02*
X72955000Y-94895000D01*
D12*
%TO.C,J8*%
X47226000Y-82975000D02*
X45276000Y-82975000D01*
X45276000Y-82975000D02*
X45276000Y-73075000D01*
X45276000Y-73075000D02*
X47226000Y-73075000D01*
X49726000Y-82975000D02*
X59225000Y-82975000D01*
X59225000Y-82975000D02*
X59225000Y-82025000D01*
X59225000Y-74025000D02*
X59225000Y-73075000D01*
X59225000Y-73075000D02*
X49726000Y-73075000D01*
%TO.C,J7*%
X47226000Y-97400000D02*
X45276000Y-97400000D01*
X45276000Y-97400000D02*
X45276000Y-87500000D01*
X45276000Y-87500000D02*
X47226000Y-87500000D01*
X49726000Y-97400000D02*
X59225000Y-97400000D01*
X59225000Y-97400000D02*
X59225000Y-96450000D01*
X59225000Y-88450000D02*
X59225000Y-87500000D01*
X59225000Y-87500000D02*
X49726000Y-87500000D01*
%TO.C,J5*%
X47226000Y-126600000D02*
X45276000Y-126600000D01*
X45276000Y-126600000D02*
X45276000Y-116700000D01*
X45276000Y-116700000D02*
X47226000Y-116700000D01*
X49726000Y-126600000D02*
X59225000Y-126600000D01*
X59225000Y-126600000D02*
X59225000Y-125650000D01*
X59225000Y-117650000D02*
X59225000Y-116700000D01*
X59225000Y-116700000D02*
X49726000Y-116700000D01*
%TO.C,J2*%
X47238000Y-112000000D02*
X45288000Y-112000000D01*
X45288000Y-112000000D02*
X45288000Y-102100000D01*
X45288000Y-102100000D02*
X47238000Y-102100000D01*
X49738000Y-112000000D02*
X59237000Y-112000000D01*
X59237000Y-112000000D02*
X59237000Y-111050000D01*
X59237000Y-103050000D02*
X59237000Y-102100000D01*
X59237000Y-102100000D02*
X49738000Y-102100000D01*
D11*
%TO.C,J24*%
X137230000Y-64870000D02*
X135900000Y-64870000D01*
X137230000Y-63540000D02*
X137230000Y-64870000D01*
X137230000Y-62270000D02*
X134570000Y-62270000D01*
X134570000Y-62270000D02*
X134570000Y-59670000D01*
X137230000Y-62270000D02*
X137230000Y-59670000D01*
X137230000Y-59670000D02*
X134570000Y-59670000D01*
D12*
%TO.C,J3*%
X97505000Y-69350000D02*
X97505000Y-49030000D01*
X97505000Y-49030000D02*
X106305000Y-49030000D01*
X106305000Y-49030000D02*
X106305000Y-69350000D01*
X106305000Y-69350000D02*
X97505000Y-69350000D01*
D11*
%TO.C,J21*%
X94495000Y-112880000D02*
X94495000Y-111550000D01*
X95825000Y-112880000D02*
X94495000Y-112880000D01*
X97095000Y-112880000D02*
X97095000Y-110220000D01*
X97095000Y-110220000D02*
X99695000Y-110220000D01*
X97095000Y-112880000D02*
X99695000Y-112880000D01*
X99695000Y-112880000D02*
X99695000Y-110220000D01*
%TO.C,J20*%
X113470000Y-59580000D02*
X114800000Y-59580000D01*
X113470000Y-60910000D02*
X113470000Y-59580000D01*
X113470000Y-62180000D02*
X116130000Y-62180000D01*
X116130000Y-62180000D02*
X116130000Y-64780000D01*
X113470000Y-62180000D02*
X113470000Y-64780000D01*
X113470000Y-64780000D02*
X116130000Y-64780000D01*
%TO.C,J19*%
X87305000Y-61105000D02*
X85975000Y-61105000D01*
X87305000Y-59775000D02*
X87305000Y-61105000D01*
X87305000Y-58505000D02*
X84645000Y-58505000D01*
X84645000Y-58505000D02*
X84645000Y-55905000D01*
X87305000Y-58505000D02*
X87305000Y-55905000D01*
X87305000Y-55905000D02*
X84645000Y-55905000D01*
D12*
%TO.C,J10*%
X102430000Y-136130000D02*
X93630000Y-136130000D01*
X102430000Y-115810000D02*
X102430000Y-136130000D01*
X93630000Y-115810000D02*
X102430000Y-115810000D01*
X93630000Y-136130000D02*
X93630000Y-115810000D01*
%TO.C,J9*%
X111780000Y-136130000D02*
X102980000Y-136130000D01*
X111780000Y-115810000D02*
X111780000Y-136130000D01*
X102980000Y-115810000D02*
X111780000Y-115810000D01*
X102980000Y-136130000D02*
X102980000Y-115810000D01*
%TO.C,J6*%
X124880000Y-66030000D02*
X116080000Y-66030000D01*
X124880000Y-45710000D02*
X124880000Y-66030000D01*
X116080000Y-45710000D02*
X124880000Y-45710000D01*
X116080000Y-66030000D02*
X116080000Y-45710000D01*
%TO.C,J4*%
X134320000Y-65975000D02*
X125520000Y-65975000D01*
X134320000Y-45655000D02*
X134320000Y-65975000D01*
X125520000Y-45655000D02*
X134320000Y-45655000D01*
X125520000Y-65975000D02*
X125520000Y-45655000D01*
%TO.C,J1*%
X88055000Y-69400000D02*
X88055000Y-49080000D01*
X88055000Y-49080000D02*
X96855000Y-49080000D01*
X96855000Y-49080000D02*
X96855000Y-69400000D01*
X96855000Y-69400000D02*
X88055000Y-69400000D01*
%TO.C,J20*%
D13*
X114265476Y-88882380D02*
X114265476Y-89596666D01*
X114217857Y-89739523D01*
X114122619Y-89834761D01*
X113979761Y-89882380D01*
X113884523Y-89882380D01*
X114694047Y-88977619D02*
X114741666Y-88930000D01*
X114836904Y-88882380D01*
X115075000Y-88882380D01*
X115170238Y-88930000D01*
X115217857Y-88977619D01*
X115265476Y-89072857D01*
X115265476Y-89168095D01*
X115217857Y-89310952D01*
X114646428Y-89882380D01*
X115265476Y-89882380D01*
X115884523Y-88882380D02*
X115979761Y-88882380D01*
X116075000Y-88930000D01*
X116122619Y-88977619D01*
X116170238Y-89072857D01*
X116217857Y-89263333D01*
X116217857Y-89501428D01*
X116170238Y-89691904D01*
X116122619Y-89787142D01*
X116075000Y-89834761D01*
X115979761Y-89882380D01*
X115884523Y-89882380D01*
X115789285Y-89834761D01*
X115741666Y-89787142D01*
X115694047Y-89691904D01*
X115646428Y-89501428D01*
X115646428Y-89263333D01*
X115694047Y-89072857D01*
X115741666Y-88977619D01*
X115789285Y-88930000D01*
X115884523Y-88882380D01*
%TO.C,H7*%
X121888095Y-97127380D02*
X121888095Y-96127380D01*
X121888095Y-96603571D02*
X122459523Y-96603571D01*
X122459523Y-97127380D02*
X122459523Y-96127380D01*
X122840476Y-96127380D02*
X123507142Y-96127380D01*
X123078571Y-97127380D01*
%TO.C,J24*%
X135365476Y-96172380D02*
X135365476Y-96886666D01*
X135317857Y-97029523D01*
X135222619Y-97124761D01*
X135079761Y-97172380D01*
X134984523Y-97172380D01*
X135794047Y-96267619D02*
X135841666Y-96220000D01*
X135936904Y-96172380D01*
X136175000Y-96172380D01*
X136270238Y-96220000D01*
X136317857Y-96267619D01*
X136365476Y-96362857D01*
X136365476Y-96458095D01*
X136317857Y-96600952D01*
X135746428Y-97172380D01*
X136365476Y-97172380D01*
X137222619Y-96505714D02*
X137222619Y-97172380D01*
X136984523Y-96124761D02*
X136746428Y-96839047D01*
X137365476Y-96839047D01*
%TO.C,J1*%
D14*
X92034523Y-90513333D02*
X92941666Y-90513333D01*
X93123095Y-90573809D01*
X93244047Y-90694761D01*
X93304523Y-90876190D01*
X93304523Y-90997142D01*
X93304523Y-89243333D02*
X93304523Y-89969047D01*
X93304523Y-89606190D02*
X92034523Y-89606190D01*
X92215952Y-89727142D01*
X92336904Y-89848095D01*
X92397380Y-89969047D01*
%TO.C,J19*%
D13*
X85440476Y-92407380D02*
X85440476Y-93121666D01*
X85392857Y-93264523D01*
X85297619Y-93359761D01*
X85154761Y-93407380D01*
X85059523Y-93407380D01*
X86440476Y-93407380D02*
X85869047Y-93407380D01*
X86154761Y-93407380D02*
X86154761Y-92407380D01*
X86059523Y-92550238D01*
X85964285Y-92645476D01*
X85869047Y-92693095D01*
X86916666Y-93407380D02*
X87107142Y-93407380D01*
X87202380Y-93359761D01*
X87250000Y-93312142D01*
X87345238Y-93169285D01*
X87392857Y-92978809D01*
X87392857Y-92597857D01*
X87345238Y-92502619D01*
X87297619Y-92455000D01*
X87202380Y-92407380D01*
X87011904Y-92407380D01*
X86916666Y-92455000D01*
X86869047Y-92502619D01*
X86821428Y-92597857D01*
X86821428Y-92835952D01*
X86869047Y-92931190D01*
X86916666Y-92978809D01*
X87011904Y-93026428D01*
X87202380Y-93026428D01*
X87297619Y-92978809D01*
X87345238Y-92931190D01*
X87392857Y-92835952D01*
%TO.C,J4*%
D14*
X129499523Y-87088333D02*
X130406666Y-87088333D01*
X130588095Y-87148809D01*
X130709047Y-87269761D01*
X130769523Y-87451190D01*
X130769523Y-87572142D01*
X129922857Y-85939285D02*
X130769523Y-85939285D01*
X129439047Y-86241666D02*
X130346190Y-86544047D01*
X130346190Y-85757857D01*
%TO.C,J6*%
X120059523Y-87143333D02*
X120966666Y-87143333D01*
X121148095Y-87203809D01*
X121269047Y-87324761D01*
X121329523Y-87506190D01*
X121329523Y-87627142D01*
X120059523Y-85994285D02*
X120059523Y-86236190D01*
X120120000Y-86357142D01*
X120180476Y-86417619D01*
X120361904Y-86538571D01*
X120603809Y-86599047D01*
X121087619Y-86599047D01*
X121208571Y-86538571D01*
X121269047Y-86478095D01*
X121329523Y-86357142D01*
X121329523Y-86115238D01*
X121269047Y-85994285D01*
X121208571Y-85933809D01*
X121087619Y-85873333D01*
X120785238Y-85873333D01*
X120664285Y-85933809D01*
X120603809Y-85994285D01*
X120543333Y-86115238D01*
X120543333Y-86357142D01*
X120603809Y-86478095D01*
X120664285Y-86538571D01*
X120785238Y-86599047D01*
%TO.C,H8*%
D13*
X115763095Y-97152380D02*
X115763095Y-96152380D01*
X115763095Y-96628571D02*
X116334523Y-96628571D01*
X116334523Y-97152380D02*
X116334523Y-96152380D01*
X116953571Y-96580952D02*
X116858333Y-96533333D01*
X116810714Y-96485714D01*
X116763095Y-96390476D01*
X116763095Y-96342857D01*
X116810714Y-96247619D01*
X116858333Y-96200000D01*
X116953571Y-96152380D01*
X117144047Y-96152380D01*
X117239285Y-96200000D01*
X117286904Y-96247619D01*
X117334523Y-96342857D01*
X117334523Y-96390476D01*
X117286904Y-96485714D01*
X117239285Y-96533333D01*
X117144047Y-96580952D01*
X116953571Y-96580952D01*
X116858333Y-96628571D01*
X116810714Y-96676190D01*
X116763095Y-96771428D01*
X116763095Y-96961904D01*
X116810714Y-97057142D01*
X116858333Y-97104761D01*
X116953571Y-97152380D01*
X117144047Y-97152380D01*
X117239285Y-97104761D01*
X117286904Y-97057142D01*
X117334523Y-96961904D01*
X117334523Y-96771428D01*
X117286904Y-96676190D01*
X117239285Y-96628571D01*
X117144047Y-96580952D01*
%TO.C,J3*%
D14*
X101484523Y-90463333D02*
X102391666Y-90463333D01*
X102573095Y-90523809D01*
X102694047Y-90644761D01*
X102754523Y-90826190D01*
X102754523Y-90947142D01*
X101484523Y-89979523D02*
X101484523Y-89193333D01*
X101968333Y-89616666D01*
X101968333Y-89435238D01*
X102028809Y-89314285D01*
X102089285Y-89253809D01*
X102210238Y-89193333D01*
X102512619Y-89193333D01*
X102633571Y-89253809D01*
X102694047Y-89314285D01*
X102754523Y-89435238D01*
X102754523Y-89798095D01*
X102694047Y-89919047D01*
X102633571Y-89979523D01*
%TO.C,H1*%
D13*
X92238095Y-77102380D02*
X92238095Y-76102380D01*
X92238095Y-76578571D02*
X92809523Y-76578571D01*
X92809523Y-77102380D02*
X92809523Y-76102380D01*
X93809523Y-77102380D02*
X93238095Y-77102380D01*
X93523809Y-77102380D02*
X93523809Y-76102380D01*
X93428571Y-76245238D01*
X93333333Y-76340476D01*
X93238095Y-76388095D01*
%TO.C,H5*%
X133938095Y-97002380D02*
X133938095Y-96002380D01*
X133938095Y-96478571D02*
X134509523Y-96478571D01*
X134509523Y-97002380D02*
X134509523Y-96002380D01*
X135461904Y-96002380D02*
X134985714Y-96002380D01*
X134938095Y-96478571D01*
X134985714Y-96430952D01*
X135080952Y-96383333D01*
X135319047Y-96383333D01*
X135414285Y-96430952D01*
X135461904Y-96478571D01*
X135509523Y-96573809D01*
X135509523Y-96811904D01*
X135461904Y-96907142D01*
X135414285Y-96954761D01*
X135319047Y-97002380D01*
X135080952Y-97002380D01*
X134985714Y-96954761D01*
X134938095Y-96907142D01*
%TO.C,H6*%
X127888095Y-97127380D02*
X127888095Y-96127380D01*
X127888095Y-96603571D02*
X128459523Y-96603571D01*
X128459523Y-97127380D02*
X128459523Y-96127380D01*
X129364285Y-96127380D02*
X129173809Y-96127380D01*
X129078571Y-96175000D01*
X129030952Y-96222619D01*
X128935714Y-96365476D01*
X128888095Y-96555952D01*
X128888095Y-96936904D01*
X128935714Y-97032142D01*
X128983333Y-97079761D01*
X129078571Y-97127380D01*
X129269047Y-97127380D01*
X129364285Y-97079761D01*
X129411904Y-97032142D01*
X129459523Y-96936904D01*
X129459523Y-96698809D01*
X129411904Y-96603571D01*
X129364285Y-96555952D01*
X129269047Y-96508333D01*
X129078571Y-96508333D01*
X128983333Y-96555952D01*
X128935714Y-96603571D01*
X128888095Y-96698809D01*
%TO.C,H2*%
X102238095Y-77152380D02*
X102238095Y-76152380D01*
X102238095Y-76628571D02*
X102809523Y-76628571D01*
X102809523Y-77152380D02*
X102809523Y-76152380D01*
X103238095Y-76247619D02*
X103285714Y-76200000D01*
X103380952Y-76152380D01*
X103619047Y-76152380D01*
X103714285Y-76200000D01*
X103761904Y-76247619D01*
X103809523Y-76342857D01*
X103809523Y-76438095D01*
X103761904Y-76580952D01*
X103190476Y-77152380D01*
X103809523Y-77152380D01*
%TO.C,J18*%
X70740476Y-121372380D02*
X70740476Y-122086666D01*
X70692857Y-122229523D01*
X70597619Y-122324761D01*
X70454761Y-122372380D01*
X70359523Y-122372380D01*
X71740476Y-122372380D02*
X71169047Y-122372380D01*
X71454761Y-122372380D02*
X71454761Y-121372380D01*
X71359523Y-121515238D01*
X71264285Y-121610476D01*
X71169047Y-121658095D01*
X72311904Y-121800952D02*
X72216666Y-121753333D01*
X72169047Y-121705714D01*
X72121428Y-121610476D01*
X72121428Y-121562857D01*
X72169047Y-121467619D01*
X72216666Y-121420000D01*
X72311904Y-121372380D01*
X72502380Y-121372380D01*
X72597619Y-121420000D01*
X72645238Y-121467619D01*
X72692857Y-121562857D01*
X72692857Y-121610476D01*
X72645238Y-121705714D01*
X72597619Y-121753333D01*
X72502380Y-121800952D01*
X72311904Y-121800952D01*
X72216666Y-121848571D01*
X72169047Y-121896190D01*
X72121428Y-121991428D01*
X72121428Y-122181904D01*
X72169047Y-122277142D01*
X72216666Y-122324761D01*
X72311904Y-122372380D01*
X72502380Y-122372380D01*
X72597619Y-122324761D01*
X72645238Y-122277142D01*
X72692857Y-122181904D01*
X72692857Y-121991428D01*
X72645238Y-121896190D01*
X72597619Y-121848571D01*
X72502380Y-121800952D01*
%TO.C,J17*%
X70715476Y-113157380D02*
X70715476Y-113871666D01*
X70667857Y-114014523D01*
X70572619Y-114109761D01*
X70429761Y-114157380D01*
X70334523Y-114157380D01*
X71715476Y-114157380D02*
X71144047Y-114157380D01*
X71429761Y-114157380D02*
X71429761Y-113157380D01*
X71334523Y-113300238D01*
X71239285Y-113395476D01*
X71144047Y-113443095D01*
X72048809Y-113157380D02*
X72715476Y-113157380D01*
X72286904Y-114157380D01*
%TO.C,J16*%
X70840476Y-105007380D02*
X70840476Y-105721666D01*
X70792857Y-105864523D01*
X70697619Y-105959761D01*
X70554761Y-106007380D01*
X70459523Y-106007380D01*
X71840476Y-106007380D02*
X71269047Y-106007380D01*
X71554761Y-106007380D02*
X71554761Y-105007380D01*
X71459523Y-105150238D01*
X71364285Y-105245476D01*
X71269047Y-105293095D01*
X72697619Y-105007380D02*
X72507142Y-105007380D01*
X72411904Y-105055000D01*
X72364285Y-105102619D01*
X72269047Y-105245476D01*
X72221428Y-105435952D01*
X72221428Y-105816904D01*
X72269047Y-105912142D01*
X72316666Y-105959761D01*
X72411904Y-106007380D01*
X72602380Y-106007380D01*
X72697619Y-105959761D01*
X72745238Y-105912142D01*
X72792857Y-105816904D01*
X72792857Y-105578809D01*
X72745238Y-105483571D01*
X72697619Y-105435952D01*
X72602380Y-105388333D01*
X72411904Y-105388333D01*
X72316666Y-105435952D01*
X72269047Y-105483571D01*
X72221428Y-105578809D01*
%TO.C,J15*%
X70965476Y-96472380D02*
X70965476Y-97186666D01*
X70917857Y-97329523D01*
X70822619Y-97424761D01*
X70679761Y-97472380D01*
X70584523Y-97472380D01*
X71965476Y-97472380D02*
X71394047Y-97472380D01*
X71679761Y-97472380D02*
X71679761Y-96472380D01*
X71584523Y-96615238D01*
X71489285Y-96710476D01*
X71394047Y-96758095D01*
X72870238Y-96472380D02*
X72394047Y-96472380D01*
X72346428Y-96948571D01*
X72394047Y-96900952D01*
X72489285Y-96853333D01*
X72727380Y-96853333D01*
X72822619Y-96900952D01*
X72870238Y-96948571D01*
X72917857Y-97043809D01*
X72917857Y-97281904D01*
X72870238Y-97377142D01*
X72822619Y-97424761D01*
X72727380Y-97472380D01*
X72489285Y-97472380D01*
X72394047Y-97424761D01*
X72346428Y-97377142D01*
%TO.C,J14*%
X70965476Y-79997380D02*
X70965476Y-80711666D01*
X70917857Y-80854523D01*
X70822619Y-80949761D01*
X70679761Y-80997380D01*
X70584523Y-80997380D01*
X71965476Y-80997380D02*
X71394047Y-80997380D01*
X71679761Y-80997380D02*
X71679761Y-79997380D01*
X71584523Y-80140238D01*
X71489285Y-80235476D01*
X71394047Y-80283095D01*
X72822619Y-80330714D02*
X72822619Y-80997380D01*
X72584523Y-79949761D02*
X72346428Y-80664047D01*
X72965476Y-80664047D01*
%TO.C,J13*%
X67947380Y-68934523D02*
X68661666Y-68934523D01*
X68804523Y-68982142D01*
X68899761Y-69077380D01*
X68947380Y-69220238D01*
X68947380Y-69315476D01*
X68947380Y-67934523D02*
X68947380Y-68505952D01*
X68947380Y-68220238D02*
X67947380Y-68220238D01*
X68090238Y-68315476D01*
X68185476Y-68410714D01*
X68233095Y-68505952D01*
X67947380Y-67601190D02*
X67947380Y-66982142D01*
X68328333Y-67315476D01*
X68328333Y-67172619D01*
X68375952Y-67077380D01*
X68423571Y-67029761D01*
X68518809Y-66982142D01*
X68756904Y-66982142D01*
X68852142Y-67029761D01*
X68899761Y-67077380D01*
X68947380Y-67172619D01*
X68947380Y-67458333D01*
X68899761Y-67553571D01*
X68852142Y-67601190D01*
%TO.C,J12*%
X71015476Y-71907380D02*
X71015476Y-72621666D01*
X70967857Y-72764523D01*
X70872619Y-72859761D01*
X70729761Y-72907380D01*
X70634523Y-72907380D01*
X72015476Y-72907380D02*
X71444047Y-72907380D01*
X71729761Y-72907380D02*
X71729761Y-71907380D01*
X71634523Y-72050238D01*
X71539285Y-72145476D01*
X71444047Y-72193095D01*
X72396428Y-72002619D02*
X72444047Y-71955000D01*
X72539285Y-71907380D01*
X72777380Y-71907380D01*
X72872619Y-71955000D01*
X72920238Y-72002619D01*
X72967857Y-72097857D01*
X72967857Y-72193095D01*
X72920238Y-72335952D01*
X72348809Y-72907380D01*
X72967857Y-72907380D01*
%TO.C,J11*%
X70815476Y-88147380D02*
X70815476Y-88861666D01*
X70767857Y-89004523D01*
X70672619Y-89099761D01*
X70529761Y-89147380D01*
X70434523Y-89147380D01*
X71815476Y-89147380D02*
X71244047Y-89147380D01*
X71529761Y-89147380D02*
X71529761Y-88147380D01*
X71434523Y-88290238D01*
X71339285Y-88385476D01*
X71244047Y-88433095D01*
X72767857Y-89147380D02*
X72196428Y-89147380D01*
X72482142Y-89147380D02*
X72482142Y-88147380D01*
X72386904Y-88290238D01*
X72291666Y-88385476D01*
X72196428Y-88433095D01*
%TO.C,J8*%
D14*
X51767523Y-78448333D02*
X52674666Y-78448333D01*
X52856095Y-78508809D01*
X52977047Y-78629761D01*
X53037523Y-78811190D01*
X53037523Y-78932142D01*
X52311809Y-77662142D02*
X52251333Y-77783095D01*
X52190857Y-77843571D01*
X52069904Y-77904047D01*
X52009428Y-77904047D01*
X51888476Y-77843571D01*
X51828000Y-77783095D01*
X51767523Y-77662142D01*
X51767523Y-77420238D01*
X51828000Y-77299285D01*
X51888476Y-77238809D01*
X52009428Y-77178333D01*
X52069904Y-77178333D01*
X52190857Y-77238809D01*
X52251333Y-77299285D01*
X52311809Y-77420238D01*
X52311809Y-77662142D01*
X52372285Y-77783095D01*
X52432761Y-77843571D01*
X52553714Y-77904047D01*
X52795619Y-77904047D01*
X52916571Y-77843571D01*
X52977047Y-77783095D01*
X53037523Y-77662142D01*
X53037523Y-77420238D01*
X52977047Y-77299285D01*
X52916571Y-77238809D01*
X52795619Y-77178333D01*
X52553714Y-77178333D01*
X52432761Y-77238809D01*
X52372285Y-77299285D01*
X52311809Y-77420238D01*
D13*
X55844428Y-81135952D02*
X55844428Y-80374047D01*
X56225380Y-80755000D02*
X55463476Y-80755000D01*
X56074428Y-75685952D02*
X56074428Y-74924047D01*
%TO.C,J7*%
D14*
X51767523Y-92873333D02*
X52674666Y-92873333D01*
X52856095Y-92933809D01*
X52977047Y-93054761D01*
X53037523Y-93236190D01*
X53037523Y-93357142D01*
X51767523Y-92389523D02*
X51767523Y-91542857D01*
X53037523Y-92087142D01*
D13*
X55844428Y-95560952D02*
X55844428Y-94799047D01*
X56225380Y-95180000D02*
X55463476Y-95180000D01*
X56074428Y-90110952D02*
X56074428Y-89349047D01*
%TO.C,J5*%
D14*
X51767523Y-122073333D02*
X52674666Y-122073333D01*
X52856095Y-122133809D01*
X52977047Y-122254761D01*
X53037523Y-122436190D01*
X53037523Y-122557142D01*
X51767523Y-120863809D02*
X51767523Y-121468571D01*
X52372285Y-121529047D01*
X52311809Y-121468571D01*
X52251333Y-121347619D01*
X52251333Y-121045238D01*
X52311809Y-120924285D01*
X52372285Y-120863809D01*
X52493238Y-120803333D01*
X52795619Y-120803333D01*
X52916571Y-120863809D01*
X52977047Y-120924285D01*
X53037523Y-121045238D01*
X53037523Y-121347619D01*
X52977047Y-121468571D01*
X52916571Y-121529047D01*
D13*
X55844428Y-124760952D02*
X55844428Y-123999047D01*
X56225380Y-124380000D02*
X55463476Y-124380000D01*
X56074428Y-119310952D02*
X56074428Y-118549047D01*
%TO.C,J2*%
D14*
X51779523Y-107473333D02*
X52686666Y-107473333D01*
X52868095Y-107533809D01*
X52989047Y-107654761D01*
X53049523Y-107836190D01*
X53049523Y-107957142D01*
X51900476Y-106929047D02*
X51840000Y-106868571D01*
X51779523Y-106747619D01*
X51779523Y-106445238D01*
X51840000Y-106324285D01*
X51900476Y-106263809D01*
X52021428Y-106203333D01*
X52142380Y-106203333D01*
X52323809Y-106263809D01*
X53049523Y-106989523D01*
X53049523Y-106203333D01*
D13*
X55856428Y-110160952D02*
X55856428Y-109399047D01*
X56237380Y-109780000D02*
X55475476Y-109780000D01*
X56086428Y-104710952D02*
X56086428Y-103949047D01*
%TO.C,H4*%
X56938095Y-65077380D02*
X56938095Y-64077380D01*
X56938095Y-64553571D02*
X57509523Y-64553571D01*
X57509523Y-65077380D02*
X57509523Y-64077380D01*
X58414285Y-64410714D02*
X58414285Y-65077380D01*
X58176190Y-64029761D02*
X57938095Y-64744047D01*
X58557142Y-64744047D01*
%TO.C,H3*%
X50013095Y-65152380D02*
X50013095Y-64152380D01*
X50013095Y-64628571D02*
X50584523Y-64628571D01*
X50584523Y-65152380D02*
X50584523Y-64152380D01*
X50965476Y-64152380D02*
X51584523Y-64152380D01*
X51251190Y-64533333D01*
X51394047Y-64533333D01*
X51489285Y-64580952D01*
X51536904Y-64628571D01*
X51584523Y-64723809D01*
X51584523Y-64961904D01*
X51536904Y-65057142D01*
X51489285Y-65104761D01*
X51394047Y-65152380D01*
X51108333Y-65152380D01*
X51013095Y-65104761D01*
X50965476Y-65057142D01*
%TO.C,J24*%
X135090476Y-65322380D02*
X135090476Y-66036666D01*
X135042857Y-66179523D01*
X134947619Y-66274761D01*
X134804761Y-66322380D01*
X134709523Y-66322380D01*
X135519047Y-65417619D02*
X135566666Y-65370000D01*
X135661904Y-65322380D01*
X135900000Y-65322380D01*
X135995238Y-65370000D01*
X136042857Y-65417619D01*
X136090476Y-65512857D01*
X136090476Y-65608095D01*
X136042857Y-65750952D01*
X135471428Y-66322380D01*
X136090476Y-66322380D01*
X136947619Y-65655714D02*
X136947619Y-66322380D01*
X136709523Y-65274761D02*
X136471428Y-65989047D01*
X137090476Y-65989047D01*
%TO.C,H8*%
X115488095Y-66302380D02*
X115488095Y-65302380D01*
X115488095Y-65778571D02*
X116059523Y-65778571D01*
X116059523Y-66302380D02*
X116059523Y-65302380D01*
X116678571Y-65730952D02*
X116583333Y-65683333D01*
X116535714Y-65635714D01*
X116488095Y-65540476D01*
X116488095Y-65492857D01*
X116535714Y-65397619D01*
X116583333Y-65350000D01*
X116678571Y-65302380D01*
X116869047Y-65302380D01*
X116964285Y-65350000D01*
X117011904Y-65397619D01*
X117059523Y-65492857D01*
X117059523Y-65540476D01*
X117011904Y-65635714D01*
X116964285Y-65683333D01*
X116869047Y-65730952D01*
X116678571Y-65730952D01*
X116583333Y-65778571D01*
X116535714Y-65826190D01*
X116488095Y-65921428D01*
X116488095Y-66111904D01*
X116535714Y-66207142D01*
X116583333Y-66254761D01*
X116678571Y-66302380D01*
X116869047Y-66302380D01*
X116964285Y-66254761D01*
X117011904Y-66207142D01*
X117059523Y-66111904D01*
X117059523Y-65921428D01*
X117011904Y-65826190D01*
X116964285Y-65778571D01*
X116869047Y-65730952D01*
%TO.C,H7*%
X121613095Y-66277380D02*
X121613095Y-65277380D01*
X121613095Y-65753571D02*
X122184523Y-65753571D01*
X122184523Y-66277380D02*
X122184523Y-65277380D01*
X122565476Y-65277380D02*
X123232142Y-65277380D01*
X122803571Y-66277380D01*
%TO.C,J3*%
D14*
X101209523Y-59613333D02*
X102116666Y-59613333D01*
X102298095Y-59673809D01*
X102419047Y-59794761D01*
X102479523Y-59976190D01*
X102479523Y-60097142D01*
X101209523Y-59129523D02*
X101209523Y-58343333D01*
X101693333Y-58766666D01*
X101693333Y-58585238D01*
X101753809Y-58464285D01*
X101814285Y-58403809D01*
X101935238Y-58343333D01*
X102237619Y-58343333D01*
X102358571Y-58403809D01*
X102419047Y-58464285D01*
X102479523Y-58585238D01*
X102479523Y-58948095D01*
X102419047Y-59069047D01*
X102358571Y-59129523D01*
%TO.C,J21*%
D13*
X92947380Y-112359523D02*
X93661666Y-112359523D01*
X93804523Y-112407142D01*
X93899761Y-112502380D01*
X93947380Y-112645238D01*
X93947380Y-112740476D01*
X93042619Y-111930952D02*
X92995000Y-111883333D01*
X92947380Y-111788095D01*
X92947380Y-111550000D01*
X92995000Y-111454761D01*
X93042619Y-111407142D01*
X93137857Y-111359523D01*
X93233095Y-111359523D01*
X93375952Y-111407142D01*
X93947380Y-111978571D01*
X93947380Y-111359523D01*
X93947380Y-110407142D02*
X93947380Y-110978571D01*
X93947380Y-110692857D02*
X92947380Y-110692857D01*
X93090238Y-110788095D01*
X93185476Y-110883333D01*
X93233095Y-110978571D01*
%TO.C,J20*%
X113990476Y-58032380D02*
X113990476Y-58746666D01*
X113942857Y-58889523D01*
X113847619Y-58984761D01*
X113704761Y-59032380D01*
X113609523Y-59032380D01*
X114419047Y-58127619D02*
X114466666Y-58080000D01*
X114561904Y-58032380D01*
X114800000Y-58032380D01*
X114895238Y-58080000D01*
X114942857Y-58127619D01*
X114990476Y-58222857D01*
X114990476Y-58318095D01*
X114942857Y-58460952D01*
X114371428Y-59032380D01*
X114990476Y-59032380D01*
X115609523Y-58032380D02*
X115704761Y-58032380D01*
X115800000Y-58080000D01*
X115847619Y-58127619D01*
X115895238Y-58222857D01*
X115942857Y-58413333D01*
X115942857Y-58651428D01*
X115895238Y-58841904D01*
X115847619Y-58937142D01*
X115800000Y-58984761D01*
X115704761Y-59032380D01*
X115609523Y-59032380D01*
X115514285Y-58984761D01*
X115466666Y-58937142D01*
X115419047Y-58841904D01*
X115371428Y-58651428D01*
X115371428Y-58413333D01*
X115419047Y-58222857D01*
X115466666Y-58127619D01*
X115514285Y-58080000D01*
X115609523Y-58032380D01*
%TO.C,J19*%
X85165476Y-61557380D02*
X85165476Y-62271666D01*
X85117857Y-62414523D01*
X85022619Y-62509761D01*
X84879761Y-62557380D01*
X84784523Y-62557380D01*
X86165476Y-62557380D02*
X85594047Y-62557380D01*
X85879761Y-62557380D02*
X85879761Y-61557380D01*
X85784523Y-61700238D01*
X85689285Y-61795476D01*
X85594047Y-61843095D01*
X86641666Y-62557380D02*
X86832142Y-62557380D01*
X86927380Y-62509761D01*
X86975000Y-62462142D01*
X87070238Y-62319285D01*
X87117857Y-62128809D01*
X87117857Y-61747857D01*
X87070238Y-61652619D01*
X87022619Y-61605000D01*
X86927380Y-61557380D01*
X86736904Y-61557380D01*
X86641666Y-61605000D01*
X86594047Y-61652619D01*
X86546428Y-61747857D01*
X86546428Y-61985952D01*
X86594047Y-62081190D01*
X86641666Y-62128809D01*
X86736904Y-62176428D01*
X86927380Y-62176428D01*
X87022619Y-62128809D01*
X87070238Y-62081190D01*
X87117857Y-61985952D01*
%TO.C,J10*%
D14*
X97334523Y-126998095D02*
X98241666Y-126998095D01*
X98423095Y-127058571D01*
X98544047Y-127179523D01*
X98604523Y-127360952D01*
X98604523Y-127481904D01*
X98604523Y-125728095D02*
X98604523Y-126453809D01*
X98604523Y-126090952D02*
X97334523Y-126090952D01*
X97515952Y-126211904D01*
X97636904Y-126332857D01*
X97697380Y-126453809D01*
X97334523Y-124941904D02*
X97334523Y-124820952D01*
X97395000Y-124700000D01*
X97455476Y-124639523D01*
X97576428Y-124579047D01*
X97818333Y-124518571D01*
X98120714Y-124518571D01*
X98362619Y-124579047D01*
X98483571Y-124639523D01*
X98544047Y-124700000D01*
X98604523Y-124820952D01*
X98604523Y-124941904D01*
X98544047Y-125062857D01*
X98483571Y-125123333D01*
X98362619Y-125183809D01*
X98120714Y-125244285D01*
X97818333Y-125244285D01*
X97576428Y-125183809D01*
X97455476Y-125123333D01*
X97395000Y-125062857D01*
X97334523Y-124941904D01*
%TO.C,J9*%
X106684523Y-126393333D02*
X107591666Y-126393333D01*
X107773095Y-126453809D01*
X107894047Y-126574761D01*
X107954523Y-126756190D01*
X107954523Y-126877142D01*
X107954523Y-125728095D02*
X107954523Y-125486190D01*
X107894047Y-125365238D01*
X107833571Y-125304761D01*
X107652142Y-125183809D01*
X107410238Y-125123333D01*
X106926428Y-125123333D01*
X106805476Y-125183809D01*
X106745000Y-125244285D01*
X106684523Y-125365238D01*
X106684523Y-125607142D01*
X106745000Y-125728095D01*
X106805476Y-125788571D01*
X106926428Y-125849047D01*
X107228809Y-125849047D01*
X107349761Y-125788571D01*
X107410238Y-125728095D01*
X107470714Y-125607142D01*
X107470714Y-125365238D01*
X107410238Y-125244285D01*
X107349761Y-125183809D01*
X107228809Y-125123333D01*
%TO.C,J6*%
X119784523Y-56293333D02*
X120691666Y-56293333D01*
X120873095Y-56353809D01*
X120994047Y-56474761D01*
X121054523Y-56656190D01*
X121054523Y-56777142D01*
X119784523Y-55144285D02*
X119784523Y-55386190D01*
X119845000Y-55507142D01*
X119905476Y-55567619D01*
X120086904Y-55688571D01*
X120328809Y-55749047D01*
X120812619Y-55749047D01*
X120933571Y-55688571D01*
X120994047Y-55628095D01*
X121054523Y-55507142D01*
X121054523Y-55265238D01*
X120994047Y-55144285D01*
X120933571Y-55083809D01*
X120812619Y-55023333D01*
X120510238Y-55023333D01*
X120389285Y-55083809D01*
X120328809Y-55144285D01*
X120268333Y-55265238D01*
X120268333Y-55507142D01*
X120328809Y-55628095D01*
X120389285Y-55688571D01*
X120510238Y-55749047D01*
%TO.C,J4*%
X129224523Y-56238333D02*
X130131666Y-56238333D01*
X130313095Y-56298809D01*
X130434047Y-56419761D01*
X130494523Y-56601190D01*
X130494523Y-56722142D01*
X129647857Y-55089285D02*
X130494523Y-55089285D01*
X129164047Y-55391666D02*
X130071190Y-55694047D01*
X130071190Y-54907857D01*
%TO.C,J1*%
X91759523Y-59663333D02*
X92666666Y-59663333D01*
X92848095Y-59723809D01*
X92969047Y-59844761D01*
X93029523Y-60026190D01*
X93029523Y-60147142D01*
X93029523Y-58393333D02*
X93029523Y-59119047D01*
X93029523Y-58756190D02*
X91759523Y-58756190D01*
X91940952Y-58877142D01*
X92061904Y-58998095D01*
X92122380Y-59119047D01*
%TO.C,H10*%
D13*
X104061904Y-109627380D02*
X104061904Y-108627380D01*
X104061904Y-109103571D02*
X104633333Y-109103571D01*
X104633333Y-109627380D02*
X104633333Y-108627380D01*
X105633333Y-109627380D02*
X105061904Y-109627380D01*
X105347619Y-109627380D02*
X105347619Y-108627380D01*
X105252380Y-108770238D01*
X105157142Y-108865476D01*
X105061904Y-108913095D01*
X106252380Y-108627380D02*
X106347619Y-108627380D01*
X106442857Y-108675000D01*
X106490476Y-108722619D01*
X106538095Y-108817857D01*
X106585714Y-109008333D01*
X106585714Y-109246428D01*
X106538095Y-109436904D01*
X106490476Y-109532142D01*
X106442857Y-109579761D01*
X106347619Y-109627380D01*
X106252380Y-109627380D01*
X106157142Y-109579761D01*
X106109523Y-109532142D01*
X106061904Y-109436904D01*
X106014285Y-109246428D01*
X106014285Y-109008333D01*
X106061904Y-108817857D01*
X106109523Y-108722619D01*
X106157142Y-108675000D01*
X106252380Y-108627380D01*
%TO.C,H9*%
X113638095Y-109352380D02*
X113638095Y-108352380D01*
X113638095Y-108828571D02*
X114209523Y-108828571D01*
X114209523Y-109352380D02*
X114209523Y-108352380D01*
X114733333Y-109352380D02*
X114923809Y-109352380D01*
X115019047Y-109304761D01*
X115066666Y-109257142D01*
X115161904Y-109114285D01*
X115209523Y-108923809D01*
X115209523Y-108542857D01*
X115161904Y-108447619D01*
X115114285Y-108400000D01*
X115019047Y-108352380D01*
X114828571Y-108352380D01*
X114733333Y-108400000D01*
X114685714Y-108447619D01*
X114638095Y-108542857D01*
X114638095Y-108780952D01*
X114685714Y-108876190D01*
X114733333Y-108923809D01*
X114828571Y-108971428D01*
X115019047Y-108971428D01*
X115114285Y-108923809D01*
X115161904Y-108876190D01*
X115209523Y-108780952D01*
%TO.C,H6*%
X127613095Y-66277380D02*
X127613095Y-65277380D01*
X127613095Y-65753571D02*
X128184523Y-65753571D01*
X128184523Y-66277380D02*
X128184523Y-65277380D01*
X129089285Y-65277380D02*
X128898809Y-65277380D01*
X128803571Y-65325000D01*
X128755952Y-65372619D01*
X128660714Y-65515476D01*
X128613095Y-65705952D01*
X128613095Y-66086904D01*
X128660714Y-66182142D01*
X128708333Y-66229761D01*
X128803571Y-66277380D01*
X128994047Y-66277380D01*
X129089285Y-66229761D01*
X129136904Y-66182142D01*
X129184523Y-66086904D01*
X129184523Y-65848809D01*
X129136904Y-65753571D01*
X129089285Y-65705952D01*
X128994047Y-65658333D01*
X128803571Y-65658333D01*
X128708333Y-65705952D01*
X128660714Y-65753571D01*
X128613095Y-65848809D01*
%TO.C,H5*%
X133663095Y-66152380D02*
X133663095Y-65152380D01*
X133663095Y-65628571D02*
X134234523Y-65628571D01*
X134234523Y-66152380D02*
X134234523Y-65152380D01*
X135186904Y-65152380D02*
X134710714Y-65152380D01*
X134663095Y-65628571D01*
X134710714Y-65580952D01*
X134805952Y-65533333D01*
X135044047Y-65533333D01*
X135139285Y-65580952D01*
X135186904Y-65628571D01*
X135234523Y-65723809D01*
X135234523Y-65961904D01*
X135186904Y-66057142D01*
X135139285Y-66104761D01*
X135044047Y-66152380D01*
X134805952Y-66152380D01*
X134710714Y-66104761D01*
X134663095Y-66057142D01*
%TO.C,H2*%
X102238095Y-46302380D02*
X102238095Y-45302380D01*
X102238095Y-45778571D02*
X102809523Y-45778571D01*
X102809523Y-46302380D02*
X102809523Y-45302380D01*
X103238095Y-45397619D02*
X103285714Y-45350000D01*
X103380952Y-45302380D01*
X103619047Y-45302380D01*
X103714285Y-45350000D01*
X103761904Y-45397619D01*
X103809523Y-45492857D01*
X103809523Y-45588095D01*
X103761904Y-45730952D01*
X103190476Y-46302380D01*
X103809523Y-46302380D01*
%TO.C,H1*%
X92238095Y-46252380D02*
X92238095Y-45252380D01*
X92238095Y-45728571D02*
X92809523Y-45728571D01*
X92809523Y-46252380D02*
X92809523Y-45252380D01*
X93809523Y-46252380D02*
X93238095Y-46252380D01*
X93523809Y-46252380D02*
X93523809Y-45252380D01*
X93428571Y-45395238D01*
X93333333Y-45490476D01*
X93238095Y-45538095D01*
%TD*%
M02*
