%TF.GenerationSoftware,KiCad,Pcbnew,(5.1.12)-1*%
%TF.CreationDate,2024-02-12T03:14:50+09:00*%
%TF.ProjectId,imu_led_connect,696d755f-6c65-4645-9f63-6f6e6e656374,rev?*%
%TF.SameCoordinates,Original*%
%TF.FileFunction,Profile,NP*%
%FSLAX46Y46*%
G04 Gerber Fmt 4.6, Leading zero omitted, Abs format (unit mm)*
G04 Created by KiCad (PCBNEW (5.1.12)-1) date 2024-02-12 03:14:50*
%MOMM*%
%LPD*%
G01*
G04 APERTURE LIST*
%TA.AperFunction,Profile*%
%ADD10C,0.200000*%
%TD*%
%TA.AperFunction,Profile*%
%ADD11C,0.050000*%
%TD*%
G04 APERTURE END LIST*
D10*
X105650000Y-105650000D02*
X98775000Y-105700000D01*
X105650000Y-104575000D02*
X105650000Y-105650000D01*
X99800000Y-104575000D02*
X105650000Y-104575000D01*
X111995190Y-105687371D02*
X107525000Y-105650000D01*
X107523031Y-104577676D02*
X107525000Y-105650000D01*
X84000000Y-130950000D02*
X83960356Y-133696211D01*
X82350000Y-130950000D02*
X82325000Y-133675000D01*
X64850000Y-134725000D02*
X82318705Y-134682986D01*
X64850000Y-130925000D02*
X64850000Y-134725000D01*
X63800000Y-134700000D02*
X63825000Y-130925000D01*
D11*
X63700000Y-134700000D02*
X63800000Y-134700000D01*
X63600000Y-134700000D02*
X63700000Y-134700000D01*
D10*
X46318705Y-134682986D02*
X63600000Y-134700000D01*
X112525000Y-81425000D02*
X112526970Y-78847324D01*
X110525000Y-78850000D02*
X110525000Y-81425000D01*
X97000000Y-104575000D02*
X99775000Y-104575000D01*
X95925000Y-105700000D02*
X98775000Y-105700000D01*
X121000000Y-74675000D02*
X121475000Y-74675000D01*
X121000000Y-73725000D02*
X121000000Y-74675000D01*
X121525000Y-73725000D02*
X121000000Y-73725000D01*
X119950000Y-73700000D02*
X118825000Y-73725000D01*
X119950000Y-74725000D02*
X119950000Y-73700000D01*
X116622004Y-74735548D02*
X119950000Y-74725000D01*
X133953003Y-74677536D02*
X121475000Y-74675000D01*
X132300000Y-73675000D02*
X135025000Y-73725000D01*
X96725000Y-73725000D02*
X99500000Y-73725000D01*
X82350000Y-95500000D02*
X82618705Y-95482986D01*
X82375000Y-77775000D02*
X82350000Y-95500000D01*
X82375000Y-98325000D02*
X82650000Y-98325000D01*
X82375000Y-101625000D02*
X82375000Y-98325000D01*
X132575000Y-104525000D02*
X135300000Y-104575000D01*
X119100000Y-104575000D02*
X121800000Y-104575000D01*
X87523031Y-75177676D02*
X107523031Y-75177676D01*
X107523031Y-75177677D02*
G75*
G02*
X110523030Y-78177676I0J-2999999D01*
G01*
X84523031Y-78177676D02*
G75*
G02*
X87523031Y-75177676I3000000J0D01*
G01*
X87523031Y-104577676D02*
G75*
G02*
X84523031Y-101577676I0J3000000D01*
G01*
X110523031Y-101577676D02*
G75*
G02*
X107523031Y-104577676I-3000000J0D01*
G01*
X88883031Y-77577676D02*
G75*
G03*
X88883031Y-77577676I-1650000J0D01*
G01*
X112525000Y-78175000D02*
X112526970Y-78847324D01*
X110523030Y-78177676D02*
X110525000Y-78850000D01*
X110525000Y-98800000D02*
X112500000Y-98800000D01*
X84523031Y-101577676D02*
X84525000Y-98300000D01*
X84500000Y-95525000D02*
X84523031Y-78177676D01*
X110550000Y-96100000D02*
X112525000Y-96100000D01*
X87523031Y-104577676D02*
X97000000Y-104575000D01*
X82618705Y-95482986D02*
X84500000Y-95525000D01*
X82650000Y-98325000D02*
X84525000Y-98300000D01*
X138523030Y-78177676D02*
X138520355Y-77175705D01*
X115523030Y-104577676D02*
G75*
G02*
X112523030Y-101577676I0J3000000D01*
G01*
X112524999Y-77124999D02*
X112525000Y-78175000D01*
X116622004Y-74735548D02*
G75*
G02*
X112524998Y-77124998I-4122004J2360548D01*
G01*
X138523030Y-78177676D02*
X138523030Y-101577676D01*
X133953003Y-74677536D02*
G75*
G03*
X138520355Y-77175705I4321997J2477536D01*
G01*
X135300000Y-104575000D02*
X135523030Y-104577676D01*
X119100000Y-104575000D02*
X115523030Y-104577676D01*
X112500000Y-98800000D02*
X112523030Y-101577676D01*
X138523030Y-101577676D02*
G75*
G02*
X135523030Y-104577676I-3000000J0D01*
G01*
X121800000Y-104575000D02*
X132575000Y-104525000D01*
X112525000Y-96100000D02*
X112525000Y-81425000D01*
X110525000Y-81425000D02*
X110550000Y-96100000D01*
X110523031Y-101577676D02*
X110525000Y-98800000D01*
X82350000Y-60225000D02*
X82250000Y-60225000D01*
X82343705Y-64632986D02*
X82350000Y-60225000D01*
X64850000Y-60225000D02*
X82250000Y-60225000D01*
X64843705Y-64632986D02*
X64850000Y-60225000D01*
X63850000Y-60275000D02*
X63650000Y-60275000D01*
X63843705Y-64632986D02*
X63850000Y-60275000D01*
X46350000Y-60325000D02*
X63650000Y-60275000D01*
X46343705Y-64632986D02*
X46350000Y-60325000D01*
X116347004Y-43885548D02*
X133678003Y-43827536D01*
X133678003Y-43827536D02*
G75*
G03*
X138245355Y-46325705I4321997J2477536D01*
G01*
X116347004Y-43885548D02*
G75*
G02*
X112249998Y-46274998I-4122004J2360548D01*
G01*
X112249999Y-46274999D02*
X112250000Y-47325000D01*
X104625000Y-141675000D02*
G75*
G03*
X104625000Y-141675000I-1650000J0D01*
G01*
X135025000Y-73725000D02*
X135248030Y-73727676D01*
X138248030Y-70727676D02*
G75*
G02*
X135248030Y-73727676I-3000000J0D01*
G01*
X138248030Y-47327676D02*
X138248030Y-70727676D01*
X112225000Y-67950000D02*
X112248030Y-70727676D01*
X118825000Y-73725000D02*
X115248030Y-73727676D01*
X110248031Y-70727676D02*
X110250000Y-67950000D01*
X63825000Y-97925000D02*
X64850000Y-97925000D01*
X110250000Y-50575000D02*
X110275000Y-65250000D01*
X112250000Y-65250000D02*
X112250000Y-50575000D01*
X121525000Y-73725000D02*
X132300000Y-73675000D01*
X93960356Y-105687371D02*
X95925000Y-105700000D01*
X83975000Y-115775000D02*
X83960356Y-115687371D01*
X82375000Y-115775000D02*
X83975000Y-115775000D01*
X82375000Y-118075000D02*
X84000000Y-118075000D01*
X93960356Y-143696211D02*
X112058032Y-143696211D01*
X121995129Y-115652476D02*
X122057971Y-133661316D01*
X138248030Y-47327676D02*
X138245355Y-46325705D01*
X110250000Y-50575000D02*
X112250000Y-50575000D01*
X110250000Y-48000000D02*
X112251970Y-47997324D01*
X82375000Y-77625000D02*
X82375000Y-77775000D01*
X82375000Y-67475000D02*
X84250000Y-67450000D01*
X82343705Y-64632986D02*
X84225000Y-64675000D01*
X63825000Y-95250000D02*
X64900000Y-95275000D01*
X63775000Y-67575000D02*
X64850000Y-67600000D01*
X63843705Y-64632986D02*
X64843705Y-64632986D01*
X46343705Y-64632986D02*
X46318705Y-134682986D01*
X87550000Y-124690141D02*
G75*
G03*
X87550000Y-124690141I-1650000J0D01*
G01*
X121650000Y-124661648D02*
G75*
G03*
X121650000Y-124661648I-1650000J0D01*
G01*
X104629262Y-107650000D02*
G75*
G03*
X104629262Y-107650000I-1650000J0D01*
G01*
X112250000Y-47325000D02*
X112251970Y-47997324D01*
X110248030Y-47327676D02*
X110250000Y-48000000D01*
X110275000Y-65250000D02*
X112250000Y-65250000D01*
X110250000Y-67950000D02*
X112225000Y-67950000D01*
X107248031Y-73727676D02*
X99500000Y-73725000D01*
X87248031Y-73727676D02*
X96725000Y-73725000D01*
X84225000Y-64675000D02*
X84248031Y-47327676D01*
X84248031Y-70727676D02*
X84250000Y-67450000D01*
X84000000Y-118075000D02*
X84000000Y-130950000D01*
X82318705Y-134682986D02*
X82325000Y-133675000D01*
X82375000Y-118075000D02*
X82350000Y-130950000D01*
X82375000Y-101625000D02*
X82375000Y-115775000D01*
X82375000Y-67475000D02*
X82375000Y-77625000D01*
X64850000Y-97925000D02*
X64850000Y-130925000D01*
X63825000Y-97925000D02*
X63825000Y-130925000D01*
X64850000Y-67600000D02*
X64900000Y-95275000D01*
X63775000Y-67575000D02*
X63825000Y-95250000D01*
X107248031Y-44327677D02*
G75*
G02*
X110248030Y-47327676I0J-2999999D01*
G01*
X84248031Y-47327676D02*
G75*
G02*
X87248031Y-44327676I3000000J0D01*
G01*
X110248031Y-70727676D02*
G75*
G02*
X107248031Y-73727676I-3000000J0D01*
G01*
X88608031Y-46727676D02*
G75*
G03*
X88608031Y-46727676I-1650000J0D01*
G01*
X122057971Y-133661316D02*
G75*
G02*
X112058032Y-143696211I-9999939J-34895D01*
G01*
X83960356Y-115687371D02*
G75*
G02*
X93960356Y-105687371I10000000J0D01*
G01*
X87248031Y-73727676D02*
G75*
G02*
X84248031Y-70727676I0J3000000D01*
G01*
X87248031Y-44327676D02*
X107248031Y-44327676D01*
X93960356Y-143696211D02*
G75*
G02*
X83960356Y-133696211I0J10000000D01*
G01*
X111995190Y-105687371D02*
G75*
G02*
X121995129Y-115652476I0J-10000000D01*
G01*
X75243705Y-63000000D02*
G75*
G03*
X75243705Y-63000000I-1650000J0D01*
G01*
X115248030Y-73727676D02*
G75*
G02*
X112248030Y-70727676I0J3000000D01*
G01*
X75218705Y-132000000D02*
G75*
G03*
X75218705Y-132000000I-1650000J0D01*
G01*
X56718705Y-132000000D02*
G75*
G03*
X56718705Y-132000000I-1650000J0D01*
G01*
X56743705Y-63000000D02*
G75*
G03*
X56743705Y-63000000I-1650000J0D01*
G01*
M02*
